G04 (created by PCBNEW (22-Jun-2014 BZR 4027)-stable) date Tue Mar 31 02:57:52 2015*
%MOIN*%
G04 Gerber Fmt 3.4, Leading zero omitted, Abs format*
%FSLAX34Y34*%
G01*
G70*
G90*
G04 APERTURE LIST*
%ADD10C,0.00590551*%
%ADD11R,0.06X0.06*%
%ADD12C,0.06*%
%ADD13R,0.0590551X0.0590551*%
%ADD14R,0.0315X0.0275*%
%ADD15R,0.0275X0.0315*%
%ADD16R,0.0472X0.0591*%
%ADD17R,0.0591X0.0472*%
%ADD18C,0.055*%
%ADD19R,0.0236X0.0098*%
%ADD20R,0.0098X0.0236*%
%ADD21R,0.0551X0.0236*%
%ADD22R,0.06X0.01*%
%ADD23R,0.01X0.06*%
%ADD24C,0.066*%
%ADD25C,0.2*%
%ADD26R,0.055X0.055*%
%ADD27R,0.144X0.08*%
%ADD28R,0.04X0.08*%
G04 APERTURE END LIST*
G54D10*
G54D11*
X71350Y-31397D03*
G54D12*
X72350Y-31397D03*
G54D13*
X56397Y-13090D03*
G54D14*
X64487Y-9842D03*
X64055Y-9842D03*
G54D15*
X63976Y-11102D03*
X63976Y-11534D03*
G54D16*
X53444Y-44901D03*
X53444Y-43877D03*
G54D11*
X57381Y-51574D03*
G54D17*
X55531Y-45669D03*
X54507Y-45669D03*
G54D16*
X64370Y-43622D03*
X64370Y-42598D03*
X66240Y-40078D03*
X66240Y-39054D03*
X68799Y-37913D03*
X68799Y-36889D03*
X57086Y-42145D03*
X57086Y-41121D03*
X55610Y-39389D03*
X55610Y-38365D03*
G54D18*
X63295Y-50393D03*
X62295Y-50393D03*
X62015Y-7578D03*
X61015Y-7578D03*
G54D16*
X72637Y-8878D03*
X72637Y-7854D03*
X71456Y-8878D03*
X71456Y-7854D03*
G54D18*
X66141Y-18708D03*
X66141Y-17708D03*
G54D19*
X62736Y-13681D03*
X62736Y-13878D03*
X62736Y-14075D03*
X62736Y-14272D03*
X62736Y-14468D03*
X62736Y-14665D03*
X62736Y-14862D03*
X62736Y-15059D03*
X62736Y-15256D03*
X62736Y-15453D03*
X62736Y-15650D03*
X62736Y-15846D03*
X65412Y-14270D03*
X65412Y-14074D03*
X65412Y-13877D03*
X65412Y-13680D03*
G54D20*
X63779Y-16102D03*
X63975Y-16102D03*
X64172Y-16102D03*
X64369Y-16102D03*
X64566Y-16102D03*
X64763Y-16102D03*
X64960Y-16102D03*
X65157Y-16102D03*
X62992Y-16102D03*
X63189Y-16102D03*
X63386Y-16102D03*
X63582Y-16102D03*
G54D19*
X65412Y-15845D03*
X65413Y-15648D03*
X65413Y-15452D03*
X65413Y-15255D03*
X65413Y-15058D03*
X65413Y-14861D03*
X65413Y-14664D03*
X65413Y-14467D03*
G54D20*
X65157Y-13425D03*
X64960Y-13425D03*
X64763Y-13425D03*
X64567Y-13425D03*
X64370Y-13425D03*
X64173Y-13425D03*
X63976Y-13425D03*
X63779Y-13425D03*
X63582Y-13425D03*
X63385Y-13425D03*
X63189Y-13425D03*
X62992Y-13425D03*
G54D21*
X61942Y-48683D03*
X64042Y-48683D03*
X61942Y-48183D03*
X61942Y-47683D03*
X61942Y-47183D03*
X64042Y-48183D03*
X64042Y-47683D03*
X64042Y-47183D03*
G54D22*
X58863Y-28936D03*
X58863Y-29136D03*
X58863Y-29331D03*
X58863Y-29526D03*
X58863Y-29726D03*
X58863Y-29921D03*
X58863Y-30116D03*
X58863Y-30316D03*
X58863Y-30511D03*
X58863Y-30706D03*
X58863Y-30906D03*
X58863Y-31101D03*
X58863Y-31296D03*
X58863Y-31496D03*
X58863Y-31691D03*
X58863Y-31886D03*
X58863Y-32086D03*
X58863Y-32281D03*
X58863Y-32481D03*
X58863Y-32676D03*
X58863Y-32876D03*
X58863Y-33071D03*
X58863Y-33266D03*
X58863Y-33466D03*
X58863Y-33661D03*
X58863Y-33856D03*
X58863Y-34056D03*
X58863Y-34251D03*
X58863Y-34446D03*
X58863Y-34646D03*
X58863Y-34841D03*
X58863Y-35036D03*
X58863Y-35236D03*
X58863Y-35431D03*
X58863Y-35626D03*
X58863Y-35826D03*
G54D23*
X65453Y-36706D03*
X65648Y-36706D03*
X65843Y-36706D03*
X66043Y-36706D03*
X66238Y-36706D03*
X66433Y-36706D03*
X66633Y-36706D03*
X65648Y-28056D03*
X65453Y-28056D03*
X65253Y-28056D03*
X65058Y-28056D03*
X64863Y-28056D03*
X64663Y-28056D03*
X64468Y-28056D03*
X64273Y-28056D03*
X64073Y-28056D03*
X63878Y-28056D03*
X63683Y-28056D03*
X63483Y-28056D03*
X63288Y-28056D03*
X63088Y-28056D03*
X62893Y-28056D03*
X62693Y-28056D03*
X62498Y-28056D03*
X62303Y-28056D03*
X62103Y-28056D03*
X61908Y-28056D03*
X61713Y-28056D03*
X61513Y-28056D03*
X61318Y-28056D03*
X61123Y-28056D03*
X60923Y-28056D03*
X60728Y-28056D03*
X60533Y-28056D03*
X60333Y-28056D03*
X60138Y-28056D03*
X59943Y-28056D03*
X59743Y-28056D03*
X59743Y-36706D03*
X59943Y-36706D03*
X60138Y-36706D03*
X60333Y-36706D03*
X60533Y-36706D03*
X60728Y-36706D03*
X60923Y-36706D03*
X61123Y-36706D03*
X61318Y-36706D03*
X61513Y-36706D03*
X61713Y-36706D03*
X61908Y-36706D03*
X62103Y-36706D03*
X62303Y-36706D03*
X62498Y-36706D03*
X62693Y-36706D03*
X62893Y-36706D03*
X63088Y-36706D03*
X63288Y-36706D03*
X63483Y-36706D03*
X63683Y-36706D03*
X63878Y-36706D03*
X64073Y-36706D03*
X64273Y-36706D03*
X64468Y-36706D03*
X64663Y-36706D03*
X64863Y-36706D03*
X65058Y-36706D03*
X65253Y-36706D03*
G54D22*
X67513Y-34841D03*
X67513Y-34646D03*
X67513Y-34446D03*
X67513Y-34251D03*
X67513Y-34056D03*
X67513Y-33856D03*
X67513Y-33661D03*
X67513Y-33466D03*
X67513Y-33266D03*
X67513Y-33071D03*
X67513Y-32876D03*
X67513Y-32676D03*
X67513Y-32481D03*
X67513Y-32281D03*
X67513Y-32086D03*
X67513Y-31886D03*
X67513Y-31691D03*
X67513Y-31496D03*
X67513Y-31296D03*
X67513Y-31101D03*
X67513Y-30906D03*
X67513Y-30706D03*
X67513Y-30511D03*
X67513Y-30316D03*
X67513Y-30116D03*
X67513Y-29921D03*
X67513Y-29726D03*
X67513Y-29526D03*
X67513Y-29331D03*
X67513Y-29136D03*
X67513Y-28936D03*
X67513Y-35826D03*
X67513Y-35626D03*
X67513Y-35431D03*
X67513Y-35236D03*
X67513Y-35036D03*
G54D23*
X66633Y-28056D03*
X66433Y-28056D03*
X66238Y-28056D03*
X66043Y-28056D03*
X65843Y-28056D03*
G54D11*
X61507Y-41110D03*
G54D12*
X62507Y-41110D03*
X61507Y-42110D03*
X62507Y-42110D03*
X61507Y-43110D03*
X62507Y-43110D03*
X61507Y-44110D03*
X62507Y-44110D03*
X61507Y-45110D03*
X62507Y-45110D03*
G54D11*
X54618Y-40421D03*
G54D12*
X55618Y-40421D03*
X54618Y-41421D03*
X55618Y-41421D03*
X54618Y-42421D03*
X55618Y-42421D03*
X54618Y-43421D03*
X55618Y-43421D03*
X54618Y-44421D03*
X55618Y-44421D03*
G54D24*
X67700Y-13752D03*
X67700Y-14652D03*
X67700Y-15552D03*
X67700Y-16452D03*
X67700Y-17352D03*
X68700Y-13302D03*
X68700Y-14202D03*
X68700Y-15102D03*
X68700Y-16002D03*
X68700Y-16902D03*
X69700Y-13752D03*
X69700Y-14652D03*
X69700Y-15552D03*
X69700Y-16452D03*
X69700Y-17352D03*
G54D25*
X68700Y-10532D03*
X68700Y-20372D03*
G54D16*
X68799Y-8878D03*
X68799Y-7854D03*
X69881Y-8878D03*
X69881Y-7854D03*
X67716Y-8878D03*
X67716Y-7854D03*
X71555Y-23740D03*
X71555Y-22716D03*
X70472Y-23740D03*
X70472Y-22716D03*
G54D13*
X56397Y-12204D03*
G54D26*
X63915Y-7677D03*
G54D18*
X65415Y-7677D03*
X64854Y-11023D03*
X65854Y-11023D03*
G54D15*
X65255Y-14547D03*
X65255Y-14979D03*
X63188Y-9823D03*
X63188Y-10255D03*
G54D10*
G36*
X67463Y-28091D02*
X67658Y-27896D01*
X67881Y-28119D01*
X67686Y-28314D01*
X67463Y-28091D01*
X67463Y-28091D01*
G37*
G36*
X67158Y-27785D02*
X67352Y-27591D01*
X67575Y-27814D01*
X67381Y-28008D01*
X67158Y-27785D01*
X67158Y-27785D01*
G37*
G54D18*
X67708Y-26771D03*
X68708Y-26771D03*
G54D26*
X67163Y-23917D03*
G54D18*
X68663Y-23917D03*
G54D11*
X56988Y-35826D03*
G54D27*
X57874Y-47953D03*
G54D28*
X57874Y-45353D03*
X56974Y-45353D03*
X58774Y-45353D03*
G54D18*
X58956Y-43216D03*
X58956Y-42216D03*
G54D26*
X58994Y-50098D03*
G54D18*
X60494Y-50098D03*
G54D26*
X55216Y-50356D03*
G54D18*
X55216Y-48856D03*
X53929Y-46948D03*
X54929Y-46948D03*
G54D26*
X66830Y-41366D03*
G54D18*
X66830Y-42366D03*
X66830Y-43366D03*
X66830Y-44366D03*
X66830Y-45366D03*
X66830Y-46366D03*
X66830Y-47366D03*
X66830Y-48366D03*
X66830Y-49366D03*
X66830Y-50366D03*
G54D26*
X58358Y-6988D03*
G54D18*
X59358Y-6988D03*
G54D26*
X58358Y-9350D03*
G54D18*
X59358Y-9350D03*
X58358Y-11122D03*
X59358Y-11122D03*
G54D11*
X71350Y-29724D03*
G54D12*
X72350Y-29724D03*
M02*
