G04 (created by PCBNEW (22-Jun-2014 BZR 4027)-stable) date Tue Mar 31 03:02:01 2015*
%MOIN*%
G04 Gerber Fmt 3.4, Leading zero omitted, Abs format*
%FSLAX34Y34*%
G01*
G70*
G90*
G04 APERTURE LIST*
%ADD10C,0.00590551*%
%ADD11C,0.00393701*%
%ADD12C,0.011811*%
%ADD13C,0.00492126*%
%ADD14C,0.00738189*%
%ADD15C,0.015*%
%ADD16C,0.006*%
%ADD17C,0.005*%
%ADD18C,0.012*%
%ADD19C,0.008*%
%ADD20C,0.0012*%
%ADD21C,0.01*%
%ADD22C,0.0107*%
%ADD23C,0.0075*%
G04 APERTURE END LIST*
G54D10*
G54D11*
X53285Y-6097D02*
X53679Y-6097D01*
X53285Y-6266D02*
X53491Y-6266D01*
X53529Y-6247D01*
X53547Y-6210D01*
X53547Y-6153D01*
X53529Y-6116D01*
X53510Y-6097D01*
X53547Y-6397D02*
X53547Y-6547D01*
X53679Y-6453D02*
X53341Y-6453D01*
X53304Y-6472D01*
X53285Y-6510D01*
X53285Y-6547D01*
X53547Y-6622D02*
X53547Y-6772D01*
X53679Y-6678D02*
X53341Y-6678D01*
X53304Y-6697D01*
X53285Y-6735D01*
X53285Y-6772D01*
X53547Y-6903D02*
X53154Y-6903D01*
X53529Y-6903D02*
X53547Y-6941D01*
X53547Y-7016D01*
X53529Y-7053D01*
X53510Y-7072D01*
X53473Y-7091D01*
X53360Y-7091D01*
X53323Y-7072D01*
X53304Y-7053D01*
X53285Y-7016D01*
X53285Y-6941D01*
X53304Y-6903D01*
X53304Y-7241D02*
X53285Y-7278D01*
X53285Y-7353D01*
X53304Y-7391D01*
X53341Y-7410D01*
X53360Y-7410D01*
X53398Y-7391D01*
X53416Y-7353D01*
X53416Y-7297D01*
X53435Y-7260D01*
X53473Y-7241D01*
X53491Y-7241D01*
X53529Y-7260D01*
X53547Y-7297D01*
X53547Y-7353D01*
X53529Y-7391D01*
X53323Y-7578D02*
X53304Y-7597D01*
X53285Y-7578D01*
X53304Y-7559D01*
X53323Y-7578D01*
X53285Y-7578D01*
X53529Y-7578D02*
X53510Y-7597D01*
X53491Y-7578D01*
X53510Y-7559D01*
X53529Y-7578D01*
X53491Y-7578D01*
X53697Y-8047D02*
X53191Y-7709D01*
X53697Y-8459D02*
X53191Y-8122D01*
X53547Y-8759D02*
X53229Y-8759D01*
X53191Y-8741D01*
X53173Y-8722D01*
X53154Y-8684D01*
X53154Y-8628D01*
X53173Y-8591D01*
X53304Y-8759D02*
X53285Y-8722D01*
X53285Y-8647D01*
X53304Y-8609D01*
X53323Y-8591D01*
X53360Y-8572D01*
X53473Y-8572D01*
X53510Y-8591D01*
X53529Y-8609D01*
X53547Y-8647D01*
X53547Y-8722D01*
X53529Y-8759D01*
X53285Y-8947D02*
X53547Y-8947D01*
X53679Y-8947D02*
X53660Y-8928D01*
X53641Y-8947D01*
X53660Y-8966D01*
X53679Y-8947D01*
X53641Y-8947D01*
X53547Y-9078D02*
X53547Y-9228D01*
X53679Y-9134D02*
X53341Y-9134D01*
X53304Y-9153D01*
X53285Y-9191D01*
X53285Y-9228D01*
X53285Y-9359D02*
X53679Y-9359D01*
X53285Y-9528D02*
X53491Y-9528D01*
X53529Y-9509D01*
X53547Y-9472D01*
X53547Y-9416D01*
X53529Y-9378D01*
X53510Y-9359D01*
X53547Y-9884D02*
X53285Y-9884D01*
X53547Y-9715D02*
X53341Y-9715D01*
X53304Y-9734D01*
X53285Y-9772D01*
X53285Y-9828D01*
X53304Y-9865D01*
X53323Y-9884D01*
X53285Y-10072D02*
X53679Y-10072D01*
X53529Y-10072D02*
X53547Y-10109D01*
X53547Y-10184D01*
X53529Y-10222D01*
X53510Y-10240D01*
X53473Y-10259D01*
X53360Y-10259D01*
X53323Y-10240D01*
X53304Y-10222D01*
X53285Y-10184D01*
X53285Y-10109D01*
X53304Y-10072D01*
X53323Y-10428D02*
X53304Y-10447D01*
X53285Y-10428D01*
X53304Y-10409D01*
X53323Y-10428D01*
X53285Y-10428D01*
X53304Y-10784D02*
X53285Y-10747D01*
X53285Y-10672D01*
X53304Y-10634D01*
X53323Y-10615D01*
X53360Y-10597D01*
X53473Y-10597D01*
X53510Y-10615D01*
X53529Y-10634D01*
X53547Y-10672D01*
X53547Y-10747D01*
X53529Y-10784D01*
X53285Y-11009D02*
X53304Y-10972D01*
X53323Y-10953D01*
X53360Y-10934D01*
X53473Y-10934D01*
X53510Y-10953D01*
X53529Y-10972D01*
X53547Y-11009D01*
X53547Y-11065D01*
X53529Y-11103D01*
X53510Y-11122D01*
X53473Y-11140D01*
X53360Y-11140D01*
X53323Y-11122D01*
X53304Y-11103D01*
X53285Y-11065D01*
X53285Y-11009D01*
X53285Y-11309D02*
X53547Y-11309D01*
X53510Y-11309D02*
X53529Y-11328D01*
X53547Y-11365D01*
X53547Y-11422D01*
X53529Y-11459D01*
X53491Y-11478D01*
X53285Y-11478D01*
X53491Y-11478D02*
X53529Y-11497D01*
X53547Y-11534D01*
X53547Y-11590D01*
X53529Y-11628D01*
X53491Y-11646D01*
X53285Y-11646D01*
X53697Y-12115D02*
X53191Y-11778D01*
X53285Y-12246D02*
X53679Y-12246D01*
X53398Y-12378D01*
X53679Y-12509D01*
X53285Y-12509D01*
X53285Y-12696D02*
X53547Y-12696D01*
X53679Y-12696D02*
X53660Y-12678D01*
X53641Y-12696D01*
X53660Y-12715D01*
X53679Y-12696D01*
X53641Y-12696D01*
X53285Y-12884D02*
X53679Y-12884D01*
X53435Y-12921D02*
X53285Y-13034D01*
X53547Y-13034D02*
X53398Y-12884D01*
X53304Y-13353D02*
X53285Y-13315D01*
X53285Y-13240D01*
X53304Y-13203D01*
X53341Y-13184D01*
X53491Y-13184D01*
X53529Y-13203D01*
X53547Y-13240D01*
X53547Y-13315D01*
X53529Y-13353D01*
X53491Y-13371D01*
X53454Y-13371D01*
X53416Y-13184D01*
X53547Y-13540D02*
X53210Y-13540D01*
X53173Y-13521D01*
X53154Y-13484D01*
X53154Y-13465D01*
X53679Y-13540D02*
X53660Y-13521D01*
X53641Y-13540D01*
X53660Y-13559D01*
X53679Y-13540D01*
X53641Y-13540D01*
X53285Y-13727D02*
X53547Y-13727D01*
X53510Y-13727D02*
X53529Y-13746D01*
X53547Y-13784D01*
X53547Y-13840D01*
X53529Y-13877D01*
X53491Y-13896D01*
X53285Y-13896D01*
X53491Y-13896D02*
X53529Y-13915D01*
X53547Y-13952D01*
X53547Y-14009D01*
X53529Y-14046D01*
X53491Y-14065D01*
X53285Y-14065D01*
X53285Y-14309D02*
X53304Y-14271D01*
X53323Y-14252D01*
X53360Y-14234D01*
X53473Y-14234D01*
X53510Y-14252D01*
X53529Y-14271D01*
X53547Y-14309D01*
X53547Y-14365D01*
X53529Y-14402D01*
X53510Y-14421D01*
X53473Y-14440D01*
X53360Y-14440D01*
X53323Y-14421D01*
X53304Y-14402D01*
X53285Y-14365D01*
X53285Y-14309D01*
X53547Y-14552D02*
X53547Y-14702D01*
X53285Y-14609D02*
X53622Y-14609D01*
X53660Y-14627D01*
X53679Y-14665D01*
X53679Y-14702D01*
X53547Y-14777D02*
X53547Y-14927D01*
X53285Y-14834D02*
X53622Y-14834D01*
X53660Y-14852D01*
X53679Y-14890D01*
X53679Y-14927D01*
X53285Y-15059D02*
X53547Y-15059D01*
X53679Y-15059D02*
X53660Y-15040D01*
X53641Y-15059D01*
X53660Y-15077D01*
X53679Y-15059D01*
X53641Y-15059D01*
X53547Y-15190D02*
X53547Y-15340D01*
X53679Y-15246D02*
X53341Y-15246D01*
X53304Y-15265D01*
X53285Y-15302D01*
X53285Y-15340D01*
X53547Y-15415D02*
X53547Y-15565D01*
X53679Y-15471D02*
X53341Y-15471D01*
X53304Y-15490D01*
X53285Y-15527D01*
X53285Y-15565D01*
G54D12*
X54190Y-6144D02*
X54780Y-6144D01*
X54190Y-6482D01*
X54780Y-6482D01*
X54780Y-7016D02*
X54780Y-6903D01*
X54752Y-6847D01*
X54724Y-6819D01*
X54640Y-6763D01*
X54527Y-6735D01*
X54302Y-6735D01*
X54246Y-6763D01*
X54218Y-6791D01*
X54190Y-6847D01*
X54190Y-6960D01*
X54218Y-7016D01*
X54246Y-7044D01*
X54302Y-7072D01*
X54443Y-7072D01*
X54499Y-7044D01*
X54527Y-7016D01*
X54555Y-6960D01*
X54555Y-6847D01*
X54527Y-6791D01*
X54499Y-6763D01*
X54443Y-6735D01*
X54583Y-7578D02*
X54190Y-7578D01*
X54808Y-7438D02*
X54386Y-7297D01*
X54386Y-7663D01*
X54527Y-7972D02*
X54555Y-7916D01*
X54583Y-7888D01*
X54640Y-7859D01*
X54668Y-7859D01*
X54724Y-7888D01*
X54752Y-7916D01*
X54780Y-7972D01*
X54780Y-8084D01*
X54752Y-8141D01*
X54724Y-8169D01*
X54668Y-8197D01*
X54640Y-8197D01*
X54583Y-8169D01*
X54555Y-8141D01*
X54527Y-8084D01*
X54527Y-7972D01*
X54499Y-7916D01*
X54471Y-7888D01*
X54415Y-7859D01*
X54302Y-7859D01*
X54246Y-7888D01*
X54218Y-7916D01*
X54190Y-7972D01*
X54190Y-8084D01*
X54218Y-8141D01*
X54246Y-8169D01*
X54302Y-8197D01*
X54415Y-8197D01*
X54471Y-8169D01*
X54499Y-8141D01*
X54527Y-8084D01*
X54780Y-8562D02*
X54780Y-8619D01*
X54752Y-8675D01*
X54724Y-8703D01*
X54668Y-8731D01*
X54555Y-8759D01*
X54415Y-8759D01*
X54302Y-8731D01*
X54246Y-8703D01*
X54218Y-8675D01*
X54190Y-8619D01*
X54190Y-8562D01*
X54218Y-8506D01*
X54246Y-8478D01*
X54302Y-8450D01*
X54415Y-8422D01*
X54555Y-8422D01*
X54668Y-8450D01*
X54724Y-8478D01*
X54752Y-8506D01*
X54780Y-8562D01*
X54415Y-9462D02*
X54415Y-9912D01*
X54190Y-10643D02*
X54780Y-10643D01*
X54190Y-10981D01*
X54780Y-10981D01*
X54780Y-11515D02*
X54780Y-11403D01*
X54752Y-11347D01*
X54724Y-11318D01*
X54640Y-11262D01*
X54527Y-11234D01*
X54302Y-11234D01*
X54246Y-11262D01*
X54218Y-11290D01*
X54190Y-11347D01*
X54190Y-11459D01*
X54218Y-11515D01*
X54246Y-11543D01*
X54302Y-11571D01*
X54443Y-11571D01*
X54499Y-11543D01*
X54527Y-11515D01*
X54555Y-11459D01*
X54555Y-11347D01*
X54527Y-11290D01*
X54499Y-11262D01*
X54443Y-11234D01*
X54583Y-12078D02*
X54190Y-12078D01*
X54808Y-11937D02*
X54386Y-11796D01*
X54386Y-12162D01*
X54583Y-12753D02*
X54583Y-12978D01*
X54780Y-12837D02*
X54274Y-12837D01*
X54218Y-12865D01*
X54190Y-12921D01*
X54190Y-12978D01*
X54190Y-13259D02*
X54218Y-13203D01*
X54246Y-13174D01*
X54302Y-13146D01*
X54471Y-13146D01*
X54527Y-13174D01*
X54555Y-13203D01*
X54583Y-13259D01*
X54583Y-13343D01*
X54555Y-13399D01*
X54527Y-13428D01*
X54471Y-13456D01*
X54302Y-13456D01*
X54246Y-13428D01*
X54218Y-13399D01*
X54190Y-13343D01*
X54190Y-13259D01*
X54780Y-14074D02*
X54190Y-14271D01*
X54780Y-14468D01*
X54752Y-14974D02*
X54780Y-14918D01*
X54780Y-14834D01*
X54752Y-14749D01*
X54696Y-14693D01*
X54640Y-14665D01*
X54527Y-14637D01*
X54443Y-14637D01*
X54330Y-14665D01*
X54274Y-14693D01*
X54218Y-14749D01*
X54190Y-14834D01*
X54190Y-14890D01*
X54218Y-14974D01*
X54246Y-15002D01*
X54443Y-15002D01*
X54443Y-14890D01*
X54358Y-15227D02*
X54358Y-15508D01*
X54190Y-15171D02*
X54780Y-15368D01*
X54190Y-15565D01*
X54218Y-16183D02*
X54190Y-16268D01*
X54190Y-16408D01*
X54218Y-16465D01*
X54246Y-16493D01*
X54302Y-16521D01*
X54358Y-16521D01*
X54415Y-16493D01*
X54443Y-16465D01*
X54471Y-16408D01*
X54499Y-16296D01*
X54527Y-16240D01*
X54555Y-16212D01*
X54611Y-16183D01*
X54668Y-16183D01*
X54724Y-16212D01*
X54752Y-16240D01*
X54780Y-16296D01*
X54780Y-16437D01*
X54752Y-16521D01*
X54218Y-17027D02*
X54190Y-16971D01*
X54190Y-16858D01*
X54218Y-16802D01*
X54246Y-16774D01*
X54302Y-16746D01*
X54471Y-16746D01*
X54527Y-16774D01*
X54555Y-16802D01*
X54583Y-16858D01*
X54583Y-16971D01*
X54555Y-17027D01*
X54190Y-17533D02*
X54499Y-17533D01*
X54555Y-17505D01*
X54583Y-17449D01*
X54583Y-17336D01*
X54555Y-17280D01*
X54218Y-17533D02*
X54190Y-17477D01*
X54190Y-17336D01*
X54218Y-17280D01*
X54274Y-17252D01*
X54330Y-17252D01*
X54386Y-17280D01*
X54415Y-17336D01*
X54415Y-17477D01*
X54443Y-17533D01*
X54190Y-17899D02*
X54218Y-17843D01*
X54274Y-17814D01*
X54780Y-17814D01*
X54218Y-18349D02*
X54190Y-18293D01*
X54190Y-18180D01*
X54218Y-18124D01*
X54274Y-18096D01*
X54499Y-18096D01*
X54555Y-18124D01*
X54583Y-18180D01*
X54583Y-18293D01*
X54555Y-18349D01*
X54499Y-18377D01*
X54443Y-18377D01*
X54386Y-18096D01*
X54190Y-18630D02*
X54583Y-18630D01*
X54471Y-18630D02*
X54527Y-18658D01*
X54555Y-18686D01*
X54583Y-18742D01*
X54583Y-18799D01*
G54D13*
X53327Y-45552D02*
X53215Y-45552D01*
X53271Y-45552D02*
X53271Y-45355D01*
X53252Y-45383D01*
X53233Y-45402D01*
X53215Y-45411D01*
X53412Y-45552D02*
X53412Y-45355D01*
X53524Y-45552D02*
X53440Y-45439D01*
X53524Y-45355D02*
X53412Y-45467D01*
X53871Y-45552D02*
X53805Y-45458D01*
X53758Y-45552D02*
X53758Y-45355D01*
X53833Y-45355D01*
X53852Y-45364D01*
X53862Y-45374D01*
X53871Y-45392D01*
X53871Y-45420D01*
X53862Y-45439D01*
X53852Y-45449D01*
X53833Y-45458D01*
X53758Y-45458D01*
G54D14*
X56074Y-51511D02*
X56046Y-51497D01*
X56003Y-51497D01*
X55961Y-51511D01*
X55933Y-51539D01*
X55919Y-51567D01*
X55905Y-51624D01*
X55905Y-51666D01*
X55919Y-51722D01*
X55933Y-51750D01*
X55961Y-51778D01*
X56003Y-51792D01*
X56032Y-51792D01*
X56074Y-51778D01*
X56088Y-51764D01*
X56088Y-51666D01*
X56032Y-51666D01*
X56214Y-51792D02*
X56214Y-51497D01*
X56383Y-51792D01*
X56383Y-51497D01*
X56524Y-51792D02*
X56524Y-51497D01*
X56594Y-51497D01*
X56636Y-51511D01*
X56664Y-51539D01*
X56678Y-51567D01*
X56692Y-51624D01*
X56692Y-51666D01*
X56678Y-51722D01*
X56664Y-51750D01*
X56636Y-51778D01*
X56594Y-51792D01*
X56524Y-51792D01*
X68089Y-50414D02*
X68089Y-50119D01*
X68159Y-50119D01*
X68201Y-50133D01*
X68229Y-50161D01*
X68243Y-50189D01*
X68257Y-50246D01*
X68257Y-50288D01*
X68243Y-50344D01*
X68229Y-50372D01*
X68201Y-50400D01*
X68159Y-50414D01*
X68089Y-50414D01*
X68510Y-50119D02*
X68454Y-50119D01*
X68426Y-50133D01*
X68412Y-50147D01*
X68384Y-50189D01*
X68370Y-50246D01*
X68370Y-50358D01*
X68384Y-50386D01*
X68398Y-50400D01*
X68426Y-50414D01*
X68482Y-50414D01*
X68510Y-50400D01*
X68525Y-50386D01*
X68539Y-50358D01*
X68539Y-50288D01*
X68525Y-50260D01*
X68510Y-50246D01*
X68482Y-50232D01*
X68426Y-50232D01*
X68398Y-50246D01*
X68384Y-50260D01*
X68370Y-50288D01*
X68089Y-49430D02*
X68089Y-49135D01*
X68159Y-49135D01*
X68201Y-49149D01*
X68229Y-49177D01*
X68243Y-49205D01*
X68257Y-49261D01*
X68257Y-49303D01*
X68243Y-49360D01*
X68229Y-49388D01*
X68201Y-49416D01*
X68159Y-49430D01*
X68089Y-49430D01*
X68525Y-49135D02*
X68384Y-49135D01*
X68370Y-49275D01*
X68384Y-49261D01*
X68412Y-49247D01*
X68482Y-49247D01*
X68510Y-49261D01*
X68525Y-49275D01*
X68539Y-49303D01*
X68539Y-49374D01*
X68525Y-49402D01*
X68510Y-49416D01*
X68482Y-49430D01*
X68412Y-49430D01*
X68384Y-49416D01*
X68370Y-49402D01*
X68089Y-48446D02*
X68089Y-48151D01*
X68159Y-48151D01*
X68201Y-48165D01*
X68229Y-48193D01*
X68243Y-48221D01*
X68257Y-48277D01*
X68257Y-48319D01*
X68243Y-48375D01*
X68229Y-48404D01*
X68201Y-48432D01*
X68159Y-48446D01*
X68089Y-48446D01*
X68510Y-48249D02*
X68510Y-48446D01*
X68440Y-48136D02*
X68370Y-48347D01*
X68553Y-48347D01*
X68089Y-47560D02*
X68089Y-47265D01*
X68159Y-47265D01*
X68201Y-47279D01*
X68229Y-47307D01*
X68243Y-47335D01*
X68257Y-47391D01*
X68257Y-47433D01*
X68243Y-47490D01*
X68229Y-47518D01*
X68201Y-47546D01*
X68159Y-47560D01*
X68089Y-47560D01*
X68356Y-47265D02*
X68539Y-47265D01*
X68440Y-47377D01*
X68482Y-47377D01*
X68510Y-47391D01*
X68525Y-47405D01*
X68539Y-47433D01*
X68539Y-47504D01*
X68525Y-47532D01*
X68510Y-47546D01*
X68482Y-47560D01*
X68398Y-47560D01*
X68370Y-47546D01*
X68356Y-47532D01*
X68089Y-46477D02*
X68089Y-46182D01*
X68159Y-46182D01*
X68201Y-46196D01*
X68229Y-46224D01*
X68243Y-46252D01*
X68257Y-46309D01*
X68257Y-46351D01*
X68243Y-46407D01*
X68229Y-46435D01*
X68201Y-46463D01*
X68159Y-46477D01*
X68089Y-46477D01*
X68370Y-46210D02*
X68384Y-46196D01*
X68412Y-46182D01*
X68482Y-46182D01*
X68510Y-46196D01*
X68525Y-46210D01*
X68539Y-46238D01*
X68539Y-46266D01*
X68525Y-46309D01*
X68356Y-46477D01*
X68539Y-46477D01*
X68089Y-45493D02*
X68089Y-45198D01*
X68159Y-45198D01*
X68201Y-45212D01*
X68229Y-45240D01*
X68243Y-45268D01*
X68257Y-45324D01*
X68257Y-45366D01*
X68243Y-45423D01*
X68229Y-45451D01*
X68201Y-45479D01*
X68159Y-45493D01*
X68089Y-45493D01*
X68539Y-45493D02*
X68370Y-45493D01*
X68454Y-45493D02*
X68454Y-45198D01*
X68426Y-45240D01*
X68398Y-45268D01*
X68370Y-45282D01*
X68089Y-44509D02*
X68089Y-44214D01*
X68159Y-44214D01*
X68201Y-44228D01*
X68229Y-44256D01*
X68243Y-44284D01*
X68257Y-44340D01*
X68257Y-44382D01*
X68243Y-44438D01*
X68229Y-44467D01*
X68201Y-44495D01*
X68159Y-44509D01*
X68089Y-44509D01*
X68440Y-44214D02*
X68468Y-44214D01*
X68496Y-44228D01*
X68510Y-44242D01*
X68525Y-44270D01*
X68539Y-44326D01*
X68539Y-44396D01*
X68525Y-44453D01*
X68510Y-44481D01*
X68496Y-44495D01*
X68468Y-44509D01*
X68440Y-44509D01*
X68412Y-44495D01*
X68398Y-44481D01*
X68384Y-44453D01*
X68370Y-44396D01*
X68370Y-44326D01*
X68384Y-44270D01*
X68398Y-44242D01*
X68412Y-44228D01*
X68440Y-44214D01*
X67850Y-43398D02*
X67836Y-43412D01*
X67793Y-43426D01*
X67765Y-43426D01*
X67723Y-43412D01*
X67695Y-43384D01*
X67681Y-43356D01*
X67667Y-43300D01*
X67667Y-43257D01*
X67681Y-43201D01*
X67695Y-43173D01*
X67723Y-43145D01*
X67765Y-43131D01*
X67793Y-43131D01*
X67836Y-43145D01*
X67850Y-43159D01*
X68117Y-43426D02*
X67976Y-43426D01*
X67976Y-43131D01*
X68215Y-43426D02*
X68215Y-43131D01*
X68384Y-43426D02*
X68257Y-43257D01*
X68384Y-43131D02*
X68215Y-43300D01*
X68651Y-43131D02*
X68510Y-43131D01*
X68496Y-43271D01*
X68510Y-43257D01*
X68539Y-43243D01*
X68609Y-43243D01*
X68637Y-43257D01*
X68651Y-43271D01*
X68665Y-43300D01*
X68665Y-43370D01*
X68651Y-43398D01*
X68637Y-43412D01*
X68609Y-43426D01*
X68539Y-43426D01*
X68510Y-43412D01*
X68496Y-43398D01*
X68848Y-43131D02*
X68876Y-43131D01*
X68904Y-43145D01*
X68918Y-43159D01*
X68932Y-43187D01*
X68946Y-43243D01*
X68946Y-43314D01*
X68932Y-43370D01*
X68918Y-43398D01*
X68904Y-43412D01*
X68876Y-43426D01*
X68848Y-43426D01*
X68820Y-43412D01*
X68806Y-43398D01*
X68792Y-43370D01*
X68778Y-43314D01*
X68778Y-43243D01*
X68792Y-43187D01*
X68806Y-43159D01*
X68820Y-43145D01*
X68848Y-43131D01*
X67716Y-42133D02*
X67463Y-42512D01*
X67814Y-42442D02*
X67814Y-42147D01*
X67885Y-42147D01*
X67927Y-42161D01*
X67955Y-42189D01*
X67969Y-42217D01*
X67983Y-42273D01*
X67983Y-42315D01*
X67969Y-42372D01*
X67955Y-42400D01*
X67927Y-42428D01*
X67885Y-42442D01*
X67814Y-42442D01*
X68096Y-42428D02*
X68138Y-42442D01*
X68208Y-42442D01*
X68236Y-42428D01*
X68250Y-42414D01*
X68264Y-42386D01*
X68264Y-42357D01*
X68250Y-42329D01*
X68236Y-42315D01*
X68208Y-42301D01*
X68152Y-42287D01*
X68124Y-42273D01*
X68110Y-42259D01*
X68096Y-42231D01*
X68096Y-42203D01*
X68110Y-42175D01*
X68124Y-42161D01*
X68152Y-42147D01*
X68222Y-42147D01*
X68264Y-42161D01*
X68447Y-42301D02*
X68447Y-42442D01*
X68349Y-42147D02*
X68447Y-42301D01*
X68546Y-42147D01*
X68644Y-42442D02*
X68644Y-42147D01*
X68813Y-42442D01*
X68813Y-42147D01*
X69122Y-42414D02*
X69108Y-42428D01*
X69066Y-42442D01*
X69038Y-42442D01*
X68996Y-42428D01*
X68967Y-42400D01*
X68953Y-42372D01*
X68939Y-42315D01*
X68939Y-42273D01*
X68953Y-42217D01*
X68967Y-42189D01*
X68996Y-42161D01*
X69038Y-42147D01*
X69066Y-42147D01*
X69108Y-42161D01*
X69122Y-42175D01*
G54D12*
X65312Y-43911D02*
X65902Y-43911D01*
X65312Y-44249D01*
X65902Y-44249D01*
X65902Y-44783D02*
X65902Y-44670D01*
X65874Y-44614D01*
X65846Y-44586D01*
X65762Y-44530D01*
X65649Y-44502D01*
X65424Y-44502D01*
X65368Y-44530D01*
X65340Y-44558D01*
X65312Y-44614D01*
X65312Y-44727D01*
X65340Y-44783D01*
X65368Y-44811D01*
X65424Y-44839D01*
X65565Y-44839D01*
X65621Y-44811D01*
X65649Y-44783D01*
X65677Y-44727D01*
X65677Y-44614D01*
X65649Y-44558D01*
X65621Y-44530D01*
X65565Y-44502D01*
X65705Y-45345D02*
X65312Y-45345D01*
X65930Y-45205D02*
X65508Y-45064D01*
X65508Y-45430D01*
X65312Y-46105D02*
X65902Y-46105D01*
X65902Y-46245D01*
X65874Y-46330D01*
X65818Y-46386D01*
X65762Y-46414D01*
X65649Y-46442D01*
X65565Y-46442D01*
X65452Y-46414D01*
X65396Y-46386D01*
X65340Y-46330D01*
X65312Y-46245D01*
X65312Y-46105D01*
X65312Y-46948D02*
X65621Y-46948D01*
X65677Y-46920D01*
X65705Y-46864D01*
X65705Y-46751D01*
X65677Y-46695D01*
X65340Y-46948D02*
X65312Y-46892D01*
X65312Y-46751D01*
X65340Y-46695D01*
X65396Y-46667D01*
X65452Y-46667D01*
X65508Y-46695D01*
X65537Y-46751D01*
X65537Y-46892D01*
X65565Y-46948D01*
X65705Y-47145D02*
X65705Y-47370D01*
X65902Y-47230D02*
X65396Y-47230D01*
X65340Y-47258D01*
X65312Y-47314D01*
X65312Y-47370D01*
X65312Y-47820D02*
X65621Y-47820D01*
X65677Y-47792D01*
X65705Y-47736D01*
X65705Y-47623D01*
X65677Y-47567D01*
X65340Y-47820D02*
X65312Y-47764D01*
X65312Y-47623D01*
X65340Y-47567D01*
X65396Y-47539D01*
X65452Y-47539D01*
X65508Y-47567D01*
X65537Y-47623D01*
X65537Y-47764D01*
X65565Y-47820D01*
G54D14*
X67786Y-41275D02*
X67758Y-41261D01*
X67716Y-41261D01*
X67674Y-41275D01*
X67646Y-41303D01*
X67632Y-41331D01*
X67618Y-41387D01*
X67618Y-41429D01*
X67632Y-41486D01*
X67646Y-41514D01*
X67674Y-41542D01*
X67716Y-41556D01*
X67744Y-41556D01*
X67786Y-41542D01*
X67800Y-41528D01*
X67800Y-41429D01*
X67744Y-41429D01*
X67927Y-41556D02*
X67927Y-41261D01*
X68096Y-41556D01*
X68096Y-41261D01*
X68236Y-41556D02*
X68236Y-41261D01*
X68307Y-41261D01*
X68349Y-41275D01*
X68377Y-41303D01*
X68391Y-41331D01*
X68405Y-41387D01*
X68405Y-41429D01*
X68391Y-41486D01*
X68377Y-41514D01*
X68349Y-41542D01*
X68307Y-41556D01*
X68236Y-41556D01*
X54232Y-35651D02*
X54330Y-35946D01*
X54429Y-35651D01*
X54696Y-35918D02*
X54682Y-35932D01*
X54640Y-35946D01*
X54611Y-35946D01*
X54569Y-35932D01*
X54541Y-35904D01*
X54527Y-35875D01*
X54513Y-35819D01*
X54513Y-35777D01*
X54527Y-35721D01*
X54541Y-35693D01*
X54569Y-35665D01*
X54611Y-35651D01*
X54640Y-35651D01*
X54682Y-35665D01*
X54696Y-35679D01*
X54991Y-35918D02*
X54977Y-35932D01*
X54935Y-35946D01*
X54907Y-35946D01*
X54865Y-35932D01*
X54836Y-35904D01*
X54822Y-35875D01*
X54808Y-35819D01*
X54808Y-35777D01*
X54822Y-35721D01*
X54836Y-35693D01*
X54865Y-35665D01*
X54907Y-35651D01*
X54935Y-35651D01*
X54977Y-35665D01*
X54991Y-35679D01*
X55314Y-35651D02*
X55497Y-35651D01*
X55399Y-35763D01*
X55441Y-35763D01*
X55469Y-35777D01*
X55483Y-35791D01*
X55497Y-35819D01*
X55497Y-35890D01*
X55483Y-35918D01*
X55469Y-35932D01*
X55441Y-35946D01*
X55357Y-35946D01*
X55329Y-35932D01*
X55314Y-35918D01*
X55624Y-35918D02*
X55638Y-35932D01*
X55624Y-35946D01*
X55610Y-35932D01*
X55624Y-35918D01*
X55624Y-35946D01*
X55736Y-35651D02*
X55919Y-35651D01*
X55821Y-35763D01*
X55863Y-35763D01*
X55891Y-35777D01*
X55905Y-35791D01*
X55919Y-35819D01*
X55919Y-35890D01*
X55905Y-35918D01*
X55891Y-35932D01*
X55863Y-35946D01*
X55778Y-35946D01*
X55750Y-35932D01*
X55736Y-35918D01*
X56003Y-35651D02*
X56102Y-35946D01*
X56200Y-35651D01*
G54D13*
X59823Y-27512D02*
X59626Y-27512D01*
X59626Y-27437D01*
X59636Y-27418D01*
X59645Y-27409D01*
X59664Y-27399D01*
X59692Y-27399D01*
X59711Y-27409D01*
X59720Y-27418D01*
X59730Y-27437D01*
X59730Y-27512D01*
X59823Y-27315D02*
X59692Y-27315D01*
X59626Y-27315D02*
X59636Y-27324D01*
X59645Y-27315D01*
X59636Y-27305D01*
X59626Y-27315D01*
X59645Y-27315D01*
X59692Y-27221D02*
X59823Y-27221D01*
X59711Y-27221D02*
X59701Y-27212D01*
X59692Y-27193D01*
X59692Y-27165D01*
X59701Y-27146D01*
X59720Y-27137D01*
X59823Y-27137D01*
X59823Y-26790D02*
X59823Y-26902D01*
X59823Y-26846D02*
X59626Y-26846D01*
X59655Y-26865D01*
X59673Y-26884D01*
X59683Y-26902D01*
X59692Y-26621D02*
X59823Y-26621D01*
X59617Y-26668D02*
X59758Y-26715D01*
X59758Y-26593D01*
X59692Y-26434D02*
X59823Y-26434D01*
X59617Y-26481D02*
X59758Y-26527D01*
X59758Y-26406D01*
X57616Y-29016D02*
X57616Y-28819D01*
X57691Y-28819D01*
X57709Y-28829D01*
X57719Y-28838D01*
X57728Y-28857D01*
X57728Y-28885D01*
X57719Y-28904D01*
X57709Y-28913D01*
X57691Y-28922D01*
X57616Y-28922D01*
X57813Y-29016D02*
X57813Y-28885D01*
X57813Y-28819D02*
X57803Y-28829D01*
X57813Y-28838D01*
X57822Y-28829D01*
X57813Y-28819D01*
X57813Y-28838D01*
X57906Y-28885D02*
X57906Y-29016D01*
X57906Y-28904D02*
X57916Y-28894D01*
X57934Y-28885D01*
X57963Y-28885D01*
X57981Y-28894D01*
X57991Y-28913D01*
X57991Y-29016D01*
X58338Y-29016D02*
X58225Y-29016D01*
X58281Y-29016D02*
X58281Y-28819D01*
X58263Y-28847D01*
X58244Y-28866D01*
X58225Y-28876D01*
X54804Y-46437D02*
X54691Y-46437D01*
X54747Y-46437D02*
X54747Y-46241D01*
X54729Y-46269D01*
X54710Y-46287D01*
X54691Y-46297D01*
X54888Y-46437D02*
X54888Y-46241D01*
X55000Y-46437D02*
X54916Y-46325D01*
X55000Y-46241D02*
X54888Y-46353D01*
X55347Y-46437D02*
X55282Y-46344D01*
X55235Y-46437D02*
X55235Y-46241D01*
X55310Y-46241D01*
X55329Y-46250D01*
X55338Y-46259D01*
X55347Y-46278D01*
X55347Y-46306D01*
X55338Y-46325D01*
X55329Y-46334D01*
X55310Y-46344D01*
X55235Y-46344D01*
X64060Y-44469D02*
X63948Y-44469D01*
X64004Y-44469D02*
X64004Y-44272D01*
X63985Y-44300D01*
X63967Y-44319D01*
X63948Y-44328D01*
X64182Y-44272D02*
X64201Y-44272D01*
X64220Y-44281D01*
X64229Y-44291D01*
X64238Y-44310D01*
X64248Y-44347D01*
X64248Y-44394D01*
X64238Y-44431D01*
X64229Y-44450D01*
X64220Y-44460D01*
X64201Y-44469D01*
X64182Y-44469D01*
X64163Y-44460D01*
X64154Y-44450D01*
X64145Y-44431D01*
X64135Y-44394D01*
X64135Y-44347D01*
X64145Y-44310D01*
X64154Y-44291D01*
X64163Y-44281D01*
X64182Y-44272D01*
X64332Y-44469D02*
X64332Y-44272D01*
X64445Y-44469D02*
X64360Y-44356D01*
X64445Y-44272D02*
X64332Y-44385D01*
X64791Y-44469D02*
X64726Y-44375D01*
X64679Y-44469D02*
X64679Y-44272D01*
X64754Y-44272D01*
X64773Y-44281D01*
X64782Y-44291D01*
X64791Y-44310D01*
X64791Y-44338D01*
X64782Y-44356D01*
X64773Y-44366D01*
X64754Y-44375D01*
X64679Y-44375D01*
X67111Y-39941D02*
X66999Y-39941D01*
X67055Y-39941D02*
X67055Y-39745D01*
X67036Y-39773D01*
X67018Y-39791D01*
X66999Y-39801D01*
X67233Y-39745D02*
X67252Y-39745D01*
X67271Y-39754D01*
X67280Y-39763D01*
X67290Y-39782D01*
X67299Y-39820D01*
X67299Y-39866D01*
X67290Y-39904D01*
X67280Y-39923D01*
X67271Y-39932D01*
X67252Y-39941D01*
X67233Y-39941D01*
X67215Y-39932D01*
X67205Y-39923D01*
X67196Y-39904D01*
X67186Y-39866D01*
X67186Y-39820D01*
X67196Y-39782D01*
X67205Y-39763D01*
X67215Y-39754D01*
X67233Y-39745D01*
X67383Y-39941D02*
X67383Y-39745D01*
X67496Y-39941D02*
X67411Y-39829D01*
X67496Y-39745D02*
X67383Y-39857D01*
X67843Y-39941D02*
X67777Y-39848D01*
X67730Y-39941D02*
X67730Y-39745D01*
X67805Y-39745D01*
X67824Y-39754D01*
X67833Y-39763D01*
X67843Y-39782D01*
X67843Y-39810D01*
X67833Y-39829D01*
X67824Y-39838D01*
X67805Y-39848D01*
X67730Y-39848D01*
X67407Y-37382D02*
X67294Y-37382D01*
X67350Y-37382D02*
X67350Y-37185D01*
X67332Y-37214D01*
X67313Y-37232D01*
X67294Y-37242D01*
X67529Y-37185D02*
X67547Y-37185D01*
X67566Y-37195D01*
X67575Y-37204D01*
X67585Y-37223D01*
X67594Y-37260D01*
X67594Y-37307D01*
X67585Y-37345D01*
X67575Y-37364D01*
X67566Y-37373D01*
X67547Y-37382D01*
X67529Y-37382D01*
X67510Y-37373D01*
X67500Y-37364D01*
X67491Y-37345D01*
X67482Y-37307D01*
X67482Y-37260D01*
X67491Y-37223D01*
X67500Y-37204D01*
X67510Y-37195D01*
X67529Y-37185D01*
X67679Y-37382D02*
X67679Y-37185D01*
X67791Y-37382D02*
X67707Y-37270D01*
X67791Y-37185D02*
X67679Y-37298D01*
X68138Y-37382D02*
X68072Y-37289D01*
X68025Y-37382D02*
X68025Y-37185D01*
X68100Y-37185D01*
X68119Y-37195D01*
X68128Y-37204D01*
X68138Y-37223D01*
X68138Y-37251D01*
X68128Y-37270D01*
X68119Y-37279D01*
X68100Y-37289D01*
X68025Y-37289D01*
X56871Y-42993D02*
X56758Y-42993D01*
X56814Y-42993D02*
X56814Y-42796D01*
X56796Y-42824D01*
X56777Y-42843D01*
X56758Y-42852D01*
X56955Y-42993D02*
X56955Y-42796D01*
X57067Y-42993D02*
X56983Y-42880D01*
X57067Y-42796D02*
X56955Y-42908D01*
X57414Y-42993D02*
X57349Y-42899D01*
X57302Y-42993D02*
X57302Y-42796D01*
X57377Y-42796D01*
X57395Y-42805D01*
X57405Y-42814D01*
X57414Y-42833D01*
X57414Y-42861D01*
X57405Y-42880D01*
X57395Y-42889D01*
X57377Y-42899D01*
X57302Y-42899D01*
X54508Y-38760D02*
X54396Y-38760D01*
X54452Y-38760D02*
X54452Y-38563D01*
X54433Y-38592D01*
X54415Y-38610D01*
X54396Y-38620D01*
X54593Y-38760D02*
X54593Y-38563D01*
X54705Y-38760D02*
X54621Y-38648D01*
X54705Y-38563D02*
X54593Y-38676D01*
X55052Y-38760D02*
X54986Y-38667D01*
X54940Y-38760D02*
X54940Y-38563D01*
X55014Y-38563D01*
X55033Y-38573D01*
X55043Y-38582D01*
X55052Y-38601D01*
X55052Y-38629D01*
X55043Y-38648D01*
X55033Y-38657D01*
X55014Y-38667D01*
X54940Y-38667D01*
X60029Y-31646D02*
X60020Y-31664D01*
X60020Y-31692D01*
X60029Y-31721D01*
X60048Y-31739D01*
X60067Y-31749D01*
X60104Y-31758D01*
X60133Y-31758D01*
X60170Y-31749D01*
X60189Y-31739D01*
X60208Y-31721D01*
X60217Y-31692D01*
X60217Y-31674D01*
X60208Y-31646D01*
X60198Y-31636D01*
X60133Y-31636D01*
X60133Y-31674D01*
X60217Y-31552D02*
X60020Y-31552D01*
X60217Y-31439D01*
X60020Y-31439D01*
X60217Y-31346D02*
X60020Y-31346D01*
X60020Y-31299D01*
X60029Y-31271D01*
X60048Y-31252D01*
X60067Y-31242D01*
X60104Y-31233D01*
X60133Y-31233D01*
X60170Y-31242D01*
X60189Y-31252D01*
X60208Y-31271D01*
X60217Y-31299D01*
X60217Y-31346D01*
X69666Y-39599D02*
X69469Y-39599D01*
X69666Y-39487D01*
X69469Y-39487D01*
X69469Y-39309D02*
X69469Y-39346D01*
X69478Y-39365D01*
X69488Y-39374D01*
X69516Y-39393D01*
X69553Y-39402D01*
X69628Y-39402D01*
X69647Y-39393D01*
X69656Y-39384D01*
X69666Y-39365D01*
X69666Y-39327D01*
X69656Y-39309D01*
X69647Y-39299D01*
X69628Y-39290D01*
X69581Y-39290D01*
X69563Y-39299D01*
X69553Y-39309D01*
X69544Y-39327D01*
X69544Y-39365D01*
X69553Y-39384D01*
X69563Y-39393D01*
X69581Y-39402D01*
X69535Y-39121D02*
X69666Y-39121D01*
X69460Y-39168D02*
X69600Y-39215D01*
X69600Y-39093D01*
X69685Y-39065D02*
X69685Y-38915D01*
X69647Y-38756D02*
X69656Y-38765D01*
X69666Y-38793D01*
X69666Y-38812D01*
X69656Y-38840D01*
X69638Y-38859D01*
X69619Y-38868D01*
X69581Y-38877D01*
X69553Y-38877D01*
X69516Y-38868D01*
X69497Y-38859D01*
X69478Y-38840D01*
X69469Y-38812D01*
X69469Y-38793D01*
X69478Y-38765D01*
X69488Y-38756D01*
X69666Y-38643D02*
X69656Y-38662D01*
X69638Y-38671D01*
X69469Y-38671D01*
X69666Y-38540D02*
X69656Y-38559D01*
X69647Y-38568D01*
X69628Y-38577D01*
X69572Y-38577D01*
X69553Y-38568D01*
X69544Y-38559D01*
X69535Y-38540D01*
X69535Y-38512D01*
X69544Y-38493D01*
X69553Y-38484D01*
X69572Y-38474D01*
X69628Y-38474D01*
X69647Y-38484D01*
X69656Y-38493D01*
X69666Y-38512D01*
X69666Y-38540D01*
X69656Y-38306D02*
X69666Y-38324D01*
X69666Y-38362D01*
X69656Y-38381D01*
X69647Y-38390D01*
X69628Y-38399D01*
X69572Y-38399D01*
X69553Y-38390D01*
X69544Y-38381D01*
X69535Y-38362D01*
X69535Y-38324D01*
X69544Y-38306D01*
X69666Y-38221D02*
X69469Y-38221D01*
X69591Y-38203D02*
X69666Y-38146D01*
X69535Y-38146D02*
X69610Y-38221D01*
X64932Y-37589D02*
X64913Y-37579D01*
X64885Y-37579D01*
X64857Y-37589D01*
X64838Y-37607D01*
X64829Y-37626D01*
X64820Y-37664D01*
X64820Y-37692D01*
X64829Y-37729D01*
X64838Y-37748D01*
X64857Y-37767D01*
X64885Y-37776D01*
X64904Y-37776D01*
X64932Y-37767D01*
X64941Y-37757D01*
X64941Y-37692D01*
X64904Y-37692D01*
X65026Y-37776D02*
X65026Y-37579D01*
X65138Y-37776D01*
X65138Y-37579D01*
X65232Y-37776D02*
X65232Y-37579D01*
X65279Y-37579D01*
X65307Y-37589D01*
X65326Y-37607D01*
X65335Y-37626D01*
X65344Y-37664D01*
X65344Y-37692D01*
X65335Y-37729D01*
X65326Y-37748D01*
X65307Y-37767D01*
X65279Y-37776D01*
X65232Y-37776D01*
X60119Y-38367D02*
X60184Y-38563D01*
X60250Y-38367D01*
X60428Y-38545D02*
X60419Y-38554D01*
X60390Y-38563D01*
X60372Y-38563D01*
X60344Y-38554D01*
X60325Y-38535D01*
X60315Y-38517D01*
X60306Y-38479D01*
X60306Y-38451D01*
X60315Y-38413D01*
X60325Y-38395D01*
X60344Y-38376D01*
X60372Y-38367D01*
X60390Y-38367D01*
X60419Y-38376D01*
X60428Y-38385D01*
X60625Y-38545D02*
X60615Y-38554D01*
X60587Y-38563D01*
X60568Y-38563D01*
X60540Y-38554D01*
X60522Y-38535D01*
X60512Y-38517D01*
X60503Y-38479D01*
X60503Y-38451D01*
X60512Y-38413D01*
X60522Y-38395D01*
X60540Y-38376D01*
X60568Y-38367D01*
X60587Y-38367D01*
X60615Y-38376D01*
X60625Y-38385D01*
X60709Y-38563D02*
X60709Y-38367D01*
X60803Y-38563D02*
X60803Y-38367D01*
X60915Y-38563D01*
X60915Y-38367D01*
X60981Y-38367D02*
X61093Y-38367D01*
X61037Y-38563D02*
X61037Y-38367D01*
X61365Y-38638D02*
X61356Y-38629D01*
X61337Y-38601D01*
X61328Y-38582D01*
X61318Y-38554D01*
X61309Y-38507D01*
X61309Y-38470D01*
X61318Y-38423D01*
X61328Y-38395D01*
X61337Y-38376D01*
X61356Y-38348D01*
X61365Y-38338D01*
X61543Y-38563D02*
X61431Y-38563D01*
X61487Y-38563D02*
X61487Y-38367D01*
X61468Y-38395D01*
X61450Y-38413D01*
X61431Y-38423D01*
X61628Y-38545D02*
X61637Y-38554D01*
X61628Y-38563D01*
X61618Y-38554D01*
X61628Y-38545D01*
X61628Y-38563D01*
X61712Y-38385D02*
X61721Y-38376D01*
X61740Y-38367D01*
X61787Y-38367D01*
X61806Y-38376D01*
X61815Y-38385D01*
X61825Y-38404D01*
X61825Y-38423D01*
X61815Y-38451D01*
X61703Y-38563D01*
X61825Y-38563D01*
X61890Y-38638D02*
X61900Y-38629D01*
X61918Y-38601D01*
X61928Y-38582D01*
X61937Y-38554D01*
X61946Y-38507D01*
X61946Y-38470D01*
X61937Y-38423D01*
X61928Y-38395D01*
X61918Y-38376D01*
X61900Y-38348D01*
X61890Y-38338D01*
X63320Y-35808D02*
X63385Y-36004D01*
X63451Y-35808D01*
X63629Y-35986D02*
X63620Y-35995D01*
X63592Y-36004D01*
X63573Y-36004D01*
X63545Y-35995D01*
X63526Y-35976D01*
X63517Y-35958D01*
X63507Y-35920D01*
X63507Y-35892D01*
X63517Y-35854D01*
X63526Y-35836D01*
X63545Y-35817D01*
X63573Y-35808D01*
X63592Y-35808D01*
X63620Y-35817D01*
X63629Y-35826D01*
X63826Y-35986D02*
X63817Y-35995D01*
X63788Y-36004D01*
X63770Y-36004D01*
X63742Y-35995D01*
X63723Y-35976D01*
X63713Y-35958D01*
X63704Y-35920D01*
X63704Y-35892D01*
X63713Y-35854D01*
X63723Y-35836D01*
X63742Y-35817D01*
X63770Y-35808D01*
X63788Y-35808D01*
X63817Y-35817D01*
X63826Y-35826D01*
X63910Y-36004D02*
X63910Y-35808D01*
X64041Y-35808D02*
X64079Y-35808D01*
X64098Y-35817D01*
X64116Y-35836D01*
X64126Y-35873D01*
X64126Y-35939D01*
X64116Y-35976D01*
X64098Y-35995D01*
X64079Y-36004D01*
X64041Y-36004D01*
X64023Y-35995D01*
X64004Y-35976D01*
X63995Y-35939D01*
X63995Y-35873D01*
X64004Y-35836D01*
X64023Y-35817D01*
X64041Y-35808D01*
X64416Y-36079D02*
X64407Y-36070D01*
X64388Y-36042D01*
X64379Y-36023D01*
X64370Y-35995D01*
X64360Y-35948D01*
X64360Y-35911D01*
X64370Y-35864D01*
X64379Y-35836D01*
X64388Y-35817D01*
X64407Y-35789D01*
X64416Y-35779D01*
X64473Y-35808D02*
X64595Y-35808D01*
X64529Y-35883D01*
X64557Y-35883D01*
X64576Y-35892D01*
X64585Y-35901D01*
X64595Y-35920D01*
X64595Y-35967D01*
X64585Y-35986D01*
X64576Y-35995D01*
X64557Y-36004D01*
X64501Y-36004D01*
X64482Y-35995D01*
X64473Y-35986D01*
X64679Y-35986D02*
X64688Y-35995D01*
X64679Y-36004D01*
X64670Y-35995D01*
X64679Y-35986D01*
X64679Y-36004D01*
X64754Y-35808D02*
X64876Y-35808D01*
X64810Y-35883D01*
X64838Y-35883D01*
X64857Y-35892D01*
X64866Y-35901D01*
X64876Y-35920D01*
X64876Y-35967D01*
X64866Y-35986D01*
X64857Y-35995D01*
X64838Y-36004D01*
X64782Y-36004D01*
X64763Y-35995D01*
X64754Y-35986D01*
X64941Y-36079D02*
X64951Y-36070D01*
X64970Y-36042D01*
X64979Y-36023D01*
X64988Y-35995D01*
X64998Y-35948D01*
X64998Y-35911D01*
X64988Y-35864D01*
X64979Y-35836D01*
X64970Y-35817D01*
X64951Y-35789D01*
X64941Y-35779D01*
X63934Y-27146D02*
X63999Y-27343D01*
X64065Y-27146D01*
X64243Y-27324D02*
X64234Y-27334D01*
X64206Y-27343D01*
X64187Y-27343D01*
X64159Y-27334D01*
X64140Y-27315D01*
X64131Y-27296D01*
X64121Y-27259D01*
X64121Y-27230D01*
X64131Y-27193D01*
X64140Y-27174D01*
X64159Y-27155D01*
X64187Y-27146D01*
X64206Y-27146D01*
X64234Y-27155D01*
X64243Y-27165D01*
X64440Y-27324D02*
X64431Y-27334D01*
X64402Y-27343D01*
X64384Y-27343D01*
X64356Y-27334D01*
X64337Y-27315D01*
X64327Y-27296D01*
X64318Y-27259D01*
X64318Y-27230D01*
X64327Y-27193D01*
X64337Y-27174D01*
X64356Y-27155D01*
X64384Y-27146D01*
X64402Y-27146D01*
X64431Y-27155D01*
X64440Y-27165D01*
X64524Y-27343D02*
X64524Y-27146D01*
X64618Y-27343D02*
X64618Y-27146D01*
X64730Y-27343D01*
X64730Y-27146D01*
X64796Y-27146D02*
X64909Y-27146D01*
X64852Y-27343D02*
X64852Y-27146D01*
X65180Y-27418D02*
X65171Y-27409D01*
X65152Y-27380D01*
X65143Y-27362D01*
X65134Y-27334D01*
X65124Y-27287D01*
X65124Y-27249D01*
X65134Y-27202D01*
X65143Y-27174D01*
X65152Y-27155D01*
X65171Y-27127D01*
X65180Y-27118D01*
X65359Y-27343D02*
X65246Y-27343D01*
X65302Y-27343D02*
X65302Y-27146D01*
X65284Y-27174D01*
X65265Y-27193D01*
X65246Y-27202D01*
X65443Y-27324D02*
X65452Y-27334D01*
X65443Y-27343D01*
X65434Y-27334D01*
X65443Y-27324D01*
X65443Y-27343D01*
X65527Y-27165D02*
X65537Y-27155D01*
X65555Y-27146D01*
X65602Y-27146D01*
X65621Y-27155D01*
X65630Y-27165D01*
X65640Y-27184D01*
X65640Y-27202D01*
X65630Y-27230D01*
X65518Y-27343D01*
X65640Y-27343D01*
X65705Y-27418D02*
X65715Y-27409D01*
X65733Y-27380D01*
X65743Y-27362D01*
X65752Y-27334D01*
X65762Y-27287D01*
X65762Y-27249D01*
X65752Y-27202D01*
X65743Y-27174D01*
X65733Y-27155D01*
X65715Y-27127D01*
X65705Y-27118D01*
X61464Y-29124D02*
X61445Y-29115D01*
X61417Y-29115D01*
X61389Y-29124D01*
X61370Y-29143D01*
X61361Y-29161D01*
X61351Y-29199D01*
X61351Y-29227D01*
X61361Y-29265D01*
X61370Y-29283D01*
X61389Y-29302D01*
X61417Y-29311D01*
X61436Y-29311D01*
X61464Y-29302D01*
X61473Y-29293D01*
X61473Y-29227D01*
X61436Y-29227D01*
X61557Y-29311D02*
X61557Y-29115D01*
X61670Y-29311D01*
X61670Y-29115D01*
X61764Y-29311D02*
X61764Y-29115D01*
X61811Y-29115D01*
X61839Y-29124D01*
X61857Y-29143D01*
X61867Y-29161D01*
X61876Y-29199D01*
X61876Y-29227D01*
X61867Y-29265D01*
X61857Y-29283D01*
X61839Y-29302D01*
X61811Y-29311D01*
X61764Y-29311D01*
X59528Y-32053D02*
X59725Y-31988D01*
X59528Y-31922D01*
X59706Y-31744D02*
X59715Y-31753D01*
X59725Y-31781D01*
X59725Y-31800D01*
X59715Y-31828D01*
X59697Y-31847D01*
X59678Y-31856D01*
X59640Y-31866D01*
X59612Y-31866D01*
X59575Y-31856D01*
X59556Y-31847D01*
X59537Y-31828D01*
X59528Y-31800D01*
X59528Y-31781D01*
X59537Y-31753D01*
X59547Y-31744D01*
X59706Y-31547D02*
X59715Y-31556D01*
X59725Y-31585D01*
X59725Y-31603D01*
X59715Y-31631D01*
X59697Y-31650D01*
X59678Y-31660D01*
X59640Y-31669D01*
X59612Y-31669D01*
X59575Y-31660D01*
X59556Y-31650D01*
X59537Y-31631D01*
X59528Y-31603D01*
X59528Y-31585D01*
X59537Y-31556D01*
X59547Y-31547D01*
X59725Y-31463D02*
X59528Y-31463D01*
X59528Y-31332D02*
X59528Y-31294D01*
X59537Y-31275D01*
X59556Y-31257D01*
X59594Y-31247D01*
X59659Y-31247D01*
X59697Y-31257D01*
X59715Y-31275D01*
X59725Y-31294D01*
X59725Y-31332D01*
X59715Y-31350D01*
X59697Y-31369D01*
X59659Y-31378D01*
X59594Y-31378D01*
X59556Y-31369D01*
X59537Y-31350D01*
X59528Y-31332D01*
X59800Y-30957D02*
X59790Y-30966D01*
X59762Y-30985D01*
X59744Y-30994D01*
X59715Y-31003D01*
X59669Y-31013D01*
X59631Y-31013D01*
X59584Y-31003D01*
X59556Y-30994D01*
X59537Y-30985D01*
X59509Y-30966D01*
X59500Y-30957D01*
X59528Y-30900D02*
X59528Y-30778D01*
X59603Y-30844D01*
X59603Y-30816D01*
X59612Y-30797D01*
X59622Y-30788D01*
X59640Y-30778D01*
X59687Y-30778D01*
X59706Y-30788D01*
X59715Y-30797D01*
X59725Y-30816D01*
X59725Y-30872D01*
X59715Y-30891D01*
X59706Y-30900D01*
X59706Y-30694D02*
X59715Y-30685D01*
X59725Y-30694D01*
X59715Y-30703D01*
X59706Y-30694D01*
X59725Y-30694D01*
X59528Y-30619D02*
X59528Y-30497D01*
X59603Y-30563D01*
X59603Y-30535D01*
X59612Y-30516D01*
X59622Y-30507D01*
X59640Y-30497D01*
X59687Y-30497D01*
X59706Y-30507D01*
X59715Y-30516D01*
X59725Y-30535D01*
X59725Y-30591D01*
X59715Y-30610D01*
X59706Y-30619D01*
X59800Y-30432D02*
X59790Y-30422D01*
X59762Y-30404D01*
X59744Y-30394D01*
X59715Y-30385D01*
X59669Y-30375D01*
X59631Y-30375D01*
X59584Y-30385D01*
X59556Y-30394D01*
X59537Y-30404D01*
X59509Y-30422D01*
X59500Y-30432D01*
G54D12*
X61445Y-31875D02*
X61417Y-31903D01*
X61332Y-31931D01*
X61276Y-31931D01*
X61192Y-31903D01*
X61136Y-31847D01*
X61107Y-31791D01*
X61079Y-31678D01*
X61079Y-31594D01*
X61107Y-31482D01*
X61136Y-31425D01*
X61192Y-31369D01*
X61276Y-31341D01*
X61332Y-31341D01*
X61417Y-31369D01*
X61445Y-31397D01*
X61642Y-31538D02*
X61782Y-31931D01*
X61923Y-31538D02*
X61782Y-31931D01*
X61726Y-32072D01*
X61698Y-32100D01*
X61642Y-32128D01*
X62401Y-31903D02*
X62345Y-31931D01*
X62232Y-31931D01*
X62176Y-31903D01*
X62148Y-31875D01*
X62120Y-31819D01*
X62120Y-31650D01*
X62148Y-31594D01*
X62176Y-31566D01*
X62232Y-31538D01*
X62345Y-31538D01*
X62401Y-31566D01*
X62739Y-31931D02*
X62682Y-31903D01*
X62654Y-31847D01*
X62654Y-31341D01*
X63048Y-31931D02*
X62992Y-31903D01*
X62964Y-31875D01*
X62935Y-31819D01*
X62935Y-31650D01*
X62964Y-31594D01*
X62992Y-31566D01*
X63048Y-31538D01*
X63132Y-31538D01*
X63188Y-31566D01*
X63217Y-31594D01*
X63245Y-31650D01*
X63245Y-31819D01*
X63217Y-31875D01*
X63188Y-31903D01*
X63132Y-31931D01*
X63048Y-31931D01*
X63498Y-31538D02*
X63498Y-31931D01*
X63498Y-31594D02*
X63526Y-31566D01*
X63582Y-31538D01*
X63667Y-31538D01*
X63723Y-31566D01*
X63751Y-31622D01*
X63751Y-31931D01*
X64257Y-31903D02*
X64201Y-31931D01*
X64088Y-31931D01*
X64032Y-31903D01*
X64004Y-31847D01*
X64004Y-31622D01*
X64032Y-31566D01*
X64088Y-31538D01*
X64201Y-31538D01*
X64257Y-31566D01*
X64285Y-31622D01*
X64285Y-31678D01*
X64004Y-31735D01*
X64960Y-31397D02*
X64988Y-31369D01*
X65044Y-31341D01*
X65185Y-31341D01*
X65241Y-31369D01*
X65269Y-31397D01*
X65298Y-31453D01*
X65298Y-31510D01*
X65269Y-31594D01*
X64932Y-31931D01*
X65298Y-31931D01*
X59955Y-32567D02*
X60151Y-32567D01*
X60236Y-32876D02*
X59955Y-32876D01*
X59955Y-32286D01*
X60236Y-32286D01*
X60489Y-32876D02*
X60489Y-32286D01*
X60714Y-32286D01*
X60770Y-32314D01*
X60798Y-32342D01*
X60826Y-32398D01*
X60826Y-32483D01*
X60798Y-32539D01*
X60770Y-32567D01*
X60714Y-32595D01*
X60489Y-32595D01*
X61051Y-32342D02*
X61079Y-32314D01*
X61136Y-32286D01*
X61276Y-32286D01*
X61332Y-32314D01*
X61361Y-32342D01*
X61389Y-32398D01*
X61389Y-32455D01*
X61361Y-32539D01*
X61023Y-32876D01*
X61389Y-32876D01*
X61979Y-32820D02*
X61951Y-32848D01*
X61867Y-32876D01*
X61811Y-32876D01*
X61726Y-32848D01*
X61670Y-32792D01*
X61642Y-32736D01*
X61614Y-32623D01*
X61614Y-32539D01*
X61642Y-32426D01*
X61670Y-32370D01*
X61726Y-32314D01*
X61811Y-32286D01*
X61867Y-32286D01*
X61951Y-32314D01*
X61979Y-32342D01*
X62514Y-32286D02*
X62232Y-32286D01*
X62204Y-32567D01*
X62232Y-32539D01*
X62289Y-32511D01*
X62429Y-32511D01*
X62485Y-32539D01*
X62514Y-32567D01*
X62542Y-32623D01*
X62542Y-32764D01*
X62514Y-32820D01*
X62485Y-32848D01*
X62429Y-32876D01*
X62289Y-32876D01*
X62232Y-32848D01*
X62204Y-32820D01*
X62710Y-32286D02*
X63048Y-32286D01*
X62879Y-32876D02*
X62879Y-32286D01*
X63554Y-32876D02*
X63217Y-32876D01*
X63385Y-32876D02*
X63385Y-32286D01*
X63329Y-32370D01*
X63273Y-32426D01*
X63217Y-32455D01*
X64060Y-32483D02*
X64060Y-32876D01*
X63920Y-32258D02*
X63779Y-32679D01*
X64145Y-32679D01*
X64623Y-32483D02*
X64623Y-32876D01*
X64482Y-32258D02*
X64341Y-32679D01*
X64707Y-32679D01*
X65269Y-32820D02*
X65241Y-32848D01*
X65157Y-32876D01*
X65101Y-32876D01*
X65016Y-32848D01*
X64960Y-32792D01*
X64932Y-32736D01*
X64904Y-32623D01*
X64904Y-32539D01*
X64932Y-32426D01*
X64960Y-32370D01*
X65016Y-32314D01*
X65101Y-32286D01*
X65157Y-32286D01*
X65241Y-32314D01*
X65269Y-32342D01*
X65466Y-32286D02*
X65860Y-32286D01*
X65607Y-32876D01*
X66085Y-32876D02*
X66085Y-32286D01*
X66422Y-32876D01*
X66422Y-32286D01*
G54D14*
X72581Y-6910D02*
X72581Y-7107D01*
X72511Y-6798D02*
X72440Y-7009D01*
X72623Y-7009D01*
X72736Y-7079D02*
X72750Y-7093D01*
X72736Y-7107D01*
X72722Y-7093D01*
X72736Y-7079D01*
X72736Y-7107D01*
X72848Y-6812D02*
X73045Y-6812D01*
X72919Y-7107D01*
X73158Y-7107D02*
X73158Y-6812D01*
X73326Y-7107D02*
X73200Y-6938D01*
X73326Y-6812D02*
X73158Y-6981D01*
X73622Y-7107D02*
X73523Y-6967D01*
X73453Y-7107D02*
X73453Y-6812D01*
X73565Y-6812D01*
X73593Y-6826D01*
X73607Y-6840D01*
X73622Y-6868D01*
X73622Y-6910D01*
X73607Y-6938D01*
X73593Y-6953D01*
X73565Y-6967D01*
X73453Y-6967D01*
X71098Y-6812D02*
X70957Y-6812D01*
X70943Y-6953D01*
X70957Y-6938D01*
X70985Y-6924D01*
X71055Y-6924D01*
X71084Y-6938D01*
X71098Y-6953D01*
X71112Y-6981D01*
X71112Y-7051D01*
X71098Y-7079D01*
X71084Y-7093D01*
X71055Y-7107D01*
X70985Y-7107D01*
X70957Y-7093D01*
X70943Y-7079D01*
X71365Y-6812D02*
X71309Y-6812D01*
X71280Y-6826D01*
X71266Y-6840D01*
X71238Y-6882D01*
X71224Y-6938D01*
X71224Y-7051D01*
X71238Y-7079D01*
X71252Y-7093D01*
X71280Y-7107D01*
X71337Y-7107D01*
X71365Y-7093D01*
X71379Y-7079D01*
X71393Y-7051D01*
X71393Y-6981D01*
X71379Y-6953D01*
X71365Y-6938D01*
X71337Y-6924D01*
X71280Y-6924D01*
X71252Y-6938D01*
X71238Y-6953D01*
X71224Y-6981D01*
X71576Y-6812D02*
X71604Y-6812D01*
X71632Y-6826D01*
X71646Y-6840D01*
X71660Y-6868D01*
X71674Y-6924D01*
X71674Y-6995D01*
X71660Y-7051D01*
X71646Y-7079D01*
X71632Y-7093D01*
X71604Y-7107D01*
X71576Y-7107D01*
X71548Y-7093D01*
X71534Y-7079D01*
X71519Y-7051D01*
X71505Y-6995D01*
X71505Y-6924D01*
X71519Y-6868D01*
X71534Y-6840D01*
X71548Y-6826D01*
X71576Y-6812D01*
X71969Y-7107D02*
X71871Y-6967D01*
X71801Y-7107D02*
X71801Y-6812D01*
X71913Y-6812D01*
X71941Y-6826D01*
X71955Y-6840D01*
X71969Y-6868D01*
X71969Y-6910D01*
X71955Y-6938D01*
X71941Y-6953D01*
X71913Y-6967D01*
X71801Y-6967D01*
X70282Y-25766D02*
X70662Y-26019D01*
X70296Y-25710D02*
X70591Y-25611D01*
X70296Y-25513D01*
X70577Y-25428D02*
X70591Y-25386D01*
X70591Y-25316D01*
X70577Y-25288D01*
X70563Y-25274D01*
X70535Y-25260D01*
X70507Y-25260D01*
X70479Y-25274D01*
X70465Y-25288D01*
X70451Y-25316D01*
X70437Y-25372D01*
X70423Y-25400D01*
X70409Y-25414D01*
X70381Y-25428D01*
X70352Y-25428D01*
X70324Y-25414D01*
X70310Y-25400D01*
X70296Y-25372D01*
X70296Y-25302D01*
X70310Y-25260D01*
X70451Y-25077D02*
X70591Y-25077D01*
X70296Y-25175D02*
X70451Y-25077D01*
X70296Y-24978D01*
X70591Y-24880D02*
X70296Y-24880D01*
X70591Y-24711D01*
X70296Y-24711D01*
X70563Y-24402D02*
X70577Y-24416D01*
X70591Y-24458D01*
X70591Y-24486D01*
X70577Y-24528D01*
X70549Y-24557D01*
X70521Y-24571D01*
X70465Y-24585D01*
X70423Y-24585D01*
X70366Y-24571D01*
X70338Y-24557D01*
X70310Y-24528D01*
X70296Y-24486D01*
X70296Y-24458D01*
X70310Y-24416D01*
X70324Y-24402D01*
X71365Y-25794D02*
X71744Y-26047D01*
X71674Y-25696D02*
X71379Y-25696D01*
X71519Y-25696D02*
X71519Y-25527D01*
X71674Y-25527D02*
X71379Y-25527D01*
X71660Y-25400D02*
X71674Y-25358D01*
X71674Y-25288D01*
X71660Y-25260D01*
X71646Y-25246D01*
X71618Y-25232D01*
X71590Y-25232D01*
X71562Y-25246D01*
X71548Y-25260D01*
X71534Y-25288D01*
X71519Y-25344D01*
X71505Y-25372D01*
X71491Y-25386D01*
X71463Y-25400D01*
X71435Y-25400D01*
X71407Y-25386D01*
X71393Y-25372D01*
X71379Y-25344D01*
X71379Y-25274D01*
X71393Y-25232D01*
X71534Y-25049D02*
X71674Y-25049D01*
X71379Y-25147D02*
X71534Y-25049D01*
X71379Y-24950D01*
X71674Y-24852D02*
X71379Y-24852D01*
X71674Y-24683D01*
X71379Y-24683D01*
X71646Y-24374D02*
X71660Y-24388D01*
X71674Y-24430D01*
X71674Y-24458D01*
X71660Y-24500D01*
X71632Y-24528D01*
X71604Y-24543D01*
X71548Y-24557D01*
X71505Y-24557D01*
X71449Y-24543D01*
X71421Y-24528D01*
X71393Y-24500D01*
X71379Y-24458D01*
X71379Y-24430D01*
X71393Y-24388D01*
X71407Y-24374D01*
X70008Y-21801D02*
X70022Y-21787D01*
X70050Y-21773D01*
X70120Y-21773D01*
X70149Y-21787D01*
X70163Y-21801D01*
X70177Y-21829D01*
X70177Y-21857D01*
X70163Y-21899D01*
X69994Y-22068D01*
X70177Y-22068D01*
X70500Y-22068D02*
X70655Y-21871D01*
X70500Y-21871D02*
X70655Y-22068D01*
X71119Y-21871D02*
X71119Y-22068D01*
X71048Y-21758D02*
X70978Y-21969D01*
X71161Y-21969D01*
X71245Y-21773D02*
X71442Y-21773D01*
X71316Y-22068D01*
X71723Y-22068D02*
X71625Y-21927D01*
X71555Y-22068D02*
X71555Y-21773D01*
X71667Y-21773D01*
X71695Y-21787D01*
X71709Y-21801D01*
X71723Y-21829D01*
X71723Y-21871D01*
X71709Y-21899D01*
X71695Y-21913D01*
X71667Y-21927D01*
X71555Y-21927D01*
X67829Y-6418D02*
X68011Y-6418D01*
X67913Y-6531D01*
X67955Y-6531D01*
X67983Y-6545D01*
X67997Y-6559D01*
X68011Y-6587D01*
X68011Y-6657D01*
X67997Y-6685D01*
X67983Y-6699D01*
X67955Y-6714D01*
X67871Y-6714D01*
X67843Y-6699D01*
X67829Y-6685D01*
X68335Y-6714D02*
X68489Y-6517D01*
X68335Y-6517D02*
X68489Y-6714D01*
X68799Y-6418D02*
X68996Y-6418D01*
X68869Y-6714D01*
X69249Y-6418D02*
X69108Y-6418D01*
X69094Y-6559D01*
X69108Y-6545D01*
X69136Y-6531D01*
X69206Y-6531D01*
X69235Y-6545D01*
X69249Y-6559D01*
X69263Y-6587D01*
X69263Y-6657D01*
X69249Y-6685D01*
X69235Y-6699D01*
X69206Y-6714D01*
X69136Y-6714D01*
X69108Y-6699D01*
X69094Y-6685D01*
X69558Y-6714D02*
X69460Y-6573D01*
X69389Y-6714D02*
X69389Y-6418D01*
X69502Y-6418D01*
X69530Y-6432D01*
X69544Y-6446D01*
X69558Y-6474D01*
X69558Y-6517D01*
X69544Y-6545D01*
X69530Y-6559D01*
X69502Y-6573D01*
X69389Y-6573D01*
X68257Y-6919D02*
X68229Y-6905D01*
X68187Y-6905D01*
X68145Y-6919D01*
X68117Y-6948D01*
X68103Y-6976D01*
X68089Y-7032D01*
X68089Y-7074D01*
X68103Y-7130D01*
X68117Y-7159D01*
X68145Y-7187D01*
X68187Y-7201D01*
X68215Y-7201D01*
X68257Y-7187D01*
X68271Y-7173D01*
X68271Y-7074D01*
X68215Y-7074D01*
X68721Y-7046D02*
X68764Y-7060D01*
X68778Y-7074D01*
X68792Y-7102D01*
X68792Y-7144D01*
X68778Y-7173D01*
X68764Y-7187D01*
X68735Y-7201D01*
X68623Y-7201D01*
X68623Y-6905D01*
X68721Y-6905D01*
X68750Y-6919D01*
X68764Y-6934D01*
X68778Y-6962D01*
X68778Y-6990D01*
X68764Y-7018D01*
X68750Y-7032D01*
X68721Y-7046D01*
X68623Y-7046D01*
X69312Y-7201D02*
X69214Y-7060D01*
X69143Y-7201D02*
X69143Y-6905D01*
X69256Y-6905D01*
X69284Y-6919D01*
X69298Y-6934D01*
X69312Y-6962D01*
X69312Y-7004D01*
X69298Y-7032D01*
X69284Y-7046D01*
X69256Y-7060D01*
X69143Y-7060D01*
G54D15*
X70416Y-28149D02*
X70416Y-28549D01*
X70416Y-28149D02*
X70416Y-27749D01*
X71316Y-28149D02*
X71316Y-28549D01*
X71316Y-28149D02*
X71316Y-27749D01*
X70514Y-33070D02*
X70514Y-33470D01*
X70514Y-33070D02*
X70514Y-32670D01*
X71414Y-33070D02*
X71414Y-33470D01*
X71414Y-33070D02*
X71414Y-32670D01*
G54D16*
X70850Y-31897D02*
X70850Y-30897D01*
X70850Y-30897D02*
X72850Y-30897D01*
X72850Y-30897D02*
X72850Y-31897D01*
X72850Y-31897D02*
X70850Y-31897D01*
G54D10*
X56043Y-12736D02*
X56751Y-12736D01*
X56751Y-12736D02*
X56751Y-13444D01*
X56751Y-13444D02*
X56043Y-13444D01*
X56043Y-13444D02*
X56043Y-12736D01*
G54D17*
X64401Y-9732D02*
X64401Y-9952D01*
X64141Y-9732D02*
X64141Y-9952D01*
X64061Y-9732D02*
X64061Y-9952D01*
X64061Y-9952D02*
X64481Y-9952D01*
X64481Y-9952D02*
X64481Y-9732D01*
X64481Y-9732D02*
X64061Y-9732D01*
X63866Y-11188D02*
X64086Y-11188D01*
X63866Y-11448D02*
X64086Y-11448D01*
X63866Y-11528D02*
X64086Y-11528D01*
X64086Y-11528D02*
X64086Y-11108D01*
X64086Y-11108D02*
X63866Y-11108D01*
X63866Y-11108D02*
X63866Y-11528D01*
G54D15*
X52994Y-44389D02*
X52994Y-44789D01*
X52994Y-44389D02*
X52994Y-43989D01*
X53894Y-44389D02*
X53894Y-44789D01*
X53894Y-44389D02*
X53894Y-43989D01*
G54D16*
X57881Y-52074D02*
X56881Y-52074D01*
X56881Y-51074D02*
X57881Y-51074D01*
X56881Y-52074D02*
X56881Y-51074D01*
X57881Y-51074D02*
X57881Y-52074D01*
G54D17*
X60815Y-37960D02*
X61035Y-37960D01*
X60815Y-38220D02*
X61035Y-38220D01*
X60815Y-38300D02*
X61035Y-38300D01*
X61035Y-38300D02*
X61035Y-37880D01*
X61035Y-37880D02*
X60815Y-37880D01*
X60815Y-37880D02*
X60815Y-38300D01*
X59614Y-31212D02*
X59614Y-30992D01*
X59874Y-31212D02*
X59874Y-30992D01*
X59954Y-31212D02*
X59954Y-30992D01*
X59954Y-30992D02*
X59534Y-30992D01*
X59534Y-30992D02*
X59534Y-31212D01*
X59534Y-31212D02*
X59954Y-31212D01*
X61307Y-28905D02*
X61527Y-28905D01*
X61307Y-29165D02*
X61527Y-29165D01*
X61307Y-29245D02*
X61527Y-29245D01*
X61527Y-29245D02*
X61527Y-28825D01*
X61527Y-28825D02*
X61307Y-28825D01*
X61307Y-28825D02*
X61307Y-29245D01*
X66503Y-33377D02*
X66503Y-33157D01*
X66763Y-33377D02*
X66763Y-33157D01*
X66843Y-33377D02*
X66843Y-33157D01*
X66843Y-33157D02*
X66423Y-33157D01*
X66423Y-33157D02*
X66423Y-33377D01*
X66423Y-33377D02*
X66843Y-33377D01*
G54D15*
X55019Y-46119D02*
X55419Y-46119D01*
X55019Y-46119D02*
X54619Y-46119D01*
X55019Y-45219D02*
X55419Y-45219D01*
X55019Y-45219D02*
X54619Y-45219D01*
X63920Y-43110D02*
X63920Y-43510D01*
X63920Y-43110D02*
X63920Y-42710D01*
X64820Y-43110D02*
X64820Y-43510D01*
X64820Y-43110D02*
X64820Y-42710D01*
X60376Y-33366D02*
X60376Y-33766D01*
X60376Y-33366D02*
X60376Y-32966D01*
X61276Y-33366D02*
X61276Y-33766D01*
X61276Y-33366D02*
X61276Y-32966D01*
X65790Y-39566D02*
X65790Y-39966D01*
X65790Y-39566D02*
X65790Y-39166D01*
X66690Y-39566D02*
X66690Y-39966D01*
X66690Y-39566D02*
X66690Y-39166D01*
X68349Y-37401D02*
X68349Y-37801D01*
X68349Y-37401D02*
X68349Y-37001D01*
X69249Y-37401D02*
X69249Y-37801D01*
X69249Y-37401D02*
X69249Y-37001D01*
X56636Y-41633D02*
X56636Y-42033D01*
X56636Y-41633D02*
X56636Y-41233D01*
X57536Y-41633D02*
X57536Y-42033D01*
X57536Y-41633D02*
X57536Y-41233D01*
X55160Y-38877D02*
X55160Y-39277D01*
X55160Y-38877D02*
X55160Y-38477D01*
X56060Y-38877D02*
X56060Y-39277D01*
X56060Y-38877D02*
X56060Y-38477D01*
G54D18*
X63775Y-50893D02*
X61795Y-50893D01*
X61795Y-50893D02*
X61795Y-49893D01*
X61795Y-49893D02*
X63795Y-49893D01*
X63795Y-49893D02*
X63795Y-50893D01*
X63795Y-50643D02*
X63545Y-50893D01*
X62495Y-8078D02*
X60515Y-8078D01*
X60515Y-8078D02*
X60515Y-7078D01*
X60515Y-7078D02*
X62515Y-7078D01*
X62515Y-7078D02*
X62515Y-8078D01*
X62515Y-7828D02*
X62265Y-8078D01*
G54D15*
X72187Y-8366D02*
X72187Y-8766D01*
X72187Y-8366D02*
X72187Y-7966D01*
X73087Y-8366D02*
X73087Y-8766D01*
X73087Y-8366D02*
X73087Y-7966D01*
X71006Y-8366D02*
X71006Y-8766D01*
X71006Y-8366D02*
X71006Y-7966D01*
X71906Y-8366D02*
X71906Y-8766D01*
X71906Y-8366D02*
X71906Y-7966D01*
G54D18*
X65641Y-19188D02*
X65641Y-17208D01*
X65641Y-17208D02*
X66641Y-17208D01*
X66641Y-17208D02*
X66641Y-19208D01*
X66641Y-19208D02*
X65641Y-19208D01*
X65891Y-19208D02*
X65641Y-18958D01*
G54D17*
X62924Y-13263D02*
X62824Y-13263D01*
X62824Y-13263D02*
X62574Y-13463D01*
X62574Y-13463D02*
X62574Y-13613D01*
X62924Y-13263D02*
X65574Y-13263D01*
X65574Y-13263D02*
X65574Y-16263D01*
X65574Y-16263D02*
X62574Y-16263D01*
X62574Y-16263D02*
X62574Y-13613D01*
X62889Y-13480D02*
G75*
G03X62889Y-13480I-125J0D01*
G74*
G01*
X63692Y-48983D02*
X63742Y-48983D01*
X63742Y-48983D02*
X63742Y-46883D01*
X62242Y-46883D02*
X62242Y-48983D01*
X62242Y-48983D02*
X63692Y-48983D01*
X62792Y-48983D02*
X62792Y-48783D01*
X62792Y-48783D02*
X63192Y-48783D01*
X63192Y-48783D02*
X63192Y-48983D01*
X62242Y-46883D02*
X63742Y-46883D01*
G54D18*
X60188Y-29131D02*
G75*
G03X60188Y-29131I-250J0D01*
G74*
G01*
X59488Y-28981D02*
X59488Y-28891D01*
X59488Y-28891D02*
X59188Y-28891D01*
X59188Y-28981D02*
X59488Y-28981D01*
X59188Y-36131D02*
X59438Y-36381D01*
X59438Y-36381D02*
X66938Y-36381D01*
X66938Y-36381D02*
X67188Y-36131D01*
X67188Y-36131D02*
X67188Y-28631D01*
X67188Y-28631D02*
X66938Y-28381D01*
X66938Y-28381D02*
X59438Y-28381D01*
X59438Y-28381D02*
X59188Y-28631D01*
X59188Y-28631D02*
X59188Y-36131D01*
X63007Y-40610D02*
X63007Y-45610D01*
X63007Y-45610D02*
X61007Y-45610D01*
X61007Y-45610D02*
X61007Y-40610D01*
X61007Y-40610D02*
X63007Y-40610D01*
X56118Y-39921D02*
X56118Y-44921D01*
X56118Y-44921D02*
X54118Y-44921D01*
X54118Y-44921D02*
X54118Y-39921D01*
X54118Y-39921D02*
X56118Y-39921D01*
G54D17*
X73200Y-21522D02*
X73200Y-21422D01*
X73200Y-21422D02*
X73200Y-20922D01*
X73200Y-20922D02*
X73200Y-19922D01*
X73200Y-19922D02*
X73200Y-19422D01*
X73200Y-19422D02*
X73200Y-18652D01*
X73200Y-18652D02*
X73200Y-12252D01*
X73200Y-12252D02*
X73200Y-11482D01*
X73200Y-11482D02*
X73200Y-10982D01*
X73200Y-10982D02*
X73200Y-9982D01*
X73200Y-9982D02*
X73200Y-9482D01*
X73200Y-9482D02*
X73200Y-9382D01*
X73200Y-21522D02*
X66850Y-21522D01*
X73200Y-9382D02*
X66850Y-9382D01*
X66850Y-21522D02*
X66850Y-9382D01*
X75599Y-18652D02*
X75599Y-12252D01*
X75599Y-18652D02*
X73200Y-18652D01*
X75599Y-12252D02*
X73200Y-12252D01*
X75200Y-21422D02*
X75200Y-20922D01*
X75200Y-20922D02*
X75200Y-19922D01*
X75200Y-19922D02*
X75200Y-19422D01*
X75200Y-9482D02*
X75200Y-9982D01*
X75200Y-9982D02*
X75200Y-10982D01*
X75200Y-10982D02*
X75200Y-11482D01*
X75200Y-9482D02*
X73200Y-9482D01*
X75200Y-11482D02*
X73200Y-11482D01*
X75200Y-19422D02*
X73200Y-19422D01*
X75200Y-21422D02*
X73200Y-21422D01*
X75200Y-20922D02*
X73200Y-20922D01*
X75200Y-19922D02*
X73200Y-19922D01*
X75200Y-10982D02*
X73200Y-10982D01*
X75200Y-9982D02*
X73200Y-9982D01*
X72200Y-21522D02*
X72200Y-18952D01*
X72200Y-18952D02*
X72200Y-11952D01*
X72200Y-11952D02*
X72200Y-9382D01*
X72200Y-11952D02*
X66850Y-11952D01*
X72200Y-18952D02*
X66850Y-18952D01*
G54D15*
X68349Y-8366D02*
X68349Y-8766D01*
X68349Y-8366D02*
X68349Y-7966D01*
X69249Y-8366D02*
X69249Y-8766D01*
X69249Y-8366D02*
X69249Y-7966D01*
X69431Y-8366D02*
X69431Y-8766D01*
X69431Y-8366D02*
X69431Y-7966D01*
X70331Y-8366D02*
X70331Y-8766D01*
X70331Y-8366D02*
X70331Y-7966D01*
X67266Y-8366D02*
X67266Y-8766D01*
X67266Y-8366D02*
X67266Y-7966D01*
X68166Y-8366D02*
X68166Y-8766D01*
X68166Y-8366D02*
X68166Y-7966D01*
X71105Y-23228D02*
X71105Y-23628D01*
X71105Y-23228D02*
X71105Y-22828D01*
X72005Y-23228D02*
X72005Y-23628D01*
X72005Y-23228D02*
X72005Y-22828D01*
X70022Y-23228D02*
X70022Y-23628D01*
X70022Y-23228D02*
X70022Y-22828D01*
X70922Y-23228D02*
X70922Y-23628D01*
X70922Y-23228D02*
X70922Y-22828D01*
G54D10*
X56043Y-11850D02*
X56751Y-11850D01*
X56751Y-11850D02*
X56751Y-12559D01*
X56751Y-12559D02*
X56043Y-12559D01*
X56043Y-12559D02*
X56043Y-11850D01*
G54D15*
X66415Y-7677D02*
G75*
G03X66415Y-7677I-1750J0D01*
G74*
G01*
G54D18*
X64374Y-10523D02*
X66354Y-10523D01*
X66354Y-10523D02*
X66354Y-11523D01*
X66354Y-11523D02*
X64354Y-11523D01*
X64354Y-11523D02*
X64354Y-10523D01*
X64354Y-10773D02*
X64604Y-10523D01*
G54D17*
X65145Y-14633D02*
X65365Y-14633D01*
X65145Y-14893D02*
X65365Y-14893D01*
X65145Y-14973D02*
X65365Y-14973D01*
X65365Y-14973D02*
X65365Y-14553D01*
X65365Y-14553D02*
X65145Y-14553D01*
X65145Y-14553D02*
X65145Y-14973D01*
X63078Y-9909D02*
X63298Y-9909D01*
X63078Y-10169D02*
X63298Y-10169D01*
X63078Y-10249D02*
X63298Y-10249D01*
X63298Y-10249D02*
X63298Y-9829D01*
X63298Y-9829D02*
X63078Y-9829D01*
X63078Y-9829D02*
X63078Y-10249D01*
X67689Y-27966D02*
X67533Y-28122D01*
X67505Y-27783D02*
X67349Y-27938D01*
X67448Y-27726D02*
X67293Y-27882D01*
X67293Y-27882D02*
X67590Y-28179D01*
X67590Y-28179D02*
X67745Y-28023D01*
X67745Y-28023D02*
X67448Y-27726D01*
G54D18*
X67228Y-26271D02*
X69208Y-26271D01*
X69208Y-26271D02*
X69208Y-27271D01*
X69208Y-27271D02*
X67208Y-27271D01*
X67208Y-27271D02*
X67208Y-26271D01*
X67208Y-26521D02*
X67458Y-26271D01*
G54D15*
X69663Y-23917D02*
G75*
G03X69663Y-23917I-1750J0D01*
G74*
G01*
G54D16*
X57488Y-36326D02*
X56488Y-36326D01*
X56488Y-35326D02*
X57488Y-35326D01*
X56488Y-36326D02*
X56488Y-35326D01*
X57488Y-35326D02*
X57488Y-36326D01*
G54D19*
X59274Y-46053D02*
X59274Y-44853D01*
X59274Y-44853D02*
X56474Y-44853D01*
X56474Y-44853D02*
X56474Y-46053D01*
X59274Y-47253D02*
X59274Y-47553D01*
X59274Y-47553D02*
X58674Y-48453D01*
X58674Y-48453D02*
X57074Y-48453D01*
X57074Y-48453D02*
X56474Y-47553D01*
X56474Y-47553D02*
X56474Y-47253D01*
G54D18*
X58456Y-43696D02*
X58456Y-41716D01*
X58456Y-41716D02*
X59456Y-41716D01*
X59456Y-41716D02*
X59456Y-43716D01*
X59456Y-43716D02*
X58456Y-43716D01*
X58706Y-43716D02*
X58456Y-43466D01*
G54D15*
X61494Y-50098D02*
G75*
G03X61494Y-50098I-1750J0D01*
G74*
G01*
X56966Y-49606D02*
G75*
G03X56966Y-49606I-1750J0D01*
G74*
G01*
G54D18*
X53449Y-46448D02*
X55429Y-46448D01*
X55429Y-46448D02*
X55429Y-47448D01*
X55429Y-47448D02*
X53429Y-47448D01*
X53429Y-47448D02*
X53429Y-46448D01*
X53429Y-46698D02*
X53679Y-46448D01*
X66330Y-40866D02*
X67330Y-40866D01*
X67330Y-40866D02*
X67330Y-50866D01*
X67330Y-50866D02*
X66330Y-50866D01*
X66330Y-50866D02*
X66330Y-40866D01*
X66330Y-41866D02*
X67330Y-41866D01*
G54D17*
X59859Y-6988D02*
G75*
G03X59859Y-6988I-1001J0D01*
G74*
G01*
X59859Y-9350D02*
G75*
G03X59859Y-9350I-1001J0D01*
G74*
G01*
G54D18*
X57878Y-10622D02*
X59858Y-10622D01*
X59858Y-10622D02*
X59858Y-11622D01*
X59858Y-11622D02*
X57858Y-11622D01*
X57858Y-11622D02*
X57858Y-10622D01*
X57858Y-10872D02*
X58108Y-10622D01*
G54D16*
X70850Y-30224D02*
X70850Y-29224D01*
X70850Y-29224D02*
X72850Y-29224D01*
X72850Y-29224D02*
X72850Y-30224D01*
X72850Y-30224D02*
X70850Y-30224D01*
G54D15*
X57199Y-7086D02*
G75*
G03X57199Y-7086I-900J0D01*
G74*
G01*
X55230Y-29921D02*
G75*
G03X55230Y-29921I-900J0D01*
G74*
G01*
X72159Y-50393D02*
G75*
G03X72159Y-50393I-900J0D01*
G74*
G01*
G54D18*
G54D16*
X70957Y-30626D02*
X70957Y-30769D01*
X70857Y-30469D02*
X70957Y-30626D01*
X71057Y-30469D01*
X71157Y-30469D02*
X71157Y-30711D01*
X71171Y-30740D01*
X71186Y-30754D01*
X71214Y-30769D01*
X71271Y-30769D01*
X71300Y-30754D01*
X71314Y-30740D01*
X71328Y-30711D01*
X71328Y-30469D01*
X71428Y-30469D02*
X71528Y-30769D01*
X71628Y-30469D01*
X71943Y-30454D02*
X71686Y-30840D01*
X72214Y-30769D02*
X72114Y-30626D01*
X72043Y-30769D02*
X72043Y-30469D01*
X72157Y-30469D01*
X72186Y-30483D01*
X72200Y-30497D01*
X72214Y-30526D01*
X72214Y-30569D01*
X72200Y-30597D01*
X72186Y-30611D01*
X72157Y-30626D01*
X72043Y-30626D01*
X72500Y-30483D02*
X72471Y-30469D01*
X72428Y-30469D01*
X72386Y-30483D01*
X72357Y-30511D01*
X72343Y-30540D01*
X72328Y-30597D01*
X72328Y-30640D01*
X72343Y-30697D01*
X72357Y-30726D01*
X72386Y-30754D01*
X72428Y-30769D01*
X72457Y-30769D01*
X72500Y-30754D01*
X72514Y-30740D01*
X72514Y-30640D01*
X72457Y-30640D01*
X72743Y-30611D02*
X72786Y-30626D01*
X72800Y-30640D01*
X72814Y-30669D01*
X72814Y-30711D01*
X72800Y-30740D01*
X72786Y-30754D01*
X72757Y-30769D01*
X72643Y-30769D01*
X72643Y-30469D01*
X72743Y-30469D01*
X72771Y-30483D01*
X72786Y-30497D01*
X72800Y-30526D01*
X72800Y-30554D01*
X72786Y-30583D01*
X72771Y-30597D01*
X72743Y-30611D01*
X72643Y-30611D01*
G54D10*
X56157Y-13607D02*
X56127Y-13592D01*
X56082Y-13592D01*
X56037Y-13607D01*
X56007Y-13637D01*
X55992Y-13667D01*
X55977Y-13727D01*
X55977Y-13772D01*
X55992Y-13832D01*
X56007Y-13862D01*
X56037Y-13892D01*
X56082Y-13907D01*
X56112Y-13907D01*
X56157Y-13892D01*
X56172Y-13877D01*
X56172Y-13772D01*
X56112Y-13772D01*
X56307Y-13907D02*
X56307Y-13592D01*
X56487Y-13907D01*
X56487Y-13592D01*
X56637Y-13907D02*
X56637Y-13592D01*
X56712Y-13592D01*
X56757Y-13607D01*
X56787Y-13637D01*
X56802Y-13667D01*
X56817Y-13727D01*
X56817Y-13772D01*
X56802Y-13832D01*
X56787Y-13862D01*
X56757Y-13892D01*
X56712Y-13907D01*
X56637Y-13907D01*
G54D20*
X64293Y-9775D02*
X64295Y-9781D01*
X64295Y-9792D01*
X64293Y-9798D01*
X64290Y-9801D01*
X64284Y-9803D01*
X64267Y-9803D01*
X64261Y-9801D01*
X64258Y-9798D01*
X64255Y-9792D01*
X64255Y-9781D01*
X64258Y-9775D01*
X64301Y-9763D02*
X64301Y-9718D01*
X64235Y-9692D02*
X64235Y-9686D01*
X64238Y-9681D01*
X64241Y-9678D01*
X64247Y-9675D01*
X64258Y-9672D01*
X64273Y-9672D01*
X64284Y-9675D01*
X64290Y-9678D01*
X64293Y-9681D01*
X64295Y-9686D01*
X64295Y-9692D01*
X64293Y-9698D01*
X64290Y-9701D01*
X64284Y-9703D01*
X64273Y-9706D01*
X64258Y-9706D01*
X64247Y-9703D01*
X64241Y-9701D01*
X64238Y-9698D01*
X64235Y-9692D01*
X64255Y-9621D02*
X64295Y-9621D01*
X64233Y-9635D02*
X64275Y-9649D01*
X64275Y-9612D01*
X64235Y-9578D02*
X64235Y-9572D01*
X64238Y-9566D01*
X64241Y-9563D01*
X64247Y-9561D01*
X64258Y-9558D01*
X64273Y-9558D01*
X64284Y-9561D01*
X64290Y-9563D01*
X64293Y-9566D01*
X64295Y-9572D01*
X64295Y-9578D01*
X64293Y-9583D01*
X64290Y-9586D01*
X64284Y-9589D01*
X64273Y-9592D01*
X64258Y-9592D01*
X64247Y-9589D01*
X64241Y-9586D01*
X64238Y-9583D01*
X64235Y-9578D01*
X64241Y-9535D02*
X64238Y-9532D01*
X64235Y-9526D01*
X64235Y-9512D01*
X64238Y-9506D01*
X64241Y-9503D01*
X64247Y-9501D01*
X64253Y-9501D01*
X64261Y-9503D01*
X64295Y-9538D01*
X64295Y-9501D01*
X63663Y-11340D02*
X63657Y-11343D01*
X63646Y-11343D01*
X63640Y-11340D01*
X63637Y-11337D01*
X63634Y-11331D01*
X63634Y-11314D01*
X63637Y-11308D01*
X63640Y-11306D01*
X63646Y-11303D01*
X63657Y-11303D01*
X63663Y-11306D01*
X63674Y-11348D02*
X63720Y-11348D01*
X63746Y-11283D02*
X63752Y-11283D01*
X63757Y-11286D01*
X63760Y-11288D01*
X63763Y-11294D01*
X63766Y-11306D01*
X63766Y-11320D01*
X63763Y-11331D01*
X63760Y-11337D01*
X63757Y-11340D01*
X63752Y-11343D01*
X63746Y-11343D01*
X63740Y-11340D01*
X63737Y-11337D01*
X63734Y-11331D01*
X63732Y-11320D01*
X63732Y-11306D01*
X63734Y-11294D01*
X63737Y-11288D01*
X63740Y-11286D01*
X63746Y-11283D01*
X63817Y-11303D02*
X63817Y-11343D01*
X63803Y-11280D02*
X63789Y-11323D01*
X63826Y-11323D01*
X63860Y-11283D02*
X63866Y-11283D01*
X63872Y-11286D01*
X63874Y-11288D01*
X63877Y-11294D01*
X63880Y-11306D01*
X63880Y-11320D01*
X63877Y-11331D01*
X63874Y-11337D01*
X63872Y-11340D01*
X63866Y-11343D01*
X63860Y-11343D01*
X63854Y-11340D01*
X63852Y-11337D01*
X63849Y-11331D01*
X63846Y-11320D01*
X63846Y-11306D01*
X63849Y-11294D01*
X63852Y-11288D01*
X63854Y-11286D01*
X63860Y-11283D01*
X63903Y-11288D02*
X63906Y-11286D01*
X63912Y-11283D01*
X63926Y-11283D01*
X63932Y-11286D01*
X63934Y-11288D01*
X63937Y-11294D01*
X63937Y-11300D01*
X63934Y-11308D01*
X63900Y-11343D01*
X63937Y-11343D01*
G54D18*
G54D16*
X57153Y-50660D02*
X57124Y-50646D01*
X57081Y-50646D01*
X57039Y-50660D01*
X57010Y-50689D01*
X56996Y-50717D01*
X56981Y-50774D01*
X56981Y-50817D01*
X56996Y-50874D01*
X57010Y-50903D01*
X57039Y-50931D01*
X57081Y-50946D01*
X57110Y-50946D01*
X57153Y-50931D01*
X57167Y-50917D01*
X57167Y-50817D01*
X57110Y-50817D01*
X57296Y-50946D02*
X57296Y-50646D01*
X57467Y-50946D01*
X57467Y-50646D01*
X57610Y-50946D02*
X57610Y-50646D01*
X57681Y-50646D01*
X57724Y-50660D01*
X57753Y-50689D01*
X57767Y-50717D01*
X57781Y-50774D01*
X57781Y-50817D01*
X57767Y-50874D01*
X57753Y-50903D01*
X57724Y-50931D01*
X57681Y-50946D01*
X57610Y-50946D01*
G54D20*
X60756Y-38213D02*
X60759Y-38219D01*
X60759Y-38230D01*
X60756Y-38236D01*
X60753Y-38239D01*
X60748Y-38241D01*
X60730Y-38241D01*
X60725Y-38239D01*
X60722Y-38236D01*
X60719Y-38230D01*
X60719Y-38219D01*
X60722Y-38213D01*
X60765Y-38201D02*
X60765Y-38156D01*
X60699Y-38130D02*
X60699Y-38124D01*
X60702Y-38119D01*
X60705Y-38116D01*
X60710Y-38113D01*
X60722Y-38110D01*
X60736Y-38110D01*
X60748Y-38113D01*
X60753Y-38116D01*
X60756Y-38119D01*
X60759Y-38124D01*
X60759Y-38130D01*
X60756Y-38136D01*
X60753Y-38139D01*
X60748Y-38141D01*
X60736Y-38144D01*
X60722Y-38144D01*
X60710Y-38141D01*
X60705Y-38139D01*
X60702Y-38136D01*
X60699Y-38130D01*
X60719Y-38059D02*
X60759Y-38059D01*
X60696Y-38073D02*
X60739Y-38087D01*
X60739Y-38050D01*
X60699Y-38016D02*
X60699Y-38010D01*
X60702Y-38004D01*
X60705Y-38001D01*
X60710Y-37999D01*
X60722Y-37996D01*
X60736Y-37996D01*
X60748Y-37999D01*
X60753Y-38001D01*
X60756Y-38004D01*
X60759Y-38010D01*
X60759Y-38016D01*
X60756Y-38021D01*
X60753Y-38024D01*
X60748Y-38027D01*
X60736Y-38030D01*
X60722Y-38030D01*
X60710Y-38027D01*
X60705Y-38024D01*
X60702Y-38021D01*
X60699Y-38016D01*
X60705Y-37973D02*
X60702Y-37970D01*
X60699Y-37964D01*
X60699Y-37950D01*
X60702Y-37944D01*
X60705Y-37941D01*
X60710Y-37939D01*
X60716Y-37939D01*
X60725Y-37941D01*
X60759Y-37976D01*
X60759Y-37939D01*
X59621Y-31313D02*
X59615Y-31316D01*
X59604Y-31316D01*
X59598Y-31313D01*
X59595Y-31310D01*
X59592Y-31305D01*
X59592Y-31288D01*
X59595Y-31282D01*
X59598Y-31279D01*
X59604Y-31276D01*
X59615Y-31276D01*
X59621Y-31279D01*
X59632Y-31322D02*
X59678Y-31322D01*
X59704Y-31256D02*
X59709Y-31256D01*
X59715Y-31259D01*
X59718Y-31262D01*
X59721Y-31268D01*
X59724Y-31279D01*
X59724Y-31293D01*
X59721Y-31305D01*
X59718Y-31310D01*
X59715Y-31313D01*
X59709Y-31316D01*
X59704Y-31316D01*
X59698Y-31313D01*
X59695Y-31310D01*
X59692Y-31305D01*
X59689Y-31293D01*
X59689Y-31279D01*
X59692Y-31268D01*
X59695Y-31262D01*
X59698Y-31259D01*
X59704Y-31256D01*
X59775Y-31276D02*
X59775Y-31316D01*
X59761Y-31253D02*
X59746Y-31296D01*
X59784Y-31296D01*
X59818Y-31256D02*
X59824Y-31256D01*
X59829Y-31259D01*
X59832Y-31262D01*
X59835Y-31268D01*
X59838Y-31279D01*
X59838Y-31293D01*
X59835Y-31305D01*
X59832Y-31310D01*
X59829Y-31313D01*
X59824Y-31316D01*
X59818Y-31316D01*
X59812Y-31313D01*
X59809Y-31310D01*
X59806Y-31305D01*
X59804Y-31293D01*
X59804Y-31279D01*
X59806Y-31268D01*
X59809Y-31262D01*
X59812Y-31259D01*
X59818Y-31256D01*
X59861Y-31262D02*
X59864Y-31259D01*
X59869Y-31256D01*
X59884Y-31256D01*
X59889Y-31259D01*
X59892Y-31262D01*
X59895Y-31268D01*
X59895Y-31273D01*
X59892Y-31282D01*
X59858Y-31316D01*
X59895Y-31316D01*
X61248Y-29158D02*
X61251Y-29164D01*
X61251Y-29175D01*
X61248Y-29181D01*
X61245Y-29184D01*
X61240Y-29186D01*
X61223Y-29186D01*
X61217Y-29184D01*
X61214Y-29181D01*
X61211Y-29175D01*
X61211Y-29164D01*
X61214Y-29158D01*
X61257Y-29146D02*
X61257Y-29101D01*
X61191Y-29075D02*
X61191Y-29069D01*
X61194Y-29064D01*
X61197Y-29061D01*
X61203Y-29058D01*
X61214Y-29055D01*
X61228Y-29055D01*
X61240Y-29058D01*
X61245Y-29061D01*
X61248Y-29064D01*
X61251Y-29069D01*
X61251Y-29075D01*
X61248Y-29081D01*
X61245Y-29084D01*
X61240Y-29086D01*
X61228Y-29089D01*
X61214Y-29089D01*
X61203Y-29086D01*
X61197Y-29084D01*
X61194Y-29081D01*
X61191Y-29075D01*
X61211Y-29004D02*
X61251Y-29004D01*
X61188Y-29018D02*
X61231Y-29032D01*
X61231Y-28995D01*
X61191Y-28961D02*
X61191Y-28955D01*
X61194Y-28949D01*
X61197Y-28946D01*
X61203Y-28944D01*
X61214Y-28941D01*
X61228Y-28941D01*
X61240Y-28944D01*
X61245Y-28946D01*
X61248Y-28949D01*
X61251Y-28955D01*
X61251Y-28961D01*
X61248Y-28966D01*
X61245Y-28969D01*
X61240Y-28972D01*
X61228Y-28975D01*
X61214Y-28975D01*
X61203Y-28972D01*
X61197Y-28969D01*
X61194Y-28966D01*
X61191Y-28961D01*
X61197Y-28918D02*
X61194Y-28915D01*
X61191Y-28909D01*
X61191Y-28895D01*
X61194Y-28889D01*
X61197Y-28886D01*
X61203Y-28884D01*
X61208Y-28884D01*
X61217Y-28886D01*
X61251Y-28921D01*
X61251Y-28884D01*
X66511Y-33479D02*
X66505Y-33482D01*
X66493Y-33482D01*
X66488Y-33479D01*
X66485Y-33476D01*
X66482Y-33470D01*
X66482Y-33453D01*
X66485Y-33447D01*
X66488Y-33444D01*
X66493Y-33442D01*
X66505Y-33442D01*
X66511Y-33444D01*
X66522Y-33487D02*
X66568Y-33487D01*
X66593Y-33422D02*
X66599Y-33422D01*
X66605Y-33424D01*
X66608Y-33427D01*
X66611Y-33433D01*
X66613Y-33444D01*
X66613Y-33459D01*
X66611Y-33470D01*
X66608Y-33476D01*
X66605Y-33479D01*
X66599Y-33482D01*
X66593Y-33482D01*
X66588Y-33479D01*
X66585Y-33476D01*
X66582Y-33470D01*
X66579Y-33459D01*
X66579Y-33444D01*
X66582Y-33433D01*
X66585Y-33427D01*
X66588Y-33424D01*
X66593Y-33422D01*
X66665Y-33442D02*
X66665Y-33482D01*
X66651Y-33419D02*
X66636Y-33462D01*
X66673Y-33462D01*
X66708Y-33422D02*
X66713Y-33422D01*
X66719Y-33424D01*
X66722Y-33427D01*
X66725Y-33433D01*
X66728Y-33444D01*
X66728Y-33459D01*
X66725Y-33470D01*
X66722Y-33476D01*
X66719Y-33479D01*
X66713Y-33482D01*
X66708Y-33482D01*
X66702Y-33479D01*
X66699Y-33476D01*
X66696Y-33470D01*
X66693Y-33459D01*
X66693Y-33444D01*
X66696Y-33433D01*
X66699Y-33427D01*
X66702Y-33424D01*
X66708Y-33422D01*
X66751Y-33427D02*
X66753Y-33424D01*
X66759Y-33422D01*
X66773Y-33422D01*
X66779Y-33424D01*
X66782Y-33427D01*
X66785Y-33433D01*
X66785Y-33439D01*
X66782Y-33447D01*
X66748Y-33482D01*
X66785Y-33482D01*
G54D18*
G54D19*
X62347Y-49730D02*
X62328Y-49749D01*
X62271Y-49768D01*
X62233Y-49768D01*
X62176Y-49749D01*
X62138Y-49711D01*
X62119Y-49672D01*
X62100Y-49596D01*
X62100Y-49539D01*
X62119Y-49463D01*
X62138Y-49425D01*
X62176Y-49387D01*
X62233Y-49368D01*
X62271Y-49368D01*
X62328Y-49387D01*
X62347Y-49406D01*
X62728Y-49768D02*
X62500Y-49768D01*
X62614Y-49768D02*
X62614Y-49368D01*
X62576Y-49425D01*
X62538Y-49463D01*
X62500Y-49482D01*
X62976Y-49368D02*
X63014Y-49368D01*
X63052Y-49387D01*
X63071Y-49406D01*
X63090Y-49444D01*
X63109Y-49520D01*
X63109Y-49615D01*
X63090Y-49692D01*
X63071Y-49730D01*
X63052Y-49749D01*
X63014Y-49768D01*
X62976Y-49768D01*
X62938Y-49749D01*
X62919Y-49730D01*
X62900Y-49692D01*
X62880Y-49615D01*
X62880Y-49520D01*
X62900Y-49444D01*
X62919Y-49406D01*
X62938Y-49387D01*
X62976Y-49368D01*
X63452Y-49501D02*
X63452Y-49768D01*
X63357Y-49349D02*
X63261Y-49634D01*
X63509Y-49634D01*
X61068Y-6915D02*
X61049Y-6934D01*
X60991Y-6953D01*
X60953Y-6953D01*
X60896Y-6934D01*
X60858Y-6896D01*
X60839Y-6858D01*
X60820Y-6781D01*
X60820Y-6724D01*
X60839Y-6648D01*
X60858Y-6610D01*
X60896Y-6572D01*
X60953Y-6553D01*
X60991Y-6553D01*
X61049Y-6572D01*
X61068Y-6591D01*
X61449Y-6953D02*
X61220Y-6953D01*
X61334Y-6953D02*
X61334Y-6553D01*
X61296Y-6610D01*
X61258Y-6648D01*
X61220Y-6667D01*
X61696Y-6553D02*
X61734Y-6553D01*
X61772Y-6572D01*
X61791Y-6591D01*
X61810Y-6629D01*
X61830Y-6705D01*
X61830Y-6800D01*
X61810Y-6877D01*
X61791Y-6915D01*
X61772Y-6934D01*
X61734Y-6953D01*
X61696Y-6953D01*
X61658Y-6934D01*
X61639Y-6915D01*
X61620Y-6877D01*
X61601Y-6800D01*
X61601Y-6705D01*
X61620Y-6629D01*
X61639Y-6591D01*
X61658Y-6572D01*
X61696Y-6553D01*
X62172Y-6686D02*
X62172Y-6953D01*
X62077Y-6534D02*
X61982Y-6819D01*
X62230Y-6819D01*
G54D18*
G54D19*
X65365Y-18556D02*
X65384Y-18575D01*
X65403Y-18632D01*
X65403Y-18670D01*
X65384Y-18727D01*
X65346Y-18765D01*
X65308Y-18784D01*
X65232Y-18803D01*
X65175Y-18803D01*
X65098Y-18784D01*
X65060Y-18765D01*
X65022Y-18727D01*
X65003Y-18670D01*
X65003Y-18632D01*
X65022Y-18575D01*
X65041Y-18556D01*
X65403Y-18175D02*
X65403Y-18403D01*
X65403Y-18289D02*
X65003Y-18289D01*
X65060Y-18327D01*
X65098Y-18365D01*
X65117Y-18403D01*
X65003Y-17927D02*
X65003Y-17889D01*
X65022Y-17851D01*
X65041Y-17832D01*
X65079Y-17813D01*
X65156Y-17794D01*
X65251Y-17794D01*
X65327Y-17813D01*
X65365Y-17832D01*
X65384Y-17851D01*
X65403Y-17889D01*
X65403Y-17927D01*
X65384Y-17965D01*
X65365Y-17984D01*
X65327Y-18003D01*
X65251Y-18022D01*
X65156Y-18022D01*
X65079Y-18003D01*
X65041Y-17984D01*
X65022Y-17965D01*
X65003Y-17927D01*
X65136Y-17451D02*
X65403Y-17451D01*
X64984Y-17546D02*
X65270Y-17641D01*
X65270Y-17394D01*
G54D17*
X63149Y-15307D02*
X63292Y-15307D01*
X63120Y-15393D02*
X63220Y-15093D01*
X63320Y-15393D01*
X63420Y-15393D02*
X63420Y-15093D01*
X63492Y-15093D01*
X63535Y-15107D01*
X63563Y-15136D01*
X63577Y-15164D01*
X63592Y-15221D01*
X63592Y-15264D01*
X63577Y-15321D01*
X63563Y-15350D01*
X63535Y-15378D01*
X63492Y-15393D01*
X63420Y-15393D01*
X63677Y-15093D02*
X63777Y-15393D01*
X63877Y-15093D01*
X63949Y-15093D02*
X64149Y-15093D01*
X64020Y-15393D01*
X64420Y-15393D02*
X64249Y-15393D01*
X64335Y-15393D02*
X64335Y-15093D01*
X64306Y-15136D01*
X64277Y-15164D01*
X64249Y-15178D01*
X64535Y-15121D02*
X64549Y-15107D01*
X64577Y-15093D01*
X64649Y-15093D01*
X64677Y-15107D01*
X64692Y-15121D01*
X64706Y-15150D01*
X64706Y-15178D01*
X64692Y-15221D01*
X64520Y-15393D01*
X64706Y-15393D01*
X64806Y-15093D02*
X64992Y-15093D01*
X64892Y-15207D01*
X64935Y-15207D01*
X64963Y-15221D01*
X64977Y-15236D01*
X64992Y-15264D01*
X64992Y-15336D01*
X64977Y-15364D01*
X64963Y-15378D01*
X64935Y-15393D01*
X64849Y-15393D01*
X64820Y-15378D01*
X64806Y-15364D01*
G54D16*
X63737Y-14535D02*
X63737Y-14235D01*
X63809Y-14235D01*
X63851Y-14249D01*
X63880Y-14278D01*
X63894Y-14306D01*
X63909Y-14363D01*
X63909Y-14406D01*
X63894Y-14463D01*
X63880Y-14492D01*
X63851Y-14520D01*
X63809Y-14535D01*
X63737Y-14535D01*
X64023Y-14449D02*
X64166Y-14449D01*
X63994Y-14535D02*
X64094Y-14235D01*
X64194Y-14535D01*
X64466Y-14506D02*
X64451Y-14520D01*
X64409Y-14535D01*
X64380Y-14535D01*
X64337Y-14520D01*
X64309Y-14492D01*
X64294Y-14463D01*
X64280Y-14406D01*
X64280Y-14363D01*
X64294Y-14306D01*
X64309Y-14278D01*
X64337Y-14249D01*
X64380Y-14235D01*
X64409Y-14235D01*
X64451Y-14249D01*
X64466Y-14263D01*
X62599Y-48911D02*
X62599Y-48793D01*
X62785Y-48742D02*
X62785Y-48911D01*
X62431Y-48911D01*
X62431Y-48742D01*
X62599Y-48591D02*
X62599Y-48473D01*
X62785Y-48422D02*
X62785Y-48591D01*
X62431Y-48591D01*
X62431Y-48422D01*
X62785Y-48270D02*
X62431Y-48270D01*
X62431Y-48135D01*
X62448Y-48101D01*
X62464Y-48084D01*
X62498Y-48068D01*
X62549Y-48068D01*
X62583Y-48084D01*
X62599Y-48101D01*
X62616Y-48135D01*
X62616Y-48270D01*
X62785Y-47713D02*
X62616Y-47831D01*
X62785Y-47916D02*
X62431Y-47916D01*
X62431Y-47781D01*
X62448Y-47747D01*
X62464Y-47730D01*
X62498Y-47713D01*
X62549Y-47713D01*
X62583Y-47730D01*
X62599Y-47747D01*
X62616Y-47781D01*
X62616Y-47916D01*
X62431Y-47494D02*
X62431Y-47426D01*
X62448Y-47393D01*
X62481Y-47359D01*
X62549Y-47342D01*
X62667Y-47342D01*
X62734Y-47359D01*
X62768Y-47393D01*
X62785Y-47426D01*
X62785Y-47494D01*
X62768Y-47528D01*
X62734Y-47561D01*
X62667Y-47578D01*
X62549Y-47578D01*
X62481Y-47561D01*
X62448Y-47528D01*
X62431Y-47494D01*
X62785Y-47190D02*
X62431Y-47190D01*
X62684Y-47072D01*
X62431Y-46954D01*
X62785Y-46954D01*
X63350Y-48858D02*
X63350Y-48741D01*
X63533Y-48691D02*
X63533Y-48858D01*
X63183Y-48858D01*
X63183Y-48691D01*
X63533Y-48541D02*
X63183Y-48541D01*
X63183Y-48408D01*
X63200Y-48374D01*
X63217Y-48358D01*
X63250Y-48341D01*
X63300Y-48341D01*
X63333Y-48358D01*
X63350Y-48374D01*
X63367Y-48408D01*
X63367Y-48541D01*
X63500Y-47991D02*
X63517Y-48008D01*
X63533Y-48058D01*
X63533Y-48091D01*
X63517Y-48141D01*
X63483Y-48174D01*
X63450Y-48191D01*
X63383Y-48208D01*
X63333Y-48208D01*
X63267Y-48191D01*
X63233Y-48174D01*
X63200Y-48141D01*
X63183Y-48091D01*
X63183Y-48058D01*
X63200Y-48008D01*
X63217Y-47991D01*
X63517Y-47858D02*
X63533Y-47808D01*
X63533Y-47724D01*
X63517Y-47691D01*
X63500Y-47674D01*
X63467Y-47658D01*
X63433Y-47658D01*
X63400Y-47674D01*
X63383Y-47691D01*
X63367Y-47724D01*
X63350Y-47791D01*
X63333Y-47824D01*
X63317Y-47841D01*
X63283Y-47858D01*
X63250Y-47858D01*
X63217Y-47841D01*
X63200Y-47824D01*
X63183Y-47791D01*
X63183Y-47708D01*
X63200Y-47658D01*
X63533Y-47324D02*
X63533Y-47524D01*
X63533Y-47424D02*
X63183Y-47424D01*
X63233Y-47458D01*
X63267Y-47491D01*
X63283Y-47524D01*
X63183Y-47024D02*
X63183Y-47091D01*
X63200Y-47124D01*
X63217Y-47141D01*
X63267Y-47174D01*
X63333Y-47191D01*
X63467Y-47191D01*
X63500Y-47174D01*
X63517Y-47158D01*
X63533Y-47124D01*
X63533Y-47058D01*
X63517Y-47024D01*
X63500Y-47008D01*
X63467Y-46991D01*
X63383Y-46991D01*
X63350Y-47008D01*
X63333Y-47024D01*
X63317Y-47058D01*
X63317Y-47124D01*
X63333Y-47158D01*
X63350Y-47174D01*
X63383Y-47191D01*
G54D21*
G54D19*
X60579Y-43395D02*
X60579Y-43205D01*
X60693Y-43434D02*
X60293Y-43300D01*
X60693Y-43167D01*
X60674Y-43053D02*
X60693Y-42995D01*
X60693Y-42900D01*
X60674Y-42862D01*
X60655Y-42843D01*
X60617Y-42824D01*
X60579Y-42824D01*
X60541Y-42843D01*
X60521Y-42862D01*
X60502Y-42900D01*
X60483Y-42976D01*
X60464Y-43014D01*
X60445Y-43034D01*
X60407Y-43053D01*
X60369Y-43053D01*
X60331Y-43034D01*
X60312Y-43014D01*
X60293Y-42976D01*
X60293Y-42881D01*
X60312Y-42824D01*
X53206Y-42887D02*
X53492Y-42887D01*
X53549Y-42906D01*
X53587Y-42945D01*
X53606Y-43002D01*
X53606Y-43040D01*
X53206Y-42754D02*
X53206Y-42526D01*
X53606Y-42640D02*
X53206Y-42640D01*
X53492Y-42411D02*
X53492Y-42221D01*
X53606Y-42449D02*
X53206Y-42316D01*
X53606Y-42183D01*
X53225Y-41840D02*
X53206Y-41878D01*
X53206Y-41935D01*
X53225Y-41992D01*
X53263Y-42030D01*
X53302Y-42049D01*
X53378Y-42068D01*
X53435Y-42068D01*
X53511Y-42049D01*
X53549Y-42030D01*
X53587Y-41992D01*
X53606Y-41935D01*
X53606Y-41897D01*
X53587Y-41840D01*
X53568Y-41821D01*
X53435Y-41821D01*
X53435Y-41897D01*
G54D10*
G54D18*
G54D10*
X55827Y-11347D02*
X55932Y-11662D01*
X56037Y-11347D01*
X56322Y-11632D02*
X56307Y-11647D01*
X56262Y-11662D01*
X56232Y-11662D01*
X56187Y-11647D01*
X56157Y-11617D01*
X56142Y-11587D01*
X56127Y-11527D01*
X56127Y-11482D01*
X56142Y-11422D01*
X56157Y-11392D01*
X56187Y-11362D01*
X56232Y-11347D01*
X56262Y-11347D01*
X56307Y-11362D01*
X56322Y-11377D01*
X56637Y-11632D02*
X56622Y-11647D01*
X56577Y-11662D01*
X56547Y-11662D01*
X56502Y-11647D01*
X56472Y-11617D01*
X56457Y-11587D01*
X56442Y-11527D01*
X56442Y-11482D01*
X56457Y-11422D01*
X56472Y-11392D01*
X56502Y-11362D01*
X56547Y-11347D01*
X56577Y-11347D01*
X56622Y-11362D01*
X56637Y-11377D01*
X56922Y-11347D02*
X56772Y-11347D01*
X56757Y-11497D01*
X56772Y-11482D01*
X56802Y-11467D01*
X56877Y-11467D01*
X56907Y-11482D01*
X56922Y-11497D01*
X56937Y-11527D01*
X56937Y-11602D01*
X56922Y-11632D01*
X56907Y-11647D01*
X56877Y-11662D01*
X56802Y-11662D01*
X56772Y-11647D01*
X56757Y-11632D01*
G54D19*
X63817Y-8377D02*
X63836Y-8358D01*
X63874Y-8339D01*
X63970Y-8339D01*
X64008Y-8358D01*
X64027Y-8377D01*
X64046Y-8415D01*
X64046Y-8453D01*
X64027Y-8510D01*
X63798Y-8739D01*
X64046Y-8739D01*
X64198Y-8377D02*
X64217Y-8358D01*
X64255Y-8339D01*
X64351Y-8339D01*
X64389Y-8358D01*
X64408Y-8377D01*
X64427Y-8415D01*
X64427Y-8453D01*
X64408Y-8510D01*
X64179Y-8739D01*
X64427Y-8739D01*
X64674Y-8339D02*
X64712Y-8339D01*
X64751Y-8358D01*
X64770Y-8377D01*
X64789Y-8415D01*
X64808Y-8491D01*
X64808Y-8586D01*
X64789Y-8662D01*
X64770Y-8700D01*
X64751Y-8720D01*
X64712Y-8739D01*
X64674Y-8739D01*
X64636Y-8720D01*
X64617Y-8700D01*
X64598Y-8662D01*
X64579Y-8586D01*
X64579Y-8491D01*
X64598Y-8415D01*
X64617Y-8377D01*
X64636Y-8358D01*
X64674Y-8339D01*
X65151Y-8472D02*
X65151Y-8739D01*
X64979Y-8472D02*
X64979Y-8681D01*
X64998Y-8720D01*
X65036Y-8739D01*
X65093Y-8739D01*
X65132Y-8720D01*
X65151Y-8700D01*
X65474Y-8529D02*
X65341Y-8529D01*
X65341Y-8739D02*
X65341Y-8339D01*
X65532Y-8339D01*
X63655Y-6539D02*
X63465Y-6539D01*
X63446Y-6729D01*
X63465Y-6710D01*
X63503Y-6691D01*
X63598Y-6691D01*
X63636Y-6710D01*
X63655Y-6729D01*
X63674Y-6767D01*
X63674Y-6862D01*
X63655Y-6900D01*
X63636Y-6920D01*
X63598Y-6939D01*
X63503Y-6939D01*
X63465Y-6920D01*
X63446Y-6900D01*
X63789Y-6539D02*
X63922Y-6939D01*
X64055Y-6539D01*
X64627Y-6729D02*
X64493Y-6729D01*
X64493Y-6939D02*
X64493Y-6539D01*
X64684Y-6539D01*
X64836Y-6939D02*
X64836Y-6672D01*
X64836Y-6539D02*
X64817Y-6558D01*
X64836Y-6577D01*
X64855Y-6558D01*
X64836Y-6539D01*
X64836Y-6577D01*
X65084Y-6939D02*
X65046Y-6920D01*
X65027Y-6881D01*
X65027Y-6539D01*
X65179Y-6672D02*
X65332Y-6672D01*
X65236Y-6539D02*
X65236Y-6881D01*
X65255Y-6920D01*
X65293Y-6939D01*
X65332Y-6939D01*
X65617Y-6920D02*
X65579Y-6939D01*
X65503Y-6939D01*
X65465Y-6920D01*
X65446Y-6881D01*
X65446Y-6729D01*
X65465Y-6691D01*
X65503Y-6672D01*
X65579Y-6672D01*
X65617Y-6691D01*
X65636Y-6729D01*
X65636Y-6767D01*
X65446Y-6805D01*
X65808Y-6939D02*
X65808Y-6672D01*
X65808Y-6748D02*
X65827Y-6710D01*
X65846Y-6691D01*
X65884Y-6672D01*
X65922Y-6672D01*
G54D18*
X63086Y-7641D02*
X63543Y-7641D01*
X63315Y-7870D02*
X63315Y-7412D01*
G54D19*
X65006Y-10247D02*
X64987Y-10266D01*
X64930Y-10285D01*
X64892Y-10285D01*
X64835Y-10266D01*
X64797Y-10228D01*
X64778Y-10190D01*
X64759Y-10114D01*
X64759Y-10056D01*
X64778Y-9980D01*
X64797Y-9942D01*
X64835Y-9904D01*
X64892Y-9885D01*
X64930Y-9885D01*
X64987Y-9904D01*
X65006Y-9923D01*
X65387Y-10285D02*
X65159Y-10285D01*
X65273Y-10285D02*
X65273Y-9885D01*
X65235Y-9942D01*
X65197Y-9980D01*
X65159Y-9999D01*
X65635Y-9885D02*
X65673Y-9885D01*
X65711Y-9904D01*
X65730Y-9923D01*
X65749Y-9961D01*
X65768Y-10037D01*
X65768Y-10133D01*
X65749Y-10209D01*
X65730Y-10247D01*
X65711Y-10266D01*
X65673Y-10285D01*
X65635Y-10285D01*
X65597Y-10266D01*
X65578Y-10247D01*
X65559Y-10209D01*
X65540Y-10133D01*
X65540Y-10037D01*
X65559Y-9961D01*
X65578Y-9923D01*
X65597Y-9904D01*
X65635Y-9885D01*
X66111Y-10018D02*
X66111Y-10285D01*
X66016Y-9866D02*
X65920Y-10152D01*
X66168Y-10152D01*
G54D20*
X65087Y-14886D02*
X65090Y-14892D01*
X65090Y-14903D01*
X65087Y-14909D01*
X65084Y-14912D01*
X65078Y-14915D01*
X65061Y-14915D01*
X65055Y-14912D01*
X65053Y-14909D01*
X65050Y-14903D01*
X65050Y-14892D01*
X65053Y-14886D01*
X65095Y-14875D02*
X65095Y-14829D01*
X65030Y-14803D02*
X65030Y-14798D01*
X65033Y-14792D01*
X65035Y-14789D01*
X65041Y-14786D01*
X65053Y-14783D01*
X65067Y-14783D01*
X65078Y-14786D01*
X65084Y-14789D01*
X65087Y-14792D01*
X65090Y-14798D01*
X65090Y-14803D01*
X65087Y-14809D01*
X65084Y-14812D01*
X65078Y-14815D01*
X65067Y-14818D01*
X65053Y-14818D01*
X65041Y-14815D01*
X65035Y-14812D01*
X65033Y-14809D01*
X65030Y-14803D01*
X65050Y-14732D02*
X65090Y-14732D01*
X65027Y-14746D02*
X65070Y-14760D01*
X65070Y-14723D01*
X65030Y-14689D02*
X65030Y-14683D01*
X65033Y-14678D01*
X65035Y-14675D01*
X65041Y-14672D01*
X65053Y-14669D01*
X65067Y-14669D01*
X65078Y-14672D01*
X65084Y-14675D01*
X65087Y-14678D01*
X65090Y-14683D01*
X65090Y-14689D01*
X65087Y-14695D01*
X65084Y-14698D01*
X65078Y-14700D01*
X65067Y-14703D01*
X65053Y-14703D01*
X65041Y-14700D01*
X65035Y-14698D01*
X65033Y-14695D01*
X65030Y-14689D01*
X65035Y-14646D02*
X65033Y-14643D01*
X65030Y-14638D01*
X65030Y-14623D01*
X65033Y-14618D01*
X65035Y-14615D01*
X65041Y-14612D01*
X65047Y-14612D01*
X65055Y-14615D01*
X65090Y-14649D01*
X65090Y-14612D01*
X63020Y-10162D02*
X63023Y-10167D01*
X63023Y-10179D01*
X63020Y-10185D01*
X63017Y-10187D01*
X63011Y-10190D01*
X62994Y-10190D01*
X62988Y-10187D01*
X62986Y-10185D01*
X62983Y-10179D01*
X62983Y-10167D01*
X62986Y-10162D01*
X63028Y-10150D02*
X63028Y-10105D01*
X62963Y-10079D02*
X62963Y-10073D01*
X62966Y-10067D01*
X62968Y-10065D01*
X62974Y-10062D01*
X62986Y-10059D01*
X63000Y-10059D01*
X63011Y-10062D01*
X63017Y-10065D01*
X63020Y-10067D01*
X63023Y-10073D01*
X63023Y-10079D01*
X63020Y-10085D01*
X63017Y-10087D01*
X63011Y-10090D01*
X63000Y-10093D01*
X62986Y-10093D01*
X62974Y-10090D01*
X62968Y-10087D01*
X62966Y-10085D01*
X62963Y-10079D01*
X62983Y-10007D02*
X63023Y-10007D01*
X62960Y-10022D02*
X63003Y-10036D01*
X63003Y-9999D01*
X62963Y-9965D02*
X62963Y-9959D01*
X62966Y-9953D01*
X62968Y-9950D01*
X62974Y-9947D01*
X62986Y-9945D01*
X63000Y-9945D01*
X63011Y-9947D01*
X63017Y-9950D01*
X63020Y-9953D01*
X63023Y-9959D01*
X63023Y-9965D01*
X63020Y-9970D01*
X63017Y-9973D01*
X63011Y-9976D01*
X63000Y-9979D01*
X62986Y-9979D01*
X62974Y-9976D01*
X62968Y-9973D01*
X62966Y-9970D01*
X62963Y-9965D01*
X62968Y-9922D02*
X62966Y-9919D01*
X62963Y-9913D01*
X62963Y-9899D01*
X62966Y-9893D01*
X62968Y-9890D01*
X62974Y-9887D01*
X62980Y-9887D01*
X62988Y-9890D01*
X63023Y-9925D01*
X63023Y-9887D01*
X67552Y-27746D02*
X67545Y-27744D01*
X67537Y-27736D01*
X67535Y-27730D01*
X67535Y-27726D01*
X67537Y-27720D01*
X67549Y-27708D01*
X67556Y-27706D01*
X67560Y-27706D01*
X67566Y-27708D01*
X67574Y-27716D01*
X67576Y-27722D01*
X67554Y-27760D02*
X67586Y-27793D01*
X67651Y-27764D02*
X67655Y-27768D01*
X67657Y-27774D01*
X67657Y-27779D01*
X67655Y-27785D01*
X67648Y-27795D01*
X67638Y-27805D01*
X67628Y-27811D01*
X67622Y-27813D01*
X67618Y-27813D01*
X67612Y-27811D01*
X67608Y-27807D01*
X67606Y-27801D01*
X67606Y-27797D01*
X67608Y-27791D01*
X67614Y-27781D01*
X67624Y-27770D01*
X67634Y-27764D01*
X67640Y-27762D01*
X67644Y-27762D01*
X67651Y-27764D01*
X67687Y-27829D02*
X67659Y-27857D01*
X67693Y-27803D02*
X67653Y-27823D01*
X67679Y-27849D01*
X67731Y-27845D02*
X67735Y-27849D01*
X67737Y-27855D01*
X67737Y-27859D01*
X67735Y-27865D01*
X67729Y-27875D01*
X67719Y-27886D01*
X67709Y-27892D01*
X67703Y-27894D01*
X67699Y-27894D01*
X67693Y-27892D01*
X67689Y-27888D01*
X67687Y-27882D01*
X67687Y-27878D01*
X67689Y-27871D01*
X67695Y-27861D01*
X67705Y-27851D01*
X67715Y-27845D01*
X67721Y-27843D01*
X67725Y-27843D01*
X67731Y-27845D01*
X67758Y-27880D02*
X67762Y-27880D01*
X67768Y-27882D01*
X67778Y-27892D01*
X67780Y-27898D01*
X67780Y-27902D01*
X67778Y-27908D01*
X67774Y-27912D01*
X67766Y-27916D01*
X67717Y-27916D01*
X67743Y-27942D01*
G54D19*
X68241Y-25995D02*
X68222Y-26014D01*
X68165Y-26033D01*
X68127Y-26033D01*
X68070Y-26014D01*
X68032Y-25976D01*
X68013Y-25938D01*
X67994Y-25862D01*
X67994Y-25804D01*
X68013Y-25728D01*
X68032Y-25690D01*
X68070Y-25652D01*
X68127Y-25633D01*
X68165Y-25633D01*
X68222Y-25652D01*
X68241Y-25671D01*
X68622Y-26033D02*
X68394Y-26033D01*
X68508Y-26033D02*
X68508Y-25633D01*
X68470Y-25690D01*
X68432Y-25728D01*
X68394Y-25747D01*
X67065Y-24617D02*
X67084Y-24598D01*
X67122Y-24579D01*
X67218Y-24579D01*
X67256Y-24598D01*
X67275Y-24617D01*
X67294Y-24655D01*
X67294Y-24693D01*
X67275Y-24750D01*
X67046Y-24979D01*
X67294Y-24979D01*
X67446Y-24617D02*
X67465Y-24598D01*
X67503Y-24579D01*
X67599Y-24579D01*
X67637Y-24598D01*
X67656Y-24617D01*
X67675Y-24655D01*
X67675Y-24693D01*
X67656Y-24750D01*
X67427Y-24979D01*
X67675Y-24979D01*
X67922Y-24579D02*
X67961Y-24579D01*
X67999Y-24598D01*
X68018Y-24617D01*
X68037Y-24655D01*
X68056Y-24731D01*
X68056Y-24826D01*
X68037Y-24903D01*
X68018Y-24941D01*
X67999Y-24960D01*
X67961Y-24979D01*
X67922Y-24979D01*
X67884Y-24960D01*
X67865Y-24941D01*
X67846Y-24903D01*
X67827Y-24826D01*
X67827Y-24731D01*
X67846Y-24655D01*
X67865Y-24617D01*
X67884Y-24598D01*
X67922Y-24579D01*
X68399Y-24712D02*
X68399Y-24979D01*
X68227Y-24712D02*
X68227Y-24922D01*
X68246Y-24960D01*
X68284Y-24979D01*
X68341Y-24979D01*
X68380Y-24960D01*
X68399Y-24941D01*
X68722Y-24769D02*
X68589Y-24769D01*
X68589Y-24979D02*
X68589Y-24579D01*
X68780Y-24579D01*
X66389Y-22779D02*
X66637Y-22779D01*
X66503Y-22931D01*
X66561Y-22931D01*
X66599Y-22950D01*
X66618Y-22969D01*
X66637Y-23007D01*
X66637Y-23103D01*
X66618Y-23141D01*
X66599Y-23160D01*
X66561Y-23179D01*
X66446Y-23179D01*
X66408Y-23160D01*
X66389Y-23141D01*
X66808Y-23141D02*
X66827Y-23160D01*
X66808Y-23179D01*
X66789Y-23160D01*
X66808Y-23141D01*
X66808Y-23179D01*
X66961Y-22779D02*
X67208Y-22779D01*
X67075Y-22931D01*
X67132Y-22931D01*
X67170Y-22950D01*
X67189Y-22969D01*
X67208Y-23007D01*
X67208Y-23103D01*
X67189Y-23141D01*
X67170Y-23160D01*
X67132Y-23179D01*
X67018Y-23179D01*
X66980Y-23160D01*
X66961Y-23141D01*
X67322Y-22779D02*
X67456Y-23179D01*
X67589Y-22779D01*
X68161Y-22969D02*
X68027Y-22969D01*
X68027Y-23179D02*
X68027Y-22779D01*
X68218Y-22779D01*
X68370Y-23179D02*
X68370Y-22912D01*
X68370Y-22779D02*
X68351Y-22798D01*
X68370Y-22817D01*
X68389Y-22798D01*
X68370Y-22779D01*
X68370Y-22817D01*
X68618Y-23179D02*
X68580Y-23160D01*
X68561Y-23122D01*
X68561Y-22779D01*
X68713Y-22912D02*
X68865Y-22912D01*
X68770Y-22779D02*
X68770Y-23122D01*
X68789Y-23160D01*
X68827Y-23179D01*
X68865Y-23179D01*
X69151Y-23160D02*
X69113Y-23179D01*
X69037Y-23179D01*
X68999Y-23160D01*
X68980Y-23122D01*
X68980Y-22969D01*
X68999Y-22931D01*
X69037Y-22912D01*
X69113Y-22912D01*
X69151Y-22931D01*
X69170Y-22969D01*
X69170Y-23007D01*
X68980Y-23045D01*
X69341Y-23179D02*
X69341Y-22912D01*
X69341Y-22988D02*
X69361Y-22950D01*
X69380Y-22931D01*
X69418Y-22912D01*
X69456Y-22912D01*
G54D18*
X66334Y-23881D02*
X66791Y-23881D01*
X66563Y-24110D02*
X66563Y-23653D01*
G54D16*
X56116Y-34898D02*
X56216Y-35198D01*
X56316Y-34898D01*
X56588Y-35169D02*
X56573Y-35183D01*
X56531Y-35198D01*
X56502Y-35198D01*
X56459Y-35183D01*
X56431Y-35155D01*
X56416Y-35126D01*
X56402Y-35069D01*
X56402Y-35026D01*
X56416Y-34969D01*
X56431Y-34941D01*
X56459Y-34912D01*
X56502Y-34898D01*
X56531Y-34898D01*
X56573Y-34912D01*
X56588Y-34926D01*
X56888Y-35169D02*
X56873Y-35183D01*
X56831Y-35198D01*
X56802Y-35198D01*
X56759Y-35183D01*
X56731Y-35155D01*
X56716Y-35126D01*
X56702Y-35069D01*
X56702Y-35026D01*
X56716Y-34969D01*
X56731Y-34941D01*
X56759Y-34912D01*
X56802Y-34898D01*
X56831Y-34898D01*
X56873Y-34912D01*
X56888Y-34926D01*
X57216Y-34898D02*
X57402Y-34898D01*
X57302Y-35012D01*
X57345Y-35012D01*
X57373Y-35026D01*
X57388Y-35041D01*
X57402Y-35069D01*
X57402Y-35141D01*
X57388Y-35169D01*
X57373Y-35183D01*
X57345Y-35198D01*
X57259Y-35198D01*
X57231Y-35183D01*
X57216Y-35169D01*
X57531Y-35169D02*
X57545Y-35183D01*
X57531Y-35198D01*
X57516Y-35183D01*
X57531Y-35169D01*
X57531Y-35198D01*
X57645Y-34898D02*
X57831Y-34898D01*
X57731Y-35012D01*
X57773Y-35012D01*
X57802Y-35026D01*
X57816Y-35041D01*
X57831Y-35069D01*
X57831Y-35141D01*
X57816Y-35169D01*
X57802Y-35183D01*
X57773Y-35198D01*
X57688Y-35198D01*
X57659Y-35183D01*
X57645Y-35169D01*
G54D19*
X56826Y-47096D02*
X56883Y-47115D01*
X56978Y-47115D01*
X57016Y-47096D01*
X57035Y-47077D01*
X57054Y-47039D01*
X57054Y-47001D01*
X57035Y-46963D01*
X57016Y-46944D01*
X56978Y-46924D01*
X56902Y-46905D01*
X56864Y-46886D01*
X56845Y-46867D01*
X56826Y-46829D01*
X56826Y-46791D01*
X56845Y-46753D01*
X56864Y-46734D01*
X56902Y-46715D01*
X56997Y-46715D01*
X57054Y-46734D01*
X57302Y-46715D02*
X57378Y-46715D01*
X57416Y-46734D01*
X57454Y-46772D01*
X57474Y-46848D01*
X57474Y-46982D01*
X57454Y-47058D01*
X57416Y-47096D01*
X57378Y-47115D01*
X57302Y-47115D01*
X57264Y-47096D01*
X57226Y-47058D01*
X57207Y-46982D01*
X57207Y-46848D01*
X57226Y-46772D01*
X57264Y-46734D01*
X57302Y-46715D01*
X57588Y-46715D02*
X57816Y-46715D01*
X57702Y-47115D02*
X57702Y-46715D01*
X57931Y-46753D02*
X57950Y-46734D01*
X57988Y-46715D01*
X58083Y-46715D01*
X58121Y-46734D01*
X58140Y-46753D01*
X58159Y-46791D01*
X58159Y-46829D01*
X58140Y-46886D01*
X57912Y-47115D01*
X58159Y-47115D01*
X58312Y-46753D02*
X58331Y-46734D01*
X58369Y-46715D01*
X58464Y-46715D01*
X58502Y-46734D01*
X58521Y-46753D01*
X58540Y-46791D01*
X58540Y-46829D01*
X58521Y-46886D01*
X58293Y-47115D01*
X58540Y-47115D01*
X58674Y-46715D02*
X58921Y-46715D01*
X58788Y-46867D01*
X58845Y-46867D01*
X58883Y-46886D01*
X58902Y-46905D01*
X58921Y-46944D01*
X58921Y-47039D01*
X58902Y-47077D01*
X58883Y-47096D01*
X58845Y-47115D01*
X58731Y-47115D01*
X58693Y-47096D01*
X58674Y-47077D01*
G54D13*
X56800Y-46376D02*
X56894Y-46376D01*
X56781Y-46433D02*
X56847Y-46236D01*
X56913Y-46433D01*
X56960Y-46236D02*
X57091Y-46236D01*
X56960Y-46433D01*
X57091Y-46433D01*
X57269Y-46433D02*
X57156Y-46433D01*
X57213Y-46433D02*
X57213Y-46236D01*
X57194Y-46264D01*
X57175Y-46283D01*
X57156Y-46292D01*
X57456Y-46433D02*
X57344Y-46433D01*
X57400Y-46433D02*
X57400Y-46236D01*
X57381Y-46264D01*
X57363Y-46283D01*
X57344Y-46292D01*
X57644Y-46433D02*
X57531Y-46433D01*
X57588Y-46433D02*
X57588Y-46236D01*
X57569Y-46264D01*
X57550Y-46283D01*
X57531Y-46292D01*
X57709Y-46236D02*
X57841Y-46236D01*
X57756Y-46433D01*
X58028Y-46414D02*
X58019Y-46423D01*
X57991Y-46433D01*
X57972Y-46433D01*
X57944Y-46423D01*
X57925Y-46405D01*
X57916Y-46386D01*
X57906Y-46348D01*
X57906Y-46320D01*
X57916Y-46283D01*
X57925Y-46264D01*
X57944Y-46245D01*
X57972Y-46236D01*
X57991Y-46236D01*
X58019Y-46245D01*
X58028Y-46255D01*
X58113Y-46433D02*
X58113Y-46236D01*
X58113Y-46330D02*
X58225Y-46330D01*
X58225Y-46433D02*
X58225Y-46236D01*
X58319Y-46358D02*
X58469Y-46358D01*
X58666Y-46433D02*
X58553Y-46433D01*
X58609Y-46433D02*
X58609Y-46236D01*
X58591Y-46264D01*
X58572Y-46283D01*
X58553Y-46292D01*
X58750Y-46414D02*
X58759Y-46423D01*
X58750Y-46433D01*
X58741Y-46423D01*
X58750Y-46414D01*
X58750Y-46433D01*
X58834Y-46255D02*
X58844Y-46245D01*
X58862Y-46236D01*
X58909Y-46236D01*
X58928Y-46245D01*
X58937Y-46255D01*
X58947Y-46273D01*
X58947Y-46292D01*
X58937Y-46320D01*
X58825Y-46433D01*
X58947Y-46433D01*
G54D19*
X58218Y-42883D02*
X58218Y-43111D01*
X58218Y-42997D02*
X57818Y-42997D01*
X57875Y-43035D01*
X57913Y-43073D01*
X57932Y-43111D01*
X57818Y-42635D02*
X57818Y-42597D01*
X57837Y-42559D01*
X57856Y-42540D01*
X57894Y-42521D01*
X57970Y-42502D01*
X58066Y-42502D01*
X58142Y-42521D01*
X58180Y-42540D01*
X58199Y-42559D01*
X58218Y-42597D01*
X58218Y-42635D01*
X58199Y-42673D01*
X58180Y-42692D01*
X58142Y-42711D01*
X58066Y-42730D01*
X57970Y-42730D01*
X57894Y-42711D01*
X57856Y-42692D01*
X57837Y-42673D01*
X57818Y-42635D01*
X57951Y-42159D02*
X58218Y-42159D01*
X57799Y-42254D02*
X58085Y-42349D01*
X58085Y-42102D01*
X59086Y-50798D02*
X59105Y-50779D01*
X59144Y-50760D01*
X59239Y-50760D01*
X59277Y-50779D01*
X59296Y-50798D01*
X59315Y-50836D01*
X59315Y-50874D01*
X59296Y-50931D01*
X59067Y-51160D01*
X59315Y-51160D01*
X59467Y-50798D02*
X59486Y-50779D01*
X59525Y-50760D01*
X59620Y-50760D01*
X59658Y-50779D01*
X59677Y-50798D01*
X59696Y-50836D01*
X59696Y-50874D01*
X59677Y-50931D01*
X59448Y-51160D01*
X59696Y-51160D01*
X60039Y-50893D02*
X60039Y-51160D01*
X59867Y-50893D02*
X59867Y-51103D01*
X59886Y-51141D01*
X59925Y-51160D01*
X59982Y-51160D01*
X60020Y-51141D01*
X60039Y-51122D01*
X60363Y-50950D02*
X60229Y-50950D01*
X60229Y-51160D02*
X60229Y-50760D01*
X60420Y-50760D01*
X58467Y-49360D02*
X58239Y-49360D01*
X58353Y-49360D02*
X58353Y-48960D01*
X58315Y-49017D01*
X58277Y-49055D01*
X58239Y-49074D01*
X58639Y-49322D02*
X58658Y-49341D01*
X58639Y-49360D01*
X58620Y-49341D01*
X58639Y-49322D01*
X58639Y-49360D01*
X58810Y-48998D02*
X58829Y-48979D01*
X58867Y-48960D01*
X58963Y-48960D01*
X59001Y-48979D01*
X59020Y-48998D01*
X59039Y-49036D01*
X59039Y-49074D01*
X59020Y-49131D01*
X58791Y-49360D01*
X59039Y-49360D01*
X59153Y-48960D02*
X59286Y-49360D01*
X59420Y-48960D01*
X59991Y-49150D02*
X59858Y-49150D01*
X59858Y-49360D02*
X59858Y-48960D01*
X60048Y-48960D01*
X60201Y-49360D02*
X60201Y-49093D01*
X60201Y-48960D02*
X60182Y-48979D01*
X60201Y-48998D01*
X60220Y-48979D01*
X60201Y-48960D01*
X60201Y-48998D01*
X60448Y-49360D02*
X60410Y-49341D01*
X60391Y-49303D01*
X60391Y-48960D01*
X60544Y-49093D02*
X60696Y-49093D01*
X60601Y-48960D02*
X60601Y-49303D01*
X60620Y-49341D01*
X60658Y-49360D01*
X60696Y-49360D01*
X60982Y-49341D02*
X60944Y-49360D01*
X60867Y-49360D01*
X60829Y-49341D01*
X60810Y-49303D01*
X60810Y-49150D01*
X60829Y-49112D01*
X60867Y-49093D01*
X60944Y-49093D01*
X60982Y-49112D01*
X61001Y-49150D01*
X61001Y-49188D01*
X60810Y-49226D01*
X61172Y-49360D02*
X61172Y-49093D01*
X61172Y-49169D02*
X61191Y-49131D01*
X61210Y-49112D01*
X61248Y-49093D01*
X61286Y-49093D01*
G54D18*
X58165Y-50062D02*
X58622Y-50062D01*
X58394Y-50291D02*
X58394Y-49834D01*
G54D19*
X55916Y-50606D02*
X55897Y-50587D01*
X55878Y-50549D01*
X55878Y-50453D01*
X55897Y-50415D01*
X55916Y-50396D01*
X55954Y-50377D01*
X55992Y-50377D01*
X56049Y-50396D01*
X56278Y-50625D01*
X56278Y-50377D01*
X55916Y-50225D02*
X55897Y-50206D01*
X55878Y-50168D01*
X55878Y-50072D01*
X55897Y-50034D01*
X55916Y-50015D01*
X55954Y-49996D01*
X55992Y-49996D01*
X56049Y-50015D01*
X56278Y-50244D01*
X56278Y-49996D01*
X55878Y-49749D02*
X55878Y-49711D01*
X55897Y-49672D01*
X55916Y-49653D01*
X55954Y-49634D01*
X56030Y-49615D01*
X56126Y-49615D01*
X56202Y-49634D01*
X56240Y-49653D01*
X56259Y-49672D01*
X56278Y-49711D01*
X56278Y-49749D01*
X56259Y-49787D01*
X56240Y-49806D01*
X56202Y-49825D01*
X56126Y-49844D01*
X56030Y-49844D01*
X55954Y-49825D01*
X55916Y-49806D01*
X55897Y-49787D01*
X55878Y-49749D01*
X56011Y-48968D02*
X56278Y-48968D01*
X56011Y-49139D02*
X56221Y-49139D01*
X56259Y-49120D01*
X56278Y-49082D01*
X56278Y-49025D01*
X56259Y-48987D01*
X56240Y-48968D01*
X56068Y-48644D02*
X56068Y-48777D01*
X56278Y-48777D02*
X55878Y-48777D01*
X55878Y-48587D01*
X54078Y-51130D02*
X54078Y-50882D01*
X54230Y-51015D01*
X54230Y-50958D01*
X54249Y-50920D01*
X54268Y-50901D01*
X54307Y-50882D01*
X54402Y-50882D01*
X54440Y-50901D01*
X54459Y-50920D01*
X54478Y-50958D01*
X54478Y-51072D01*
X54459Y-51111D01*
X54440Y-51130D01*
X54440Y-50711D02*
X54459Y-50692D01*
X54478Y-50711D01*
X54459Y-50730D01*
X54440Y-50711D01*
X54478Y-50711D01*
X54078Y-50558D02*
X54078Y-50311D01*
X54230Y-50444D01*
X54230Y-50387D01*
X54249Y-50349D01*
X54268Y-50330D01*
X54307Y-50311D01*
X54402Y-50311D01*
X54440Y-50330D01*
X54459Y-50349D01*
X54478Y-50387D01*
X54478Y-50501D01*
X54459Y-50539D01*
X54440Y-50558D01*
X54078Y-50196D02*
X54478Y-50063D01*
X54078Y-49930D01*
X54268Y-49358D02*
X54268Y-49492D01*
X54478Y-49492D02*
X54078Y-49492D01*
X54078Y-49301D01*
X54478Y-49149D02*
X54211Y-49149D01*
X54078Y-49149D02*
X54097Y-49168D01*
X54116Y-49149D01*
X54097Y-49130D01*
X54078Y-49149D01*
X54116Y-49149D01*
X54478Y-48901D02*
X54459Y-48939D01*
X54421Y-48958D01*
X54078Y-48958D01*
X54211Y-48806D02*
X54211Y-48653D01*
X54078Y-48749D02*
X54421Y-48749D01*
X54459Y-48730D01*
X54478Y-48692D01*
X54478Y-48653D01*
X54459Y-48368D02*
X54478Y-48406D01*
X54478Y-48482D01*
X54459Y-48520D01*
X54421Y-48539D01*
X54268Y-48539D01*
X54230Y-48520D01*
X54211Y-48482D01*
X54211Y-48406D01*
X54230Y-48368D01*
X54268Y-48349D01*
X54307Y-48349D01*
X54345Y-48539D01*
X54478Y-48177D02*
X54211Y-48177D01*
X54287Y-48177D02*
X54249Y-48158D01*
X54230Y-48139D01*
X54211Y-48101D01*
X54211Y-48063D01*
G54D18*
X55180Y-51184D02*
X55180Y-50727D01*
X55409Y-50956D02*
X54952Y-50956D01*
G54D19*
X52997Y-48056D02*
X52978Y-48075D01*
X52921Y-48094D01*
X52882Y-48094D01*
X52825Y-48075D01*
X52787Y-48037D01*
X52768Y-47999D01*
X52749Y-47923D01*
X52749Y-47866D01*
X52768Y-47790D01*
X52787Y-47752D01*
X52825Y-47714D01*
X52882Y-47694D01*
X52921Y-47694D01*
X52978Y-47714D01*
X52997Y-47733D01*
X53378Y-48094D02*
X53149Y-48094D01*
X53263Y-48094D02*
X53263Y-47694D01*
X53225Y-47752D01*
X53187Y-47790D01*
X53149Y-47809D01*
X53625Y-47694D02*
X53663Y-47694D01*
X53702Y-47714D01*
X53721Y-47733D01*
X53740Y-47771D01*
X53759Y-47847D01*
X53759Y-47942D01*
X53740Y-48018D01*
X53721Y-48056D01*
X53702Y-48075D01*
X53663Y-48094D01*
X53625Y-48094D01*
X53587Y-48075D01*
X53568Y-48056D01*
X53549Y-48018D01*
X53530Y-47942D01*
X53530Y-47847D01*
X53549Y-47771D01*
X53568Y-47733D01*
X53587Y-47714D01*
X53625Y-47694D01*
X54102Y-47828D02*
X54102Y-48094D01*
X54006Y-47675D02*
X53911Y-47961D01*
X54159Y-47961D01*
G54D22*
G54D21*
G54D17*
X58536Y-6582D02*
X58522Y-6596D01*
X58479Y-6610D01*
X58451Y-6610D01*
X58408Y-6596D01*
X58379Y-6567D01*
X58365Y-6539D01*
X58351Y-6482D01*
X58351Y-6439D01*
X58365Y-6382D01*
X58379Y-6353D01*
X58408Y-6324D01*
X58451Y-6310D01*
X58479Y-6310D01*
X58522Y-6324D01*
X58536Y-6339D01*
X58822Y-6610D02*
X58651Y-6610D01*
X58736Y-6610D02*
X58736Y-6310D01*
X58708Y-6353D01*
X58679Y-6382D01*
X58651Y-6396D01*
X58908Y-6310D02*
X59008Y-6610D01*
X59108Y-6310D01*
X59351Y-6310D02*
X59208Y-6310D01*
X59193Y-6453D01*
X59208Y-6439D01*
X59236Y-6424D01*
X59308Y-6424D01*
X59336Y-6439D01*
X59351Y-6453D01*
X59365Y-6482D01*
X59365Y-6553D01*
X59351Y-6582D01*
X59336Y-6596D01*
X59308Y-6610D01*
X59236Y-6610D01*
X59208Y-6596D01*
X59193Y-6582D01*
X58649Y-7581D02*
X58638Y-7595D01*
X58602Y-7609D01*
X58578Y-7609D01*
X58542Y-7595D01*
X58518Y-7566D01*
X58507Y-7538D01*
X58495Y-7481D01*
X58495Y-7438D01*
X58507Y-7381D01*
X58518Y-7352D01*
X58542Y-7323D01*
X58578Y-7309D01*
X58602Y-7309D01*
X58638Y-7323D01*
X58649Y-7338D01*
X58792Y-7309D02*
X58792Y-7381D01*
X58733Y-7352D02*
X58792Y-7381D01*
X58852Y-7352D01*
X58757Y-7438D02*
X58792Y-7381D01*
X58828Y-7438D01*
X58983Y-7309D02*
X58983Y-7381D01*
X58923Y-7352D02*
X58983Y-7381D01*
X59042Y-7352D01*
X58947Y-7438D02*
X58983Y-7381D01*
X59018Y-7438D01*
X59173Y-7309D02*
X59173Y-7381D01*
X59114Y-7352D02*
X59173Y-7381D01*
X59233Y-7352D01*
X59138Y-7438D02*
X59173Y-7381D01*
X59209Y-7438D01*
G54D23*
X57843Y-6995D02*
X58072Y-6995D01*
X57958Y-7109D02*
X57958Y-6881D01*
G54D19*
G54D17*
X58536Y-8944D02*
X58522Y-8958D01*
X58479Y-8972D01*
X58451Y-8972D01*
X58408Y-8958D01*
X58379Y-8929D01*
X58365Y-8901D01*
X58351Y-8844D01*
X58351Y-8801D01*
X58365Y-8744D01*
X58379Y-8715D01*
X58408Y-8687D01*
X58451Y-8672D01*
X58479Y-8672D01*
X58522Y-8687D01*
X58536Y-8701D01*
X58822Y-8972D02*
X58651Y-8972D01*
X58736Y-8972D02*
X58736Y-8672D01*
X58708Y-8715D01*
X58679Y-8744D01*
X58651Y-8758D01*
X58908Y-8672D02*
X59008Y-8972D01*
X59108Y-8672D01*
X59351Y-8672D02*
X59208Y-8672D01*
X59193Y-8815D01*
X59208Y-8801D01*
X59236Y-8787D01*
X59308Y-8787D01*
X59336Y-8801D01*
X59351Y-8815D01*
X59365Y-8844D01*
X59365Y-8915D01*
X59351Y-8944D01*
X59336Y-8958D01*
X59308Y-8972D01*
X59236Y-8972D01*
X59208Y-8958D01*
X59193Y-8944D01*
X58649Y-9943D02*
X58638Y-9957D01*
X58602Y-9971D01*
X58578Y-9971D01*
X58542Y-9957D01*
X58518Y-9928D01*
X58507Y-9900D01*
X58495Y-9843D01*
X58495Y-9800D01*
X58507Y-9743D01*
X58518Y-9714D01*
X58542Y-9686D01*
X58578Y-9671D01*
X58602Y-9671D01*
X58638Y-9686D01*
X58649Y-9700D01*
X58792Y-9671D02*
X58792Y-9743D01*
X58733Y-9714D02*
X58792Y-9743D01*
X58852Y-9714D01*
X58757Y-9800D02*
X58792Y-9743D01*
X58828Y-9800D01*
X58983Y-9671D02*
X58983Y-9743D01*
X58923Y-9714D02*
X58983Y-9743D01*
X59042Y-9714D01*
X58947Y-9800D02*
X58983Y-9743D01*
X59018Y-9800D01*
X59173Y-9671D02*
X59173Y-9743D01*
X59114Y-9714D02*
X59173Y-9743D01*
X59233Y-9714D01*
X59138Y-9800D02*
X59173Y-9743D01*
X59209Y-9800D01*
G54D23*
X57843Y-9357D02*
X58072Y-9357D01*
X57958Y-9471D02*
X57958Y-9243D01*
G54D19*
X58410Y-12328D02*
X58391Y-12347D01*
X58334Y-12366D01*
X58296Y-12366D01*
X58239Y-12347D01*
X58201Y-12309D01*
X58182Y-12271D01*
X58163Y-12195D01*
X58163Y-12138D01*
X58182Y-12061D01*
X58201Y-12023D01*
X58239Y-11985D01*
X58296Y-11966D01*
X58334Y-11966D01*
X58391Y-11985D01*
X58410Y-12004D01*
X58791Y-12366D02*
X58563Y-12366D01*
X58677Y-12366D02*
X58677Y-11966D01*
X58639Y-12023D01*
X58601Y-12061D01*
X58563Y-12080D01*
X59039Y-11966D02*
X59077Y-11966D01*
X59115Y-11985D01*
X59134Y-12004D01*
X59153Y-12042D01*
X59172Y-12119D01*
X59172Y-12214D01*
X59153Y-12290D01*
X59134Y-12328D01*
X59115Y-12347D01*
X59077Y-12366D01*
X59039Y-12366D01*
X59001Y-12347D01*
X58982Y-12328D01*
X58963Y-12290D01*
X58943Y-12214D01*
X58943Y-12119D01*
X58963Y-12042D01*
X58982Y-12004D01*
X59001Y-11985D01*
X59039Y-11966D01*
X59515Y-12099D02*
X59515Y-12366D01*
X59420Y-11947D02*
X59324Y-12233D01*
X59572Y-12233D01*
G54D16*
X70921Y-29095D02*
X70750Y-29095D01*
X70836Y-29095D02*
X70836Y-28795D01*
X70807Y-28838D01*
X70778Y-28867D01*
X70750Y-28881D01*
X71193Y-28795D02*
X71050Y-28795D01*
X71036Y-28938D01*
X71050Y-28924D01*
X71078Y-28910D01*
X71150Y-28910D01*
X71178Y-28924D01*
X71193Y-28938D01*
X71207Y-28967D01*
X71207Y-29038D01*
X71193Y-29067D01*
X71178Y-29081D01*
X71150Y-29095D01*
X71078Y-29095D01*
X71050Y-29081D01*
X71036Y-29067D01*
X71550Y-28781D02*
X71293Y-29167D01*
X71621Y-28795D02*
X71807Y-28795D01*
X71707Y-28910D01*
X71750Y-28910D01*
X71778Y-28924D01*
X71793Y-28938D01*
X71807Y-28967D01*
X71807Y-29038D01*
X71793Y-29067D01*
X71778Y-29081D01*
X71750Y-29095D01*
X71664Y-29095D01*
X71636Y-29081D01*
X71621Y-29067D01*
X71993Y-28795D02*
X72021Y-28795D01*
X72050Y-28810D01*
X72064Y-28824D01*
X72078Y-28852D01*
X72093Y-28910D01*
X72093Y-28981D01*
X72078Y-29038D01*
X72064Y-29067D01*
X72050Y-29081D01*
X72021Y-29095D01*
X71993Y-29095D01*
X71964Y-29081D01*
X71950Y-29067D01*
X71936Y-29038D01*
X71921Y-28981D01*
X71921Y-28910D01*
X71936Y-28852D01*
X71950Y-28824D01*
X71964Y-28810D01*
X71993Y-28795D01*
X72221Y-29095D02*
X72221Y-28795D01*
X72393Y-29095D02*
X72264Y-28924D01*
X72393Y-28795D02*
X72221Y-28967D01*
X72521Y-29095D02*
X72521Y-28795D01*
X72521Y-28938D02*
X72693Y-28938D01*
X72693Y-29095D02*
X72693Y-28795D01*
X72807Y-28895D02*
X72964Y-28895D01*
X72807Y-29095D01*
X72964Y-29095D01*
G54D21*
X55908Y-6048D02*
X55680Y-6048D01*
X55794Y-6048D02*
X55794Y-5648D01*
X55756Y-5705D01*
X55718Y-5743D01*
X55680Y-5762D01*
X56080Y-6048D02*
X56080Y-5648D01*
X56232Y-5648D01*
X56270Y-5667D01*
X56289Y-5686D01*
X56308Y-5724D01*
X56308Y-5781D01*
X56289Y-5819D01*
X56270Y-5838D01*
X56232Y-5858D01*
X56080Y-5858D01*
X56480Y-6048D02*
X56480Y-5648D01*
X56670Y-6048D02*
X56670Y-5648D01*
X56899Y-6048D01*
X56899Y-5648D01*
X53940Y-28883D02*
X53711Y-28883D01*
X53825Y-28883D02*
X53825Y-28483D01*
X53787Y-28540D01*
X53749Y-28578D01*
X53711Y-28597D01*
X54111Y-28883D02*
X54111Y-28483D01*
X54264Y-28483D01*
X54302Y-28502D01*
X54321Y-28521D01*
X54340Y-28559D01*
X54340Y-28616D01*
X54321Y-28654D01*
X54302Y-28673D01*
X54264Y-28692D01*
X54111Y-28692D01*
X54511Y-28883D02*
X54511Y-28483D01*
X54702Y-28883D02*
X54702Y-28483D01*
X54930Y-28883D01*
X54930Y-28483D01*
X70869Y-49355D02*
X70640Y-49355D01*
X70755Y-49355D02*
X70755Y-48955D01*
X70716Y-49012D01*
X70678Y-49050D01*
X70640Y-49069D01*
X71040Y-49355D02*
X71040Y-48955D01*
X71193Y-48955D01*
X71231Y-48974D01*
X71250Y-48993D01*
X71269Y-49031D01*
X71269Y-49088D01*
X71250Y-49127D01*
X71231Y-49146D01*
X71193Y-49165D01*
X71040Y-49165D01*
X71440Y-49355D02*
X71440Y-48955D01*
X71631Y-49355D02*
X71631Y-48955D01*
X71859Y-49355D01*
X71859Y-48955D01*
G54D10*
G36*
X55461Y-23178D02*
X55168Y-23178D01*
X55168Y-22390D01*
X54674Y-22390D01*
X54674Y-23178D01*
X54380Y-23178D01*
X54380Y-22884D01*
X54380Y-22390D01*
X53887Y-22390D01*
X53887Y-22884D01*
X54380Y-22884D01*
X54380Y-23178D01*
X54330Y-23178D01*
X53593Y-23178D01*
X53593Y-22440D01*
X53593Y-22097D01*
X53937Y-22097D01*
X54330Y-22097D01*
X54724Y-22097D01*
X55461Y-22097D01*
X55461Y-23178D01*
X55461Y-23178D01*
G37*
G54D21*
X55461Y-23178D02*
X55168Y-23178D01*
X55168Y-22390D01*
X54674Y-22390D01*
X54674Y-23178D01*
X54380Y-23178D01*
X54380Y-22884D01*
X54380Y-22390D01*
X53887Y-22390D01*
X53887Y-22884D01*
X54380Y-22884D01*
X54380Y-23178D01*
X54330Y-23178D01*
X53593Y-23178D01*
X53593Y-22440D01*
X53593Y-22097D01*
X53937Y-22097D01*
X54330Y-22097D01*
X54724Y-22097D01*
X55461Y-22097D01*
X55461Y-23178D01*
G54D10*
G36*
X55461Y-24753D02*
X53593Y-24753D01*
X53593Y-24459D01*
X54380Y-24459D01*
X54380Y-23672D01*
X55461Y-23672D01*
X55461Y-23965D01*
X54674Y-23965D01*
X54674Y-24459D01*
X55461Y-24459D01*
X55461Y-24753D01*
X55461Y-24753D01*
G37*
G54D21*
X55461Y-24753D02*
X53593Y-24753D01*
X53593Y-24459D01*
X54380Y-24459D01*
X54380Y-23672D01*
X55461Y-23672D01*
X55461Y-23965D01*
X54674Y-23965D01*
X54674Y-24459D01*
X55461Y-24459D01*
X55461Y-24753D01*
G54D10*
G36*
X55461Y-26327D02*
X55168Y-26327D01*
X55168Y-26034D01*
X55168Y-25540D01*
X54674Y-25540D01*
X54674Y-26034D01*
X55168Y-26034D01*
X55168Y-26327D01*
X55118Y-26327D01*
X54724Y-26327D01*
X54380Y-26327D01*
X54380Y-26034D01*
X54380Y-25540D01*
X53887Y-25540D01*
X53887Y-26034D01*
X54380Y-26034D01*
X54380Y-26327D01*
X54330Y-26327D01*
X53937Y-26327D01*
X53593Y-26327D01*
X53593Y-25984D01*
X53593Y-25246D01*
X55461Y-25246D01*
X55461Y-25984D01*
X55461Y-26327D01*
X55461Y-26327D01*
G37*
G54D21*
X55461Y-26327D02*
X55168Y-26327D01*
X55168Y-26034D01*
X55168Y-25540D01*
X54674Y-25540D01*
X54674Y-26034D01*
X55168Y-26034D01*
X55168Y-26327D01*
X55118Y-26327D01*
X54724Y-26327D01*
X54380Y-26327D01*
X54380Y-26034D01*
X54380Y-25540D01*
X53887Y-25540D01*
X53887Y-26034D01*
X54380Y-26034D01*
X54380Y-26327D01*
X54330Y-26327D01*
X53937Y-26327D01*
X53593Y-26327D01*
X53593Y-25984D01*
X53593Y-25246D01*
X55461Y-25246D01*
X55461Y-25984D01*
X55461Y-26327D01*
G54D10*
G36*
X55461Y-27902D02*
X55168Y-27902D01*
X55168Y-27609D01*
X55168Y-27115D01*
X53887Y-27115D01*
X53887Y-27609D01*
X55168Y-27609D01*
X55168Y-27902D01*
X55118Y-27902D01*
X53593Y-27902D01*
X53593Y-26821D01*
X55118Y-26821D01*
X55461Y-26821D01*
X55461Y-27165D01*
X55461Y-27559D01*
X55461Y-27902D01*
X55461Y-27902D01*
G37*
G54D21*
X55461Y-27902D02*
X55168Y-27902D01*
X55168Y-27609D01*
X55168Y-27115D01*
X53887Y-27115D01*
X53887Y-27609D01*
X55168Y-27609D01*
X55168Y-27902D01*
X55118Y-27902D01*
X53593Y-27902D01*
X53593Y-26821D01*
X55118Y-26821D01*
X55461Y-26821D01*
X55461Y-27165D01*
X55461Y-27559D01*
X55461Y-27902D01*
G54D10*
G36*
X55461Y-21603D02*
X53593Y-21603D01*
X53593Y-21309D01*
X54380Y-21309D01*
X54380Y-20916D01*
X54674Y-20916D01*
X54674Y-21309D01*
X55461Y-21309D01*
X55461Y-21603D01*
X55461Y-21603D01*
G37*
G54D21*
X55461Y-21603D02*
X53593Y-21603D01*
X53593Y-21309D01*
X54380Y-21309D01*
X54380Y-20916D01*
X54674Y-20916D01*
X54674Y-21309D01*
X55461Y-21309D01*
X55461Y-21603D01*
G54D10*
G36*
X55461Y-20422D02*
X55068Y-20422D01*
X55068Y-20816D01*
X54774Y-20816D01*
X54774Y-20422D01*
X53593Y-20422D01*
X53593Y-20128D01*
X55461Y-20128D01*
X55461Y-20422D01*
X55461Y-20422D01*
G37*
G54D21*
X55461Y-20422D02*
X55068Y-20422D01*
X55068Y-20816D01*
X54774Y-20816D01*
X54774Y-20422D01*
X53593Y-20422D01*
X53593Y-20128D01*
X55461Y-20128D01*
X55461Y-20422D01*
M02*
