M48
INCH,TZ
T1C0.025
T2C0.031
T3C0.032
T4C0.039
T5C0.040
T6C0.120
%
G90
G05
T1
X54823Y-32283
X55118Y-37402
X56004Y-34744
X56299Y-37697
X56299Y-41929
X56398Y-34547
X56594Y-46358
X56791Y-33957
X56791Y-38878
X56988Y-43898
X57185Y-33760
X57579Y-33563
X57874Y-44390
X57972Y-33366
X58268Y-15453
X58268Y-15945
X58268Y-16437
X58268Y-16929
X58268Y-29823
X58268Y-37303
X58563Y-38189
X58661Y-17224
X58858Y-28543
X58858Y-37303
X58957Y-39469
X59154Y-17224
X59350Y-28543
X59547Y-12992
X59646Y-29724
X59646Y-33268
X59646Y-34449
X59744Y-38484
X59941Y-12992
X59941Y-32480
X59941Y-34055
X59941Y-41110
X59941Y-41142
X59941Y-46161
X60039Y-29823
X60039Y-36024
X60039Y-37697
X60335Y-33169
X60433Y-12894
X60433Y-40059
X60433Y-43110
X60433Y-45177
X60531Y-29429
X60827Y-40354
X60925Y-12598
X60925Y-28839
X61417Y-12303
X61516Y-35925
X61909Y-37697
X62008Y-12008
X62106Y-39469
X62303Y-26083
X62303Y-38484
X62402Y-10236
X62402Y-26870
X62500Y-11713
X62500Y-29232
X62697Y-48130
X62894Y-39075
X63091Y-28839
X63091Y-35925
X63287Y-25295
X63287Y-47736
X63484Y-37697
X63484Y-40354
X63681Y-25689
X63780Y-14173
X63780Y-26870
X63878Y-29232
X63878Y-41732
X64075Y-26083
X64272Y-14075
X64272Y-37697
X64370Y-26575
X64469Y-46654
X64567Y-14567
X64665Y-25689
X64665Y-38484
X64665Y-41043
X64764Y-29232
X64862Y-48228
X64961Y-9843
X64961Y-13976
X64961Y-15453
X64961Y-26280
X65157Y-43012
X65256Y-11909
X65256Y-26870
X65256Y-28839
X65453Y-35925
X65551Y-26083
X65846Y-24508
X65846Y-37697
X65945Y-12992
X66142Y-25492
X66240Y-14961
X66240Y-28740
X66437Y-13287
X66634Y-30118
X66634Y-31496
X66634Y-35039
X66634Y-35827
X66831Y-15945
X66929Y-27461
X66929Y-30906
X66929Y-34744
X67028Y-28740
X67224Y-12205
X67815Y-12106
X67913Y-37894
X68110Y-27657
X68209Y-12598
X68307Y-12106
X68406Y-34350
X68504Y-28937
X68799Y-29724
X68898Y-28346
X68898Y-33268
X69094Y-12106
X69094Y-35138
X69193Y-9055
X69193Y-18110
X69291Y-28937
X69783Y-30709
X70079Y-28937
X70374Y-9646
X71752Y-28839
X71949Y-33563
X72638Y-9843
T2
X56398Y-12205
X56398Y-13091
T3
X53929Y-46949
X54929Y-46949
X55217Y-48856
X55217Y-50356
X58358Y-6988
X58358Y-9350
X58358Y-11122
X58957Y-42217
X58957Y-43217
X58994Y-50098
X59358Y-6988
X59358Y-9350
X59358Y-11122
X60494Y-50098
X61016Y-7579
X62016Y-7579
X62295Y-50394
X63295Y-50394
X63915Y-7677
X64854Y-11024
X65415Y-7677
X65854Y-11024
X66142Y-17709
X66142Y-18709
X66831Y-41366
X66831Y-42366
X66831Y-43366
X66831Y-44366
X66831Y-45366
X66831Y-46366
X66831Y-47366
X66831Y-48366
X66831Y-49366
X66831Y-50366
X67163Y-23917
X67709Y-26772
X68663Y-23917
X68709Y-26772
T4
X67701Y-13753
X67701Y-14653
X67701Y-15553
X67701Y-16453
X67701Y-17353
X68701Y-13303
X68701Y-14203
X68701Y-15103
X68701Y-16003
X68701Y-16903
X69701Y-13753
X69701Y-14653
X69701Y-15553
X69701Y-16453
X69701Y-17353
T5
X54618Y-40421
X54618Y-41421
X54618Y-42421
X54618Y-43421
X54618Y-44421
X55618Y-40421
X55618Y-41421
X55618Y-42421
X55618Y-43421
X55618Y-44421
X56988Y-35827
X57382Y-51575
X61508Y-41110
X61508Y-42110
X61508Y-43110
X61508Y-44110
X61508Y-45110
X62508Y-41110
X62508Y-42110
X62508Y-43110
X62508Y-44110
X62508Y-45110
X71350Y-29724
X71350Y-31398
X72350Y-29724
X72350Y-31398
T6
X54331Y-29921
X56299Y-7087
X68701Y-10533
X68701Y-20373
X71260Y-50394
T0
M30
