G04 (created by PCBNEW (22-Jun-2014 BZR 4027)-stable) date Tue Mar 31 02:57:52 2015*
%MOIN*%
G04 Gerber Fmt 3.4, Leading zero omitted, Abs format*
%FSLAX34Y34*%
G01*
G70*
G90*
G04 APERTURE LIST*
%ADD10C,0.00590551*%
%ADD11R,0.0472X0.0591*%
%ADD12R,0.06X0.06*%
%ADD13C,0.06*%
%ADD14R,0.0590551X0.0590551*%
%ADD15R,0.0275X0.0315*%
%ADD16R,0.0315X0.0275*%
%ADD17C,0.055*%
%ADD18R,0.055X0.055*%
G04 APERTURE END LIST*
G54D10*
G54D11*
X70866Y-28661D03*
X70866Y-27637D03*
X70964Y-33582D03*
X70964Y-32558D03*
G54D12*
X71350Y-31397D03*
G54D13*
X72350Y-31397D03*
G54D14*
X56397Y-13090D03*
G54D12*
X57381Y-51574D03*
G54D15*
X60925Y-37874D03*
X60925Y-38306D03*
G54D16*
X59528Y-31102D03*
X59960Y-31102D03*
G54D15*
X61417Y-28819D03*
X61417Y-29251D03*
G54D16*
X66417Y-33267D03*
X66849Y-33267D03*
G54D11*
X60826Y-33878D03*
X60826Y-32854D03*
G54D17*
X63295Y-50393D03*
X62295Y-50393D03*
X62015Y-7578D03*
X61015Y-7578D03*
X66141Y-18708D03*
X66141Y-17708D03*
G54D12*
X61507Y-41110D03*
G54D13*
X62507Y-41110D03*
X61507Y-42110D03*
X62507Y-42110D03*
X61507Y-43110D03*
X62507Y-43110D03*
X61507Y-44110D03*
X62507Y-44110D03*
X61507Y-45110D03*
X62507Y-45110D03*
G54D12*
X54618Y-40421D03*
G54D13*
X55618Y-40421D03*
X54618Y-41421D03*
X55618Y-41421D03*
X54618Y-42421D03*
X55618Y-42421D03*
X54618Y-43421D03*
X55618Y-43421D03*
X54618Y-44421D03*
X55618Y-44421D03*
G54D14*
X56397Y-12204D03*
G54D18*
X63915Y-7677D03*
G54D17*
X65415Y-7677D03*
X64854Y-11023D03*
X65854Y-11023D03*
X67708Y-26771D03*
X68708Y-26771D03*
G54D18*
X67163Y-23917D03*
G54D17*
X68663Y-23917D03*
G54D12*
X56988Y-35826D03*
G54D17*
X58956Y-43216D03*
X58956Y-42216D03*
G54D18*
X58994Y-50098D03*
G54D17*
X60494Y-50098D03*
G54D18*
X55216Y-50356D03*
G54D17*
X55216Y-48856D03*
X53929Y-46948D03*
X54929Y-46948D03*
G54D18*
X66830Y-41366D03*
G54D17*
X66830Y-42366D03*
X66830Y-43366D03*
X66830Y-44366D03*
X66830Y-45366D03*
X66830Y-46366D03*
X66830Y-47366D03*
X66830Y-48366D03*
X66830Y-49366D03*
X66830Y-50366D03*
G54D18*
X58358Y-6988D03*
G54D17*
X59358Y-6988D03*
G54D18*
X58358Y-9350D03*
G54D17*
X59358Y-9350D03*
X58358Y-11122D03*
X59358Y-11122D03*
G54D12*
X71350Y-29724D03*
G54D13*
X72350Y-29724D03*
M02*
