G04 (created by PCBNEW (22-Jun-2014 BZR 4027)-stable) date Tue Mar 31 03:02:01 2015*
%MOIN*%
G04 Gerber Fmt 3.4, Leading zero omitted, Abs format*
%FSLAX34Y34*%
G01*
G70*
G90*
G04 APERTURE LIST*
%ADD10C,0.00590551*%
%ADD11R,0.0472X0.0591*%
%ADD12R,0.06X0.06*%
%ADD13C,0.06*%
%ADD14R,0.0590551X0.0590551*%
%ADD15R,0.0275X0.0315*%
%ADD16R,0.0315X0.0275*%
%ADD17C,0.055*%
%ADD18C,0.066*%
%ADD19C,0.2*%
%ADD20R,0.055X0.055*%
%ADD21C,0.16*%
%ADD22C,0.035*%
%ADD23C,0.0314961*%
%ADD24C,0.01*%
%ADD25C,0.015748*%
G04 APERTURE END LIST*
G54D10*
G54D11*
X70866Y-28661D03*
X70866Y-27637D03*
X70964Y-33582D03*
X70964Y-32558D03*
G54D12*
X71350Y-31397D03*
G54D13*
X72350Y-31397D03*
G54D14*
X56397Y-13090D03*
G54D12*
X57381Y-51574D03*
G54D15*
X60925Y-37874D03*
X60925Y-38306D03*
G54D16*
X59528Y-31102D03*
X59960Y-31102D03*
G54D15*
X61417Y-28819D03*
X61417Y-29251D03*
G54D16*
X66417Y-33267D03*
X66849Y-33267D03*
G54D11*
X60826Y-33878D03*
X60826Y-32854D03*
G54D17*
X63295Y-50393D03*
X62295Y-50393D03*
X62015Y-7578D03*
X61015Y-7578D03*
X66141Y-18708D03*
X66141Y-17708D03*
G54D12*
X61507Y-41110D03*
G54D13*
X62507Y-41110D03*
X61507Y-42110D03*
X62507Y-42110D03*
X61507Y-43110D03*
X62507Y-43110D03*
X61507Y-44110D03*
X62507Y-44110D03*
X61507Y-45110D03*
X62507Y-45110D03*
G54D12*
X54618Y-40421D03*
G54D13*
X55618Y-40421D03*
X54618Y-41421D03*
X55618Y-41421D03*
X54618Y-42421D03*
X55618Y-42421D03*
X54618Y-43421D03*
X55618Y-43421D03*
X54618Y-44421D03*
X55618Y-44421D03*
G54D18*
X67700Y-13752D03*
X67700Y-14652D03*
X67700Y-15552D03*
X67700Y-16452D03*
X67700Y-17352D03*
X68700Y-13302D03*
X68700Y-14202D03*
X68700Y-15102D03*
X68700Y-16002D03*
X68700Y-16902D03*
X69700Y-13752D03*
X69700Y-14652D03*
X69700Y-15552D03*
X69700Y-16452D03*
X69700Y-17352D03*
G54D19*
X68700Y-10532D03*
X68700Y-20372D03*
G54D14*
X56397Y-12204D03*
G54D20*
X63915Y-7677D03*
G54D17*
X65415Y-7677D03*
X64854Y-11023D03*
X65854Y-11023D03*
G54D15*
X65255Y-14547D03*
X65255Y-14979D03*
G54D17*
X67708Y-26771D03*
X68708Y-26771D03*
G54D20*
X67163Y-23917D03*
G54D17*
X68663Y-23917D03*
G54D12*
X56988Y-35826D03*
G54D17*
X58956Y-43216D03*
X58956Y-42216D03*
G54D20*
X58994Y-50098D03*
G54D17*
X60494Y-50098D03*
G54D20*
X55216Y-50356D03*
G54D17*
X55216Y-48856D03*
X53929Y-46948D03*
X54929Y-46948D03*
G54D20*
X66830Y-41366D03*
G54D17*
X66830Y-42366D03*
X66830Y-43366D03*
X66830Y-44366D03*
X66830Y-45366D03*
X66830Y-46366D03*
X66830Y-47366D03*
X66830Y-48366D03*
X66830Y-49366D03*
X66830Y-50366D03*
G54D20*
X58358Y-6988D03*
G54D17*
X59358Y-6988D03*
G54D20*
X58358Y-9350D03*
G54D17*
X59358Y-9350D03*
X58358Y-11122D03*
X59358Y-11122D03*
G54D12*
X71350Y-29724D03*
G54D13*
X72350Y-29724D03*
G54D21*
X56299Y-7086D03*
X54330Y-29921D03*
X71259Y-50393D03*
G54D22*
X69783Y-30708D03*
X68799Y-29724D03*
X68110Y-27657D03*
X68897Y-28346D03*
X70078Y-28937D03*
X69291Y-28937D03*
X68503Y-28937D03*
X71948Y-33562D03*
X71751Y-28838D03*
X62401Y-10236D03*
X64960Y-9842D03*
X66437Y-13287D03*
X65255Y-11909D03*
X65944Y-12992D03*
X66633Y-35826D03*
X56594Y-46358D03*
X60433Y-43110D03*
X57874Y-44389D03*
X64468Y-46653D03*
X64665Y-41043D03*
X60433Y-45177D03*
X56988Y-43897D03*
X58267Y-37303D03*
X58562Y-38188D03*
X65255Y-28838D03*
X60039Y-29822D03*
X60531Y-29429D03*
X63877Y-29232D03*
X66633Y-30118D03*
X59940Y-46161D03*
X59940Y-41141D03*
X59940Y-41110D03*
X64862Y-48228D03*
X65157Y-43011D03*
X63287Y-47736D03*
X62696Y-48129D03*
X63877Y-41732D03*
X60433Y-40059D03*
X58858Y-37303D03*
X60039Y-36023D03*
X60334Y-33169D03*
X67913Y-37893D03*
X69094Y-35137D03*
X68405Y-34350D03*
X62893Y-39074D03*
X62106Y-39468D03*
X58956Y-39468D03*
X63484Y-40354D03*
X56791Y-38877D03*
X60826Y-40354D03*
X55118Y-37401D03*
X56299Y-41929D03*
X56299Y-37696D03*
X54822Y-32283D03*
X56003Y-34744D03*
X58267Y-15452D03*
X56397Y-34547D03*
X58267Y-15944D03*
X56791Y-33956D03*
X58267Y-16437D03*
X57185Y-33759D03*
X58267Y-16929D03*
X57578Y-33562D03*
X58661Y-17224D03*
X57972Y-33366D03*
X59153Y-17224D03*
X68897Y-33267D03*
X59940Y-34055D03*
X59940Y-32480D03*
X66929Y-34744D03*
X66929Y-30905D03*
X62303Y-26082D03*
X58858Y-28543D03*
X59350Y-28543D03*
X58267Y-29822D03*
X59744Y-38484D03*
X60039Y-37696D03*
X61909Y-37696D03*
X63484Y-37696D03*
X65846Y-37696D03*
X64271Y-37696D03*
X67027Y-28740D03*
X66929Y-27460D03*
X66240Y-28740D03*
X64763Y-29232D03*
X62500Y-29232D03*
X60925Y-28838D03*
X63090Y-28838D03*
X65452Y-35925D03*
X61515Y-35925D03*
X63090Y-35925D03*
X66633Y-35039D03*
X66633Y-31496D03*
X59645Y-34448D03*
X59645Y-29724D03*
X59645Y-33267D03*
X64665Y-38484D03*
X62303Y-38484D03*
X63779Y-26870D03*
X62401Y-26870D03*
X64960Y-15452D03*
X64960Y-13976D03*
X64566Y-14566D03*
X66141Y-25492D03*
X64271Y-14074D03*
X65846Y-24507D03*
X63779Y-14173D03*
X65551Y-26082D03*
X62500Y-11712D03*
X65255Y-26870D03*
X62007Y-12007D03*
X64960Y-26279D03*
X61417Y-12303D03*
X64665Y-25688D03*
X60925Y-12598D03*
X64370Y-26574D03*
X60433Y-12893D03*
X64074Y-26082D03*
X59940Y-12992D03*
X63681Y-25688D03*
X59547Y-12992D03*
X63287Y-25295D03*
X67224Y-12204D03*
X66830Y-15944D03*
X69192Y-18110D03*
X72637Y-9842D03*
X69192Y-9055D03*
X68307Y-12106D03*
X69094Y-12106D03*
X66240Y-14960D03*
X67814Y-12106D03*
X70374Y-9645D03*
X68208Y-12598D03*
G54D23*
X62507Y-40551D02*
X62204Y-40551D01*
X62204Y-40551D02*
X61811Y-40157D01*
X62507Y-41110D02*
X63157Y-41110D01*
X63157Y-41110D02*
X63385Y-41338D01*
X56527Y-40421D02*
X56527Y-39929D01*
X56527Y-39929D02*
X56692Y-39763D01*
X55618Y-45070D02*
X55618Y-45169D01*
X55618Y-45169D02*
X54921Y-45866D01*
X55511Y-46948D02*
X55511Y-46456D01*
X55511Y-46456D02*
X54921Y-45866D01*
X54929Y-46948D02*
X55511Y-46948D01*
X54921Y-46161D02*
X54921Y-45866D01*
X54921Y-45866D02*
X55118Y-45669D01*
X54921Y-46161D02*
X55807Y-46161D01*
X55807Y-46161D02*
X55905Y-46062D01*
X54921Y-46161D02*
X54625Y-46161D01*
X55216Y-48425D02*
X54929Y-48137D01*
X54929Y-48137D02*
X54929Y-46169D01*
X54929Y-46169D02*
X54921Y-46161D01*
X55216Y-48375D02*
X55216Y-48425D01*
X54625Y-46161D02*
X54330Y-46456D01*
X55118Y-48375D02*
X55167Y-48375D01*
X55167Y-48375D02*
X55511Y-48031D01*
X55216Y-48375D02*
X55118Y-48375D01*
X55118Y-48375D02*
X54773Y-48375D01*
X54773Y-48375D02*
X54724Y-48425D01*
X56692Y-51574D02*
X55905Y-51574D01*
X57874Y-51574D02*
X58661Y-51574D01*
X57381Y-50885D02*
X57381Y-50984D01*
X57972Y-51574D02*
X57874Y-51574D01*
X57874Y-51574D02*
X57381Y-51574D01*
X57381Y-50984D02*
X57972Y-51574D01*
X56692Y-51574D02*
X57381Y-50885D01*
X56692Y-51574D02*
X56692Y-50787D01*
X60494Y-50098D02*
X60494Y-49864D01*
X60494Y-49864D02*
X59842Y-49212D01*
X59940Y-50098D02*
X59940Y-50688D01*
X60494Y-50098D02*
X59940Y-50098D01*
X59940Y-50688D02*
X59842Y-50787D01*
X61023Y-50098D02*
X61023Y-49606D01*
X63385Y-49614D02*
X63385Y-49606D01*
X63385Y-49606D02*
X62992Y-49212D01*
X63295Y-50000D02*
X62992Y-50000D01*
X62992Y-50000D02*
X62598Y-49606D01*
X63295Y-49614D02*
X63385Y-49614D01*
X63385Y-49614D02*
X64165Y-49614D01*
X64165Y-49614D02*
X64173Y-49606D01*
X63385Y-51082D02*
X63385Y-51181D01*
X63385Y-51181D02*
X63779Y-51574D01*
X63385Y-51082D02*
X63385Y-51082D01*
X63385Y-51082D02*
X63090Y-51082D01*
X63295Y-50992D02*
X63385Y-51082D01*
X63295Y-50393D02*
X63295Y-50992D01*
X63090Y-51082D02*
X62992Y-51181D01*
X67716Y-40157D02*
X69291Y-41732D01*
X67322Y-41366D02*
X67322Y-41732D01*
X67322Y-41732D02*
X67716Y-42125D01*
X65944Y-42027D02*
X65944Y-42322D01*
X66240Y-41732D02*
X65944Y-42027D01*
X66240Y-41437D02*
X66240Y-41732D01*
X65944Y-42322D02*
X65748Y-42519D01*
X66732Y-40551D02*
X66732Y-40354D01*
X66732Y-40354D02*
X66929Y-40157D01*
X66141Y-40551D02*
X66732Y-40551D01*
X66732Y-40551D02*
X66830Y-40649D01*
X66830Y-40649D02*
X67224Y-40649D01*
X67224Y-40649D02*
X67322Y-40551D01*
X70177Y-30708D02*
X70866Y-30708D01*
X69685Y-32677D02*
X69291Y-32677D01*
X69291Y-32677D02*
X68503Y-31889D01*
X69685Y-32677D02*
X70078Y-32677D01*
X69685Y-34645D02*
X69291Y-34645D01*
X69291Y-34645D02*
X68897Y-34251D01*
X69685Y-38188D02*
X70472Y-38188D01*
X69685Y-37401D02*
X69291Y-37401D01*
X69685Y-38976D02*
X69291Y-38976D01*
X69685Y-39763D02*
X70078Y-39763D01*
X70078Y-39763D02*
X70472Y-40157D01*
X69685Y-35826D02*
X70472Y-35826D01*
X72440Y-30708D02*
X71653Y-30708D01*
X72350Y-30708D02*
X72440Y-30708D01*
X72440Y-30708D02*
X72834Y-30708D01*
X72834Y-29133D02*
X72834Y-30708D01*
X72350Y-29724D02*
X72350Y-29618D01*
X72350Y-29618D02*
X72834Y-29133D01*
X72350Y-30708D02*
X72350Y-29724D01*
X63877Y-30216D02*
X63877Y-30413D01*
X63877Y-30413D02*
X64173Y-30708D01*
X60629Y-31692D02*
X60826Y-31692D01*
X60039Y-31692D02*
X60629Y-31692D01*
X61023Y-31496D02*
X61417Y-31496D01*
X60826Y-31692D02*
X61023Y-31496D01*
X61417Y-30708D02*
X60826Y-30118D01*
X60531Y-29822D02*
X60826Y-30118D01*
X60531Y-29822D02*
X60531Y-29429D01*
X63877Y-30019D02*
X63877Y-30216D01*
X63877Y-30216D02*
X63385Y-30708D01*
X68700Y-18503D02*
X67716Y-18503D01*
X66141Y-18708D02*
X66141Y-20472D01*
X66141Y-20472D02*
X65748Y-20866D01*
X68700Y-20372D02*
X68700Y-20275D01*
X68700Y-20275D02*
X70078Y-18897D01*
X68700Y-20275D02*
X67322Y-18897D01*
X68700Y-21653D02*
X68700Y-23879D01*
X68700Y-23879D02*
X68663Y-23917D01*
X68700Y-21653D02*
X69685Y-21653D01*
X68700Y-21653D02*
X68110Y-21653D01*
X68700Y-9055D02*
X68503Y-9055D01*
X68503Y-9055D02*
X67716Y-8267D01*
X66929Y-10532D02*
X66929Y-11023D01*
X66929Y-11023D02*
X67322Y-11417D01*
X66929Y-10532D02*
X66929Y-10236D01*
X66929Y-10236D02*
X66535Y-9842D01*
X65846Y-7185D02*
X66043Y-7185D01*
X66043Y-7185D02*
X66535Y-6692D01*
X64616Y-8316D02*
X64517Y-8316D01*
X64517Y-8316D02*
X64173Y-8661D01*
X55708Y-13090D02*
X55610Y-13090D01*
X55610Y-13090D02*
X55118Y-12598D01*
X56299Y-14566D02*
X56397Y-14468D01*
X56397Y-14468D02*
X56299Y-14566D01*
X56397Y-13779D02*
X56397Y-14468D01*
X55708Y-13090D02*
X55708Y-13976D01*
X56397Y-13090D02*
X55708Y-13090D01*
X55708Y-13976D02*
X55511Y-14173D01*
X60137Y-9350D02*
X60137Y-10334D01*
X60137Y-10334D02*
X59842Y-10629D01*
X60137Y-9350D02*
X60137Y-8759D01*
X59358Y-9350D02*
X60137Y-9350D01*
X60137Y-8759D02*
X60236Y-8661D01*
X59448Y-6307D02*
X58669Y-6307D01*
X58669Y-6307D02*
X58661Y-6299D01*
X59358Y-6307D02*
X59448Y-6307D01*
X59448Y-6307D02*
X60228Y-6307D01*
X60228Y-6307D02*
X60236Y-6299D01*
X59358Y-6988D02*
X59940Y-6988D01*
X59940Y-6988D02*
X60236Y-6692D01*
X58956Y-42216D02*
X58570Y-42216D01*
X58570Y-42216D02*
X58562Y-42224D01*
X58956Y-42216D02*
X59539Y-42216D01*
X59539Y-42216D02*
X59547Y-42224D01*
X58956Y-42216D02*
X58956Y-41338D01*
X62507Y-45110D02*
X62507Y-45578D01*
X62507Y-45578D02*
X62795Y-45866D01*
X62507Y-41110D02*
X62507Y-40551D01*
X62507Y-40551D02*
X62507Y-40362D01*
X62507Y-40362D02*
X62500Y-40354D01*
X55618Y-44421D02*
X55618Y-45070D01*
X55618Y-45070D02*
X55511Y-45177D01*
X55618Y-40421D02*
X56527Y-40421D01*
X56527Y-40421D02*
X56594Y-40354D01*
X55216Y-48856D02*
X55216Y-48375D01*
X56692Y-51574D02*
X56594Y-51476D01*
X63295Y-50393D02*
X63295Y-50000D01*
X63295Y-50000D02*
X63295Y-49614D01*
X63295Y-49614D02*
X63287Y-49606D01*
X60494Y-50098D02*
X61023Y-50098D01*
X61023Y-50098D02*
X61220Y-50098D01*
X66240Y-41437D02*
X66830Y-40846D01*
X66830Y-40846D02*
X66830Y-40944D01*
X66240Y-41366D02*
X66240Y-41437D01*
X66830Y-41366D02*
X66830Y-40944D01*
X66830Y-40944D02*
X66830Y-40649D01*
X68307Y-36023D02*
X68307Y-35334D01*
X68011Y-35433D02*
X68208Y-35236D01*
X68011Y-35433D02*
X67224Y-35433D01*
X68307Y-35334D02*
X68208Y-35236D01*
X68307Y-35925D02*
X68307Y-36023D01*
X68307Y-36023D02*
X68307Y-36318D01*
X68307Y-36318D02*
X68503Y-36515D01*
X63877Y-29232D02*
X63877Y-30019D01*
X63877Y-30019D02*
X63779Y-30118D01*
X72350Y-31397D02*
X72350Y-32078D01*
X72350Y-32078D02*
X72342Y-32086D01*
X72350Y-31397D02*
X72933Y-31397D01*
X72350Y-29724D02*
X72933Y-29724D01*
X66141Y-18708D02*
X66133Y-18708D01*
X66133Y-18708D02*
X65649Y-19192D01*
X68700Y-20372D02*
X68700Y-21653D01*
X68700Y-21653D02*
X68700Y-21850D01*
X68700Y-10532D02*
X68700Y-9055D01*
X68700Y-9055D02*
X68700Y-8956D01*
X65415Y-7677D02*
X65255Y-7677D01*
X65255Y-7677D02*
X64616Y-8316D01*
X64616Y-8316D02*
X64566Y-8366D01*
X65415Y-7677D02*
X65415Y-7616D01*
X65415Y-7616D02*
X65846Y-7185D01*
X65846Y-7185D02*
X65944Y-7086D01*
X56397Y-13090D02*
X56397Y-13779D01*
X56397Y-13779D02*
X56397Y-13877D01*
X59358Y-11122D02*
X59358Y-11114D01*
X59358Y-11114D02*
X59842Y-10629D01*
X59842Y-10629D02*
X60039Y-10433D01*
X59358Y-6988D02*
X59358Y-6307D01*
X59358Y-6307D02*
X59350Y-6299D01*
X69685Y-29133D02*
X69685Y-29724D01*
X68708Y-26779D02*
X69685Y-27755D01*
X69685Y-27755D02*
X69685Y-29133D01*
X68708Y-26771D02*
X68708Y-26779D01*
X69685Y-32283D02*
X69685Y-32677D01*
X69685Y-32677D02*
X69685Y-34645D01*
X69685Y-34645D02*
X69685Y-35826D01*
X69685Y-35826D02*
X69685Y-35925D01*
X70177Y-31791D02*
X69685Y-32283D01*
X70177Y-30216D02*
X70177Y-30708D01*
X70177Y-30708D02*
X70177Y-31791D01*
X69685Y-29724D02*
X70177Y-30216D01*
G54D24*
X68799Y-29724D02*
X69783Y-30708D01*
X68208Y-27657D02*
X68110Y-27657D01*
X68897Y-28346D02*
X68208Y-27657D01*
X70759Y-29133D02*
X71350Y-29724D01*
X70275Y-29133D02*
X70759Y-29133D01*
X70078Y-28937D02*
X70275Y-29133D01*
X68503Y-28937D02*
X69291Y-28937D01*
G54D23*
X70866Y-27637D02*
X71436Y-27637D01*
X71928Y-33582D02*
X70964Y-33582D01*
X71948Y-33562D02*
X71928Y-33582D01*
X71751Y-27952D02*
X71751Y-28838D01*
X71436Y-27637D02*
X71751Y-27952D01*
X70866Y-28661D02*
X70866Y-29625D01*
X70866Y-29625D02*
X70964Y-29724D01*
X70964Y-29724D02*
X71350Y-29724D01*
X70964Y-32558D02*
X70964Y-31783D01*
X70964Y-31783D02*
X71350Y-31397D01*
X70866Y-27637D02*
X70866Y-27263D01*
X68496Y-25984D02*
X67708Y-26771D01*
X69586Y-25984D02*
X68496Y-25984D01*
X70866Y-27263D02*
X69586Y-25984D01*
X72350Y-29724D02*
X72350Y-20874D01*
X71849Y-20372D02*
X68700Y-20372D01*
X72350Y-20874D02*
X71849Y-20372D01*
X72350Y-31397D02*
X72350Y-29724D01*
X59358Y-11122D02*
X61515Y-11122D01*
X61515Y-11122D02*
X62401Y-10236D01*
X59358Y-11122D02*
X59350Y-11122D01*
X57381Y-13090D02*
X56397Y-13090D01*
X59350Y-11122D02*
X57381Y-13090D01*
X59358Y-9350D02*
X59358Y-11122D01*
X59358Y-6988D02*
X59358Y-9350D01*
X61015Y-7578D02*
X59948Y-7578D01*
X59948Y-7578D02*
X59358Y-6988D01*
X65415Y-7677D02*
X65415Y-7639D01*
X65415Y-7639D02*
X64468Y-6692D01*
X64468Y-6692D02*
X61901Y-6692D01*
X61901Y-6692D02*
X61015Y-7578D01*
X65854Y-11023D02*
X65854Y-8116D01*
X65854Y-8116D02*
X65415Y-7677D01*
X65854Y-11023D02*
X66437Y-11023D01*
X66927Y-10532D02*
X66929Y-10532D01*
X66929Y-10532D02*
X68700Y-10532D01*
X66437Y-11023D02*
X66927Y-10532D01*
G54D24*
X65354Y-10236D02*
X64960Y-9842D01*
X65354Y-11417D02*
X65354Y-10236D01*
X65649Y-11712D02*
X65354Y-11417D01*
X66043Y-11712D02*
X65649Y-11712D01*
X66437Y-12106D02*
X66043Y-11712D01*
X66437Y-13287D02*
X66437Y-12106D01*
X65255Y-12303D02*
X65255Y-11909D01*
X65944Y-12992D02*
X65255Y-12303D01*
G54D23*
X66240Y-14960D02*
X66240Y-17610D01*
X66240Y-17610D02*
X66141Y-17708D01*
X64854Y-11023D02*
X64854Y-12492D01*
X66240Y-13877D02*
X66240Y-14960D01*
X64854Y-12492D02*
X66240Y-13877D01*
G54D24*
X62295Y-50393D02*
X62295Y-50401D01*
X56753Y-49372D02*
X56200Y-49372D01*
X58562Y-51181D02*
X56753Y-49372D01*
X61515Y-51181D02*
X58562Y-51181D01*
X62295Y-50401D02*
X61515Y-51181D01*
X54618Y-44421D02*
X53968Y-44421D01*
X53968Y-44421D02*
X53444Y-43897D01*
X60826Y-33878D02*
X60826Y-34251D01*
X60826Y-34251D02*
X60088Y-34990D01*
G54D23*
X60531Y-29429D02*
X60433Y-29429D01*
X60433Y-29429D02*
X60039Y-29822D01*
X68700Y-20372D02*
X68700Y-18503D01*
X68700Y-18503D02*
X68700Y-16902D01*
G54D24*
X68700Y-16902D02*
X68674Y-16902D01*
X68674Y-16902D02*
X68208Y-16437D01*
X68208Y-16437D02*
X68208Y-15594D01*
X68208Y-15594D02*
X68700Y-15102D01*
X67700Y-17352D02*
X68250Y-17352D01*
X68250Y-17352D02*
X68700Y-16902D01*
X68700Y-14202D02*
X68700Y-15102D01*
X68700Y-13302D02*
X68700Y-14202D01*
G54D23*
X66929Y-34744D02*
X67224Y-35039D01*
X67224Y-35039D02*
X67224Y-35433D01*
X67027Y-35826D02*
X66633Y-35826D01*
X67224Y-35433D02*
X67224Y-35629D01*
X67224Y-35629D02*
X67027Y-35826D01*
X65157Y-43011D02*
X65846Y-43700D01*
X64370Y-50393D02*
X63295Y-50393D01*
X65846Y-48917D02*
X64370Y-50393D01*
X65846Y-43700D02*
X65846Y-48917D01*
G54D24*
X66633Y-35826D02*
X66732Y-35925D01*
X66732Y-35925D02*
X66633Y-35826D01*
G54D23*
X69685Y-35925D02*
X68307Y-35925D01*
X68307Y-35925D02*
X66732Y-35925D01*
X66732Y-35925D02*
X66633Y-35826D01*
X68082Y-41366D02*
X67322Y-41366D01*
X67322Y-41366D02*
X66830Y-41366D01*
X69685Y-39763D02*
X68082Y-41366D01*
X69685Y-35925D02*
X69685Y-37401D01*
X69685Y-37401D02*
X69685Y-38188D01*
X69685Y-38188D02*
X69685Y-38976D01*
X69685Y-38976D02*
X69685Y-39763D01*
X66830Y-41366D02*
X66240Y-41366D01*
X66240Y-41366D02*
X65874Y-41366D01*
X65874Y-41366D02*
X65255Y-40748D01*
X53929Y-46948D02*
X53929Y-49068D01*
X53929Y-49068D02*
X55216Y-50356D01*
X56594Y-46358D02*
X56200Y-46751D01*
X56200Y-46751D02*
X56200Y-49372D01*
X56200Y-49372D02*
X55216Y-50356D01*
X58994Y-50098D02*
X58994Y-49175D01*
X59448Y-48720D02*
X59448Y-46850D01*
X58994Y-49175D02*
X59448Y-48720D01*
X58956Y-43216D02*
X58956Y-43307D01*
X58956Y-43307D02*
X57874Y-44389D01*
X60433Y-45177D02*
X60433Y-43110D01*
X64665Y-38484D02*
X64665Y-41043D01*
X57874Y-46062D02*
X57874Y-44389D01*
X58661Y-46850D02*
X57874Y-46062D01*
X60925Y-46850D02*
X59448Y-46850D01*
X59448Y-46850D02*
X58661Y-46850D01*
X61122Y-46653D02*
X60925Y-46850D01*
X64468Y-46653D02*
X61122Y-46653D01*
X62507Y-45110D02*
X62507Y-45464D01*
X61220Y-45964D02*
X60433Y-45177D01*
X62007Y-45964D02*
X61220Y-45964D01*
X62507Y-45464D02*
X62007Y-45964D01*
X57874Y-38877D02*
X57874Y-43011D01*
X57874Y-43011D02*
X56988Y-43897D01*
X56791Y-38877D02*
X57874Y-38877D01*
X58562Y-38188D02*
X57874Y-38877D01*
X68700Y-20372D02*
X67805Y-20372D01*
X67805Y-20372D02*
X66141Y-18708D01*
X59645Y-34448D02*
X59547Y-34448D01*
X59350Y-33562D02*
X59645Y-33267D01*
X59350Y-34251D02*
X59350Y-33562D01*
X59547Y-34448D02*
X59350Y-34251D01*
X59645Y-29724D02*
X59448Y-29921D01*
X59448Y-29921D02*
X59448Y-32972D01*
X59448Y-32972D02*
X59645Y-33169D01*
X59645Y-33169D02*
X59645Y-33267D01*
X60925Y-28838D02*
X60826Y-28838D01*
X59645Y-29133D02*
X59645Y-29724D01*
X59744Y-29035D02*
X59645Y-29133D01*
X59940Y-28838D02*
X59744Y-29035D01*
X60826Y-28838D02*
X59940Y-28838D01*
X63090Y-28838D02*
X62992Y-28838D01*
X61220Y-28543D02*
X60925Y-28838D01*
X62696Y-28543D02*
X61220Y-28543D01*
X62992Y-28838D02*
X62696Y-28543D01*
X65255Y-28838D02*
X65059Y-28641D01*
X63287Y-28838D02*
X63090Y-28838D01*
X63484Y-28641D02*
X63287Y-28838D01*
X65059Y-28641D02*
X63484Y-28641D01*
X65255Y-37696D02*
X65255Y-40748D01*
X65255Y-40748D02*
X65255Y-42913D01*
X65255Y-42913D02*
X65157Y-43011D01*
X61909Y-37696D02*
X60039Y-37696D01*
X63484Y-37696D02*
X61909Y-37696D01*
X64271Y-37696D02*
X63484Y-37696D01*
X65846Y-37696D02*
X64271Y-37696D01*
X65452Y-35925D02*
X66240Y-36712D01*
X66240Y-36712D02*
X66732Y-36712D01*
X66732Y-36712D02*
X67913Y-37893D01*
X58267Y-37303D02*
X58267Y-36811D01*
X58267Y-36811D02*
X60088Y-34990D01*
X59645Y-34448D02*
X59645Y-34547D01*
X59645Y-34547D02*
X60088Y-34990D01*
X61023Y-35925D02*
X61515Y-35925D01*
X60088Y-34990D02*
X61023Y-35925D01*
X59940Y-32480D02*
X59940Y-32381D01*
X60039Y-30413D02*
X60039Y-29822D01*
X60039Y-30413D02*
X60039Y-31692D01*
X60039Y-31692D02*
X60039Y-32283D01*
X60039Y-32283D02*
X59940Y-32381D01*
X62500Y-29232D02*
X62303Y-29429D01*
X60629Y-29429D02*
X60531Y-29429D01*
X60826Y-29429D02*
X60629Y-29429D01*
X62303Y-29429D02*
X60826Y-29429D01*
X64763Y-29232D02*
X65059Y-29527D01*
X66141Y-28740D02*
X66240Y-28740D01*
X65354Y-29527D02*
X66141Y-28740D01*
X65059Y-29527D02*
X65354Y-29527D01*
X64763Y-29232D02*
X64763Y-29330D01*
X64173Y-29527D02*
X63877Y-29232D01*
X64566Y-29527D02*
X64173Y-29527D01*
X64763Y-29330D02*
X64566Y-29527D01*
X63877Y-29232D02*
X63681Y-29429D01*
X63681Y-29429D02*
X62696Y-29429D01*
X62696Y-29429D02*
X62500Y-29232D01*
X67027Y-28740D02*
X66240Y-28740D01*
X66633Y-30118D02*
X66633Y-30216D01*
X66338Y-31200D02*
X66633Y-31496D01*
X66338Y-30511D02*
X66338Y-31200D01*
X66633Y-30216D02*
X66338Y-30511D01*
X66633Y-31496D02*
X66633Y-31594D01*
X66633Y-31594D02*
X66338Y-31889D01*
X66338Y-31889D02*
X66338Y-34744D01*
X66338Y-34744D02*
X66633Y-35039D01*
X61515Y-35925D02*
X65452Y-35925D01*
X65452Y-35925D02*
X65748Y-35925D01*
X65748Y-35925D02*
X66633Y-35039D01*
X56988Y-35826D02*
X56988Y-36023D01*
X56988Y-36023D02*
X58267Y-37303D01*
G54D24*
X59940Y-46161D02*
X59940Y-41141D01*
X59940Y-41110D02*
X59940Y-41141D01*
X62507Y-44110D02*
X62515Y-44110D01*
X64862Y-46456D02*
X64862Y-48228D01*
X62515Y-44110D02*
X64862Y-46456D01*
X65157Y-43011D02*
X65255Y-42913D01*
X63090Y-47736D02*
X63287Y-47736D01*
X62696Y-48129D02*
X63090Y-47736D01*
X63877Y-41732D02*
X63877Y-41740D01*
X60433Y-40059D02*
X60433Y-42125D01*
X60433Y-42125D02*
X61417Y-43110D01*
X61417Y-43110D02*
X61507Y-43110D01*
X58858Y-37204D02*
X58858Y-37303D01*
X60039Y-36023D02*
X58858Y-37204D01*
X60826Y-32854D02*
X60649Y-32854D01*
X60649Y-32854D02*
X60334Y-33169D01*
X67913Y-37893D02*
X66732Y-36712D01*
X66732Y-36712D02*
X66240Y-36712D01*
X69094Y-35039D02*
X69094Y-35137D01*
X68405Y-34350D02*
X69094Y-35039D01*
X62893Y-39074D02*
X63877Y-40059D01*
X63877Y-40059D02*
X63877Y-41740D01*
X62507Y-43110D02*
X63877Y-41740D01*
X58956Y-39468D02*
X62106Y-39468D01*
G54D25*
X57578Y-38877D02*
X62007Y-38877D01*
X62007Y-38877D02*
X63484Y-40354D01*
X57578Y-38877D02*
X56791Y-38877D01*
G54D24*
X62507Y-41110D02*
X62507Y-41133D01*
X62507Y-41133D02*
X62007Y-41633D01*
X62007Y-41633D02*
X62007Y-44610D01*
X62007Y-44610D02*
X62507Y-45110D01*
X61425Y-42027D02*
X61507Y-42110D01*
X61122Y-42027D02*
X61425Y-42027D01*
X60826Y-41732D02*
X61122Y-42027D01*
X60826Y-40354D02*
X60826Y-41732D01*
X55118Y-41929D02*
X55118Y-37401D01*
X56299Y-41929D02*
X55118Y-41929D01*
X54692Y-44421D02*
X54618Y-44421D01*
X55118Y-43996D02*
X54692Y-44421D01*
X55118Y-41929D02*
X55118Y-43996D01*
X60039Y-37696D02*
X56299Y-37696D01*
X54618Y-42421D02*
X54527Y-42421D01*
X54527Y-32578D02*
X54822Y-32283D01*
X54527Y-38976D02*
X54527Y-32578D01*
X53937Y-39566D02*
X54527Y-38976D01*
X53937Y-41830D02*
X53937Y-39566D01*
X54527Y-42421D02*
X53937Y-41830D01*
X58267Y-15452D02*
X58267Y-15551D01*
X56003Y-18799D02*
X56003Y-34744D01*
X57185Y-17618D02*
X56003Y-18799D01*
X57185Y-16633D02*
X57185Y-17618D01*
X58267Y-15551D02*
X57185Y-16633D01*
X56397Y-34547D02*
X56397Y-18700D01*
X57578Y-16633D02*
X58267Y-15944D01*
X57578Y-17519D02*
X57578Y-16633D01*
X56397Y-18700D02*
X57578Y-17519D01*
X58267Y-16437D02*
X58267Y-16535D01*
X56791Y-18700D02*
X56791Y-33956D01*
X57874Y-17618D02*
X56791Y-18700D01*
X57874Y-16929D02*
X57874Y-17618D01*
X58267Y-16535D02*
X57874Y-16929D01*
X57185Y-33759D02*
X57185Y-18700D01*
X58267Y-17618D02*
X58267Y-16929D01*
X57185Y-18700D02*
X58267Y-17618D01*
X58661Y-17224D02*
X58661Y-18011D01*
X57578Y-19094D02*
X57578Y-33562D01*
X58661Y-18011D02*
X57578Y-19094D01*
X57972Y-33366D02*
X57972Y-18996D01*
X59153Y-17814D02*
X59153Y-17224D01*
X57972Y-18996D02*
X59153Y-17814D01*
X66929Y-33267D02*
X68405Y-33267D01*
X68405Y-33267D02*
X68897Y-33267D01*
X59940Y-34055D02*
X59940Y-32480D01*
X66633Y-35826D02*
X66633Y-35826D01*
X66929Y-34744D02*
X66929Y-33464D01*
X66929Y-33464D02*
X66929Y-33267D01*
X66929Y-33267D02*
X66929Y-30905D01*
X67027Y-29133D02*
X67027Y-28740D01*
X66929Y-30905D02*
X66929Y-29232D01*
X66929Y-29232D02*
X67027Y-29133D01*
X62303Y-26082D02*
X61023Y-27362D01*
X61023Y-27362D02*
X59645Y-27362D01*
X59645Y-27362D02*
X58858Y-28149D01*
X58858Y-28149D02*
X58858Y-28543D01*
X58267Y-29724D02*
X58267Y-29822D01*
X58267Y-29724D02*
X59350Y-28543D01*
X59744Y-38484D02*
X62303Y-38484D01*
X65846Y-37696D02*
X65255Y-37696D01*
X65255Y-37696D02*
X64271Y-37696D01*
G54D25*
X65551Y-29232D02*
X66043Y-28740D01*
X66043Y-28740D02*
X66240Y-28740D01*
X65452Y-35925D02*
X65748Y-35925D01*
X65748Y-35925D02*
X66633Y-35039D01*
X63090Y-35925D02*
X65452Y-35925D01*
X61515Y-35925D02*
X63090Y-35925D01*
G54D24*
X63779Y-26870D02*
X63976Y-26870D01*
X66633Y-27165D02*
X66929Y-27460D01*
X64271Y-27165D02*
X66633Y-27165D01*
X63976Y-26870D02*
X64271Y-27165D01*
X66043Y-28740D02*
X66240Y-28740D01*
X65551Y-29232D02*
X66043Y-28740D01*
X62303Y-38484D02*
X64665Y-38484D01*
X62401Y-26870D02*
X63779Y-26870D01*
X64960Y-15452D02*
X64960Y-15275D01*
X64960Y-15275D02*
X65255Y-14979D01*
X65255Y-14271D02*
X65255Y-14547D01*
X64960Y-13976D02*
X65255Y-14271D01*
X64566Y-20767D02*
X64566Y-14566D01*
X66141Y-22342D02*
X64566Y-20767D01*
X66141Y-25492D02*
X66141Y-22342D01*
X64271Y-21062D02*
X64271Y-14074D01*
X65846Y-22637D02*
X64271Y-21062D01*
X65846Y-24507D02*
X65846Y-22637D01*
X63779Y-21062D02*
X63779Y-14173D01*
X65551Y-22834D02*
X63779Y-21062D01*
X65551Y-26082D02*
X65551Y-22834D01*
X62500Y-20472D02*
X62500Y-11712D01*
X65255Y-23228D02*
X62500Y-20472D01*
X65255Y-26870D02*
X65255Y-23228D01*
X62007Y-20570D02*
X62007Y-12007D01*
X64960Y-23523D02*
X62007Y-20570D01*
X64960Y-26279D02*
X64960Y-23523D01*
X61417Y-20472D02*
X61417Y-12303D01*
X64665Y-23720D02*
X61417Y-20472D01*
X64665Y-25688D02*
X64665Y-23720D01*
X60925Y-20570D02*
X60925Y-12598D01*
X64370Y-24015D02*
X60925Y-20570D01*
X64370Y-26574D02*
X64370Y-24015D01*
X64074Y-26082D02*
X64074Y-24311D01*
X60433Y-13681D02*
X60433Y-12893D01*
X59940Y-14173D02*
X60433Y-13681D01*
X59940Y-20177D02*
X59940Y-14173D01*
X64074Y-24311D02*
X59940Y-20177D01*
X64074Y-24311D02*
X64074Y-24311D01*
X63681Y-25688D02*
X63681Y-24212D01*
X59940Y-13385D02*
X59940Y-12992D01*
X59744Y-13582D02*
X59940Y-13385D01*
X59744Y-20275D02*
X59744Y-13582D01*
X63681Y-24212D02*
X59744Y-20275D01*
X63287Y-25295D02*
X63287Y-24114D01*
X59547Y-20374D02*
X59547Y-12992D01*
X63287Y-24114D02*
X59547Y-20374D01*
X63287Y-25295D02*
X63385Y-25295D01*
X66929Y-12500D02*
X67224Y-12204D01*
X66929Y-13287D02*
X66929Y-12500D01*
X66732Y-13484D02*
X66929Y-13287D01*
X66732Y-15846D02*
X66732Y-13484D01*
X66830Y-15944D02*
X66732Y-15846D01*
X69192Y-13287D02*
X69192Y-18110D01*
X72637Y-9842D02*
X69192Y-13287D01*
X67700Y-14652D02*
X67729Y-14652D01*
X69586Y-9448D02*
X69192Y-9055D01*
X69783Y-9448D02*
X69586Y-9448D01*
X70078Y-9153D02*
X69783Y-9448D01*
X70570Y-9153D02*
X70078Y-9153D01*
X70767Y-9350D02*
X70570Y-9153D01*
X70767Y-11417D02*
X70767Y-9350D01*
X69389Y-12795D02*
X70767Y-11417D01*
X68602Y-12795D02*
X69389Y-12795D01*
X68208Y-13188D02*
X68602Y-12795D01*
X68208Y-14173D02*
X68208Y-13188D01*
X67729Y-14652D02*
X68208Y-14173D01*
X69094Y-12106D02*
X68307Y-12106D01*
X67700Y-15552D02*
X67619Y-15552D01*
X67814Y-12401D02*
X67814Y-12106D01*
X67125Y-13090D02*
X67814Y-12401D01*
X67125Y-15059D02*
X67125Y-13090D01*
X67619Y-15552D02*
X67125Y-15059D01*
X70374Y-11417D02*
X70374Y-9645D01*
X69291Y-12500D02*
X70374Y-11417D01*
X68307Y-12500D02*
X69291Y-12500D01*
X68208Y-12598D02*
X68307Y-12500D01*
G54D10*
G36*
X54290Y-40971D02*
X54237Y-41024D01*
X54237Y-40958D01*
X54268Y-40971D01*
X54290Y-40971D01*
X54290Y-40971D01*
G37*
G54D24*
X54290Y-40971D02*
X54237Y-41024D01*
X54237Y-40958D01*
X54268Y-40971D01*
X54290Y-40971D01*
G54D10*
G36*
X54818Y-39871D02*
X54367Y-39871D01*
X54268Y-39871D01*
X54268Y-39871D01*
X54268Y-39871D01*
X54237Y-39884D01*
X54237Y-39691D01*
X54739Y-39188D01*
X54739Y-39188D01*
X54804Y-39091D01*
X54818Y-39023D01*
X54818Y-39871D01*
X54818Y-39871D01*
G37*
G54D24*
X54818Y-39871D02*
X54367Y-39871D01*
X54268Y-39871D01*
X54268Y-39871D01*
X54268Y-39871D01*
X54237Y-39884D01*
X54237Y-39691D01*
X54739Y-39188D01*
X54739Y-39188D01*
X54804Y-39091D01*
X54818Y-39023D01*
X54818Y-39871D01*
G54D10*
G36*
X55793Y-49203D02*
X55216Y-49780D01*
X54336Y-48900D01*
X54336Y-47283D01*
X54373Y-47246D01*
X54383Y-47223D01*
X54389Y-47221D01*
X54419Y-47136D01*
X54426Y-47120D01*
X54468Y-47221D01*
X54474Y-47223D01*
X54483Y-47245D01*
X54521Y-47283D01*
X54521Y-48137D01*
X54521Y-48137D01*
X54552Y-48293D01*
X54641Y-48425D01*
X54772Y-48557D01*
X54771Y-48558D01*
X54762Y-48581D01*
X54755Y-48583D01*
X54726Y-48668D01*
X54691Y-48751D01*
X54691Y-48766D01*
X54686Y-48780D01*
X54691Y-48870D01*
X54691Y-48960D01*
X54697Y-48974D01*
X54697Y-48989D01*
X54755Y-49129D01*
X54761Y-49130D01*
X54771Y-49153D01*
X54918Y-49301D01*
X54942Y-49310D01*
X54943Y-49316D01*
X55028Y-49346D01*
X55111Y-49381D01*
X55126Y-49381D01*
X55140Y-49386D01*
X55230Y-49381D01*
X55320Y-49381D01*
X55334Y-49375D01*
X55349Y-49374D01*
X55489Y-49316D01*
X55490Y-49310D01*
X55513Y-49301D01*
X55661Y-49154D01*
X55671Y-49130D01*
X55677Y-49129D01*
X55706Y-49044D01*
X55741Y-48961D01*
X55741Y-48946D01*
X55746Y-48932D01*
X55741Y-48842D01*
X55741Y-48752D01*
X55735Y-48738D01*
X55735Y-48723D01*
X55677Y-48583D01*
X55671Y-48581D01*
X55661Y-48559D01*
X55624Y-48521D01*
X55624Y-48425D01*
X55624Y-48425D01*
X55624Y-48425D01*
X55617Y-48394D01*
X55592Y-48269D01*
X55592Y-48269D01*
X55504Y-48137D01*
X55504Y-48137D01*
X55336Y-47969D01*
X55336Y-47356D01*
X55511Y-47356D01*
X55667Y-47325D01*
X55793Y-47241D01*
X55793Y-49203D01*
X55793Y-49203D01*
G37*
G54D24*
X55793Y-49203D02*
X55216Y-49780D01*
X54336Y-48900D01*
X54336Y-47283D01*
X54373Y-47246D01*
X54383Y-47223D01*
X54389Y-47221D01*
X54419Y-47136D01*
X54426Y-47120D01*
X54468Y-47221D01*
X54474Y-47223D01*
X54483Y-47245D01*
X54521Y-47283D01*
X54521Y-48137D01*
X54521Y-48137D01*
X54552Y-48293D01*
X54641Y-48425D01*
X54772Y-48557D01*
X54771Y-48558D01*
X54762Y-48581D01*
X54755Y-48583D01*
X54726Y-48668D01*
X54691Y-48751D01*
X54691Y-48766D01*
X54686Y-48780D01*
X54691Y-48870D01*
X54691Y-48960D01*
X54697Y-48974D01*
X54697Y-48989D01*
X54755Y-49129D01*
X54761Y-49130D01*
X54771Y-49153D01*
X54918Y-49301D01*
X54942Y-49310D01*
X54943Y-49316D01*
X55028Y-49346D01*
X55111Y-49381D01*
X55126Y-49381D01*
X55140Y-49386D01*
X55230Y-49381D01*
X55320Y-49381D01*
X55334Y-49375D01*
X55349Y-49374D01*
X55489Y-49316D01*
X55490Y-49310D01*
X55513Y-49301D01*
X55661Y-49154D01*
X55671Y-49130D01*
X55677Y-49129D01*
X55706Y-49044D01*
X55741Y-48961D01*
X55741Y-48946D01*
X55746Y-48932D01*
X55741Y-48842D01*
X55741Y-48752D01*
X55735Y-48738D01*
X55735Y-48723D01*
X55677Y-48583D01*
X55671Y-48581D01*
X55661Y-48559D01*
X55624Y-48521D01*
X55624Y-48425D01*
X55624Y-48425D01*
X55624Y-48425D01*
X55617Y-48394D01*
X55592Y-48269D01*
X55592Y-48269D01*
X55504Y-48137D01*
X55504Y-48137D01*
X55336Y-47969D01*
X55336Y-47356D01*
X55511Y-47356D01*
X55667Y-47325D01*
X55793Y-47241D01*
X55793Y-49203D01*
G54D10*
G36*
X58211Y-51253D02*
X58128Y-51198D01*
X57972Y-51167D01*
X57907Y-51167D01*
X57893Y-51133D01*
X57893Y-51133D01*
X57893Y-51133D01*
X57858Y-51098D01*
X57823Y-51062D01*
X57823Y-51062D01*
X57823Y-51062D01*
X57789Y-51048D01*
X57789Y-50885D01*
X57775Y-50818D01*
X58211Y-51253D01*
X58211Y-51253D01*
G37*
G54D24*
X58211Y-51253D02*
X58128Y-51198D01*
X57972Y-51167D01*
X57907Y-51167D01*
X57893Y-51133D01*
X57893Y-51133D01*
X57893Y-51133D01*
X57858Y-51098D01*
X57823Y-51062D01*
X57823Y-51062D01*
X57823Y-51062D01*
X57789Y-51048D01*
X57789Y-50885D01*
X57775Y-50818D01*
X58211Y-51253D01*
G54D10*
G36*
X59640Y-45860D02*
X59580Y-45920D01*
X59516Y-46076D01*
X59515Y-46245D01*
X59580Y-46401D01*
X59621Y-46442D01*
X59448Y-46442D01*
X58830Y-46442D01*
X58281Y-45894D01*
X58281Y-44558D01*
X59115Y-43724D01*
X59229Y-43677D01*
X59231Y-43671D01*
X59253Y-43661D01*
X59401Y-43514D01*
X59411Y-43490D01*
X59417Y-43489D01*
X59447Y-43404D01*
X59481Y-43321D01*
X59481Y-43306D01*
X59486Y-43292D01*
X59481Y-43202D01*
X59481Y-43112D01*
X59476Y-43098D01*
X59475Y-43083D01*
X59417Y-42943D01*
X59411Y-42942D01*
X59402Y-42919D01*
X59254Y-42771D01*
X59231Y-42762D01*
X59229Y-42755D01*
X59144Y-42726D01*
X59127Y-42719D01*
X59229Y-42677D01*
X59231Y-42671D01*
X59253Y-42661D01*
X59291Y-42624D01*
X59507Y-42624D01*
X59547Y-42631D01*
X59640Y-42613D01*
X59640Y-45860D01*
X59640Y-45860D01*
G37*
G54D24*
X59640Y-45860D02*
X59580Y-45920D01*
X59516Y-46076D01*
X59515Y-46245D01*
X59580Y-46401D01*
X59621Y-46442D01*
X59448Y-46442D01*
X58830Y-46442D01*
X58281Y-45894D01*
X58281Y-44558D01*
X59115Y-43724D01*
X59229Y-43677D01*
X59231Y-43671D01*
X59253Y-43661D01*
X59401Y-43514D01*
X59411Y-43490D01*
X59417Y-43489D01*
X59447Y-43404D01*
X59481Y-43321D01*
X59481Y-43306D01*
X59486Y-43292D01*
X59481Y-43202D01*
X59481Y-43112D01*
X59476Y-43098D01*
X59475Y-43083D01*
X59417Y-42943D01*
X59411Y-42942D01*
X59402Y-42919D01*
X59254Y-42771D01*
X59231Y-42762D01*
X59229Y-42755D01*
X59144Y-42726D01*
X59127Y-42719D01*
X59229Y-42677D01*
X59231Y-42671D01*
X59253Y-42661D01*
X59291Y-42624D01*
X59507Y-42624D01*
X59547Y-42631D01*
X59640Y-42613D01*
X59640Y-45860D01*
G54D10*
G36*
X59804Y-38059D02*
X59659Y-38059D01*
X59503Y-38123D01*
X59384Y-38243D01*
X59319Y-38399D01*
X59319Y-38549D01*
X58803Y-38549D01*
X58923Y-38430D01*
X58987Y-38273D01*
X58988Y-38104D01*
X58943Y-37996D01*
X59738Y-37996D01*
X59798Y-38056D01*
X59804Y-38059D01*
X59804Y-38059D01*
G37*
G54D24*
X59804Y-38059D02*
X59659Y-38059D01*
X59503Y-38123D01*
X59384Y-38243D01*
X59319Y-38399D01*
X59319Y-38549D01*
X58803Y-38549D01*
X58923Y-38430D01*
X58987Y-38273D01*
X58988Y-38104D01*
X58943Y-37996D01*
X59738Y-37996D01*
X59798Y-38056D01*
X59804Y-38059D01*
G54D10*
G36*
X60120Y-35598D02*
X60056Y-35598D01*
X60088Y-35566D01*
X60120Y-35598D01*
X60120Y-35598D01*
G37*
G54D24*
X60120Y-35598D02*
X60056Y-35598D01*
X60088Y-35566D01*
X60120Y-35598D01*
G54D10*
G36*
X60133Y-40729D02*
X60025Y-40685D01*
X59856Y-40685D01*
X59700Y-40749D01*
X59580Y-40869D01*
X59516Y-41025D01*
X59515Y-41194D01*
X59515Y-41194D01*
X59515Y-41225D01*
X59580Y-41382D01*
X59640Y-41442D01*
X59640Y-41829D01*
X59539Y-41809D01*
X59539Y-41809D01*
X59364Y-41809D01*
X59364Y-41338D01*
X59333Y-41182D01*
X59244Y-41050D01*
X59112Y-40962D01*
X58956Y-40931D01*
X58800Y-40962D01*
X58668Y-41050D01*
X58580Y-41182D01*
X58549Y-41338D01*
X58549Y-41813D01*
X58414Y-41840D01*
X58361Y-41875D01*
X58282Y-41928D01*
X58282Y-41928D01*
X58281Y-41929D01*
X58281Y-39206D01*
X58617Y-39206D01*
X58596Y-39227D01*
X58531Y-39383D01*
X58531Y-39552D01*
X58596Y-39708D01*
X58715Y-39828D01*
X58871Y-39893D01*
X59040Y-39893D01*
X59197Y-39829D01*
X59257Y-39768D01*
X60122Y-39768D01*
X60072Y-39817D01*
X60008Y-39974D01*
X60007Y-40143D01*
X60072Y-40299D01*
X60133Y-40360D01*
X60133Y-40729D01*
X60133Y-40729D01*
G37*
G54D24*
X60133Y-40729D02*
X60025Y-40685D01*
X59856Y-40685D01*
X59700Y-40749D01*
X59580Y-40869D01*
X59516Y-41025D01*
X59515Y-41194D01*
X59515Y-41194D01*
X59515Y-41225D01*
X59580Y-41382D01*
X59640Y-41442D01*
X59640Y-41829D01*
X59539Y-41809D01*
X59539Y-41809D01*
X59364Y-41809D01*
X59364Y-41338D01*
X59333Y-41182D01*
X59244Y-41050D01*
X59112Y-40962D01*
X58956Y-40931D01*
X58800Y-40962D01*
X58668Y-41050D01*
X58580Y-41182D01*
X58549Y-41338D01*
X58549Y-41813D01*
X58414Y-41840D01*
X58361Y-41875D01*
X58282Y-41928D01*
X58282Y-41928D01*
X58281Y-41929D01*
X58281Y-39206D01*
X58617Y-39206D01*
X58596Y-39227D01*
X58531Y-39383D01*
X58531Y-39552D01*
X58596Y-39708D01*
X58715Y-39828D01*
X58871Y-39893D01*
X59040Y-39893D01*
X59197Y-39829D01*
X59257Y-39768D01*
X60122Y-39768D01*
X60072Y-39817D01*
X60008Y-39974D01*
X60007Y-40143D01*
X60072Y-40299D01*
X60133Y-40360D01*
X60133Y-40729D01*
G54D10*
G36*
X60340Y-32738D02*
X60335Y-32744D01*
X60278Y-32744D01*
X60301Y-32721D01*
X60340Y-32625D01*
X60340Y-32738D01*
X60340Y-32738D01*
G37*
G54D24*
X60340Y-32738D02*
X60335Y-32744D01*
X60278Y-32744D01*
X60301Y-32721D01*
X60340Y-32625D01*
X60340Y-32738D01*
G54D10*
G36*
X60340Y-33614D02*
X60340Y-33632D01*
X60340Y-33909D01*
X60301Y-33814D01*
X60240Y-33754D01*
X60240Y-33590D01*
X60249Y-33594D01*
X60340Y-33594D01*
X60340Y-33614D01*
X60340Y-33614D01*
G37*
G54D24*
X60340Y-33614D02*
X60340Y-33632D01*
X60340Y-33909D01*
X60301Y-33814D01*
X60240Y-33754D01*
X60240Y-33590D01*
X60249Y-33594D01*
X60340Y-33594D01*
X60340Y-33614D01*
G54D10*
G36*
X60367Y-34287D02*
X60164Y-34489D01*
X60116Y-34442D01*
X60181Y-34415D01*
X60301Y-34296D01*
X60340Y-34200D01*
X60340Y-34223D01*
X60367Y-34287D01*
X60367Y-34287D01*
G37*
G54D24*
X60367Y-34287D02*
X60164Y-34489D01*
X60116Y-34442D01*
X60181Y-34415D01*
X60301Y-34296D01*
X60340Y-34200D01*
X60340Y-34223D01*
X60367Y-34287D01*
G54D10*
G36*
X60537Y-38164D02*
X60537Y-38184D01*
X60045Y-38184D01*
X59985Y-38124D01*
X59979Y-38121D01*
X60123Y-38121D01*
X60166Y-38104D01*
X60537Y-38104D01*
X60537Y-38164D01*
X60537Y-38164D01*
G37*
G54D24*
X60537Y-38164D02*
X60537Y-38184D01*
X60045Y-38184D01*
X59985Y-38124D01*
X59979Y-38121D01*
X60123Y-38121D01*
X60166Y-38104D01*
X60537Y-38104D01*
X60537Y-38164D01*
G54D10*
G36*
X60603Y-42720D02*
X60517Y-42685D01*
X60348Y-42685D01*
X60240Y-42729D01*
X60240Y-42358D01*
X60603Y-42720D01*
X60603Y-42720D01*
G37*
G54D24*
X60603Y-42720D02*
X60517Y-42685D01*
X60348Y-42685D01*
X60240Y-42729D01*
X60240Y-42358D01*
X60603Y-42720D01*
G54D10*
G36*
X60625Y-20437D02*
X60240Y-20052D01*
X60240Y-14297D01*
X60625Y-13913D01*
X60625Y-20437D01*
X60625Y-20437D01*
G37*
G54D24*
X60625Y-20437D02*
X60240Y-20052D01*
X60240Y-14297D01*
X60625Y-13913D01*
X60625Y-20437D01*
G54D10*
G36*
X60968Y-46276D02*
X60966Y-46277D01*
X60833Y-46365D01*
X60833Y-46365D01*
X60756Y-46442D01*
X60260Y-46442D01*
X60301Y-46402D01*
X60365Y-46246D01*
X60366Y-46077D01*
X60301Y-45920D01*
X60240Y-45860D01*
X60240Y-45561D01*
X60932Y-46252D01*
X60932Y-46252D01*
X60968Y-46276D01*
X60968Y-46276D01*
G37*
G54D24*
X60968Y-46276D02*
X60966Y-46277D01*
X60833Y-46365D01*
X60833Y-46365D01*
X60756Y-46442D01*
X60260Y-46442D01*
X60301Y-46402D01*
X60365Y-46246D01*
X60366Y-46077D01*
X60301Y-45920D01*
X60240Y-45860D01*
X60240Y-45561D01*
X60932Y-46252D01*
X60932Y-46252D01*
X60968Y-46276D01*
G54D10*
G36*
X61180Y-41660D02*
X61179Y-41660D01*
X61178Y-41660D01*
X61180Y-41660D01*
X61180Y-41660D01*
G37*
G54D24*
X61180Y-41660D02*
X61179Y-41660D01*
X61178Y-41660D01*
X61180Y-41660D01*
G54D10*
G36*
X61268Y-44608D02*
X61220Y-44628D01*
X61218Y-44634D01*
X61196Y-44643D01*
X61041Y-44798D01*
X61032Y-44820D01*
X61026Y-44822D01*
X60994Y-44912D01*
X60957Y-45000D01*
X60957Y-45014D01*
X60953Y-45028D01*
X60957Y-45123D01*
X60957Y-45125D01*
X60840Y-45008D01*
X60840Y-43237D01*
X60857Y-43195D01*
X60858Y-43026D01*
X60822Y-42939D01*
X60955Y-43072D01*
X60957Y-43123D01*
X60957Y-43219D01*
X60963Y-43232D01*
X60964Y-43246D01*
X61026Y-43398D01*
X61032Y-43399D01*
X61041Y-43421D01*
X61195Y-43576D01*
X61218Y-43585D01*
X61220Y-43591D01*
X61268Y-43608D01*
X61220Y-43628D01*
X61218Y-43634D01*
X61196Y-43643D01*
X61041Y-43798D01*
X61032Y-43820D01*
X61026Y-43822D01*
X60994Y-43912D01*
X60957Y-44000D01*
X60957Y-44014D01*
X60953Y-44028D01*
X60957Y-44123D01*
X60957Y-44219D01*
X60963Y-44232D01*
X60964Y-44246D01*
X61026Y-44398D01*
X61032Y-44399D01*
X61041Y-44421D01*
X61195Y-44576D01*
X61218Y-44585D01*
X61220Y-44591D01*
X61268Y-44608D01*
X61268Y-44608D01*
G37*
G54D24*
X61268Y-44608D02*
X61220Y-44628D01*
X61218Y-44634D01*
X61196Y-44643D01*
X61041Y-44798D01*
X61032Y-44820D01*
X61026Y-44822D01*
X60994Y-44912D01*
X60957Y-45000D01*
X60957Y-45014D01*
X60953Y-45028D01*
X60957Y-45123D01*
X60957Y-45125D01*
X60840Y-45008D01*
X60840Y-43237D01*
X60857Y-43195D01*
X60858Y-43026D01*
X60822Y-42939D01*
X60955Y-43072D01*
X60957Y-43123D01*
X60957Y-43219D01*
X60963Y-43232D01*
X60964Y-43246D01*
X61026Y-43398D01*
X61032Y-43399D01*
X61041Y-43421D01*
X61195Y-43576D01*
X61218Y-43585D01*
X61220Y-43591D01*
X61268Y-43608D01*
X61220Y-43628D01*
X61218Y-43634D01*
X61196Y-43643D01*
X61041Y-43798D01*
X61032Y-43820D01*
X61026Y-43822D01*
X60994Y-43912D01*
X60957Y-44000D01*
X60957Y-44014D01*
X60953Y-44028D01*
X60957Y-44123D01*
X60957Y-44219D01*
X60963Y-44232D01*
X60964Y-44246D01*
X61026Y-44398D01*
X61032Y-44399D01*
X61041Y-44421D01*
X61195Y-44576D01*
X61218Y-44585D01*
X61220Y-44591D01*
X61268Y-44608D01*
G54D10*
G36*
X62018Y-45377D02*
X61839Y-45557D01*
X61838Y-45557D01*
X61973Y-45422D01*
X61983Y-45399D01*
X61989Y-45398D01*
X62006Y-45349D01*
X62018Y-45377D01*
X62018Y-45377D01*
G37*
G54D24*
X62018Y-45377D02*
X61839Y-45557D01*
X61838Y-45557D01*
X61973Y-45422D01*
X61983Y-45399D01*
X61989Y-45398D01*
X62006Y-45349D01*
X62018Y-45377D01*
G54D10*
G36*
X62109Y-38104D02*
X62062Y-38123D01*
X62002Y-38184D01*
X61312Y-38184D01*
X61312Y-38104D01*
X61782Y-38104D01*
X61824Y-38121D01*
X61993Y-38121D01*
X62036Y-38104D01*
X62109Y-38104D01*
X62109Y-38104D01*
G37*
G54D24*
X62109Y-38104D02*
X62062Y-38123D01*
X62002Y-38184D01*
X61312Y-38184D01*
X61312Y-38104D01*
X61782Y-38104D01*
X61824Y-38121D01*
X61993Y-38121D01*
X62036Y-38104D01*
X62109Y-38104D01*
G54D10*
G36*
X62180Y-28950D02*
X62139Y-28991D01*
X62127Y-29021D01*
X61804Y-29021D01*
X61804Y-28961D01*
X61804Y-28950D01*
X62180Y-28950D01*
X62180Y-28950D01*
G37*
G54D24*
X62180Y-28950D02*
X62139Y-28991D01*
X62127Y-29021D01*
X61804Y-29021D01*
X61804Y-28961D01*
X61804Y-28950D01*
X62180Y-28950D01*
G54D10*
G36*
X62526Y-38852D02*
X62502Y-38907D01*
X62469Y-38875D01*
X62526Y-38852D01*
X62526Y-38852D01*
G37*
G54D24*
X62526Y-38852D02*
X62502Y-38907D01*
X62469Y-38875D01*
X62526Y-38852D01*
G54D10*
G36*
X62639Y-39974D02*
X62500Y-39946D01*
X62344Y-39977D01*
X62211Y-40066D01*
X62123Y-40198D01*
X62092Y-40354D01*
X62100Y-40393D01*
X62100Y-40739D01*
X62057Y-40782D01*
X62057Y-40760D01*
X62019Y-40668D01*
X61949Y-40598D01*
X61857Y-40560D01*
X61758Y-40560D01*
X61257Y-40560D01*
X61201Y-40560D01*
X61251Y-40439D01*
X61251Y-40270D01*
X61187Y-40113D01*
X61067Y-39994D01*
X60911Y-39929D01*
X60839Y-39929D01*
X60793Y-39818D01*
X60743Y-39768D01*
X61805Y-39768D01*
X61865Y-39828D01*
X62021Y-39893D01*
X62190Y-39893D01*
X62346Y-39829D01*
X62420Y-39755D01*
X62639Y-39974D01*
X62639Y-39974D01*
G37*
G54D24*
X62639Y-39974D02*
X62500Y-39946D01*
X62344Y-39977D01*
X62211Y-40066D01*
X62123Y-40198D01*
X62092Y-40354D01*
X62100Y-40393D01*
X62100Y-40739D01*
X62057Y-40782D01*
X62057Y-40760D01*
X62019Y-40668D01*
X61949Y-40598D01*
X61857Y-40560D01*
X61758Y-40560D01*
X61257Y-40560D01*
X61201Y-40560D01*
X61251Y-40439D01*
X61251Y-40270D01*
X61187Y-40113D01*
X61067Y-39994D01*
X60911Y-39929D01*
X60839Y-39929D01*
X60793Y-39818D01*
X60743Y-39768D01*
X61805Y-39768D01*
X61865Y-39828D01*
X62021Y-39893D01*
X62190Y-39893D01*
X62346Y-39829D01*
X62420Y-39755D01*
X62639Y-39974D01*
G54D10*
G36*
X62656Y-46246D02*
X62302Y-46246D01*
X62450Y-46097D01*
X62507Y-46154D01*
X62639Y-46242D01*
X62656Y-46246D01*
X62656Y-46246D01*
G37*
G54D24*
X62656Y-46246D02*
X62302Y-46246D01*
X62450Y-46097D01*
X62507Y-46154D01*
X62639Y-46242D01*
X62656Y-46246D01*
G54D10*
G36*
X63577Y-41431D02*
X63517Y-41491D01*
X63453Y-41647D01*
X63452Y-41740D01*
X63059Y-42134D01*
X63057Y-42096D01*
X63057Y-42001D01*
X63052Y-41987D01*
X63051Y-41973D01*
X62989Y-41822D01*
X62983Y-41820D01*
X62974Y-41799D01*
X62819Y-41644D01*
X62797Y-41634D01*
X62795Y-41628D01*
X62747Y-41611D01*
X62795Y-41591D01*
X62797Y-41585D01*
X62819Y-41576D01*
X62973Y-41422D01*
X62983Y-41399D01*
X62989Y-41398D01*
X63021Y-41308D01*
X63057Y-41220D01*
X63057Y-41205D01*
X63062Y-41192D01*
X63057Y-41096D01*
X63057Y-41001D01*
X63052Y-40987D01*
X63051Y-40973D01*
X62989Y-40822D01*
X62983Y-40820D01*
X62974Y-40799D01*
X62915Y-40739D01*
X62915Y-40362D01*
X62887Y-40222D01*
X63059Y-40394D01*
X63059Y-40438D01*
X63123Y-40594D01*
X63243Y-40714D01*
X63399Y-40779D01*
X63568Y-40779D01*
X63577Y-40775D01*
X63577Y-41431D01*
X63577Y-41431D01*
G37*
G54D24*
X63577Y-41431D02*
X63517Y-41491D01*
X63453Y-41647D01*
X63452Y-41740D01*
X63059Y-42134D01*
X63057Y-42096D01*
X63057Y-42001D01*
X63052Y-41987D01*
X63051Y-41973D01*
X62989Y-41822D01*
X62983Y-41820D01*
X62974Y-41799D01*
X62819Y-41644D01*
X62797Y-41634D01*
X62795Y-41628D01*
X62747Y-41611D01*
X62795Y-41591D01*
X62797Y-41585D01*
X62819Y-41576D01*
X62973Y-41422D01*
X62983Y-41399D01*
X62989Y-41398D01*
X63021Y-41308D01*
X63057Y-41220D01*
X63057Y-41205D01*
X63062Y-41192D01*
X63057Y-41096D01*
X63057Y-41001D01*
X63052Y-40987D01*
X63051Y-40973D01*
X62989Y-40822D01*
X62983Y-40820D01*
X62974Y-40799D01*
X62915Y-40739D01*
X62915Y-40362D01*
X62887Y-40222D01*
X63059Y-40394D01*
X63059Y-40438D01*
X63123Y-40594D01*
X63243Y-40714D01*
X63399Y-40779D01*
X63568Y-40779D01*
X63577Y-40775D01*
X63577Y-41431D01*
G54D10*
G36*
X63839Y-26445D02*
X63695Y-26445D01*
X63539Y-26509D01*
X63478Y-26570D01*
X62702Y-26570D01*
X62642Y-26509D01*
X62512Y-26455D01*
X62543Y-26443D01*
X62663Y-26323D01*
X62728Y-26167D01*
X62728Y-25998D01*
X62663Y-25842D01*
X62544Y-25722D01*
X62388Y-25657D01*
X62218Y-25657D01*
X62062Y-25722D01*
X61943Y-25841D01*
X61878Y-25997D01*
X61878Y-26083D01*
X60899Y-27062D01*
X59645Y-27062D01*
X59530Y-27085D01*
X59433Y-27150D01*
X58646Y-27937D01*
X58581Y-28034D01*
X58558Y-28149D01*
X58558Y-28242D01*
X58498Y-28302D01*
X58433Y-28458D01*
X58433Y-28627D01*
X58497Y-28783D01*
X58615Y-28901D01*
X58272Y-29275D01*
X58272Y-19120D01*
X59247Y-18145D01*
X59247Y-20374D01*
X59270Y-20488D01*
X59335Y-20586D01*
X62987Y-24238D01*
X62987Y-24994D01*
X62927Y-25054D01*
X62862Y-25210D01*
X62862Y-25379D01*
X62926Y-25535D01*
X63046Y-25655D01*
X63202Y-25720D01*
X63256Y-25720D01*
X63256Y-25773D01*
X63320Y-25929D01*
X63440Y-26049D01*
X63596Y-26113D01*
X63649Y-26113D01*
X63649Y-26166D01*
X63714Y-26323D01*
X63833Y-26442D01*
X63839Y-26445D01*
X63839Y-26445D01*
G37*
G54D24*
X63839Y-26445D02*
X63695Y-26445D01*
X63539Y-26509D01*
X63478Y-26570D01*
X62702Y-26570D01*
X62642Y-26509D01*
X62512Y-26455D01*
X62543Y-26443D01*
X62663Y-26323D01*
X62728Y-26167D01*
X62728Y-25998D01*
X62663Y-25842D01*
X62544Y-25722D01*
X62388Y-25657D01*
X62218Y-25657D01*
X62062Y-25722D01*
X61943Y-25841D01*
X61878Y-25997D01*
X61878Y-26083D01*
X60899Y-27062D01*
X59645Y-27062D01*
X59530Y-27085D01*
X59433Y-27150D01*
X58646Y-27937D01*
X58581Y-28034D01*
X58558Y-28149D01*
X58558Y-28242D01*
X58498Y-28302D01*
X58433Y-28458D01*
X58433Y-28627D01*
X58497Y-28783D01*
X58615Y-28901D01*
X58272Y-29275D01*
X58272Y-19120D01*
X59247Y-18145D01*
X59247Y-20374D01*
X59270Y-20488D01*
X59335Y-20586D01*
X62987Y-24238D01*
X62987Y-24994D01*
X62927Y-25054D01*
X62862Y-25210D01*
X62862Y-25379D01*
X62926Y-25535D01*
X63046Y-25655D01*
X63202Y-25720D01*
X63256Y-25720D01*
X63256Y-25773D01*
X63320Y-25929D01*
X63440Y-26049D01*
X63596Y-26113D01*
X63649Y-26113D01*
X63649Y-26166D01*
X63714Y-26323D01*
X63833Y-26442D01*
X63839Y-26445D01*
G54D10*
G36*
X64227Y-46246D02*
X62933Y-46246D01*
X62951Y-46242D01*
X63083Y-46154D01*
X63171Y-46022D01*
X63202Y-45866D01*
X63171Y-45710D01*
X63083Y-45578D01*
X62950Y-45445D01*
X62973Y-45422D01*
X62983Y-45399D01*
X62989Y-45398D01*
X63021Y-45308D01*
X63057Y-45220D01*
X63057Y-45205D01*
X63062Y-45192D01*
X63057Y-45096D01*
X63057Y-45076D01*
X64227Y-46246D01*
X64227Y-46246D01*
G37*
G54D24*
X64227Y-46246D02*
X62933Y-46246D01*
X62951Y-46242D01*
X63083Y-46154D01*
X63171Y-46022D01*
X63202Y-45866D01*
X63171Y-45710D01*
X63083Y-45578D01*
X62950Y-45445D01*
X62973Y-45422D01*
X62983Y-45399D01*
X62989Y-45398D01*
X63021Y-45308D01*
X63057Y-45220D01*
X63057Y-45205D01*
X63062Y-45192D01*
X63057Y-45096D01*
X63057Y-45076D01*
X64227Y-46246D01*
G54D10*
G36*
X64379Y-29049D02*
X64350Y-29120D01*
X64342Y-29120D01*
X64271Y-29049D01*
X64379Y-29049D01*
X64379Y-29049D01*
G37*
G54D24*
X64379Y-29049D02*
X64350Y-29120D01*
X64342Y-29120D01*
X64271Y-29049D01*
X64379Y-29049D01*
G54D10*
G36*
X64471Y-38104D02*
X64424Y-38123D01*
X64364Y-38184D01*
X62604Y-38184D01*
X62544Y-38124D01*
X62496Y-38104D01*
X63357Y-38104D01*
X63399Y-38121D01*
X63568Y-38121D01*
X63610Y-38104D01*
X64144Y-38104D01*
X64186Y-38121D01*
X64355Y-38121D01*
X64398Y-38104D01*
X64471Y-38104D01*
X64471Y-38104D01*
G37*
G54D24*
X64471Y-38104D02*
X64424Y-38123D01*
X64364Y-38184D01*
X62604Y-38184D01*
X62544Y-38124D01*
X62496Y-38104D01*
X63357Y-38104D01*
X63399Y-38121D01*
X63568Y-38121D01*
X63610Y-38104D01*
X64144Y-38104D01*
X64186Y-38121D01*
X64355Y-38121D01*
X64398Y-38104D01*
X64471Y-38104D01*
G54D10*
G36*
X64866Y-26700D02*
X64830Y-26785D01*
X64830Y-26865D01*
X64680Y-26865D01*
X64730Y-26815D01*
X64791Y-26669D01*
X64866Y-26700D01*
X64866Y-26700D01*
G37*
G54D24*
X64866Y-26700D02*
X64830Y-26785D01*
X64830Y-26865D01*
X64680Y-26865D01*
X64730Y-26815D01*
X64791Y-26669D01*
X64866Y-26700D01*
G54D10*
G36*
X64868Y-14866D02*
X64868Y-14871D01*
X64868Y-14943D01*
X64866Y-14944D01*
X64866Y-14867D01*
X64868Y-14866D01*
X64868Y-14866D01*
G37*
G54D24*
X64868Y-14866D02*
X64868Y-14871D01*
X64868Y-14943D01*
X64866Y-14944D01*
X64866Y-14867D01*
X64868Y-14866D01*
G54D10*
G36*
X65679Y-41716D02*
X65663Y-41732D01*
X65663Y-41706D01*
X65665Y-41707D01*
X65679Y-41716D01*
X65679Y-41716D01*
G37*
G54D24*
X65679Y-41716D02*
X65663Y-41732D01*
X65663Y-41706D01*
X65665Y-41707D01*
X65679Y-41716D01*
G54D10*
G36*
X66137Y-12611D02*
X66029Y-12567D01*
X65944Y-12567D01*
X65571Y-12194D01*
X65615Y-12150D01*
X65673Y-12012D01*
X65919Y-12012D01*
X66137Y-12230D01*
X66137Y-12611D01*
X66137Y-12611D01*
G37*
G54D24*
X66137Y-12611D02*
X66029Y-12567D01*
X65944Y-12567D01*
X65571Y-12194D01*
X65615Y-12150D01*
X65673Y-12012D01*
X65919Y-12012D01*
X66137Y-12230D01*
X66137Y-12611D01*
G54D10*
G36*
X66593Y-36305D02*
X66408Y-36305D01*
X66176Y-36072D01*
X66246Y-36002D01*
X66273Y-36067D01*
X66392Y-36186D01*
X66435Y-36204D01*
X66444Y-36213D01*
X66444Y-36213D01*
X66523Y-36266D01*
X66576Y-36301D01*
X66576Y-36301D01*
X66593Y-36305D01*
X66593Y-36305D01*
G37*
G54D24*
X66593Y-36305D02*
X66408Y-36305D01*
X66176Y-36072D01*
X66246Y-36002D01*
X66273Y-36067D01*
X66392Y-36186D01*
X66435Y-36204D01*
X66444Y-36213D01*
X66444Y-36213D01*
X66523Y-36266D01*
X66576Y-36301D01*
X66576Y-36301D01*
X66593Y-36305D01*
G54D10*
G36*
X66645Y-29147D02*
X66629Y-29232D01*
X66629Y-29693D01*
X66549Y-29693D01*
X66393Y-29757D01*
X66273Y-29877D01*
X66208Y-30033D01*
X66208Y-30065D01*
X66050Y-30223D01*
X65962Y-30355D01*
X65931Y-30511D01*
X65931Y-30511D01*
X65931Y-31200D01*
X65931Y-31200D01*
X65962Y-31356D01*
X66050Y-31488D01*
X66106Y-31545D01*
X66050Y-31601D01*
X65962Y-31733D01*
X65931Y-31889D01*
X65931Y-31889D01*
X65931Y-34744D01*
X65931Y-34744D01*
X65962Y-34900D01*
X66050Y-35032D01*
X66057Y-35039D01*
X65579Y-35517D01*
X65537Y-35500D01*
X65368Y-35500D01*
X65326Y-35517D01*
X63217Y-35517D01*
X63175Y-35500D01*
X63006Y-35500D01*
X62963Y-35517D01*
X61642Y-35517D01*
X61600Y-35500D01*
X61431Y-35500D01*
X61389Y-35517D01*
X61192Y-35517D01*
X60588Y-34914D01*
X61038Y-34464D01*
X61038Y-34464D01*
X61065Y-34423D01*
X61112Y-34423D01*
X61112Y-34423D01*
X61112Y-34423D01*
X61158Y-34404D01*
X61204Y-34385D01*
X61204Y-34385D01*
X61204Y-34385D01*
X61239Y-34350D01*
X61274Y-34315D01*
X61274Y-34315D01*
X61274Y-34315D01*
X61293Y-34269D01*
X61312Y-34223D01*
X61312Y-34223D01*
X61312Y-34223D01*
X61312Y-34141D01*
X61312Y-34124D01*
X61312Y-33533D01*
X61274Y-33441D01*
X61204Y-33370D01*
X61193Y-33366D01*
X61204Y-33361D01*
X61204Y-33361D01*
X61204Y-33361D01*
X61239Y-33326D01*
X61274Y-33291D01*
X61274Y-33291D01*
X61274Y-33291D01*
X61293Y-33245D01*
X61312Y-33199D01*
X61312Y-33199D01*
X61312Y-33199D01*
X61312Y-33117D01*
X61312Y-33100D01*
X61312Y-32509D01*
X61274Y-32417D01*
X61204Y-32346D01*
X61112Y-32308D01*
X61013Y-32308D01*
X60640Y-32308D01*
X60541Y-32308D01*
X60541Y-32308D01*
X60540Y-32308D01*
X60495Y-32327D01*
X60449Y-32346D01*
X60449Y-32346D01*
X60448Y-32346D01*
X60430Y-32365D01*
X60446Y-32283D01*
X60446Y-32100D01*
X60629Y-32100D01*
X60785Y-32069D01*
X60918Y-31981D01*
X61006Y-31848D01*
X61037Y-31692D01*
X61006Y-31536D01*
X60918Y-31404D01*
X60785Y-31316D01*
X60629Y-31285D01*
X60446Y-31285D01*
X60446Y-30413D01*
X60446Y-30314D01*
X60538Y-30406D01*
X60670Y-30494D01*
X60826Y-30525D01*
X60982Y-30494D01*
X61114Y-30406D01*
X61203Y-30274D01*
X61234Y-30118D01*
X61203Y-29962D01*
X61119Y-29836D01*
X62303Y-29836D01*
X62303Y-29836D01*
X62303Y-29836D01*
X62459Y-29805D01*
X62500Y-29778D01*
X62540Y-29805D01*
X62540Y-29805D01*
X62665Y-29830D01*
X62696Y-29836D01*
X62696Y-29836D01*
X62696Y-29836D01*
X63470Y-29836D01*
X63470Y-29861D01*
X63403Y-29962D01*
X63372Y-30118D01*
X63403Y-30274D01*
X63491Y-30406D01*
X63623Y-30494D01*
X63779Y-30525D01*
X63935Y-30494D01*
X64067Y-30406D01*
X64166Y-30307D01*
X64166Y-30307D01*
X64166Y-30307D01*
X64219Y-30228D01*
X64254Y-30175D01*
X64254Y-30175D01*
X64285Y-30019D01*
X64285Y-29935D01*
X64566Y-29935D01*
X64566Y-29935D01*
X64566Y-29935D01*
X64722Y-29904D01*
X64812Y-29843D01*
X64903Y-29904D01*
X65059Y-29935D01*
X65059Y-29935D01*
X65059Y-29935D01*
X65354Y-29935D01*
X65354Y-29935D01*
X65354Y-29935D01*
X65510Y-29904D01*
X65642Y-29815D01*
X66292Y-29165D01*
X66324Y-29165D01*
X66366Y-29147D01*
X66645Y-29147D01*
X66645Y-29147D01*
G37*
G54D24*
X66645Y-29147D02*
X66629Y-29232D01*
X66629Y-29693D01*
X66549Y-29693D01*
X66393Y-29757D01*
X66273Y-29877D01*
X66208Y-30033D01*
X66208Y-30065D01*
X66050Y-30223D01*
X65962Y-30355D01*
X65931Y-30511D01*
X65931Y-30511D01*
X65931Y-31200D01*
X65931Y-31200D01*
X65962Y-31356D01*
X66050Y-31488D01*
X66106Y-31545D01*
X66050Y-31601D01*
X65962Y-31733D01*
X65931Y-31889D01*
X65931Y-31889D01*
X65931Y-34744D01*
X65931Y-34744D01*
X65962Y-34900D01*
X66050Y-35032D01*
X66057Y-35039D01*
X65579Y-35517D01*
X65537Y-35500D01*
X65368Y-35500D01*
X65326Y-35517D01*
X63217Y-35517D01*
X63175Y-35500D01*
X63006Y-35500D01*
X62963Y-35517D01*
X61642Y-35517D01*
X61600Y-35500D01*
X61431Y-35500D01*
X61389Y-35517D01*
X61192Y-35517D01*
X60588Y-34914D01*
X61038Y-34464D01*
X61038Y-34464D01*
X61065Y-34423D01*
X61112Y-34423D01*
X61112Y-34423D01*
X61112Y-34423D01*
X61158Y-34404D01*
X61204Y-34385D01*
X61204Y-34385D01*
X61204Y-34385D01*
X61239Y-34350D01*
X61274Y-34315D01*
X61274Y-34315D01*
X61274Y-34315D01*
X61293Y-34269D01*
X61312Y-34223D01*
X61312Y-34223D01*
X61312Y-34223D01*
X61312Y-34141D01*
X61312Y-34124D01*
X61312Y-33533D01*
X61274Y-33441D01*
X61204Y-33370D01*
X61193Y-33366D01*
X61204Y-33361D01*
X61204Y-33361D01*
X61204Y-33361D01*
X61239Y-33326D01*
X61274Y-33291D01*
X61274Y-33291D01*
X61274Y-33291D01*
X61293Y-33245D01*
X61312Y-33199D01*
X61312Y-33199D01*
X61312Y-33199D01*
X61312Y-33117D01*
X61312Y-33100D01*
X61312Y-32509D01*
X61274Y-32417D01*
X61204Y-32346D01*
X61112Y-32308D01*
X61013Y-32308D01*
X60640Y-32308D01*
X60541Y-32308D01*
X60541Y-32308D01*
X60540Y-32308D01*
X60495Y-32327D01*
X60449Y-32346D01*
X60449Y-32346D01*
X60448Y-32346D01*
X60430Y-32365D01*
X60446Y-32283D01*
X60446Y-32100D01*
X60629Y-32100D01*
X60785Y-32069D01*
X60918Y-31981D01*
X61006Y-31848D01*
X61037Y-31692D01*
X61006Y-31536D01*
X60918Y-31404D01*
X60785Y-31316D01*
X60629Y-31285D01*
X60446Y-31285D01*
X60446Y-30413D01*
X60446Y-30314D01*
X60538Y-30406D01*
X60670Y-30494D01*
X60826Y-30525D01*
X60982Y-30494D01*
X61114Y-30406D01*
X61203Y-30274D01*
X61234Y-30118D01*
X61203Y-29962D01*
X61119Y-29836D01*
X62303Y-29836D01*
X62303Y-29836D01*
X62303Y-29836D01*
X62459Y-29805D01*
X62500Y-29778D01*
X62540Y-29805D01*
X62540Y-29805D01*
X62665Y-29830D01*
X62696Y-29836D01*
X62696Y-29836D01*
X62696Y-29836D01*
X63470Y-29836D01*
X63470Y-29861D01*
X63403Y-29962D01*
X63372Y-30118D01*
X63403Y-30274D01*
X63491Y-30406D01*
X63623Y-30494D01*
X63779Y-30525D01*
X63935Y-30494D01*
X64067Y-30406D01*
X64166Y-30307D01*
X64166Y-30307D01*
X64166Y-30307D01*
X64219Y-30228D01*
X64254Y-30175D01*
X64254Y-30175D01*
X64285Y-30019D01*
X64285Y-29935D01*
X64566Y-29935D01*
X64566Y-29935D01*
X64566Y-29935D01*
X64722Y-29904D01*
X64812Y-29843D01*
X64903Y-29904D01*
X65059Y-29935D01*
X65059Y-29935D01*
X65059Y-29935D01*
X65354Y-29935D01*
X65354Y-29935D01*
X65354Y-29935D01*
X65510Y-29904D01*
X65642Y-29815D01*
X66292Y-29165D01*
X66324Y-29165D01*
X66366Y-29147D01*
X66645Y-29147D01*
G54D10*
G36*
X67120Y-15565D02*
X67120Y-15633D01*
X67071Y-15584D01*
X67032Y-15568D01*
X67032Y-15389D01*
X67116Y-15473D01*
X67120Y-15565D01*
X67120Y-15565D01*
G37*
G54D24*
X67120Y-15565D02*
X67120Y-15633D01*
X67071Y-15584D01*
X67032Y-15568D01*
X67032Y-15389D01*
X67116Y-15473D01*
X67120Y-15565D01*
G54D10*
G36*
X67330Y-16002D02*
X67221Y-16111D01*
X67255Y-16029D01*
X67255Y-15927D01*
X67330Y-16002D01*
X67330Y-16002D01*
G37*
G54D24*
X67330Y-16002D02*
X67221Y-16111D01*
X67255Y-16029D01*
X67255Y-15927D01*
X67330Y-16002D01*
G54D10*
G36*
X68000Y-12972D02*
X67996Y-12976D01*
X67931Y-13074D01*
X67908Y-13188D01*
X67908Y-13211D01*
X67816Y-13172D01*
X67802Y-13172D01*
X67789Y-13168D01*
X67687Y-13172D01*
X67585Y-13172D01*
X67573Y-13177D01*
X67559Y-13178D01*
X67425Y-13233D01*
X67425Y-13214D01*
X67834Y-12806D01*
X67848Y-12838D01*
X67967Y-12958D01*
X68000Y-12972D01*
X68000Y-12972D01*
G37*
G54D24*
X68000Y-12972D02*
X67996Y-12976D01*
X67931Y-13074D01*
X67908Y-13188D01*
X67908Y-13211D01*
X67816Y-13172D01*
X67802Y-13172D01*
X67789Y-13168D01*
X67687Y-13172D01*
X67585Y-13172D01*
X67573Y-13177D01*
X67559Y-13178D01*
X67425Y-13233D01*
X67425Y-13214D01*
X67834Y-12806D01*
X67848Y-12838D01*
X67967Y-12958D01*
X68000Y-12972D01*
G54D10*
G36*
X68120Y-15115D02*
X68120Y-15152D01*
X68071Y-15102D01*
X68118Y-15055D01*
X68120Y-15115D01*
X68120Y-15115D01*
G37*
G54D24*
X68120Y-15115D02*
X68120Y-15152D01*
X68071Y-15102D01*
X68118Y-15055D01*
X68120Y-15115D01*
G54D10*
G36*
X68120Y-16915D02*
X68120Y-16952D01*
X68071Y-16902D01*
X68118Y-16855D01*
X68120Y-16915D01*
X68120Y-16915D01*
G37*
G54D24*
X68120Y-16915D02*
X68120Y-16952D01*
X68071Y-16902D01*
X68118Y-16855D01*
X68120Y-16915D01*
G54D10*
G36*
X68214Y-11684D02*
X68066Y-11745D01*
X68061Y-11751D01*
X68056Y-11746D01*
X67899Y-11681D01*
X67730Y-11681D01*
X67574Y-11745D01*
X67470Y-11849D01*
X67465Y-11844D01*
X67309Y-11779D01*
X67140Y-11779D01*
X66983Y-11844D01*
X66864Y-11963D01*
X66799Y-12119D01*
X66799Y-12205D01*
X66737Y-12267D01*
X66737Y-12106D01*
X66714Y-11991D01*
X66649Y-11894D01*
X66649Y-11894D01*
X66255Y-11500D01*
X66174Y-11446D01*
X66189Y-11431D01*
X66437Y-11431D01*
X66437Y-11431D01*
X66437Y-11431D01*
X66592Y-11400D01*
X66725Y-11311D01*
X67096Y-10940D01*
X67516Y-10940D01*
X67545Y-11010D01*
X67640Y-11239D01*
X67640Y-11240D01*
X67641Y-11240D01*
X67641Y-11240D01*
X67642Y-11241D01*
X67991Y-11591D01*
X67992Y-11592D01*
X67992Y-11592D01*
X68214Y-11684D01*
X68214Y-11684D01*
G37*
G54D24*
X68214Y-11684D02*
X68066Y-11745D01*
X68061Y-11751D01*
X68056Y-11746D01*
X67899Y-11681D01*
X67730Y-11681D01*
X67574Y-11745D01*
X67470Y-11849D01*
X67465Y-11844D01*
X67309Y-11779D01*
X67140Y-11779D01*
X66983Y-11844D01*
X66864Y-11963D01*
X66799Y-12119D01*
X66799Y-12205D01*
X66737Y-12267D01*
X66737Y-12106D01*
X66714Y-11991D01*
X66649Y-11894D01*
X66649Y-11894D01*
X66255Y-11500D01*
X66174Y-11446D01*
X66189Y-11431D01*
X66437Y-11431D01*
X66437Y-11431D01*
X66437Y-11431D01*
X66592Y-11400D01*
X66725Y-11311D01*
X67096Y-10940D01*
X67516Y-10940D01*
X67545Y-11010D01*
X67640Y-11239D01*
X67640Y-11240D01*
X67641Y-11240D01*
X67641Y-11240D01*
X67642Y-11241D01*
X67991Y-11591D01*
X67992Y-11592D01*
X67992Y-11592D01*
X68214Y-11684D01*
G54D10*
G36*
X68293Y-19188D02*
X68223Y-19217D01*
X67993Y-19312D01*
X67993Y-19312D01*
X67992Y-19313D01*
X67992Y-19313D01*
X67992Y-19314D01*
X67657Y-19648D01*
X66666Y-18657D01*
X66666Y-18604D01*
X66661Y-18590D01*
X66660Y-18575D01*
X66602Y-18435D01*
X66596Y-18434D01*
X66587Y-18411D01*
X66439Y-18263D01*
X66416Y-18254D01*
X66414Y-18248D01*
X66329Y-18218D01*
X66312Y-18211D01*
X66414Y-18169D01*
X66416Y-18163D01*
X66438Y-18153D01*
X66586Y-18006D01*
X66596Y-17983D01*
X66602Y-17981D01*
X66632Y-17896D01*
X66666Y-17813D01*
X66666Y-17798D01*
X66671Y-17784D01*
X66666Y-17694D01*
X66666Y-17604D01*
X66661Y-17590D01*
X66660Y-17575D01*
X66647Y-17545D01*
X66647Y-16329D01*
X66745Y-16369D01*
X66914Y-16369D01*
X67071Y-16305D01*
X67174Y-16201D01*
X67159Y-16242D01*
X67120Y-16336D01*
X67120Y-16350D01*
X67116Y-16363D01*
X67120Y-16465D01*
X67120Y-16567D01*
X67125Y-16580D01*
X67126Y-16594D01*
X67194Y-16758D01*
X67200Y-16760D01*
X67208Y-16780D01*
X67330Y-16902D01*
X67209Y-17023D01*
X67200Y-17045D01*
X67194Y-17046D01*
X67159Y-17142D01*
X67120Y-17236D01*
X67120Y-17250D01*
X67116Y-17263D01*
X67120Y-17365D01*
X67120Y-17467D01*
X67125Y-17480D01*
X67126Y-17494D01*
X67194Y-17658D01*
X67200Y-17660D01*
X67208Y-17680D01*
X67371Y-17844D01*
X67393Y-17852D01*
X67394Y-17858D01*
X67490Y-17893D01*
X67584Y-17932D01*
X67598Y-17932D01*
X67611Y-17937D01*
X67713Y-17932D01*
X67815Y-17932D01*
X67828Y-17927D01*
X67842Y-17926D01*
X68006Y-17858D01*
X68008Y-17853D01*
X68028Y-17844D01*
X68192Y-17681D01*
X68201Y-17660D01*
X68206Y-17658D01*
X68209Y-17652D01*
X68250Y-17652D01*
X68250Y-17652D01*
X68293Y-17644D01*
X68293Y-19188D01*
X68293Y-19188D01*
G37*
G54D24*
X68293Y-19188D02*
X68223Y-19217D01*
X67993Y-19312D01*
X67993Y-19312D01*
X67992Y-19313D01*
X67992Y-19313D01*
X67992Y-19314D01*
X67657Y-19648D01*
X66666Y-18657D01*
X66666Y-18604D01*
X66661Y-18590D01*
X66660Y-18575D01*
X66602Y-18435D01*
X66596Y-18434D01*
X66587Y-18411D01*
X66439Y-18263D01*
X66416Y-18254D01*
X66414Y-18248D01*
X66329Y-18218D01*
X66312Y-18211D01*
X66414Y-18169D01*
X66416Y-18163D01*
X66438Y-18153D01*
X66586Y-18006D01*
X66596Y-17983D01*
X66602Y-17981D01*
X66632Y-17896D01*
X66666Y-17813D01*
X66666Y-17798D01*
X66671Y-17784D01*
X66666Y-17694D01*
X66666Y-17604D01*
X66661Y-17590D01*
X66660Y-17575D01*
X66647Y-17545D01*
X66647Y-16329D01*
X66745Y-16369D01*
X66914Y-16369D01*
X67071Y-16305D01*
X67174Y-16201D01*
X67159Y-16242D01*
X67120Y-16336D01*
X67120Y-16350D01*
X67116Y-16363D01*
X67120Y-16465D01*
X67120Y-16567D01*
X67125Y-16580D01*
X67126Y-16594D01*
X67194Y-16758D01*
X67200Y-16760D01*
X67208Y-16780D01*
X67330Y-16902D01*
X67209Y-17023D01*
X67200Y-17045D01*
X67194Y-17046D01*
X67159Y-17142D01*
X67120Y-17236D01*
X67120Y-17250D01*
X67116Y-17263D01*
X67120Y-17365D01*
X67120Y-17467D01*
X67125Y-17480D01*
X67126Y-17494D01*
X67194Y-17658D01*
X67200Y-17660D01*
X67208Y-17680D01*
X67371Y-17844D01*
X67393Y-17852D01*
X67394Y-17858D01*
X67490Y-17893D01*
X67584Y-17932D01*
X67598Y-17932D01*
X67611Y-17937D01*
X67713Y-17932D01*
X67815Y-17932D01*
X67828Y-17927D01*
X67842Y-17926D01*
X68006Y-17858D01*
X68008Y-17853D01*
X68028Y-17844D01*
X68192Y-17681D01*
X68201Y-17660D01*
X68206Y-17658D01*
X68209Y-17652D01*
X68250Y-17652D01*
X68250Y-17652D01*
X68293Y-17644D01*
X68293Y-19188D01*
G54D10*
G36*
X68330Y-14652D02*
X68283Y-14699D01*
X68280Y-14639D01*
X68280Y-14603D01*
X68330Y-14652D01*
X68330Y-14652D01*
G37*
G54D24*
X68330Y-14652D02*
X68283Y-14699D01*
X68280Y-14639D01*
X68280Y-14603D01*
X68330Y-14652D01*
G54D10*
G36*
X68816Y-11782D02*
X68793Y-11806D01*
X68608Y-11806D01*
X68584Y-11782D01*
X68699Y-11782D01*
X68816Y-11782D01*
X68816Y-11782D01*
G37*
G54D24*
X68816Y-11782D02*
X68793Y-11806D01*
X68608Y-11806D01*
X68584Y-11782D01*
X68699Y-11782D01*
X68816Y-11782D01*
G54D10*
G36*
X68901Y-35517D02*
X68714Y-35517D01*
X68714Y-35334D01*
X68713Y-35328D01*
X68733Y-35378D01*
X68853Y-35497D01*
X68901Y-35517D01*
X68901Y-35517D01*
G37*
G54D24*
X68901Y-35517D02*
X68714Y-35517D01*
X68714Y-35334D01*
X68713Y-35328D01*
X68733Y-35378D01*
X68853Y-35497D01*
X68901Y-35517D01*
G54D10*
G36*
X69277Y-34753D02*
X69201Y-34721D01*
X68830Y-34351D01*
X68830Y-34266D01*
X68766Y-34109D01*
X68646Y-33990D01*
X68490Y-33925D01*
X68321Y-33925D01*
X68165Y-33989D01*
X68045Y-34109D01*
X67980Y-34265D01*
X67980Y-34434D01*
X68045Y-34590D01*
X68164Y-34710D01*
X68320Y-34775D01*
X68406Y-34775D01*
X68673Y-35042D01*
X68669Y-35052D01*
X68669Y-35157D01*
X68648Y-35125D01*
X68595Y-35046D01*
X68595Y-35046D01*
X68496Y-34948D01*
X68364Y-34859D01*
X68208Y-34828D01*
X68052Y-34859D01*
X67920Y-34948D01*
X67920Y-34948D01*
X67843Y-35025D01*
X67629Y-35025D01*
X67600Y-34883D01*
X67512Y-34751D01*
X67512Y-34751D01*
X67307Y-34545D01*
X67289Y-34503D01*
X67229Y-34443D01*
X67229Y-33567D01*
X68405Y-33567D01*
X68596Y-33567D01*
X68656Y-33627D01*
X68812Y-33692D01*
X68981Y-33692D01*
X69138Y-33628D01*
X69257Y-33508D01*
X69277Y-33461D01*
X69277Y-34753D01*
X69277Y-34753D01*
G37*
G54D24*
X69277Y-34753D02*
X69201Y-34721D01*
X68830Y-34351D01*
X68830Y-34266D01*
X68766Y-34109D01*
X68646Y-33990D01*
X68490Y-33925D01*
X68321Y-33925D01*
X68165Y-33989D01*
X68045Y-34109D01*
X67980Y-34265D01*
X67980Y-34434D01*
X68045Y-34590D01*
X68164Y-34710D01*
X68320Y-34775D01*
X68406Y-34775D01*
X68673Y-35042D01*
X68669Y-35052D01*
X68669Y-35157D01*
X68648Y-35125D01*
X68595Y-35046D01*
X68595Y-35046D01*
X68496Y-34948D01*
X68364Y-34859D01*
X68208Y-34828D01*
X68052Y-34859D01*
X67920Y-34948D01*
X67920Y-34948D01*
X67843Y-35025D01*
X67629Y-35025D01*
X67600Y-34883D01*
X67512Y-34751D01*
X67512Y-34751D01*
X67307Y-34545D01*
X67289Y-34503D01*
X67229Y-34443D01*
X67229Y-33567D01*
X68405Y-33567D01*
X68596Y-33567D01*
X68656Y-33627D01*
X68812Y-33692D01*
X68981Y-33692D01*
X69138Y-33628D01*
X69257Y-33508D01*
X69277Y-33461D01*
X69277Y-34753D01*
G54D10*
G36*
X69277Y-39594D02*
X67913Y-40958D01*
X67321Y-40958D01*
X67317Y-40949D01*
X67247Y-40879D01*
X67238Y-40875D01*
X67238Y-40846D01*
X67238Y-40649D01*
X67207Y-40493D01*
X67207Y-40493D01*
X67171Y-40440D01*
X67118Y-40361D01*
X67118Y-40361D01*
X67020Y-40263D01*
X66888Y-40174D01*
X66732Y-40143D01*
X66576Y-40174D01*
X66444Y-40263D01*
X66355Y-40395D01*
X66324Y-40551D01*
X66355Y-40707D01*
X66371Y-40729D01*
X66142Y-40958D01*
X66042Y-40958D01*
X65663Y-40579D01*
X65663Y-38104D01*
X65719Y-38104D01*
X65761Y-38121D01*
X65930Y-38121D01*
X66086Y-38057D01*
X66206Y-37937D01*
X66271Y-37781D01*
X66271Y-37612D01*
X66206Y-37456D01*
X66087Y-37336D01*
X65931Y-37271D01*
X65762Y-37271D01*
X65719Y-37289D01*
X65255Y-37289D01*
X64398Y-37289D01*
X64356Y-37271D01*
X64187Y-37271D01*
X64144Y-37289D01*
X63611Y-37289D01*
X63569Y-37271D01*
X63400Y-37271D01*
X63357Y-37289D01*
X62036Y-37289D01*
X61994Y-37271D01*
X61825Y-37271D01*
X61782Y-37289D01*
X60166Y-37289D01*
X60124Y-37271D01*
X59955Y-37271D01*
X59798Y-37336D01*
X59738Y-37396D01*
X59279Y-37396D01*
X59283Y-37388D01*
X59283Y-37218D01*
X59278Y-37208D01*
X60038Y-36448D01*
X60123Y-36448D01*
X60279Y-36384D01*
X60399Y-36264D01*
X60464Y-36108D01*
X60464Y-35942D01*
X60735Y-36213D01*
X60735Y-36213D01*
X60814Y-36266D01*
X60867Y-36301D01*
X60867Y-36301D01*
X61023Y-36332D01*
X61023Y-36332D01*
X61023Y-36332D01*
X61388Y-36332D01*
X61430Y-36350D01*
X61599Y-36350D01*
X61642Y-36332D01*
X62963Y-36332D01*
X63005Y-36350D01*
X63174Y-36350D01*
X63217Y-36332D01*
X65283Y-36332D01*
X65952Y-37000D01*
X65952Y-37000D01*
X66084Y-37089D01*
X66240Y-37120D01*
X66240Y-37120D01*
X66240Y-37120D01*
X66563Y-37120D01*
X67535Y-38092D01*
X67552Y-38134D01*
X67672Y-38253D01*
X67828Y-38318D01*
X67997Y-38318D01*
X68153Y-38254D01*
X68273Y-38134D01*
X68338Y-37978D01*
X68338Y-37809D01*
X68273Y-37653D01*
X68154Y-37533D01*
X68111Y-37515D01*
X67020Y-36424D01*
X66888Y-36336D01*
X66870Y-36332D01*
X67902Y-36332D01*
X67930Y-36474D01*
X68018Y-36607D01*
X68215Y-36803D01*
X68348Y-36892D01*
X68503Y-36923D01*
X68659Y-36892D01*
X68792Y-36803D01*
X68880Y-36671D01*
X68911Y-36515D01*
X68880Y-36359D01*
X68862Y-36332D01*
X69277Y-36332D01*
X69277Y-39594D01*
X69277Y-39594D01*
G37*
G54D24*
X69277Y-39594D02*
X67913Y-40958D01*
X67321Y-40958D01*
X67317Y-40949D01*
X67247Y-40879D01*
X67238Y-40875D01*
X67238Y-40846D01*
X67238Y-40649D01*
X67207Y-40493D01*
X67207Y-40493D01*
X67171Y-40440D01*
X67118Y-40361D01*
X67118Y-40361D01*
X67020Y-40263D01*
X66888Y-40174D01*
X66732Y-40143D01*
X66576Y-40174D01*
X66444Y-40263D01*
X66355Y-40395D01*
X66324Y-40551D01*
X66355Y-40707D01*
X66371Y-40729D01*
X66142Y-40958D01*
X66042Y-40958D01*
X65663Y-40579D01*
X65663Y-38104D01*
X65719Y-38104D01*
X65761Y-38121D01*
X65930Y-38121D01*
X66086Y-38057D01*
X66206Y-37937D01*
X66271Y-37781D01*
X66271Y-37612D01*
X66206Y-37456D01*
X66087Y-37336D01*
X65931Y-37271D01*
X65762Y-37271D01*
X65719Y-37289D01*
X65255Y-37289D01*
X64398Y-37289D01*
X64356Y-37271D01*
X64187Y-37271D01*
X64144Y-37289D01*
X63611Y-37289D01*
X63569Y-37271D01*
X63400Y-37271D01*
X63357Y-37289D01*
X62036Y-37289D01*
X61994Y-37271D01*
X61825Y-37271D01*
X61782Y-37289D01*
X60166Y-37289D01*
X60124Y-37271D01*
X59955Y-37271D01*
X59798Y-37336D01*
X59738Y-37396D01*
X59279Y-37396D01*
X59283Y-37388D01*
X59283Y-37218D01*
X59278Y-37208D01*
X60038Y-36448D01*
X60123Y-36448D01*
X60279Y-36384D01*
X60399Y-36264D01*
X60464Y-36108D01*
X60464Y-35942D01*
X60735Y-36213D01*
X60735Y-36213D01*
X60814Y-36266D01*
X60867Y-36301D01*
X60867Y-36301D01*
X61023Y-36332D01*
X61023Y-36332D01*
X61023Y-36332D01*
X61388Y-36332D01*
X61430Y-36350D01*
X61599Y-36350D01*
X61642Y-36332D01*
X62963Y-36332D01*
X63005Y-36350D01*
X63174Y-36350D01*
X63217Y-36332D01*
X65283Y-36332D01*
X65952Y-37000D01*
X65952Y-37000D01*
X66084Y-37089D01*
X66240Y-37120D01*
X66240Y-37120D01*
X66240Y-37120D01*
X66563Y-37120D01*
X67535Y-38092D01*
X67552Y-38134D01*
X67672Y-38253D01*
X67828Y-38318D01*
X67997Y-38318D01*
X68153Y-38254D01*
X68273Y-38134D01*
X68338Y-37978D01*
X68338Y-37809D01*
X68273Y-37653D01*
X68154Y-37533D01*
X68111Y-37515D01*
X67020Y-36424D01*
X66888Y-36336D01*
X66870Y-36332D01*
X67902Y-36332D01*
X67930Y-36474D01*
X68018Y-36607D01*
X68215Y-36803D01*
X68348Y-36892D01*
X68503Y-36923D01*
X68659Y-36892D01*
X68792Y-36803D01*
X68880Y-36671D01*
X68911Y-36515D01*
X68880Y-36359D01*
X68862Y-36332D01*
X69277Y-36332D01*
X69277Y-39594D01*
G54D10*
G36*
X69290Y-29791D02*
X69224Y-29725D01*
X69224Y-29640D01*
X69159Y-29483D01*
X69040Y-29364D01*
X68884Y-29299D01*
X68739Y-29299D01*
X68744Y-29297D01*
X68804Y-29237D01*
X68990Y-29237D01*
X69050Y-29297D01*
X69206Y-29361D01*
X69277Y-29361D01*
X69277Y-29724D01*
X69277Y-29724D01*
X69290Y-29791D01*
X69290Y-29791D01*
G37*
G54D24*
X69290Y-29791D02*
X69224Y-29725D01*
X69224Y-29640D01*
X69159Y-29483D01*
X69040Y-29364D01*
X68884Y-29299D01*
X68739Y-29299D01*
X68744Y-29297D01*
X68804Y-29237D01*
X68990Y-29237D01*
X69050Y-29297D01*
X69206Y-29361D01*
X69277Y-29361D01*
X69277Y-29724D01*
X69277Y-29724D01*
X69290Y-29791D01*
G54D10*
G36*
X70074Y-11293D02*
X69468Y-11898D01*
X69454Y-11865D01*
X69335Y-11746D01*
X69186Y-11684D01*
X69407Y-11593D01*
X69408Y-11592D01*
X69408Y-11592D01*
X69408Y-11592D01*
X69409Y-11591D01*
X69759Y-11241D01*
X69760Y-11241D01*
X69760Y-11240D01*
X69855Y-11012D01*
X69950Y-10782D01*
X69950Y-10781D01*
X69950Y-10781D01*
X69950Y-10533D01*
X69951Y-10285D01*
X69950Y-10284D01*
X69950Y-10284D01*
X69856Y-10055D01*
X69761Y-9825D01*
X69760Y-9825D01*
X69760Y-9824D01*
X69760Y-9824D01*
X69759Y-9824D01*
X69684Y-9748D01*
X69783Y-9748D01*
X69783Y-9748D01*
X69898Y-9725D01*
X69898Y-9725D01*
X69948Y-9692D01*
X69948Y-9729D01*
X70013Y-9886D01*
X70074Y-9946D01*
X70074Y-11293D01*
X70074Y-11293D01*
G37*
G54D24*
X70074Y-11293D02*
X69468Y-11898D01*
X69454Y-11865D01*
X69335Y-11746D01*
X69186Y-11684D01*
X69407Y-11593D01*
X69408Y-11592D01*
X69408Y-11592D01*
X69408Y-11592D01*
X69409Y-11591D01*
X69759Y-11241D01*
X69760Y-11241D01*
X69760Y-11240D01*
X69855Y-11012D01*
X69950Y-10782D01*
X69950Y-10781D01*
X69950Y-10781D01*
X69950Y-10533D01*
X69951Y-10285D01*
X69950Y-10284D01*
X69950Y-10284D01*
X69856Y-10055D01*
X69761Y-9825D01*
X69760Y-9825D01*
X69760Y-9824D01*
X69760Y-9824D01*
X69759Y-9824D01*
X69684Y-9748D01*
X69783Y-9748D01*
X69783Y-9748D01*
X69898Y-9725D01*
X69898Y-9725D01*
X69948Y-9692D01*
X69948Y-9729D01*
X70013Y-9886D01*
X70074Y-9946D01*
X70074Y-11293D01*
G54D10*
G36*
X70499Y-28149D02*
X70488Y-28154D01*
X70488Y-28154D01*
X70488Y-28154D01*
X70453Y-28189D01*
X70418Y-28224D01*
X70418Y-28224D01*
X70418Y-28224D01*
X70399Y-28270D01*
X70380Y-28316D01*
X70380Y-28316D01*
X70380Y-28316D01*
X70380Y-28398D01*
X70380Y-28415D01*
X70380Y-28637D01*
X70319Y-28576D01*
X70163Y-28512D01*
X70092Y-28512D01*
X70092Y-27755D01*
X70061Y-27599D01*
X70061Y-27599D01*
X69973Y-27467D01*
X69973Y-27467D01*
X69233Y-26728D01*
X69233Y-26667D01*
X69228Y-26653D01*
X69227Y-26638D01*
X69169Y-26498D01*
X69163Y-26497D01*
X69153Y-26474D01*
X69071Y-26391D01*
X69417Y-26391D01*
X70380Y-27354D01*
X70380Y-27374D01*
X70380Y-27391D01*
X70380Y-27982D01*
X70418Y-28074D01*
X70488Y-28144D01*
X70499Y-28149D01*
X70499Y-28149D01*
G37*
G54D24*
X70499Y-28149D02*
X70488Y-28154D01*
X70488Y-28154D01*
X70488Y-28154D01*
X70453Y-28189D01*
X70418Y-28224D01*
X70418Y-28224D01*
X70418Y-28224D01*
X70399Y-28270D01*
X70380Y-28316D01*
X70380Y-28316D01*
X70380Y-28316D01*
X70380Y-28398D01*
X70380Y-28415D01*
X70380Y-28637D01*
X70319Y-28576D01*
X70163Y-28512D01*
X70092Y-28512D01*
X70092Y-27755D01*
X70061Y-27599D01*
X70061Y-27599D01*
X69973Y-27467D01*
X69973Y-27467D01*
X69233Y-26728D01*
X69233Y-26667D01*
X69228Y-26653D01*
X69227Y-26638D01*
X69169Y-26498D01*
X69163Y-26497D01*
X69153Y-26474D01*
X69071Y-26391D01*
X69417Y-26391D01*
X70380Y-27354D01*
X70380Y-27374D01*
X70380Y-27391D01*
X70380Y-27982D01*
X70418Y-28074D01*
X70488Y-28144D01*
X70499Y-28149D01*
G54D10*
G36*
X71344Y-28297D02*
X71314Y-28224D01*
X71243Y-28154D01*
X71232Y-28149D01*
X71243Y-28145D01*
X71243Y-28145D01*
X71243Y-28144D01*
X71278Y-28109D01*
X71305Y-28082D01*
X71344Y-28121D01*
X71344Y-28297D01*
X71344Y-28297D01*
G37*
G54D24*
X71344Y-28297D02*
X71314Y-28224D01*
X71243Y-28154D01*
X71232Y-28149D01*
X71243Y-28145D01*
X71243Y-28145D01*
X71243Y-28144D01*
X71278Y-28109D01*
X71305Y-28082D01*
X71344Y-28121D01*
X71344Y-28297D01*
G54D10*
G36*
X71486Y-29174D02*
X71273Y-29174D01*
X71273Y-29139D01*
X71278Y-29133D01*
X71313Y-29098D01*
X71314Y-29098D01*
X71314Y-29098D01*
X71333Y-29052D01*
X71352Y-29007D01*
X71352Y-29006D01*
X71352Y-29006D01*
X71352Y-28983D01*
X71391Y-29079D01*
X71486Y-29174D01*
X71486Y-29174D01*
G37*
G54D24*
X71486Y-29174D02*
X71273Y-29174D01*
X71273Y-29139D01*
X71278Y-29133D01*
X71313Y-29098D01*
X71314Y-29098D01*
X71314Y-29098D01*
X71333Y-29052D01*
X71352Y-29007D01*
X71352Y-29006D01*
X71352Y-29006D01*
X71352Y-28983D01*
X71391Y-29079D01*
X71486Y-29174D01*
G54D10*
G36*
X71942Y-27567D02*
X71724Y-27349D01*
X71592Y-27261D01*
X71436Y-27230D01*
X71436Y-27230D01*
X71326Y-27230D01*
X71314Y-27200D01*
X71247Y-27134D01*
X71247Y-27134D01*
X71242Y-27107D01*
X71154Y-26975D01*
X71154Y-26975D01*
X69874Y-25696D01*
X69742Y-25607D01*
X69586Y-25576D01*
X69586Y-25576D01*
X69193Y-25576D01*
X69193Y-23993D01*
X69188Y-23903D01*
X69188Y-23813D01*
X69182Y-23799D01*
X69181Y-23784D01*
X69123Y-23644D01*
X69118Y-23642D01*
X69108Y-23620D01*
X68961Y-23472D01*
X68937Y-23462D01*
X68936Y-23456D01*
X68851Y-23426D01*
X68768Y-23392D01*
X68753Y-23392D01*
X68739Y-23387D01*
X68649Y-23392D01*
X68559Y-23392D01*
X68545Y-23397D01*
X68530Y-23398D01*
X68390Y-23456D01*
X68389Y-23462D01*
X68366Y-23471D01*
X68218Y-23619D01*
X68208Y-23642D01*
X68202Y-23644D01*
X68172Y-23729D01*
X68138Y-23812D01*
X68138Y-23827D01*
X68133Y-23841D01*
X68138Y-23931D01*
X68138Y-24021D01*
X68144Y-24035D01*
X68144Y-24050D01*
X68202Y-24190D01*
X68208Y-24191D01*
X68218Y-24214D01*
X68365Y-24362D01*
X68389Y-24371D01*
X68390Y-24377D01*
X68475Y-24407D01*
X68558Y-24442D01*
X68573Y-24442D01*
X68587Y-24447D01*
X68677Y-24442D01*
X68767Y-24442D01*
X68781Y-24436D01*
X68796Y-24435D01*
X68936Y-24377D01*
X68937Y-24372D01*
X68960Y-24362D01*
X69108Y-24215D01*
X69117Y-24191D01*
X69123Y-24190D01*
X69153Y-24105D01*
X69188Y-24022D01*
X69188Y-24007D01*
X69193Y-23993D01*
X69193Y-25576D01*
X68496Y-25576D01*
X68496Y-25576D01*
X68340Y-25607D01*
X68207Y-25696D01*
X68207Y-25696D01*
X67688Y-26215D01*
X67688Y-24142D01*
X67688Y-23691D01*
X67688Y-23592D01*
X67688Y-23592D01*
X67688Y-23592D01*
X67669Y-23546D01*
X67650Y-23500D01*
X67650Y-23500D01*
X67650Y-23500D01*
X67615Y-23465D01*
X67580Y-23430D01*
X67579Y-23430D01*
X67579Y-23430D01*
X67533Y-23411D01*
X67488Y-23392D01*
X67488Y-23392D01*
X67487Y-23392D01*
X67407Y-23392D01*
X67388Y-23392D01*
X66838Y-23392D01*
X66746Y-23430D01*
X66676Y-23500D01*
X66638Y-23592D01*
X66638Y-23691D01*
X66638Y-24142D01*
X66638Y-24241D01*
X66638Y-24242D01*
X66638Y-24242D01*
X66657Y-24287D01*
X66676Y-24333D01*
X66676Y-24333D01*
X66676Y-24334D01*
X66711Y-24369D01*
X66746Y-24404D01*
X66746Y-24404D01*
X66746Y-24404D01*
X66792Y-24423D01*
X66838Y-24442D01*
X66838Y-24442D01*
X66838Y-24442D01*
X66919Y-24442D01*
X66937Y-24442D01*
X67487Y-24442D01*
X67579Y-24404D01*
X67650Y-24334D01*
X67688Y-24242D01*
X67688Y-24142D01*
X67688Y-26215D01*
X67657Y-26246D01*
X67604Y-26246D01*
X67590Y-26252D01*
X67575Y-26253D01*
X67435Y-26311D01*
X67434Y-26316D01*
X67411Y-26326D01*
X67263Y-26473D01*
X67254Y-26497D01*
X67248Y-26498D01*
X67218Y-26583D01*
X67183Y-26666D01*
X67183Y-26681D01*
X67178Y-26695D01*
X67183Y-26785D01*
X67183Y-26875D01*
X67189Y-26889D01*
X67190Y-26904D01*
X67248Y-27044D01*
X67253Y-27045D01*
X67263Y-27068D01*
X67410Y-27216D01*
X67434Y-27226D01*
X67435Y-27232D01*
X67520Y-27262D01*
X67603Y-27296D01*
X67618Y-27296D01*
X67632Y-27301D01*
X67722Y-27296D01*
X67812Y-27296D01*
X67826Y-27291D01*
X67841Y-27290D01*
X67981Y-27232D01*
X67982Y-27226D01*
X68005Y-27216D01*
X68153Y-27069D01*
X68163Y-27046D01*
X68169Y-27044D01*
X68199Y-26959D01*
X68206Y-26942D01*
X68248Y-27044D01*
X68253Y-27045D01*
X68263Y-27068D01*
X68410Y-27216D01*
X68434Y-27226D01*
X68435Y-27232D01*
X68520Y-27262D01*
X68603Y-27296D01*
X68618Y-27296D01*
X68632Y-27301D01*
X68653Y-27300D01*
X69277Y-27924D01*
X69277Y-28153D01*
X69258Y-28106D01*
X69138Y-27986D01*
X68982Y-27921D01*
X68896Y-27921D01*
X68525Y-27550D01*
X68470Y-27417D01*
X68351Y-27297D01*
X68195Y-27232D01*
X68026Y-27232D01*
X67869Y-27296D01*
X67750Y-27416D01*
X67685Y-27572D01*
X67685Y-27741D01*
X67749Y-27897D01*
X67869Y-28017D01*
X68025Y-28082D01*
X68194Y-28082D01*
X68205Y-28078D01*
X68472Y-28345D01*
X68472Y-28430D01*
X68506Y-28512D01*
X68419Y-28511D01*
X68263Y-28576D01*
X68143Y-28695D01*
X68079Y-28852D01*
X68078Y-29021D01*
X68143Y-29177D01*
X68262Y-29297D01*
X68419Y-29361D01*
X68563Y-29362D01*
X68558Y-29363D01*
X68439Y-29483D01*
X68374Y-29639D01*
X68374Y-29808D01*
X68438Y-29964D01*
X68558Y-30084D01*
X68714Y-30149D01*
X68799Y-30149D01*
X69358Y-30707D01*
X69358Y-30792D01*
X69422Y-30949D01*
X69542Y-31068D01*
X69698Y-31133D01*
X69769Y-31133D01*
X69769Y-31622D01*
X69396Y-31995D01*
X69308Y-32127D01*
X69277Y-32283D01*
X69277Y-32283D01*
X69277Y-33074D01*
X69258Y-33027D01*
X69138Y-32907D01*
X68982Y-32842D01*
X68813Y-32842D01*
X68657Y-32907D01*
X68596Y-32967D01*
X68405Y-32967D01*
X67229Y-32967D01*
X67229Y-31206D01*
X67289Y-31146D01*
X67354Y-30990D01*
X67354Y-30821D01*
X67289Y-30665D01*
X67229Y-30604D01*
X67229Y-29356D01*
X67239Y-29345D01*
X67239Y-29345D01*
X67304Y-29248D01*
X67327Y-29133D01*
X67327Y-29133D01*
X67327Y-29041D01*
X67387Y-28981D01*
X67452Y-28825D01*
X67452Y-28655D01*
X67388Y-28499D01*
X67268Y-28380D01*
X67112Y-28315D01*
X66943Y-28315D01*
X66900Y-28332D01*
X66367Y-28332D01*
X66325Y-28315D01*
X66155Y-28315D01*
X66087Y-28343D01*
X66087Y-28343D01*
X65985Y-28363D01*
X65853Y-28452D01*
X65853Y-28452D01*
X65643Y-28662D01*
X65616Y-28598D01*
X65496Y-28478D01*
X65454Y-28460D01*
X65347Y-28353D01*
X65214Y-28265D01*
X65059Y-28234D01*
X65059Y-28234D01*
X63484Y-28234D01*
X63484Y-28234D01*
X63453Y-28240D01*
X63328Y-28265D01*
X63196Y-28353D01*
X63196Y-28353D01*
X63139Y-28409D01*
X62984Y-28255D01*
X62852Y-28166D01*
X62696Y-28135D01*
X62696Y-28135D01*
X61220Y-28135D01*
X61220Y-28135D01*
X61064Y-28166D01*
X60932Y-28255D01*
X60932Y-28255D01*
X60756Y-28431D01*
X59940Y-28431D01*
X59940Y-28431D01*
X59909Y-28437D01*
X59785Y-28462D01*
X59775Y-28468D01*
X59775Y-28459D01*
X59710Y-28302D01*
X59591Y-28183D01*
X59435Y-28118D01*
X59313Y-28118D01*
X59769Y-27662D01*
X61023Y-27662D01*
X61023Y-27662D01*
X61138Y-27639D01*
X61138Y-27639D01*
X61235Y-27574D01*
X61976Y-26833D01*
X61976Y-26954D01*
X62041Y-27110D01*
X62160Y-27230D01*
X62316Y-27295D01*
X62485Y-27295D01*
X62642Y-27230D01*
X62702Y-27170D01*
X63478Y-27170D01*
X63538Y-27230D01*
X63694Y-27295D01*
X63863Y-27295D01*
X63944Y-27261D01*
X64059Y-27377D01*
X64156Y-27442D01*
X64271Y-27465D01*
X66504Y-27465D01*
X66504Y-27544D01*
X66568Y-27701D01*
X66688Y-27820D01*
X66844Y-27885D01*
X67013Y-27885D01*
X67169Y-27821D01*
X67289Y-27701D01*
X67354Y-27545D01*
X67354Y-27376D01*
X67289Y-27220D01*
X67170Y-27100D01*
X67014Y-27035D01*
X66928Y-27035D01*
X66845Y-26953D01*
X66748Y-26888D01*
X66633Y-26865D01*
X65680Y-26865D01*
X65680Y-26785D01*
X65616Y-26629D01*
X65555Y-26569D01*
X65555Y-26507D01*
X65635Y-26507D01*
X65791Y-26443D01*
X65911Y-26323D01*
X65976Y-26167D01*
X65976Y-25998D01*
X65918Y-25859D01*
X66056Y-25917D01*
X66225Y-25917D01*
X66382Y-25852D01*
X66501Y-25733D01*
X66566Y-25577D01*
X66566Y-25407D01*
X66502Y-25251D01*
X66441Y-25191D01*
X66441Y-22342D01*
X66418Y-22227D01*
X66353Y-22130D01*
X66353Y-22130D01*
X64866Y-20643D01*
X64866Y-15874D01*
X64875Y-15877D01*
X65044Y-15877D01*
X65201Y-15813D01*
X65320Y-15693D01*
X65385Y-15537D01*
X65385Y-15387D01*
X65442Y-15387D01*
X65443Y-15387D01*
X65443Y-15387D01*
X65489Y-15368D01*
X65534Y-15349D01*
X65534Y-15349D01*
X65535Y-15349D01*
X65570Y-15314D01*
X65605Y-15279D01*
X65605Y-15278D01*
X65605Y-15278D01*
X65624Y-15232D01*
X65643Y-15187D01*
X65643Y-15186D01*
X65643Y-15186D01*
X65643Y-15121D01*
X65643Y-15087D01*
X65643Y-14772D01*
X65639Y-14763D01*
X65643Y-14755D01*
X65643Y-14754D01*
X65643Y-14754D01*
X65643Y-14689D01*
X65643Y-14655D01*
X65643Y-14340D01*
X65605Y-14248D01*
X65537Y-14181D01*
X65537Y-14181D01*
X65533Y-14156D01*
X65468Y-14059D01*
X65385Y-13977D01*
X65385Y-13892D01*
X65321Y-13735D01*
X65201Y-13616D01*
X65045Y-13551D01*
X64876Y-13551D01*
X64720Y-13615D01*
X64600Y-13735D01*
X64580Y-13782D01*
X64512Y-13714D01*
X64356Y-13649D01*
X64187Y-13649D01*
X64031Y-13714D01*
X63958Y-13787D01*
X63864Y-13748D01*
X63695Y-13748D01*
X63539Y-13812D01*
X63419Y-13932D01*
X63354Y-14088D01*
X63354Y-14257D01*
X63419Y-14413D01*
X63479Y-14474D01*
X63479Y-21027D01*
X62800Y-20348D01*
X62800Y-12013D01*
X62860Y-11953D01*
X62924Y-11797D01*
X62925Y-11628D01*
X62860Y-11472D01*
X62741Y-11352D01*
X62584Y-11287D01*
X62415Y-11287D01*
X62259Y-11352D01*
X62139Y-11471D01*
X62093Y-11583D01*
X62092Y-11582D01*
X61923Y-11582D01*
X61767Y-11647D01*
X61647Y-11766D01*
X61586Y-11913D01*
X61502Y-11878D01*
X61333Y-11878D01*
X61176Y-11942D01*
X61057Y-12062D01*
X61010Y-12173D01*
X61010Y-12173D01*
X60841Y-12173D01*
X60684Y-12237D01*
X60565Y-12357D01*
X60518Y-12469D01*
X60517Y-12468D01*
X60348Y-12468D01*
X60192Y-12533D01*
X60119Y-12606D01*
X60025Y-12567D01*
X59856Y-12567D01*
X59744Y-12613D01*
X59632Y-12567D01*
X59463Y-12567D01*
X59306Y-12631D01*
X59187Y-12751D01*
X59122Y-12907D01*
X59122Y-13076D01*
X59186Y-13232D01*
X59247Y-13293D01*
X59247Y-16803D01*
X59238Y-16799D01*
X59069Y-16799D01*
X58913Y-16863D01*
X58907Y-16869D01*
X58902Y-16864D01*
X58746Y-16799D01*
X58673Y-16799D01*
X58628Y-16688D01*
X58622Y-16683D01*
X58627Y-16678D01*
X58692Y-16521D01*
X58692Y-16352D01*
X58628Y-16196D01*
X58622Y-16191D01*
X58627Y-16185D01*
X58692Y-16029D01*
X58692Y-15860D01*
X58628Y-15704D01*
X58622Y-15698D01*
X58627Y-15693D01*
X58692Y-15537D01*
X58692Y-15368D01*
X58628Y-15212D01*
X58508Y-15092D01*
X58352Y-15027D01*
X58183Y-15027D01*
X58027Y-15092D01*
X57907Y-15211D01*
X57842Y-15367D01*
X57842Y-15536D01*
X57847Y-15547D01*
X56972Y-16421D01*
X56907Y-16519D01*
X56885Y-16633D01*
X56885Y-17493D01*
X55791Y-18587D01*
X55726Y-18684D01*
X55703Y-18799D01*
X55703Y-34443D01*
X55643Y-34503D01*
X55579Y-34659D01*
X55578Y-34828D01*
X55643Y-34984D01*
X55762Y-35104D01*
X55919Y-35169D01*
X56088Y-35169D01*
X56244Y-35104D01*
X56364Y-34985D01*
X56369Y-34972D01*
X56481Y-34972D01*
X56638Y-34907D01*
X56757Y-34788D01*
X56822Y-34632D01*
X56822Y-34463D01*
X56789Y-34381D01*
X56875Y-34381D01*
X57031Y-34317D01*
X57151Y-34197D01*
X57156Y-34184D01*
X57269Y-34184D01*
X57425Y-34120D01*
X57545Y-34000D01*
X57550Y-33987D01*
X57662Y-33988D01*
X57819Y-33923D01*
X57938Y-33804D01*
X57944Y-33791D01*
X58056Y-33791D01*
X58212Y-33726D01*
X58332Y-33607D01*
X58397Y-33451D01*
X58397Y-33281D01*
X58332Y-33125D01*
X58272Y-33065D01*
X58272Y-30247D01*
X58351Y-30247D01*
X58508Y-30183D01*
X58627Y-30063D01*
X58692Y-29907D01*
X58692Y-29738D01*
X58683Y-29715D01*
X59244Y-29102D01*
X59238Y-29133D01*
X59238Y-29133D01*
X59238Y-29555D01*
X59160Y-29633D01*
X59072Y-29765D01*
X59041Y-29921D01*
X59041Y-29921D01*
X59041Y-32972D01*
X59041Y-32972D01*
X59072Y-33128D01*
X59126Y-33210D01*
X59062Y-33274D01*
X58973Y-33407D01*
X58942Y-33562D01*
X58942Y-33562D01*
X58942Y-34251D01*
X58942Y-34251D01*
X58973Y-34407D01*
X59062Y-34540D01*
X59259Y-34736D01*
X59259Y-34736D01*
X59318Y-34776D01*
X59318Y-34776D01*
X59357Y-34835D01*
X59512Y-34990D01*
X58021Y-36480D01*
X57538Y-35997D01*
X57538Y-35576D01*
X57538Y-35477D01*
X57538Y-35477D01*
X57538Y-35476D01*
X57519Y-35431D01*
X57500Y-35385D01*
X57500Y-35385D01*
X57500Y-35384D01*
X57464Y-35349D01*
X57429Y-35314D01*
X57429Y-35314D01*
X57429Y-35314D01*
X57383Y-35295D01*
X57338Y-35276D01*
X57337Y-35276D01*
X57337Y-35276D01*
X57255Y-35276D01*
X57238Y-35276D01*
X56638Y-35276D01*
X56546Y-35314D01*
X56476Y-35384D01*
X56438Y-35476D01*
X56438Y-35576D01*
X56438Y-36077D01*
X56438Y-36176D01*
X56438Y-36176D01*
X56438Y-36176D01*
X56457Y-36222D01*
X56476Y-36268D01*
X56476Y-36268D01*
X56476Y-36268D01*
X56511Y-36303D01*
X56546Y-36338D01*
X56546Y-36338D01*
X56546Y-36338D01*
X56592Y-36357D01*
X56638Y-36376D01*
X56638Y-36376D01*
X56638Y-36376D01*
X56720Y-36376D01*
X56737Y-36376D01*
X56765Y-36376D01*
X57785Y-37396D01*
X56600Y-37396D01*
X56540Y-37336D01*
X56384Y-37271D01*
X56215Y-37271D01*
X56058Y-37336D01*
X55939Y-37455D01*
X55874Y-37611D01*
X55874Y-37781D01*
X55938Y-37937D01*
X56058Y-38056D01*
X56214Y-38121D01*
X56383Y-38121D01*
X56539Y-38057D01*
X56600Y-37996D01*
X58178Y-37996D01*
X57705Y-38470D01*
X56918Y-38470D01*
X56876Y-38453D01*
X56707Y-38452D01*
X56550Y-38517D01*
X56431Y-38636D01*
X56366Y-38793D01*
X56366Y-38962D01*
X56430Y-39118D01*
X56550Y-39238D01*
X56706Y-39302D01*
X56875Y-39303D01*
X56918Y-39285D01*
X57466Y-39285D01*
X57466Y-42843D01*
X57001Y-43307D01*
X57001Y-40354D01*
X56970Y-40198D01*
X56882Y-40066D01*
X56750Y-39977D01*
X56594Y-39946D01*
X56438Y-39977D01*
X56384Y-40013D01*
X55988Y-40013D01*
X55930Y-39955D01*
X55907Y-39945D01*
X55905Y-39940D01*
X55816Y-39907D01*
X55727Y-39871D01*
X55713Y-39871D01*
X55699Y-39866D01*
X55604Y-39871D01*
X55509Y-39871D01*
X55495Y-39876D01*
X55481Y-39877D01*
X55418Y-39903D01*
X55418Y-37702D01*
X55478Y-37642D01*
X55543Y-37486D01*
X55543Y-37317D01*
X55478Y-37161D01*
X55359Y-37041D01*
X55203Y-36976D01*
X55033Y-36976D01*
X54877Y-37041D01*
X54827Y-37091D01*
X54827Y-32708D01*
X54907Y-32708D01*
X55063Y-32643D01*
X55182Y-32524D01*
X55247Y-32368D01*
X55247Y-32199D01*
X55183Y-32043D01*
X55063Y-31923D01*
X54907Y-31858D01*
X54738Y-31858D01*
X54582Y-31922D01*
X54462Y-32042D01*
X54397Y-32198D01*
X54397Y-32284D01*
X54315Y-32366D01*
X54250Y-32463D01*
X54227Y-32578D01*
X54227Y-38852D01*
X53724Y-39354D01*
X53659Y-39452D01*
X53637Y-39566D01*
X53637Y-41830D01*
X53659Y-41945D01*
X53724Y-42042D01*
X54065Y-42383D01*
X54068Y-42434D01*
X54068Y-42530D01*
X54073Y-42543D01*
X54074Y-42558D01*
X54136Y-42709D01*
X54142Y-42710D01*
X54151Y-42732D01*
X54306Y-42887D01*
X54328Y-42896D01*
X54330Y-42902D01*
X54378Y-42919D01*
X54330Y-42940D01*
X54328Y-42945D01*
X54306Y-42954D01*
X54152Y-43109D01*
X54142Y-43131D01*
X54136Y-43133D01*
X54104Y-43223D01*
X54068Y-43311D01*
X54068Y-43325D01*
X54063Y-43339D01*
X54068Y-43434D01*
X54068Y-43530D01*
X54073Y-43543D01*
X54074Y-43558D01*
X54136Y-43709D01*
X54142Y-43710D01*
X54151Y-43732D01*
X54306Y-43887D01*
X54328Y-43896D01*
X54330Y-43902D01*
X54378Y-43919D01*
X54330Y-43940D01*
X54328Y-43945D01*
X54306Y-43954D01*
X54152Y-44109D01*
X54147Y-44121D01*
X54092Y-44121D01*
X53657Y-43685D01*
X53559Y-43620D01*
X53444Y-43597D01*
X53330Y-43620D01*
X53232Y-43685D01*
X53167Y-43782D01*
X53144Y-43897D01*
X53167Y-44012D01*
X53232Y-44109D01*
X53756Y-44633D01*
X53853Y-44698D01*
X53853Y-44698D01*
X53968Y-44721D01*
X54146Y-44721D01*
X54151Y-44732D01*
X54306Y-44887D01*
X54328Y-44896D01*
X54330Y-44902D01*
X54420Y-44934D01*
X54508Y-44971D01*
X54522Y-44971D01*
X54536Y-44976D01*
X54631Y-44971D01*
X54727Y-44971D01*
X54740Y-44965D01*
X54754Y-44965D01*
X54905Y-44902D01*
X54907Y-44896D01*
X54929Y-44887D01*
X55084Y-44733D01*
X55093Y-44710D01*
X55099Y-44709D01*
X55116Y-44660D01*
X55136Y-44709D01*
X55142Y-44710D01*
X55151Y-44732D01*
X55210Y-44791D01*
X55210Y-44908D01*
X55135Y-45021D01*
X55104Y-45177D01*
X55135Y-45333D01*
X55223Y-45465D01*
X55355Y-45553D01*
X55511Y-45584D01*
X55667Y-45553D01*
X55799Y-45465D01*
X55906Y-45358D01*
X55906Y-45358D01*
X55906Y-45358D01*
X55994Y-45226D01*
X55994Y-45226D01*
X56025Y-45070D01*
X56025Y-44791D01*
X56084Y-44733D01*
X56093Y-44710D01*
X56099Y-44709D01*
X56131Y-44619D01*
X56168Y-44531D01*
X56168Y-44516D01*
X56172Y-44503D01*
X56168Y-44407D01*
X56168Y-44312D01*
X56162Y-44298D01*
X56161Y-44284D01*
X56099Y-44133D01*
X56093Y-44131D01*
X56084Y-44110D01*
X55930Y-43955D01*
X55907Y-43945D01*
X55905Y-43940D01*
X55857Y-43922D01*
X55905Y-43902D01*
X55907Y-43896D01*
X55929Y-43887D01*
X56084Y-43733D01*
X56093Y-43710D01*
X56099Y-43709D01*
X56131Y-43619D01*
X56168Y-43531D01*
X56168Y-43516D01*
X56172Y-43503D01*
X56168Y-43407D01*
X56168Y-43312D01*
X56162Y-43298D01*
X56161Y-43284D01*
X56099Y-43133D01*
X56093Y-43131D01*
X56084Y-43110D01*
X55930Y-42955D01*
X55907Y-42945D01*
X55905Y-42940D01*
X55857Y-42922D01*
X55905Y-42902D01*
X55907Y-42896D01*
X55929Y-42887D01*
X56084Y-42733D01*
X56093Y-42710D01*
X56099Y-42709D01*
X56131Y-42619D01*
X56168Y-42531D01*
X56168Y-42516D01*
X56172Y-42503D01*
X56168Y-42407D01*
X56168Y-42334D01*
X56214Y-42354D01*
X56383Y-42354D01*
X56539Y-42289D01*
X56659Y-42170D01*
X56724Y-42014D01*
X56724Y-41844D01*
X56659Y-41688D01*
X56540Y-41569D01*
X56384Y-41504D01*
X56215Y-41504D01*
X56168Y-41523D01*
X56168Y-41516D01*
X56172Y-41503D01*
X56168Y-41407D01*
X56168Y-41312D01*
X56162Y-41298D01*
X56161Y-41284D01*
X56099Y-41133D01*
X56093Y-41131D01*
X56084Y-41110D01*
X55930Y-40955D01*
X55907Y-40945D01*
X55905Y-40940D01*
X55857Y-40922D01*
X55905Y-40902D01*
X55907Y-40896D01*
X55929Y-40887D01*
X55988Y-40828D01*
X56527Y-40828D01*
X56527Y-40828D01*
X56527Y-40828D01*
X56683Y-40797D01*
X56815Y-40709D01*
X56882Y-40642D01*
X56970Y-40510D01*
X57001Y-40354D01*
X57001Y-43307D01*
X56789Y-43519D01*
X56747Y-43537D01*
X56628Y-43656D01*
X56563Y-43812D01*
X56563Y-43981D01*
X56627Y-44138D01*
X56747Y-44257D01*
X56903Y-44322D01*
X57072Y-44322D01*
X57228Y-44258D01*
X57348Y-44138D01*
X57365Y-44096D01*
X58162Y-43299D01*
X58162Y-43299D01*
X58162Y-43299D01*
X58250Y-43167D01*
X58250Y-43167D01*
X58281Y-43011D01*
X58281Y-42516D01*
X58407Y-42600D01*
X58562Y-42631D01*
X58602Y-42624D01*
X58621Y-42624D01*
X58658Y-42661D01*
X58682Y-42671D01*
X58683Y-42677D01*
X58768Y-42706D01*
X58785Y-42713D01*
X58683Y-42755D01*
X58682Y-42761D01*
X58659Y-42771D01*
X58511Y-42918D01*
X58502Y-42942D01*
X58496Y-42943D01*
X58466Y-43028D01*
X58431Y-43111D01*
X58431Y-43126D01*
X58426Y-43140D01*
X58431Y-43230D01*
X58431Y-43255D01*
X57675Y-44011D01*
X57633Y-44029D01*
X57513Y-44148D01*
X57449Y-44304D01*
X57448Y-44473D01*
X57466Y-44516D01*
X57466Y-46062D01*
X57466Y-46062D01*
X57497Y-46218D01*
X57585Y-46351D01*
X58373Y-47138D01*
X58373Y-47138D01*
X58505Y-47226D01*
X58661Y-47257D01*
X58661Y-47257D01*
X58661Y-47257D01*
X59041Y-47257D01*
X59041Y-48551D01*
X58705Y-48887D01*
X58617Y-49019D01*
X58586Y-49175D01*
X58586Y-49175D01*
X58586Y-49607D01*
X58577Y-49611D01*
X58507Y-49681D01*
X58469Y-49773D01*
X58469Y-49872D01*
X58469Y-50323D01*
X58469Y-50422D01*
X58469Y-50423D01*
X58469Y-50423D01*
X58488Y-50469D01*
X58507Y-50514D01*
X58507Y-50515D01*
X58507Y-50515D01*
X58542Y-50550D01*
X58577Y-50585D01*
X58577Y-50585D01*
X58577Y-50585D01*
X58623Y-50604D01*
X58669Y-50623D01*
X58669Y-50623D01*
X58669Y-50623D01*
X58749Y-50623D01*
X58768Y-50623D01*
X59318Y-50623D01*
X59410Y-50585D01*
X59480Y-50515D01*
X59519Y-50423D01*
X59519Y-50323D01*
X59519Y-49872D01*
X59519Y-49773D01*
X59519Y-49773D01*
X59519Y-49773D01*
X59500Y-49727D01*
X59481Y-49681D01*
X59480Y-49681D01*
X59480Y-49681D01*
X59445Y-49646D01*
X59410Y-49611D01*
X59410Y-49611D01*
X59410Y-49611D01*
X59401Y-49607D01*
X59401Y-49343D01*
X59736Y-49008D01*
X59736Y-49008D01*
X59736Y-49008D01*
X59825Y-48876D01*
X59825Y-48876D01*
X59856Y-48720D01*
X59856Y-47257D01*
X60925Y-47257D01*
X60925Y-47257D01*
X60925Y-47257D01*
X61081Y-47226D01*
X61213Y-47138D01*
X61290Y-47061D01*
X64341Y-47061D01*
X64383Y-47078D01*
X64552Y-47078D01*
X64562Y-47074D01*
X64562Y-47927D01*
X64502Y-47987D01*
X64437Y-48143D01*
X64437Y-48312D01*
X64501Y-48468D01*
X64621Y-48588D01*
X64777Y-48653D01*
X64946Y-48653D01*
X65102Y-48588D01*
X65222Y-48469D01*
X65287Y-48313D01*
X65287Y-48144D01*
X65222Y-47987D01*
X65162Y-47927D01*
X65162Y-46456D01*
X65162Y-46456D01*
X65139Y-46341D01*
X65074Y-46244D01*
X65074Y-46244D01*
X63055Y-44225D01*
X63057Y-44220D01*
X63057Y-44205D01*
X63062Y-44192D01*
X63057Y-44096D01*
X63057Y-44001D01*
X63052Y-43987D01*
X63051Y-43973D01*
X62989Y-43822D01*
X62983Y-43820D01*
X62974Y-43799D01*
X62819Y-43644D01*
X62797Y-43634D01*
X62795Y-43628D01*
X62747Y-43611D01*
X62795Y-43591D01*
X62797Y-43585D01*
X62819Y-43576D01*
X62973Y-43422D01*
X62983Y-43399D01*
X62989Y-43398D01*
X63021Y-43308D01*
X63057Y-43220D01*
X63057Y-43205D01*
X63062Y-43192D01*
X63057Y-43096D01*
X63057Y-43001D01*
X63053Y-42989D01*
X63885Y-42157D01*
X63962Y-42157D01*
X64118Y-42092D01*
X64238Y-41973D01*
X64302Y-41817D01*
X64303Y-41648D01*
X64238Y-41491D01*
X64177Y-41431D01*
X64177Y-40059D01*
X64177Y-40059D01*
X64155Y-39944D01*
X64090Y-39846D01*
X64090Y-39846D01*
X63318Y-39075D01*
X63318Y-38990D01*
X63254Y-38834D01*
X63204Y-38784D01*
X64257Y-38784D01*
X64257Y-40916D01*
X64240Y-40958D01*
X64240Y-41127D01*
X64304Y-41283D01*
X64424Y-41403D01*
X64580Y-41468D01*
X64749Y-41468D01*
X64848Y-41427D01*
X64848Y-42719D01*
X64797Y-42770D01*
X64732Y-42926D01*
X64732Y-43095D01*
X64796Y-43252D01*
X64916Y-43371D01*
X64958Y-43389D01*
X65438Y-43869D01*
X65438Y-48748D01*
X64201Y-49986D01*
X63712Y-49986D01*
X63712Y-47652D01*
X63647Y-47495D01*
X63528Y-47376D01*
X63372Y-47311D01*
X63203Y-47311D01*
X63046Y-47375D01*
X62938Y-47483D01*
X62938Y-47483D01*
X62878Y-47524D01*
X62697Y-47704D01*
X62612Y-47704D01*
X62456Y-47769D01*
X62336Y-47888D01*
X62271Y-48045D01*
X62271Y-48214D01*
X62336Y-48370D01*
X62455Y-48490D01*
X62611Y-48554D01*
X62781Y-48554D01*
X62937Y-48490D01*
X63056Y-48370D01*
X63121Y-48214D01*
X63121Y-48129D01*
X63122Y-48128D01*
X63202Y-48161D01*
X63371Y-48161D01*
X63527Y-48096D01*
X63647Y-47977D01*
X63712Y-47821D01*
X63712Y-47652D01*
X63712Y-49986D01*
X63702Y-49986D01*
X63702Y-49614D01*
X63671Y-49458D01*
X63671Y-49458D01*
X63636Y-49405D01*
X63583Y-49326D01*
X63583Y-49326D01*
X63575Y-49318D01*
X63443Y-49229D01*
X63287Y-49198D01*
X63131Y-49229D01*
X62999Y-49318D01*
X62910Y-49450D01*
X62879Y-49606D01*
X62887Y-49645D01*
X62887Y-50058D01*
X62850Y-50095D01*
X62840Y-50119D01*
X62834Y-50120D01*
X62804Y-50205D01*
X62797Y-50222D01*
X62755Y-50120D01*
X62749Y-50119D01*
X62740Y-50096D01*
X62593Y-49948D01*
X62569Y-49939D01*
X62568Y-49933D01*
X62483Y-49903D01*
X62400Y-49868D01*
X62385Y-49868D01*
X62371Y-49863D01*
X62281Y-49868D01*
X62191Y-49868D01*
X62177Y-49874D01*
X62162Y-49875D01*
X62022Y-49933D01*
X62020Y-49939D01*
X61998Y-49948D01*
X61850Y-50095D01*
X61840Y-50119D01*
X61834Y-50120D01*
X61804Y-50205D01*
X61770Y-50288D01*
X61770Y-50303D01*
X61765Y-50317D01*
X61770Y-50407D01*
X61770Y-50497D01*
X61771Y-50501D01*
X61627Y-50644D01*
X61627Y-50098D01*
X61596Y-49942D01*
X61508Y-49810D01*
X61376Y-49721D01*
X61220Y-49690D01*
X60829Y-49690D01*
X60791Y-49653D01*
X60768Y-49643D01*
X60766Y-49637D01*
X60682Y-49608D01*
X60598Y-49573D01*
X60584Y-49573D01*
X60569Y-49568D01*
X60480Y-49573D01*
X60390Y-49573D01*
X60376Y-49579D01*
X60361Y-49579D01*
X60221Y-49637D01*
X60219Y-49643D01*
X60197Y-49653D01*
X60159Y-49690D01*
X59940Y-49690D01*
X59785Y-49721D01*
X59652Y-49810D01*
X59564Y-49942D01*
X59533Y-50098D01*
X59564Y-50254D01*
X59652Y-50386D01*
X59785Y-50474D01*
X59940Y-50505D01*
X60159Y-50505D01*
X60196Y-50543D01*
X60219Y-50552D01*
X60221Y-50558D01*
X60306Y-50588D01*
X60389Y-50623D01*
X60404Y-50623D01*
X60418Y-50628D01*
X60508Y-50623D01*
X60598Y-50623D01*
X60611Y-50617D01*
X60626Y-50616D01*
X60766Y-50558D01*
X60768Y-50553D01*
X60791Y-50543D01*
X60829Y-50505D01*
X61220Y-50505D01*
X61376Y-50474D01*
X61508Y-50386D01*
X61596Y-50254D01*
X61627Y-50098D01*
X61627Y-50644D01*
X61391Y-50881D01*
X58687Y-50881D01*
X56966Y-49159D01*
X56868Y-49094D01*
X56753Y-49072D01*
X56608Y-49072D01*
X56608Y-46920D01*
X56792Y-46736D01*
X56834Y-46718D01*
X56954Y-46599D01*
X57019Y-46443D01*
X57019Y-46274D01*
X56954Y-46117D01*
X56835Y-45998D01*
X56679Y-45933D01*
X56510Y-45933D01*
X56354Y-45997D01*
X56234Y-46117D01*
X56216Y-46159D01*
X55912Y-46463D01*
X55824Y-46596D01*
X55808Y-46673D01*
X55799Y-46660D01*
X55667Y-46572D01*
X55511Y-46541D01*
X55336Y-46541D01*
X55336Y-46169D01*
X55305Y-46013D01*
X55305Y-46013D01*
X55270Y-45960D01*
X55217Y-45881D01*
X55217Y-45881D01*
X55209Y-45873D01*
X55077Y-45784D01*
X54921Y-45753D01*
X54765Y-45784D01*
X54633Y-45873D01*
X54544Y-46005D01*
X54513Y-46161D01*
X54521Y-46201D01*
X54521Y-46613D01*
X54484Y-46651D01*
X54474Y-46674D01*
X54468Y-46676D01*
X54438Y-46760D01*
X54431Y-46777D01*
X54389Y-46676D01*
X54383Y-46674D01*
X54374Y-46651D01*
X54226Y-46504D01*
X54203Y-46494D01*
X54201Y-46488D01*
X54117Y-46458D01*
X54034Y-46423D01*
X54019Y-46423D01*
X54004Y-46418D01*
X53915Y-46423D01*
X53825Y-46423D01*
X53811Y-46429D01*
X53796Y-46430D01*
X53656Y-46488D01*
X53654Y-46494D01*
X53632Y-46503D01*
X53484Y-46651D01*
X53474Y-46674D01*
X53468Y-46676D01*
X53438Y-46760D01*
X53404Y-46843D01*
X53404Y-46858D01*
X53399Y-46873D01*
X53404Y-46962D01*
X53404Y-47052D01*
X53409Y-47066D01*
X53410Y-47081D01*
X53468Y-47221D01*
X53474Y-47223D01*
X53483Y-47245D01*
X53521Y-47283D01*
X53521Y-49068D01*
X53521Y-49068D01*
X53552Y-49224D01*
X53641Y-49357D01*
X54691Y-50407D01*
X54691Y-50680D01*
X54729Y-50772D01*
X54799Y-50843D01*
X54891Y-50881D01*
X54991Y-50881D01*
X55442Y-50881D01*
X55541Y-50881D01*
X55541Y-50881D01*
X55541Y-50881D01*
X55587Y-50862D01*
X55632Y-50843D01*
X55633Y-50843D01*
X55633Y-50843D01*
X55668Y-50808D01*
X55703Y-50773D01*
X55703Y-50772D01*
X55703Y-50772D01*
X55722Y-50726D01*
X55741Y-50681D01*
X55741Y-50681D01*
X55741Y-50680D01*
X55741Y-50600D01*
X55741Y-50581D01*
X55741Y-50407D01*
X56477Y-49672D01*
X56629Y-49672D01*
X57449Y-50491D01*
X57381Y-50478D01*
X57225Y-50509D01*
X57093Y-50597D01*
X57005Y-50729D01*
X56974Y-50885D01*
X56974Y-51048D01*
X56940Y-51062D01*
X56870Y-51133D01*
X56855Y-51167D01*
X56851Y-51167D01*
X56750Y-51099D01*
X56594Y-51068D01*
X56438Y-51099D01*
X56306Y-51188D01*
X56218Y-51320D01*
X56187Y-51476D01*
X56218Y-51632D01*
X56306Y-51764D01*
X56404Y-51862D01*
X56404Y-51862D01*
X56484Y-51915D01*
X56536Y-51951D01*
X56536Y-51951D01*
X56692Y-51982D01*
X56855Y-51982D01*
X56860Y-51994D01*
X53025Y-51994D01*
X53025Y-5978D01*
X59111Y-5978D01*
X59062Y-6011D01*
X58973Y-6143D01*
X58942Y-6299D01*
X58950Y-6338D01*
X58950Y-6653D01*
X58913Y-6690D01*
X58903Y-6713D01*
X58897Y-6715D01*
X58883Y-6756D01*
X58883Y-6663D01*
X58883Y-6663D01*
X58883Y-6663D01*
X58864Y-6617D01*
X58845Y-6571D01*
X58845Y-6571D01*
X58845Y-6571D01*
X58810Y-6536D01*
X58775Y-6501D01*
X58774Y-6501D01*
X58774Y-6501D01*
X58728Y-6482D01*
X58683Y-6463D01*
X58682Y-6463D01*
X58682Y-6463D01*
X58602Y-6463D01*
X58583Y-6463D01*
X58033Y-6463D01*
X57941Y-6501D01*
X57871Y-6571D01*
X57833Y-6663D01*
X57833Y-6762D01*
X57833Y-7213D01*
X57833Y-7312D01*
X57833Y-7312D01*
X57833Y-7313D01*
X57852Y-7358D01*
X57871Y-7404D01*
X57871Y-7404D01*
X57871Y-7404D01*
X57906Y-7439D01*
X57941Y-7475D01*
X57941Y-7475D01*
X57941Y-7475D01*
X57987Y-7494D01*
X58033Y-7513D01*
X58033Y-7513D01*
X58033Y-7513D01*
X58114Y-7513D01*
X58132Y-7513D01*
X58682Y-7513D01*
X58774Y-7475D01*
X58845Y-7404D01*
X58883Y-7313D01*
X58883Y-7226D01*
X58897Y-7260D01*
X58903Y-7262D01*
X58912Y-7285D01*
X58950Y-7323D01*
X58950Y-9015D01*
X58913Y-9052D01*
X58903Y-9076D01*
X58897Y-9077D01*
X58883Y-9118D01*
X58883Y-9025D01*
X58883Y-9025D01*
X58883Y-9025D01*
X58864Y-8979D01*
X58845Y-8933D01*
X58845Y-8933D01*
X58845Y-8933D01*
X58810Y-8898D01*
X58775Y-8863D01*
X58774Y-8863D01*
X58774Y-8863D01*
X58728Y-8844D01*
X58683Y-8825D01*
X58682Y-8825D01*
X58682Y-8825D01*
X58602Y-8825D01*
X58583Y-8825D01*
X58033Y-8825D01*
X57941Y-8863D01*
X57871Y-8933D01*
X57833Y-9025D01*
X57833Y-9124D01*
X57833Y-9575D01*
X57833Y-9674D01*
X57833Y-9675D01*
X57833Y-9675D01*
X57852Y-9720D01*
X57871Y-9766D01*
X57871Y-9766D01*
X57871Y-9767D01*
X57906Y-9802D01*
X57941Y-9837D01*
X57941Y-9837D01*
X57941Y-9837D01*
X57987Y-9856D01*
X58033Y-9875D01*
X58033Y-9875D01*
X58033Y-9875D01*
X58114Y-9875D01*
X58132Y-9875D01*
X58682Y-9875D01*
X58774Y-9837D01*
X58845Y-9767D01*
X58883Y-9675D01*
X58883Y-9588D01*
X58897Y-9623D01*
X58903Y-9624D01*
X58912Y-9647D01*
X58950Y-9685D01*
X58950Y-10787D01*
X58913Y-10824D01*
X58903Y-10847D01*
X58897Y-10849D01*
X58867Y-10934D01*
X58860Y-10950D01*
X58818Y-10849D01*
X58812Y-10847D01*
X58803Y-10825D01*
X58656Y-10677D01*
X58632Y-10667D01*
X58631Y-10661D01*
X58546Y-10631D01*
X58463Y-10597D01*
X58448Y-10597D01*
X58434Y-10592D01*
X58344Y-10597D01*
X58254Y-10596D01*
X58240Y-10602D01*
X58225Y-10603D01*
X58085Y-10661D01*
X58083Y-10667D01*
X58061Y-10676D01*
X57913Y-10824D01*
X57903Y-10847D01*
X57897Y-10849D01*
X57867Y-10934D01*
X57833Y-11017D01*
X57833Y-11032D01*
X57828Y-11046D01*
X57833Y-11136D01*
X57833Y-11226D01*
X57838Y-11239D01*
X57839Y-11254D01*
X57897Y-11394D01*
X57903Y-11396D01*
X57912Y-11419D01*
X58060Y-11566D01*
X58083Y-11576D01*
X58085Y-11582D01*
X58170Y-11612D01*
X58250Y-11645D01*
X57213Y-12683D01*
X56917Y-12683D01*
X56904Y-12653D01*
X56904Y-12653D01*
X56904Y-12653D01*
X56898Y-12647D01*
X56904Y-12641D01*
X56942Y-12549D01*
X56942Y-12450D01*
X56942Y-11958D01*
X56942Y-11859D01*
X56942Y-11859D01*
X56942Y-11859D01*
X56923Y-11813D01*
X56904Y-11768D01*
X56904Y-11767D01*
X56904Y-11767D01*
X56869Y-11732D01*
X56834Y-11697D01*
X56834Y-11697D01*
X56834Y-11697D01*
X56788Y-11678D01*
X56742Y-11659D01*
X56742Y-11659D01*
X56742Y-11659D01*
X56660Y-11659D01*
X56643Y-11659D01*
X56052Y-11659D01*
X55960Y-11697D01*
X55890Y-11767D01*
X55852Y-11859D01*
X55852Y-11958D01*
X55852Y-12450D01*
X55852Y-12549D01*
X55852Y-12549D01*
X55852Y-12549D01*
X55871Y-12595D01*
X55890Y-12641D01*
X55890Y-12641D01*
X55890Y-12641D01*
X55896Y-12647D01*
X55890Y-12653D01*
X55878Y-12683D01*
X55708Y-12683D01*
X55552Y-12714D01*
X55420Y-12802D01*
X55332Y-12934D01*
X55301Y-13090D01*
X55332Y-13246D01*
X55420Y-13378D01*
X55552Y-13467D01*
X55708Y-13498D01*
X55878Y-13498D01*
X55890Y-13527D01*
X55890Y-13527D01*
X55890Y-13527D01*
X55925Y-13562D01*
X55960Y-13597D01*
X55960Y-13597D01*
X55960Y-13597D01*
X55990Y-13609D01*
X55990Y-13877D01*
X56021Y-14033D01*
X56109Y-14166D01*
X56241Y-14254D01*
X56397Y-14285D01*
X56553Y-14254D01*
X56685Y-14166D01*
X56774Y-14033D01*
X56805Y-13877D01*
X56805Y-13609D01*
X56834Y-13597D01*
X56904Y-13527D01*
X56917Y-13498D01*
X57381Y-13498D01*
X57381Y-13498D01*
X57381Y-13498D01*
X57537Y-13467D01*
X57670Y-13378D01*
X59401Y-11647D01*
X59462Y-11647D01*
X59476Y-11641D01*
X59491Y-11640D01*
X59631Y-11582D01*
X59632Y-11576D01*
X59655Y-11567D01*
X59693Y-11529D01*
X61515Y-11529D01*
X61515Y-11529D01*
X61515Y-11529D01*
X61671Y-11498D01*
X61803Y-11410D01*
X62599Y-10614D01*
X62642Y-10596D01*
X62761Y-10477D01*
X62826Y-10321D01*
X62826Y-10152D01*
X62762Y-9995D01*
X62642Y-9876D01*
X62486Y-9811D01*
X62317Y-9811D01*
X62161Y-9875D01*
X62041Y-9995D01*
X62023Y-10037D01*
X61346Y-10714D01*
X60331Y-10714D01*
X60415Y-10589D01*
X60446Y-10433D01*
X60415Y-10277D01*
X60327Y-10144D01*
X60195Y-10056D01*
X60039Y-10025D01*
X59883Y-10056D01*
X59765Y-10135D01*
X59765Y-9757D01*
X60137Y-9757D01*
X60293Y-9726D01*
X60425Y-9638D01*
X60514Y-9506D01*
X60545Y-9350D01*
X60514Y-9194D01*
X60425Y-9062D01*
X60293Y-8973D01*
X60137Y-8942D01*
X59765Y-8942D01*
X59765Y-7937D01*
X59792Y-7955D01*
X59792Y-7955D01*
X59948Y-7986D01*
X60680Y-7986D01*
X60717Y-8023D01*
X60741Y-8033D01*
X60742Y-8039D01*
X60827Y-8069D01*
X60910Y-8103D01*
X60925Y-8103D01*
X60939Y-8108D01*
X61029Y-8103D01*
X61119Y-8103D01*
X61133Y-8098D01*
X61148Y-8097D01*
X61288Y-8039D01*
X61290Y-8033D01*
X61312Y-8024D01*
X61460Y-7876D01*
X61470Y-7853D01*
X61476Y-7851D01*
X61506Y-7766D01*
X61513Y-7749D01*
X61555Y-7851D01*
X61561Y-7853D01*
X61570Y-7875D01*
X61717Y-8023D01*
X61741Y-8033D01*
X61742Y-8039D01*
X61827Y-8069D01*
X61910Y-8103D01*
X61925Y-8103D01*
X61939Y-8108D01*
X62029Y-8103D01*
X62119Y-8103D01*
X62133Y-8098D01*
X62148Y-8097D01*
X62288Y-8039D01*
X62290Y-8033D01*
X62312Y-8024D01*
X62460Y-7876D01*
X62470Y-7853D01*
X62476Y-7851D01*
X62506Y-7766D01*
X62540Y-7683D01*
X62540Y-7668D01*
X62545Y-7654D01*
X62540Y-7564D01*
X62540Y-7474D01*
X62535Y-7460D01*
X62534Y-7445D01*
X62476Y-7305D01*
X62470Y-7304D01*
X62461Y-7281D01*
X62313Y-7133D01*
X62290Y-7124D01*
X62288Y-7118D01*
X62237Y-7100D01*
X64299Y-7100D01*
X64778Y-7578D01*
X64440Y-7916D01*
X64440Y-7902D01*
X64440Y-7451D01*
X64440Y-7352D01*
X64440Y-7352D01*
X64440Y-7352D01*
X64421Y-7306D01*
X64402Y-7260D01*
X64402Y-7260D01*
X64402Y-7260D01*
X64367Y-7225D01*
X64332Y-7190D01*
X64331Y-7190D01*
X64331Y-7190D01*
X64285Y-7171D01*
X64240Y-7152D01*
X64240Y-7152D01*
X64239Y-7152D01*
X64159Y-7152D01*
X64140Y-7152D01*
X63590Y-7152D01*
X63498Y-7190D01*
X63428Y-7260D01*
X63390Y-7352D01*
X63390Y-7451D01*
X63390Y-7902D01*
X63390Y-8001D01*
X63390Y-8001D01*
X63390Y-8002D01*
X63409Y-8047D01*
X63428Y-8093D01*
X63428Y-8093D01*
X63428Y-8093D01*
X63463Y-8128D01*
X63498Y-8163D01*
X63498Y-8164D01*
X63498Y-8164D01*
X63544Y-8183D01*
X63590Y-8202D01*
X63590Y-8202D01*
X63590Y-8202D01*
X63671Y-8202D01*
X63689Y-8202D01*
X64195Y-8202D01*
X64190Y-8210D01*
X64159Y-8366D01*
X64190Y-8522D01*
X64278Y-8654D01*
X64410Y-8742D01*
X64566Y-8773D01*
X64722Y-8742D01*
X64855Y-8654D01*
X65308Y-8201D01*
X65310Y-8202D01*
X65325Y-8202D01*
X65339Y-8207D01*
X65367Y-8205D01*
X65446Y-8284D01*
X65446Y-9904D01*
X65385Y-9843D01*
X65385Y-9758D01*
X65321Y-9602D01*
X65201Y-9482D01*
X65045Y-9417D01*
X64876Y-9417D01*
X64720Y-9482D01*
X64600Y-9601D01*
X64535Y-9757D01*
X64535Y-9926D01*
X64600Y-10082D01*
X64719Y-10202D01*
X64875Y-10267D01*
X64961Y-10267D01*
X65054Y-10360D01*
X65054Y-10537D01*
X65042Y-10533D01*
X64959Y-10498D01*
X64944Y-10498D01*
X64930Y-10493D01*
X64840Y-10498D01*
X64750Y-10498D01*
X64736Y-10504D01*
X64721Y-10505D01*
X64581Y-10563D01*
X64579Y-10568D01*
X64557Y-10578D01*
X64409Y-10725D01*
X64399Y-10749D01*
X64393Y-10750D01*
X64363Y-10835D01*
X64329Y-10918D01*
X64329Y-10933D01*
X64324Y-10947D01*
X64329Y-11037D01*
X64329Y-11127D01*
X64334Y-11141D01*
X64335Y-11156D01*
X64393Y-11296D01*
X64399Y-11297D01*
X64408Y-11320D01*
X64446Y-11358D01*
X64446Y-12492D01*
X64446Y-12492D01*
X64477Y-12648D01*
X64566Y-12780D01*
X65832Y-14046D01*
X65832Y-14833D01*
X65815Y-14875D01*
X65815Y-15044D01*
X65832Y-15087D01*
X65832Y-17275D01*
X65696Y-17410D01*
X65687Y-17434D01*
X65681Y-17435D01*
X65651Y-17520D01*
X65616Y-17603D01*
X65616Y-17618D01*
X65611Y-17632D01*
X65616Y-17722D01*
X65616Y-17812D01*
X65622Y-17826D01*
X65623Y-17841D01*
X65681Y-17981D01*
X65687Y-17982D01*
X65696Y-18005D01*
X65843Y-18153D01*
X65867Y-18163D01*
X65868Y-18169D01*
X65953Y-18199D01*
X65970Y-18206D01*
X65868Y-18248D01*
X65867Y-18253D01*
X65844Y-18263D01*
X65696Y-18410D01*
X65687Y-18434D01*
X65681Y-18435D01*
X65651Y-18520D01*
X65616Y-18603D01*
X65616Y-18618D01*
X65611Y-18632D01*
X65612Y-18653D01*
X65361Y-18904D01*
X65273Y-19036D01*
X65242Y-19192D01*
X65273Y-19348D01*
X65361Y-19481D01*
X65493Y-19569D01*
X65649Y-19600D01*
X65805Y-19569D01*
X65937Y-19481D01*
X66137Y-19280D01*
X67450Y-20593D01*
X67450Y-20620D01*
X67450Y-20620D01*
X67450Y-20621D01*
X67545Y-20850D01*
X67640Y-21079D01*
X67640Y-21080D01*
X67641Y-21080D01*
X67641Y-21080D01*
X67642Y-21081D01*
X67991Y-21431D01*
X67992Y-21432D01*
X67992Y-21432D01*
X68221Y-21527D01*
X68293Y-21557D01*
X68293Y-21850D01*
X68324Y-22006D01*
X68412Y-22138D01*
X68544Y-22226D01*
X68700Y-22257D01*
X68856Y-22226D01*
X68988Y-22138D01*
X69077Y-22006D01*
X69108Y-21850D01*
X69108Y-21556D01*
X69178Y-21528D01*
X69407Y-21433D01*
X69408Y-21432D01*
X69408Y-21432D01*
X69408Y-21432D01*
X69409Y-21431D01*
X69759Y-21081D01*
X69760Y-21081D01*
X69760Y-21080D01*
X69855Y-20852D01*
X69885Y-20780D01*
X71680Y-20780D01*
X71942Y-21042D01*
X71942Y-27567D01*
X71942Y-27567D01*
G37*
G54D24*
X71942Y-27567D02*
X71724Y-27349D01*
X71592Y-27261D01*
X71436Y-27230D01*
X71436Y-27230D01*
X71326Y-27230D01*
X71314Y-27200D01*
X71247Y-27134D01*
X71247Y-27134D01*
X71242Y-27107D01*
X71154Y-26975D01*
X71154Y-26975D01*
X69874Y-25696D01*
X69742Y-25607D01*
X69586Y-25576D01*
X69586Y-25576D01*
X69193Y-25576D01*
X69193Y-23993D01*
X69188Y-23903D01*
X69188Y-23813D01*
X69182Y-23799D01*
X69181Y-23784D01*
X69123Y-23644D01*
X69118Y-23642D01*
X69108Y-23620D01*
X68961Y-23472D01*
X68937Y-23462D01*
X68936Y-23456D01*
X68851Y-23426D01*
X68768Y-23392D01*
X68753Y-23392D01*
X68739Y-23387D01*
X68649Y-23392D01*
X68559Y-23392D01*
X68545Y-23397D01*
X68530Y-23398D01*
X68390Y-23456D01*
X68389Y-23462D01*
X68366Y-23471D01*
X68218Y-23619D01*
X68208Y-23642D01*
X68202Y-23644D01*
X68172Y-23729D01*
X68138Y-23812D01*
X68138Y-23827D01*
X68133Y-23841D01*
X68138Y-23931D01*
X68138Y-24021D01*
X68144Y-24035D01*
X68144Y-24050D01*
X68202Y-24190D01*
X68208Y-24191D01*
X68218Y-24214D01*
X68365Y-24362D01*
X68389Y-24371D01*
X68390Y-24377D01*
X68475Y-24407D01*
X68558Y-24442D01*
X68573Y-24442D01*
X68587Y-24447D01*
X68677Y-24442D01*
X68767Y-24442D01*
X68781Y-24436D01*
X68796Y-24435D01*
X68936Y-24377D01*
X68937Y-24372D01*
X68960Y-24362D01*
X69108Y-24215D01*
X69117Y-24191D01*
X69123Y-24190D01*
X69153Y-24105D01*
X69188Y-24022D01*
X69188Y-24007D01*
X69193Y-23993D01*
X69193Y-25576D01*
X68496Y-25576D01*
X68496Y-25576D01*
X68340Y-25607D01*
X68207Y-25696D01*
X68207Y-25696D01*
X67688Y-26215D01*
X67688Y-24142D01*
X67688Y-23691D01*
X67688Y-23592D01*
X67688Y-23592D01*
X67688Y-23592D01*
X67669Y-23546D01*
X67650Y-23500D01*
X67650Y-23500D01*
X67650Y-23500D01*
X67615Y-23465D01*
X67580Y-23430D01*
X67579Y-23430D01*
X67579Y-23430D01*
X67533Y-23411D01*
X67488Y-23392D01*
X67488Y-23392D01*
X67487Y-23392D01*
X67407Y-23392D01*
X67388Y-23392D01*
X66838Y-23392D01*
X66746Y-23430D01*
X66676Y-23500D01*
X66638Y-23592D01*
X66638Y-23691D01*
X66638Y-24142D01*
X66638Y-24241D01*
X66638Y-24242D01*
X66638Y-24242D01*
X66657Y-24287D01*
X66676Y-24333D01*
X66676Y-24333D01*
X66676Y-24334D01*
X66711Y-24369D01*
X66746Y-24404D01*
X66746Y-24404D01*
X66746Y-24404D01*
X66792Y-24423D01*
X66838Y-24442D01*
X66838Y-24442D01*
X66838Y-24442D01*
X66919Y-24442D01*
X66937Y-24442D01*
X67487Y-24442D01*
X67579Y-24404D01*
X67650Y-24334D01*
X67688Y-24242D01*
X67688Y-24142D01*
X67688Y-26215D01*
X67657Y-26246D01*
X67604Y-26246D01*
X67590Y-26252D01*
X67575Y-26253D01*
X67435Y-26311D01*
X67434Y-26316D01*
X67411Y-26326D01*
X67263Y-26473D01*
X67254Y-26497D01*
X67248Y-26498D01*
X67218Y-26583D01*
X67183Y-26666D01*
X67183Y-26681D01*
X67178Y-26695D01*
X67183Y-26785D01*
X67183Y-26875D01*
X67189Y-26889D01*
X67190Y-26904D01*
X67248Y-27044D01*
X67253Y-27045D01*
X67263Y-27068D01*
X67410Y-27216D01*
X67434Y-27226D01*
X67435Y-27232D01*
X67520Y-27262D01*
X67603Y-27296D01*
X67618Y-27296D01*
X67632Y-27301D01*
X67722Y-27296D01*
X67812Y-27296D01*
X67826Y-27291D01*
X67841Y-27290D01*
X67981Y-27232D01*
X67982Y-27226D01*
X68005Y-27216D01*
X68153Y-27069D01*
X68163Y-27046D01*
X68169Y-27044D01*
X68199Y-26959D01*
X68206Y-26942D01*
X68248Y-27044D01*
X68253Y-27045D01*
X68263Y-27068D01*
X68410Y-27216D01*
X68434Y-27226D01*
X68435Y-27232D01*
X68520Y-27262D01*
X68603Y-27296D01*
X68618Y-27296D01*
X68632Y-27301D01*
X68653Y-27300D01*
X69277Y-27924D01*
X69277Y-28153D01*
X69258Y-28106D01*
X69138Y-27986D01*
X68982Y-27921D01*
X68896Y-27921D01*
X68525Y-27550D01*
X68470Y-27417D01*
X68351Y-27297D01*
X68195Y-27232D01*
X68026Y-27232D01*
X67869Y-27296D01*
X67750Y-27416D01*
X67685Y-27572D01*
X67685Y-27741D01*
X67749Y-27897D01*
X67869Y-28017D01*
X68025Y-28082D01*
X68194Y-28082D01*
X68205Y-28078D01*
X68472Y-28345D01*
X68472Y-28430D01*
X68506Y-28512D01*
X68419Y-28511D01*
X68263Y-28576D01*
X68143Y-28695D01*
X68079Y-28852D01*
X68078Y-29021D01*
X68143Y-29177D01*
X68262Y-29297D01*
X68419Y-29361D01*
X68563Y-29362D01*
X68558Y-29363D01*
X68439Y-29483D01*
X68374Y-29639D01*
X68374Y-29808D01*
X68438Y-29964D01*
X68558Y-30084D01*
X68714Y-30149D01*
X68799Y-30149D01*
X69358Y-30707D01*
X69358Y-30792D01*
X69422Y-30949D01*
X69542Y-31068D01*
X69698Y-31133D01*
X69769Y-31133D01*
X69769Y-31622D01*
X69396Y-31995D01*
X69308Y-32127D01*
X69277Y-32283D01*
X69277Y-32283D01*
X69277Y-33074D01*
X69258Y-33027D01*
X69138Y-32907D01*
X68982Y-32842D01*
X68813Y-32842D01*
X68657Y-32907D01*
X68596Y-32967D01*
X68405Y-32967D01*
X67229Y-32967D01*
X67229Y-31206D01*
X67289Y-31146D01*
X67354Y-30990D01*
X67354Y-30821D01*
X67289Y-30665D01*
X67229Y-30604D01*
X67229Y-29356D01*
X67239Y-29345D01*
X67239Y-29345D01*
X67304Y-29248D01*
X67327Y-29133D01*
X67327Y-29133D01*
X67327Y-29041D01*
X67387Y-28981D01*
X67452Y-28825D01*
X67452Y-28655D01*
X67388Y-28499D01*
X67268Y-28380D01*
X67112Y-28315D01*
X66943Y-28315D01*
X66900Y-28332D01*
X66367Y-28332D01*
X66325Y-28315D01*
X66155Y-28315D01*
X66087Y-28343D01*
X66087Y-28343D01*
X65985Y-28363D01*
X65853Y-28452D01*
X65853Y-28452D01*
X65643Y-28662D01*
X65616Y-28598D01*
X65496Y-28478D01*
X65454Y-28460D01*
X65347Y-28353D01*
X65214Y-28265D01*
X65059Y-28234D01*
X65059Y-28234D01*
X63484Y-28234D01*
X63484Y-28234D01*
X63453Y-28240D01*
X63328Y-28265D01*
X63196Y-28353D01*
X63196Y-28353D01*
X63139Y-28409D01*
X62984Y-28255D01*
X62852Y-28166D01*
X62696Y-28135D01*
X62696Y-28135D01*
X61220Y-28135D01*
X61220Y-28135D01*
X61064Y-28166D01*
X60932Y-28255D01*
X60932Y-28255D01*
X60756Y-28431D01*
X59940Y-28431D01*
X59940Y-28431D01*
X59909Y-28437D01*
X59785Y-28462D01*
X59775Y-28468D01*
X59775Y-28459D01*
X59710Y-28302D01*
X59591Y-28183D01*
X59435Y-28118D01*
X59313Y-28118D01*
X59769Y-27662D01*
X61023Y-27662D01*
X61023Y-27662D01*
X61138Y-27639D01*
X61138Y-27639D01*
X61235Y-27574D01*
X61976Y-26833D01*
X61976Y-26954D01*
X62041Y-27110D01*
X62160Y-27230D01*
X62316Y-27295D01*
X62485Y-27295D01*
X62642Y-27230D01*
X62702Y-27170D01*
X63478Y-27170D01*
X63538Y-27230D01*
X63694Y-27295D01*
X63863Y-27295D01*
X63944Y-27261D01*
X64059Y-27377D01*
X64156Y-27442D01*
X64271Y-27465D01*
X66504Y-27465D01*
X66504Y-27544D01*
X66568Y-27701D01*
X66688Y-27820D01*
X66844Y-27885D01*
X67013Y-27885D01*
X67169Y-27821D01*
X67289Y-27701D01*
X67354Y-27545D01*
X67354Y-27376D01*
X67289Y-27220D01*
X67170Y-27100D01*
X67014Y-27035D01*
X66928Y-27035D01*
X66845Y-26953D01*
X66748Y-26888D01*
X66633Y-26865D01*
X65680Y-26865D01*
X65680Y-26785D01*
X65616Y-26629D01*
X65555Y-26569D01*
X65555Y-26507D01*
X65635Y-26507D01*
X65791Y-26443D01*
X65911Y-26323D01*
X65976Y-26167D01*
X65976Y-25998D01*
X65918Y-25859D01*
X66056Y-25917D01*
X66225Y-25917D01*
X66382Y-25852D01*
X66501Y-25733D01*
X66566Y-25577D01*
X66566Y-25407D01*
X66502Y-25251D01*
X66441Y-25191D01*
X66441Y-22342D01*
X66418Y-22227D01*
X66353Y-22130D01*
X66353Y-22130D01*
X64866Y-20643D01*
X64866Y-15874D01*
X64875Y-15877D01*
X65044Y-15877D01*
X65201Y-15813D01*
X65320Y-15693D01*
X65385Y-15537D01*
X65385Y-15387D01*
X65442Y-15387D01*
X65443Y-15387D01*
X65443Y-15387D01*
X65489Y-15368D01*
X65534Y-15349D01*
X65534Y-15349D01*
X65535Y-15349D01*
X65570Y-15314D01*
X65605Y-15279D01*
X65605Y-15278D01*
X65605Y-15278D01*
X65624Y-15232D01*
X65643Y-15187D01*
X65643Y-15186D01*
X65643Y-15186D01*
X65643Y-15121D01*
X65643Y-15087D01*
X65643Y-14772D01*
X65639Y-14763D01*
X65643Y-14755D01*
X65643Y-14754D01*
X65643Y-14754D01*
X65643Y-14689D01*
X65643Y-14655D01*
X65643Y-14340D01*
X65605Y-14248D01*
X65537Y-14181D01*
X65537Y-14181D01*
X65533Y-14156D01*
X65468Y-14059D01*
X65385Y-13977D01*
X65385Y-13892D01*
X65321Y-13735D01*
X65201Y-13616D01*
X65045Y-13551D01*
X64876Y-13551D01*
X64720Y-13615D01*
X64600Y-13735D01*
X64580Y-13782D01*
X64512Y-13714D01*
X64356Y-13649D01*
X64187Y-13649D01*
X64031Y-13714D01*
X63958Y-13787D01*
X63864Y-13748D01*
X63695Y-13748D01*
X63539Y-13812D01*
X63419Y-13932D01*
X63354Y-14088D01*
X63354Y-14257D01*
X63419Y-14413D01*
X63479Y-14474D01*
X63479Y-21027D01*
X62800Y-20348D01*
X62800Y-12013D01*
X62860Y-11953D01*
X62924Y-11797D01*
X62925Y-11628D01*
X62860Y-11472D01*
X62741Y-11352D01*
X62584Y-11287D01*
X62415Y-11287D01*
X62259Y-11352D01*
X62139Y-11471D01*
X62093Y-11583D01*
X62092Y-11582D01*
X61923Y-11582D01*
X61767Y-11647D01*
X61647Y-11766D01*
X61586Y-11913D01*
X61502Y-11878D01*
X61333Y-11878D01*
X61176Y-11942D01*
X61057Y-12062D01*
X61010Y-12173D01*
X61010Y-12173D01*
X60841Y-12173D01*
X60684Y-12237D01*
X60565Y-12357D01*
X60518Y-12469D01*
X60517Y-12468D01*
X60348Y-12468D01*
X60192Y-12533D01*
X60119Y-12606D01*
X60025Y-12567D01*
X59856Y-12567D01*
X59744Y-12613D01*
X59632Y-12567D01*
X59463Y-12567D01*
X59306Y-12631D01*
X59187Y-12751D01*
X59122Y-12907D01*
X59122Y-13076D01*
X59186Y-13232D01*
X59247Y-13293D01*
X59247Y-16803D01*
X59238Y-16799D01*
X59069Y-16799D01*
X58913Y-16863D01*
X58907Y-16869D01*
X58902Y-16864D01*
X58746Y-16799D01*
X58673Y-16799D01*
X58628Y-16688D01*
X58622Y-16683D01*
X58627Y-16678D01*
X58692Y-16521D01*
X58692Y-16352D01*
X58628Y-16196D01*
X58622Y-16191D01*
X58627Y-16185D01*
X58692Y-16029D01*
X58692Y-15860D01*
X58628Y-15704D01*
X58622Y-15698D01*
X58627Y-15693D01*
X58692Y-15537D01*
X58692Y-15368D01*
X58628Y-15212D01*
X58508Y-15092D01*
X58352Y-15027D01*
X58183Y-15027D01*
X58027Y-15092D01*
X57907Y-15211D01*
X57842Y-15367D01*
X57842Y-15536D01*
X57847Y-15547D01*
X56972Y-16421D01*
X56907Y-16519D01*
X56885Y-16633D01*
X56885Y-17493D01*
X55791Y-18587D01*
X55726Y-18684D01*
X55703Y-18799D01*
X55703Y-34443D01*
X55643Y-34503D01*
X55579Y-34659D01*
X55578Y-34828D01*
X55643Y-34984D01*
X55762Y-35104D01*
X55919Y-35169D01*
X56088Y-35169D01*
X56244Y-35104D01*
X56364Y-34985D01*
X56369Y-34972D01*
X56481Y-34972D01*
X56638Y-34907D01*
X56757Y-34788D01*
X56822Y-34632D01*
X56822Y-34463D01*
X56789Y-34381D01*
X56875Y-34381D01*
X57031Y-34317D01*
X57151Y-34197D01*
X57156Y-34184D01*
X57269Y-34184D01*
X57425Y-34120D01*
X57545Y-34000D01*
X57550Y-33987D01*
X57662Y-33988D01*
X57819Y-33923D01*
X57938Y-33804D01*
X57944Y-33791D01*
X58056Y-33791D01*
X58212Y-33726D01*
X58332Y-33607D01*
X58397Y-33451D01*
X58397Y-33281D01*
X58332Y-33125D01*
X58272Y-33065D01*
X58272Y-30247D01*
X58351Y-30247D01*
X58508Y-30183D01*
X58627Y-30063D01*
X58692Y-29907D01*
X58692Y-29738D01*
X58683Y-29715D01*
X59244Y-29102D01*
X59238Y-29133D01*
X59238Y-29133D01*
X59238Y-29555D01*
X59160Y-29633D01*
X59072Y-29765D01*
X59041Y-29921D01*
X59041Y-29921D01*
X59041Y-32972D01*
X59041Y-32972D01*
X59072Y-33128D01*
X59126Y-33210D01*
X59062Y-33274D01*
X58973Y-33407D01*
X58942Y-33562D01*
X58942Y-33562D01*
X58942Y-34251D01*
X58942Y-34251D01*
X58973Y-34407D01*
X59062Y-34540D01*
X59259Y-34736D01*
X59259Y-34736D01*
X59318Y-34776D01*
X59318Y-34776D01*
X59357Y-34835D01*
X59512Y-34990D01*
X58021Y-36480D01*
X57538Y-35997D01*
X57538Y-35576D01*
X57538Y-35477D01*
X57538Y-35477D01*
X57538Y-35476D01*
X57519Y-35431D01*
X57500Y-35385D01*
X57500Y-35385D01*
X57500Y-35384D01*
X57464Y-35349D01*
X57429Y-35314D01*
X57429Y-35314D01*
X57429Y-35314D01*
X57383Y-35295D01*
X57338Y-35276D01*
X57337Y-35276D01*
X57337Y-35276D01*
X57255Y-35276D01*
X57238Y-35276D01*
X56638Y-35276D01*
X56546Y-35314D01*
X56476Y-35384D01*
X56438Y-35476D01*
X56438Y-35576D01*
X56438Y-36077D01*
X56438Y-36176D01*
X56438Y-36176D01*
X56438Y-36176D01*
X56457Y-36222D01*
X56476Y-36268D01*
X56476Y-36268D01*
X56476Y-36268D01*
X56511Y-36303D01*
X56546Y-36338D01*
X56546Y-36338D01*
X56546Y-36338D01*
X56592Y-36357D01*
X56638Y-36376D01*
X56638Y-36376D01*
X56638Y-36376D01*
X56720Y-36376D01*
X56737Y-36376D01*
X56765Y-36376D01*
X57785Y-37396D01*
X56600Y-37396D01*
X56540Y-37336D01*
X56384Y-37271D01*
X56215Y-37271D01*
X56058Y-37336D01*
X55939Y-37455D01*
X55874Y-37611D01*
X55874Y-37781D01*
X55938Y-37937D01*
X56058Y-38056D01*
X56214Y-38121D01*
X56383Y-38121D01*
X56539Y-38057D01*
X56600Y-37996D01*
X58178Y-37996D01*
X57705Y-38470D01*
X56918Y-38470D01*
X56876Y-38453D01*
X56707Y-38452D01*
X56550Y-38517D01*
X56431Y-38636D01*
X56366Y-38793D01*
X56366Y-38962D01*
X56430Y-39118D01*
X56550Y-39238D01*
X56706Y-39302D01*
X56875Y-39303D01*
X56918Y-39285D01*
X57466Y-39285D01*
X57466Y-42843D01*
X57001Y-43307D01*
X57001Y-40354D01*
X56970Y-40198D01*
X56882Y-40066D01*
X56750Y-39977D01*
X56594Y-39946D01*
X56438Y-39977D01*
X56384Y-40013D01*
X55988Y-40013D01*
X55930Y-39955D01*
X55907Y-39945D01*
X55905Y-39940D01*
X55816Y-39907D01*
X55727Y-39871D01*
X55713Y-39871D01*
X55699Y-39866D01*
X55604Y-39871D01*
X55509Y-39871D01*
X55495Y-39876D01*
X55481Y-39877D01*
X55418Y-39903D01*
X55418Y-37702D01*
X55478Y-37642D01*
X55543Y-37486D01*
X55543Y-37317D01*
X55478Y-37161D01*
X55359Y-37041D01*
X55203Y-36976D01*
X55033Y-36976D01*
X54877Y-37041D01*
X54827Y-37091D01*
X54827Y-32708D01*
X54907Y-32708D01*
X55063Y-32643D01*
X55182Y-32524D01*
X55247Y-32368D01*
X55247Y-32199D01*
X55183Y-32043D01*
X55063Y-31923D01*
X54907Y-31858D01*
X54738Y-31858D01*
X54582Y-31922D01*
X54462Y-32042D01*
X54397Y-32198D01*
X54397Y-32284D01*
X54315Y-32366D01*
X54250Y-32463D01*
X54227Y-32578D01*
X54227Y-38852D01*
X53724Y-39354D01*
X53659Y-39452D01*
X53637Y-39566D01*
X53637Y-41830D01*
X53659Y-41945D01*
X53724Y-42042D01*
X54065Y-42383D01*
X54068Y-42434D01*
X54068Y-42530D01*
X54073Y-42543D01*
X54074Y-42558D01*
X54136Y-42709D01*
X54142Y-42710D01*
X54151Y-42732D01*
X54306Y-42887D01*
X54328Y-42896D01*
X54330Y-42902D01*
X54378Y-42919D01*
X54330Y-42940D01*
X54328Y-42945D01*
X54306Y-42954D01*
X54152Y-43109D01*
X54142Y-43131D01*
X54136Y-43133D01*
X54104Y-43223D01*
X54068Y-43311D01*
X54068Y-43325D01*
X54063Y-43339D01*
X54068Y-43434D01*
X54068Y-43530D01*
X54073Y-43543D01*
X54074Y-43558D01*
X54136Y-43709D01*
X54142Y-43710D01*
X54151Y-43732D01*
X54306Y-43887D01*
X54328Y-43896D01*
X54330Y-43902D01*
X54378Y-43919D01*
X54330Y-43940D01*
X54328Y-43945D01*
X54306Y-43954D01*
X54152Y-44109D01*
X54147Y-44121D01*
X54092Y-44121D01*
X53657Y-43685D01*
X53559Y-43620D01*
X53444Y-43597D01*
X53330Y-43620D01*
X53232Y-43685D01*
X53167Y-43782D01*
X53144Y-43897D01*
X53167Y-44012D01*
X53232Y-44109D01*
X53756Y-44633D01*
X53853Y-44698D01*
X53853Y-44698D01*
X53968Y-44721D01*
X54146Y-44721D01*
X54151Y-44732D01*
X54306Y-44887D01*
X54328Y-44896D01*
X54330Y-44902D01*
X54420Y-44934D01*
X54508Y-44971D01*
X54522Y-44971D01*
X54536Y-44976D01*
X54631Y-44971D01*
X54727Y-44971D01*
X54740Y-44965D01*
X54754Y-44965D01*
X54905Y-44902D01*
X54907Y-44896D01*
X54929Y-44887D01*
X55084Y-44733D01*
X55093Y-44710D01*
X55099Y-44709D01*
X55116Y-44660D01*
X55136Y-44709D01*
X55142Y-44710D01*
X55151Y-44732D01*
X55210Y-44791D01*
X55210Y-44908D01*
X55135Y-45021D01*
X55104Y-45177D01*
X55135Y-45333D01*
X55223Y-45465D01*
X55355Y-45553D01*
X55511Y-45584D01*
X55667Y-45553D01*
X55799Y-45465D01*
X55906Y-45358D01*
X55906Y-45358D01*
X55906Y-45358D01*
X55994Y-45226D01*
X55994Y-45226D01*
X56025Y-45070D01*
X56025Y-44791D01*
X56084Y-44733D01*
X56093Y-44710D01*
X56099Y-44709D01*
X56131Y-44619D01*
X56168Y-44531D01*
X56168Y-44516D01*
X56172Y-44503D01*
X56168Y-44407D01*
X56168Y-44312D01*
X56162Y-44298D01*
X56161Y-44284D01*
X56099Y-44133D01*
X56093Y-44131D01*
X56084Y-44110D01*
X55930Y-43955D01*
X55907Y-43945D01*
X55905Y-43940D01*
X55857Y-43922D01*
X55905Y-43902D01*
X55907Y-43896D01*
X55929Y-43887D01*
X56084Y-43733D01*
X56093Y-43710D01*
X56099Y-43709D01*
X56131Y-43619D01*
X56168Y-43531D01*
X56168Y-43516D01*
X56172Y-43503D01*
X56168Y-43407D01*
X56168Y-43312D01*
X56162Y-43298D01*
X56161Y-43284D01*
X56099Y-43133D01*
X56093Y-43131D01*
X56084Y-43110D01*
X55930Y-42955D01*
X55907Y-42945D01*
X55905Y-42940D01*
X55857Y-42922D01*
X55905Y-42902D01*
X55907Y-42896D01*
X55929Y-42887D01*
X56084Y-42733D01*
X56093Y-42710D01*
X56099Y-42709D01*
X56131Y-42619D01*
X56168Y-42531D01*
X56168Y-42516D01*
X56172Y-42503D01*
X56168Y-42407D01*
X56168Y-42334D01*
X56214Y-42354D01*
X56383Y-42354D01*
X56539Y-42289D01*
X56659Y-42170D01*
X56724Y-42014D01*
X56724Y-41844D01*
X56659Y-41688D01*
X56540Y-41569D01*
X56384Y-41504D01*
X56215Y-41504D01*
X56168Y-41523D01*
X56168Y-41516D01*
X56172Y-41503D01*
X56168Y-41407D01*
X56168Y-41312D01*
X56162Y-41298D01*
X56161Y-41284D01*
X56099Y-41133D01*
X56093Y-41131D01*
X56084Y-41110D01*
X55930Y-40955D01*
X55907Y-40945D01*
X55905Y-40940D01*
X55857Y-40922D01*
X55905Y-40902D01*
X55907Y-40896D01*
X55929Y-40887D01*
X55988Y-40828D01*
X56527Y-40828D01*
X56527Y-40828D01*
X56527Y-40828D01*
X56683Y-40797D01*
X56815Y-40709D01*
X56882Y-40642D01*
X56970Y-40510D01*
X57001Y-40354D01*
X57001Y-43307D01*
X56789Y-43519D01*
X56747Y-43537D01*
X56628Y-43656D01*
X56563Y-43812D01*
X56563Y-43981D01*
X56627Y-44138D01*
X56747Y-44257D01*
X56903Y-44322D01*
X57072Y-44322D01*
X57228Y-44258D01*
X57348Y-44138D01*
X57365Y-44096D01*
X58162Y-43299D01*
X58162Y-43299D01*
X58162Y-43299D01*
X58250Y-43167D01*
X58250Y-43167D01*
X58281Y-43011D01*
X58281Y-42516D01*
X58407Y-42600D01*
X58562Y-42631D01*
X58602Y-42624D01*
X58621Y-42624D01*
X58658Y-42661D01*
X58682Y-42671D01*
X58683Y-42677D01*
X58768Y-42706D01*
X58785Y-42713D01*
X58683Y-42755D01*
X58682Y-42761D01*
X58659Y-42771D01*
X58511Y-42918D01*
X58502Y-42942D01*
X58496Y-42943D01*
X58466Y-43028D01*
X58431Y-43111D01*
X58431Y-43126D01*
X58426Y-43140D01*
X58431Y-43230D01*
X58431Y-43255D01*
X57675Y-44011D01*
X57633Y-44029D01*
X57513Y-44148D01*
X57449Y-44304D01*
X57448Y-44473D01*
X57466Y-44516D01*
X57466Y-46062D01*
X57466Y-46062D01*
X57497Y-46218D01*
X57585Y-46351D01*
X58373Y-47138D01*
X58373Y-47138D01*
X58505Y-47226D01*
X58661Y-47257D01*
X58661Y-47257D01*
X58661Y-47257D01*
X59041Y-47257D01*
X59041Y-48551D01*
X58705Y-48887D01*
X58617Y-49019D01*
X58586Y-49175D01*
X58586Y-49175D01*
X58586Y-49607D01*
X58577Y-49611D01*
X58507Y-49681D01*
X58469Y-49773D01*
X58469Y-49872D01*
X58469Y-50323D01*
X58469Y-50422D01*
X58469Y-50423D01*
X58469Y-50423D01*
X58488Y-50469D01*
X58507Y-50514D01*
X58507Y-50515D01*
X58507Y-50515D01*
X58542Y-50550D01*
X58577Y-50585D01*
X58577Y-50585D01*
X58577Y-50585D01*
X58623Y-50604D01*
X58669Y-50623D01*
X58669Y-50623D01*
X58669Y-50623D01*
X58749Y-50623D01*
X58768Y-50623D01*
X59318Y-50623D01*
X59410Y-50585D01*
X59480Y-50515D01*
X59519Y-50423D01*
X59519Y-50323D01*
X59519Y-49872D01*
X59519Y-49773D01*
X59519Y-49773D01*
X59519Y-49773D01*
X59500Y-49727D01*
X59481Y-49681D01*
X59480Y-49681D01*
X59480Y-49681D01*
X59445Y-49646D01*
X59410Y-49611D01*
X59410Y-49611D01*
X59410Y-49611D01*
X59401Y-49607D01*
X59401Y-49343D01*
X59736Y-49008D01*
X59736Y-49008D01*
X59736Y-49008D01*
X59825Y-48876D01*
X59825Y-48876D01*
X59856Y-48720D01*
X59856Y-47257D01*
X60925Y-47257D01*
X60925Y-47257D01*
X60925Y-47257D01*
X61081Y-47226D01*
X61213Y-47138D01*
X61290Y-47061D01*
X64341Y-47061D01*
X64383Y-47078D01*
X64552Y-47078D01*
X64562Y-47074D01*
X64562Y-47927D01*
X64502Y-47987D01*
X64437Y-48143D01*
X64437Y-48312D01*
X64501Y-48468D01*
X64621Y-48588D01*
X64777Y-48653D01*
X64946Y-48653D01*
X65102Y-48588D01*
X65222Y-48469D01*
X65287Y-48313D01*
X65287Y-48144D01*
X65222Y-47987D01*
X65162Y-47927D01*
X65162Y-46456D01*
X65162Y-46456D01*
X65139Y-46341D01*
X65074Y-46244D01*
X65074Y-46244D01*
X63055Y-44225D01*
X63057Y-44220D01*
X63057Y-44205D01*
X63062Y-44192D01*
X63057Y-44096D01*
X63057Y-44001D01*
X63052Y-43987D01*
X63051Y-43973D01*
X62989Y-43822D01*
X62983Y-43820D01*
X62974Y-43799D01*
X62819Y-43644D01*
X62797Y-43634D01*
X62795Y-43628D01*
X62747Y-43611D01*
X62795Y-43591D01*
X62797Y-43585D01*
X62819Y-43576D01*
X62973Y-43422D01*
X62983Y-43399D01*
X62989Y-43398D01*
X63021Y-43308D01*
X63057Y-43220D01*
X63057Y-43205D01*
X63062Y-43192D01*
X63057Y-43096D01*
X63057Y-43001D01*
X63053Y-42989D01*
X63885Y-42157D01*
X63962Y-42157D01*
X64118Y-42092D01*
X64238Y-41973D01*
X64302Y-41817D01*
X64303Y-41648D01*
X64238Y-41491D01*
X64177Y-41431D01*
X64177Y-40059D01*
X64177Y-40059D01*
X64155Y-39944D01*
X64090Y-39846D01*
X64090Y-39846D01*
X63318Y-39075D01*
X63318Y-38990D01*
X63254Y-38834D01*
X63204Y-38784D01*
X64257Y-38784D01*
X64257Y-40916D01*
X64240Y-40958D01*
X64240Y-41127D01*
X64304Y-41283D01*
X64424Y-41403D01*
X64580Y-41468D01*
X64749Y-41468D01*
X64848Y-41427D01*
X64848Y-42719D01*
X64797Y-42770D01*
X64732Y-42926D01*
X64732Y-43095D01*
X64796Y-43252D01*
X64916Y-43371D01*
X64958Y-43389D01*
X65438Y-43869D01*
X65438Y-48748D01*
X64201Y-49986D01*
X63712Y-49986D01*
X63712Y-47652D01*
X63647Y-47495D01*
X63528Y-47376D01*
X63372Y-47311D01*
X63203Y-47311D01*
X63046Y-47375D01*
X62938Y-47483D01*
X62938Y-47483D01*
X62878Y-47524D01*
X62697Y-47704D01*
X62612Y-47704D01*
X62456Y-47769D01*
X62336Y-47888D01*
X62271Y-48045D01*
X62271Y-48214D01*
X62336Y-48370D01*
X62455Y-48490D01*
X62611Y-48554D01*
X62781Y-48554D01*
X62937Y-48490D01*
X63056Y-48370D01*
X63121Y-48214D01*
X63121Y-48129D01*
X63122Y-48128D01*
X63202Y-48161D01*
X63371Y-48161D01*
X63527Y-48096D01*
X63647Y-47977D01*
X63712Y-47821D01*
X63712Y-47652D01*
X63712Y-49986D01*
X63702Y-49986D01*
X63702Y-49614D01*
X63671Y-49458D01*
X63671Y-49458D01*
X63636Y-49405D01*
X63583Y-49326D01*
X63583Y-49326D01*
X63575Y-49318D01*
X63443Y-49229D01*
X63287Y-49198D01*
X63131Y-49229D01*
X62999Y-49318D01*
X62910Y-49450D01*
X62879Y-49606D01*
X62887Y-49645D01*
X62887Y-50058D01*
X62850Y-50095D01*
X62840Y-50119D01*
X62834Y-50120D01*
X62804Y-50205D01*
X62797Y-50222D01*
X62755Y-50120D01*
X62749Y-50119D01*
X62740Y-50096D01*
X62593Y-49948D01*
X62569Y-49939D01*
X62568Y-49933D01*
X62483Y-49903D01*
X62400Y-49868D01*
X62385Y-49868D01*
X62371Y-49863D01*
X62281Y-49868D01*
X62191Y-49868D01*
X62177Y-49874D01*
X62162Y-49875D01*
X62022Y-49933D01*
X62020Y-49939D01*
X61998Y-49948D01*
X61850Y-50095D01*
X61840Y-50119D01*
X61834Y-50120D01*
X61804Y-50205D01*
X61770Y-50288D01*
X61770Y-50303D01*
X61765Y-50317D01*
X61770Y-50407D01*
X61770Y-50497D01*
X61771Y-50501D01*
X61627Y-50644D01*
X61627Y-50098D01*
X61596Y-49942D01*
X61508Y-49810D01*
X61376Y-49721D01*
X61220Y-49690D01*
X60829Y-49690D01*
X60791Y-49653D01*
X60768Y-49643D01*
X60766Y-49637D01*
X60682Y-49608D01*
X60598Y-49573D01*
X60584Y-49573D01*
X60569Y-49568D01*
X60480Y-49573D01*
X60390Y-49573D01*
X60376Y-49579D01*
X60361Y-49579D01*
X60221Y-49637D01*
X60219Y-49643D01*
X60197Y-49653D01*
X60159Y-49690D01*
X59940Y-49690D01*
X59785Y-49721D01*
X59652Y-49810D01*
X59564Y-49942D01*
X59533Y-50098D01*
X59564Y-50254D01*
X59652Y-50386D01*
X59785Y-50474D01*
X59940Y-50505D01*
X60159Y-50505D01*
X60196Y-50543D01*
X60219Y-50552D01*
X60221Y-50558D01*
X60306Y-50588D01*
X60389Y-50623D01*
X60404Y-50623D01*
X60418Y-50628D01*
X60508Y-50623D01*
X60598Y-50623D01*
X60611Y-50617D01*
X60626Y-50616D01*
X60766Y-50558D01*
X60768Y-50553D01*
X60791Y-50543D01*
X60829Y-50505D01*
X61220Y-50505D01*
X61376Y-50474D01*
X61508Y-50386D01*
X61596Y-50254D01*
X61627Y-50098D01*
X61627Y-50644D01*
X61391Y-50881D01*
X58687Y-50881D01*
X56966Y-49159D01*
X56868Y-49094D01*
X56753Y-49072D01*
X56608Y-49072D01*
X56608Y-46920D01*
X56792Y-46736D01*
X56834Y-46718D01*
X56954Y-46599D01*
X57019Y-46443D01*
X57019Y-46274D01*
X56954Y-46117D01*
X56835Y-45998D01*
X56679Y-45933D01*
X56510Y-45933D01*
X56354Y-45997D01*
X56234Y-46117D01*
X56216Y-46159D01*
X55912Y-46463D01*
X55824Y-46596D01*
X55808Y-46673D01*
X55799Y-46660D01*
X55667Y-46572D01*
X55511Y-46541D01*
X55336Y-46541D01*
X55336Y-46169D01*
X55305Y-46013D01*
X55305Y-46013D01*
X55270Y-45960D01*
X55217Y-45881D01*
X55217Y-45881D01*
X55209Y-45873D01*
X55077Y-45784D01*
X54921Y-45753D01*
X54765Y-45784D01*
X54633Y-45873D01*
X54544Y-46005D01*
X54513Y-46161D01*
X54521Y-46201D01*
X54521Y-46613D01*
X54484Y-46651D01*
X54474Y-46674D01*
X54468Y-46676D01*
X54438Y-46760D01*
X54431Y-46777D01*
X54389Y-46676D01*
X54383Y-46674D01*
X54374Y-46651D01*
X54226Y-46504D01*
X54203Y-46494D01*
X54201Y-46488D01*
X54117Y-46458D01*
X54034Y-46423D01*
X54019Y-46423D01*
X54004Y-46418D01*
X53915Y-46423D01*
X53825Y-46423D01*
X53811Y-46429D01*
X53796Y-46430D01*
X53656Y-46488D01*
X53654Y-46494D01*
X53632Y-46503D01*
X53484Y-46651D01*
X53474Y-46674D01*
X53468Y-46676D01*
X53438Y-46760D01*
X53404Y-46843D01*
X53404Y-46858D01*
X53399Y-46873D01*
X53404Y-46962D01*
X53404Y-47052D01*
X53409Y-47066D01*
X53410Y-47081D01*
X53468Y-47221D01*
X53474Y-47223D01*
X53483Y-47245D01*
X53521Y-47283D01*
X53521Y-49068D01*
X53521Y-49068D01*
X53552Y-49224D01*
X53641Y-49357D01*
X54691Y-50407D01*
X54691Y-50680D01*
X54729Y-50772D01*
X54799Y-50843D01*
X54891Y-50881D01*
X54991Y-50881D01*
X55442Y-50881D01*
X55541Y-50881D01*
X55541Y-50881D01*
X55541Y-50881D01*
X55587Y-50862D01*
X55632Y-50843D01*
X55633Y-50843D01*
X55633Y-50843D01*
X55668Y-50808D01*
X55703Y-50773D01*
X55703Y-50772D01*
X55703Y-50772D01*
X55722Y-50726D01*
X55741Y-50681D01*
X55741Y-50681D01*
X55741Y-50680D01*
X55741Y-50600D01*
X55741Y-50581D01*
X55741Y-50407D01*
X56477Y-49672D01*
X56629Y-49672D01*
X57449Y-50491D01*
X57381Y-50478D01*
X57225Y-50509D01*
X57093Y-50597D01*
X57005Y-50729D01*
X56974Y-50885D01*
X56974Y-51048D01*
X56940Y-51062D01*
X56870Y-51133D01*
X56855Y-51167D01*
X56851Y-51167D01*
X56750Y-51099D01*
X56594Y-51068D01*
X56438Y-51099D01*
X56306Y-51188D01*
X56218Y-51320D01*
X56187Y-51476D01*
X56218Y-51632D01*
X56306Y-51764D01*
X56404Y-51862D01*
X56404Y-51862D01*
X56484Y-51915D01*
X56536Y-51951D01*
X56536Y-51951D01*
X56692Y-51982D01*
X56855Y-51982D01*
X56860Y-51994D01*
X53025Y-51994D01*
X53025Y-5978D01*
X59111Y-5978D01*
X59062Y-6011D01*
X58973Y-6143D01*
X58942Y-6299D01*
X58950Y-6338D01*
X58950Y-6653D01*
X58913Y-6690D01*
X58903Y-6713D01*
X58897Y-6715D01*
X58883Y-6756D01*
X58883Y-6663D01*
X58883Y-6663D01*
X58883Y-6663D01*
X58864Y-6617D01*
X58845Y-6571D01*
X58845Y-6571D01*
X58845Y-6571D01*
X58810Y-6536D01*
X58775Y-6501D01*
X58774Y-6501D01*
X58774Y-6501D01*
X58728Y-6482D01*
X58683Y-6463D01*
X58682Y-6463D01*
X58682Y-6463D01*
X58602Y-6463D01*
X58583Y-6463D01*
X58033Y-6463D01*
X57941Y-6501D01*
X57871Y-6571D01*
X57833Y-6663D01*
X57833Y-6762D01*
X57833Y-7213D01*
X57833Y-7312D01*
X57833Y-7312D01*
X57833Y-7313D01*
X57852Y-7358D01*
X57871Y-7404D01*
X57871Y-7404D01*
X57871Y-7404D01*
X57906Y-7439D01*
X57941Y-7475D01*
X57941Y-7475D01*
X57941Y-7475D01*
X57987Y-7494D01*
X58033Y-7513D01*
X58033Y-7513D01*
X58033Y-7513D01*
X58114Y-7513D01*
X58132Y-7513D01*
X58682Y-7513D01*
X58774Y-7475D01*
X58845Y-7404D01*
X58883Y-7313D01*
X58883Y-7226D01*
X58897Y-7260D01*
X58903Y-7262D01*
X58912Y-7285D01*
X58950Y-7323D01*
X58950Y-9015D01*
X58913Y-9052D01*
X58903Y-9076D01*
X58897Y-9077D01*
X58883Y-9118D01*
X58883Y-9025D01*
X58883Y-9025D01*
X58883Y-9025D01*
X58864Y-8979D01*
X58845Y-8933D01*
X58845Y-8933D01*
X58845Y-8933D01*
X58810Y-8898D01*
X58775Y-8863D01*
X58774Y-8863D01*
X58774Y-8863D01*
X58728Y-8844D01*
X58683Y-8825D01*
X58682Y-8825D01*
X58682Y-8825D01*
X58602Y-8825D01*
X58583Y-8825D01*
X58033Y-8825D01*
X57941Y-8863D01*
X57871Y-8933D01*
X57833Y-9025D01*
X57833Y-9124D01*
X57833Y-9575D01*
X57833Y-9674D01*
X57833Y-9675D01*
X57833Y-9675D01*
X57852Y-9720D01*
X57871Y-9766D01*
X57871Y-9766D01*
X57871Y-9767D01*
X57906Y-9802D01*
X57941Y-9837D01*
X57941Y-9837D01*
X57941Y-9837D01*
X57987Y-9856D01*
X58033Y-9875D01*
X58033Y-9875D01*
X58033Y-9875D01*
X58114Y-9875D01*
X58132Y-9875D01*
X58682Y-9875D01*
X58774Y-9837D01*
X58845Y-9767D01*
X58883Y-9675D01*
X58883Y-9588D01*
X58897Y-9623D01*
X58903Y-9624D01*
X58912Y-9647D01*
X58950Y-9685D01*
X58950Y-10787D01*
X58913Y-10824D01*
X58903Y-10847D01*
X58897Y-10849D01*
X58867Y-10934D01*
X58860Y-10950D01*
X58818Y-10849D01*
X58812Y-10847D01*
X58803Y-10825D01*
X58656Y-10677D01*
X58632Y-10667D01*
X58631Y-10661D01*
X58546Y-10631D01*
X58463Y-10597D01*
X58448Y-10597D01*
X58434Y-10592D01*
X58344Y-10597D01*
X58254Y-10596D01*
X58240Y-10602D01*
X58225Y-10603D01*
X58085Y-10661D01*
X58083Y-10667D01*
X58061Y-10676D01*
X57913Y-10824D01*
X57903Y-10847D01*
X57897Y-10849D01*
X57867Y-10934D01*
X57833Y-11017D01*
X57833Y-11032D01*
X57828Y-11046D01*
X57833Y-11136D01*
X57833Y-11226D01*
X57838Y-11239D01*
X57839Y-11254D01*
X57897Y-11394D01*
X57903Y-11396D01*
X57912Y-11419D01*
X58060Y-11566D01*
X58083Y-11576D01*
X58085Y-11582D01*
X58170Y-11612D01*
X58250Y-11645D01*
X57213Y-12683D01*
X56917Y-12683D01*
X56904Y-12653D01*
X56904Y-12653D01*
X56904Y-12653D01*
X56898Y-12647D01*
X56904Y-12641D01*
X56942Y-12549D01*
X56942Y-12450D01*
X56942Y-11958D01*
X56942Y-11859D01*
X56942Y-11859D01*
X56942Y-11859D01*
X56923Y-11813D01*
X56904Y-11768D01*
X56904Y-11767D01*
X56904Y-11767D01*
X56869Y-11732D01*
X56834Y-11697D01*
X56834Y-11697D01*
X56834Y-11697D01*
X56788Y-11678D01*
X56742Y-11659D01*
X56742Y-11659D01*
X56742Y-11659D01*
X56660Y-11659D01*
X56643Y-11659D01*
X56052Y-11659D01*
X55960Y-11697D01*
X55890Y-11767D01*
X55852Y-11859D01*
X55852Y-11958D01*
X55852Y-12450D01*
X55852Y-12549D01*
X55852Y-12549D01*
X55852Y-12549D01*
X55871Y-12595D01*
X55890Y-12641D01*
X55890Y-12641D01*
X55890Y-12641D01*
X55896Y-12647D01*
X55890Y-12653D01*
X55878Y-12683D01*
X55708Y-12683D01*
X55552Y-12714D01*
X55420Y-12802D01*
X55332Y-12934D01*
X55301Y-13090D01*
X55332Y-13246D01*
X55420Y-13378D01*
X55552Y-13467D01*
X55708Y-13498D01*
X55878Y-13498D01*
X55890Y-13527D01*
X55890Y-13527D01*
X55890Y-13527D01*
X55925Y-13562D01*
X55960Y-13597D01*
X55960Y-13597D01*
X55960Y-13597D01*
X55990Y-13609D01*
X55990Y-13877D01*
X56021Y-14033D01*
X56109Y-14166D01*
X56241Y-14254D01*
X56397Y-14285D01*
X56553Y-14254D01*
X56685Y-14166D01*
X56774Y-14033D01*
X56805Y-13877D01*
X56805Y-13609D01*
X56834Y-13597D01*
X56904Y-13527D01*
X56917Y-13498D01*
X57381Y-13498D01*
X57381Y-13498D01*
X57381Y-13498D01*
X57537Y-13467D01*
X57670Y-13378D01*
X59401Y-11647D01*
X59462Y-11647D01*
X59476Y-11641D01*
X59491Y-11640D01*
X59631Y-11582D01*
X59632Y-11576D01*
X59655Y-11567D01*
X59693Y-11529D01*
X61515Y-11529D01*
X61515Y-11529D01*
X61515Y-11529D01*
X61671Y-11498D01*
X61803Y-11410D01*
X62599Y-10614D01*
X62642Y-10596D01*
X62761Y-10477D01*
X62826Y-10321D01*
X62826Y-10152D01*
X62762Y-9995D01*
X62642Y-9876D01*
X62486Y-9811D01*
X62317Y-9811D01*
X62161Y-9875D01*
X62041Y-9995D01*
X62023Y-10037D01*
X61346Y-10714D01*
X60331Y-10714D01*
X60415Y-10589D01*
X60446Y-10433D01*
X60415Y-10277D01*
X60327Y-10144D01*
X60195Y-10056D01*
X60039Y-10025D01*
X59883Y-10056D01*
X59765Y-10135D01*
X59765Y-9757D01*
X60137Y-9757D01*
X60293Y-9726D01*
X60425Y-9638D01*
X60514Y-9506D01*
X60545Y-9350D01*
X60514Y-9194D01*
X60425Y-9062D01*
X60293Y-8973D01*
X60137Y-8942D01*
X59765Y-8942D01*
X59765Y-7937D01*
X59792Y-7955D01*
X59792Y-7955D01*
X59948Y-7986D01*
X60680Y-7986D01*
X60717Y-8023D01*
X60741Y-8033D01*
X60742Y-8039D01*
X60827Y-8069D01*
X60910Y-8103D01*
X60925Y-8103D01*
X60939Y-8108D01*
X61029Y-8103D01*
X61119Y-8103D01*
X61133Y-8098D01*
X61148Y-8097D01*
X61288Y-8039D01*
X61290Y-8033D01*
X61312Y-8024D01*
X61460Y-7876D01*
X61470Y-7853D01*
X61476Y-7851D01*
X61506Y-7766D01*
X61513Y-7749D01*
X61555Y-7851D01*
X61561Y-7853D01*
X61570Y-7875D01*
X61717Y-8023D01*
X61741Y-8033D01*
X61742Y-8039D01*
X61827Y-8069D01*
X61910Y-8103D01*
X61925Y-8103D01*
X61939Y-8108D01*
X62029Y-8103D01*
X62119Y-8103D01*
X62133Y-8098D01*
X62148Y-8097D01*
X62288Y-8039D01*
X62290Y-8033D01*
X62312Y-8024D01*
X62460Y-7876D01*
X62470Y-7853D01*
X62476Y-7851D01*
X62506Y-7766D01*
X62540Y-7683D01*
X62540Y-7668D01*
X62545Y-7654D01*
X62540Y-7564D01*
X62540Y-7474D01*
X62535Y-7460D01*
X62534Y-7445D01*
X62476Y-7305D01*
X62470Y-7304D01*
X62461Y-7281D01*
X62313Y-7133D01*
X62290Y-7124D01*
X62288Y-7118D01*
X62237Y-7100D01*
X64299Y-7100D01*
X64778Y-7578D01*
X64440Y-7916D01*
X64440Y-7902D01*
X64440Y-7451D01*
X64440Y-7352D01*
X64440Y-7352D01*
X64440Y-7352D01*
X64421Y-7306D01*
X64402Y-7260D01*
X64402Y-7260D01*
X64402Y-7260D01*
X64367Y-7225D01*
X64332Y-7190D01*
X64331Y-7190D01*
X64331Y-7190D01*
X64285Y-7171D01*
X64240Y-7152D01*
X64240Y-7152D01*
X64239Y-7152D01*
X64159Y-7152D01*
X64140Y-7152D01*
X63590Y-7152D01*
X63498Y-7190D01*
X63428Y-7260D01*
X63390Y-7352D01*
X63390Y-7451D01*
X63390Y-7902D01*
X63390Y-8001D01*
X63390Y-8001D01*
X63390Y-8002D01*
X63409Y-8047D01*
X63428Y-8093D01*
X63428Y-8093D01*
X63428Y-8093D01*
X63463Y-8128D01*
X63498Y-8163D01*
X63498Y-8164D01*
X63498Y-8164D01*
X63544Y-8183D01*
X63590Y-8202D01*
X63590Y-8202D01*
X63590Y-8202D01*
X63671Y-8202D01*
X63689Y-8202D01*
X64195Y-8202D01*
X64190Y-8210D01*
X64159Y-8366D01*
X64190Y-8522D01*
X64278Y-8654D01*
X64410Y-8742D01*
X64566Y-8773D01*
X64722Y-8742D01*
X64855Y-8654D01*
X65308Y-8201D01*
X65310Y-8202D01*
X65325Y-8202D01*
X65339Y-8207D01*
X65367Y-8205D01*
X65446Y-8284D01*
X65446Y-9904D01*
X65385Y-9843D01*
X65385Y-9758D01*
X65321Y-9602D01*
X65201Y-9482D01*
X65045Y-9417D01*
X64876Y-9417D01*
X64720Y-9482D01*
X64600Y-9601D01*
X64535Y-9757D01*
X64535Y-9926D01*
X64600Y-10082D01*
X64719Y-10202D01*
X64875Y-10267D01*
X64961Y-10267D01*
X65054Y-10360D01*
X65054Y-10537D01*
X65042Y-10533D01*
X64959Y-10498D01*
X64944Y-10498D01*
X64930Y-10493D01*
X64840Y-10498D01*
X64750Y-10498D01*
X64736Y-10504D01*
X64721Y-10505D01*
X64581Y-10563D01*
X64579Y-10568D01*
X64557Y-10578D01*
X64409Y-10725D01*
X64399Y-10749D01*
X64393Y-10750D01*
X64363Y-10835D01*
X64329Y-10918D01*
X64329Y-10933D01*
X64324Y-10947D01*
X64329Y-11037D01*
X64329Y-11127D01*
X64334Y-11141D01*
X64335Y-11156D01*
X64393Y-11296D01*
X64399Y-11297D01*
X64408Y-11320D01*
X64446Y-11358D01*
X64446Y-12492D01*
X64446Y-12492D01*
X64477Y-12648D01*
X64566Y-12780D01*
X65832Y-14046D01*
X65832Y-14833D01*
X65815Y-14875D01*
X65815Y-15044D01*
X65832Y-15087D01*
X65832Y-17275D01*
X65696Y-17410D01*
X65687Y-17434D01*
X65681Y-17435D01*
X65651Y-17520D01*
X65616Y-17603D01*
X65616Y-17618D01*
X65611Y-17632D01*
X65616Y-17722D01*
X65616Y-17812D01*
X65622Y-17826D01*
X65623Y-17841D01*
X65681Y-17981D01*
X65687Y-17982D01*
X65696Y-18005D01*
X65843Y-18153D01*
X65867Y-18163D01*
X65868Y-18169D01*
X65953Y-18199D01*
X65970Y-18206D01*
X65868Y-18248D01*
X65867Y-18253D01*
X65844Y-18263D01*
X65696Y-18410D01*
X65687Y-18434D01*
X65681Y-18435D01*
X65651Y-18520D01*
X65616Y-18603D01*
X65616Y-18618D01*
X65611Y-18632D01*
X65612Y-18653D01*
X65361Y-18904D01*
X65273Y-19036D01*
X65242Y-19192D01*
X65273Y-19348D01*
X65361Y-19481D01*
X65493Y-19569D01*
X65649Y-19600D01*
X65805Y-19569D01*
X65937Y-19481D01*
X66137Y-19280D01*
X67450Y-20593D01*
X67450Y-20620D01*
X67450Y-20620D01*
X67450Y-20621D01*
X67545Y-20850D01*
X67640Y-21079D01*
X67640Y-21080D01*
X67641Y-21080D01*
X67641Y-21080D01*
X67642Y-21081D01*
X67991Y-21431D01*
X67992Y-21432D01*
X67992Y-21432D01*
X68221Y-21527D01*
X68293Y-21557D01*
X68293Y-21850D01*
X68324Y-22006D01*
X68412Y-22138D01*
X68544Y-22226D01*
X68700Y-22257D01*
X68856Y-22226D01*
X68988Y-22138D01*
X69077Y-22006D01*
X69108Y-21850D01*
X69108Y-21556D01*
X69178Y-21528D01*
X69407Y-21433D01*
X69408Y-21432D01*
X69408Y-21432D01*
X69408Y-21432D01*
X69409Y-21431D01*
X69759Y-21081D01*
X69760Y-21081D01*
X69760Y-21080D01*
X69855Y-20852D01*
X69885Y-20780D01*
X71680Y-20780D01*
X71942Y-21042D01*
X71942Y-27567D01*
G54D10*
G36*
X71942Y-29354D02*
X71900Y-29396D01*
X71900Y-29374D01*
X71900Y-29374D01*
X71900Y-29374D01*
X71881Y-29328D01*
X71862Y-29282D01*
X71862Y-29282D01*
X71862Y-29282D01*
X71841Y-29261D01*
X71942Y-29219D01*
X71942Y-29354D01*
X71942Y-29354D01*
G37*
G54D24*
X71942Y-29354D02*
X71900Y-29396D01*
X71900Y-29374D01*
X71900Y-29374D01*
X71900Y-29374D01*
X71881Y-29328D01*
X71862Y-29282D01*
X71862Y-29282D01*
X71862Y-29282D01*
X71841Y-29261D01*
X71942Y-29219D01*
X71942Y-29354D01*
G54D10*
G36*
X71942Y-31027D02*
X71900Y-31069D01*
X71900Y-31048D01*
X71900Y-31047D01*
X71900Y-31047D01*
X71881Y-31002D01*
X71862Y-30956D01*
X71862Y-30956D01*
X71862Y-30955D01*
X71827Y-30920D01*
X71792Y-30885D01*
X71791Y-30885D01*
X71791Y-30885D01*
X71745Y-30866D01*
X71700Y-30847D01*
X71700Y-30847D01*
X71699Y-30847D01*
X71617Y-30847D01*
X71600Y-30847D01*
X71000Y-30847D01*
X70908Y-30885D01*
X70838Y-30955D01*
X70800Y-31047D01*
X70800Y-31147D01*
X70800Y-31371D01*
X70676Y-31495D01*
X70588Y-31627D01*
X70584Y-31644D01*
X70584Y-30216D01*
X70584Y-30216D01*
X70584Y-30216D01*
X70578Y-30185D01*
X70553Y-30060D01*
X70553Y-30060D01*
X70465Y-29928D01*
X70465Y-29928D01*
X70092Y-29555D01*
X70092Y-29365D01*
X70160Y-29411D01*
X70275Y-29433D01*
X70275Y-29433D01*
X70458Y-29433D01*
X70458Y-29625D01*
X70458Y-29625D01*
X70489Y-29781D01*
X70578Y-29914D01*
X70676Y-30012D01*
X70676Y-30012D01*
X70755Y-30065D01*
X70808Y-30100D01*
X70808Y-30100D01*
X70811Y-30101D01*
X70819Y-30120D01*
X70838Y-30165D01*
X70838Y-30165D01*
X70838Y-30166D01*
X70873Y-30201D01*
X70908Y-30236D01*
X70908Y-30236D01*
X70908Y-30236D01*
X70954Y-30255D01*
X71000Y-30274D01*
X71000Y-30274D01*
X71000Y-30274D01*
X71082Y-30274D01*
X71099Y-30274D01*
X71699Y-30274D01*
X71791Y-30236D01*
X71862Y-30166D01*
X71900Y-30074D01*
X71900Y-30052D01*
X71942Y-30094D01*
X71942Y-31027D01*
X71942Y-31027D01*
G37*
G54D24*
X71942Y-31027D02*
X71900Y-31069D01*
X71900Y-31048D01*
X71900Y-31047D01*
X71900Y-31047D01*
X71881Y-31002D01*
X71862Y-30956D01*
X71862Y-30956D01*
X71862Y-30955D01*
X71827Y-30920D01*
X71792Y-30885D01*
X71791Y-30885D01*
X71791Y-30885D01*
X71745Y-30866D01*
X71700Y-30847D01*
X71700Y-30847D01*
X71699Y-30847D01*
X71617Y-30847D01*
X71600Y-30847D01*
X71000Y-30847D01*
X70908Y-30885D01*
X70838Y-30955D01*
X70800Y-31047D01*
X70800Y-31147D01*
X70800Y-31371D01*
X70676Y-31495D01*
X70588Y-31627D01*
X70584Y-31644D01*
X70584Y-30216D01*
X70584Y-30216D01*
X70584Y-30216D01*
X70578Y-30185D01*
X70553Y-30060D01*
X70553Y-30060D01*
X70465Y-29928D01*
X70465Y-29928D01*
X70092Y-29555D01*
X70092Y-29365D01*
X70160Y-29411D01*
X70275Y-29433D01*
X70275Y-29433D01*
X70458Y-29433D01*
X70458Y-29625D01*
X70458Y-29625D01*
X70489Y-29781D01*
X70578Y-29914D01*
X70676Y-30012D01*
X70676Y-30012D01*
X70755Y-30065D01*
X70808Y-30100D01*
X70808Y-30100D01*
X70811Y-30101D01*
X70819Y-30120D01*
X70838Y-30165D01*
X70838Y-30165D01*
X70838Y-30166D01*
X70873Y-30201D01*
X70908Y-30236D01*
X70908Y-30236D01*
X70908Y-30236D01*
X70954Y-30255D01*
X71000Y-30274D01*
X71000Y-30274D01*
X71000Y-30274D01*
X71082Y-30274D01*
X71099Y-30274D01*
X71699Y-30274D01*
X71791Y-30236D01*
X71862Y-30166D01*
X71900Y-30074D01*
X71900Y-30052D01*
X71942Y-30094D01*
X71942Y-31027D01*
G54D10*
G36*
X73057Y-9744D02*
X72998Y-9602D01*
X72878Y-9482D01*
X72722Y-9417D01*
X72553Y-9417D01*
X72397Y-9482D01*
X72277Y-9601D01*
X72212Y-9757D01*
X72212Y-9843D01*
X71067Y-10988D01*
X71067Y-9350D01*
X71067Y-9350D01*
X71044Y-9235D01*
X70979Y-9138D01*
X70979Y-9138D01*
X70782Y-8941D01*
X70685Y-8876D01*
X70570Y-8853D01*
X70078Y-8853D01*
X69963Y-8876D01*
X69866Y-8941D01*
X69685Y-9122D01*
X69617Y-9055D01*
X69617Y-8970D01*
X69553Y-8814D01*
X69433Y-8695D01*
X69277Y-8630D01*
X69108Y-8630D01*
X68994Y-8677D01*
X68988Y-8668D01*
X68856Y-8580D01*
X68700Y-8549D01*
X68544Y-8580D01*
X68412Y-8668D01*
X68324Y-8800D01*
X68293Y-8956D01*
X68293Y-9348D01*
X68223Y-9377D01*
X67993Y-9472D01*
X67993Y-9472D01*
X67992Y-9473D01*
X67992Y-9473D01*
X67992Y-9474D01*
X67641Y-9823D01*
X67641Y-9824D01*
X67641Y-9824D01*
X67546Y-10053D01*
X67516Y-10125D01*
X66927Y-10125D01*
X66771Y-10156D01*
X66718Y-10191D01*
X66639Y-10244D01*
X66639Y-10244D01*
X66268Y-10616D01*
X66261Y-10616D01*
X66261Y-8116D01*
X66261Y-8116D01*
X66261Y-8116D01*
X66230Y-7960D01*
X66142Y-7828D01*
X66142Y-7828D01*
X65961Y-7646D01*
X66233Y-7374D01*
X66321Y-7242D01*
X66352Y-7086D01*
X66321Y-6930D01*
X66233Y-6798D01*
X66100Y-6710D01*
X65944Y-6679D01*
X65788Y-6710D01*
X65656Y-6798D01*
X65403Y-7051D01*
X64756Y-6404D01*
X64624Y-6316D01*
X64468Y-6285D01*
X64468Y-6285D01*
X61901Y-6285D01*
X61745Y-6316D01*
X61613Y-6404D01*
X61613Y-6404D01*
X60964Y-7053D01*
X60911Y-7053D01*
X60897Y-7059D01*
X60882Y-7060D01*
X60742Y-7118D01*
X60741Y-7124D01*
X60718Y-7133D01*
X60680Y-7171D01*
X60117Y-7171D01*
X59883Y-6936D01*
X59883Y-6884D01*
X59877Y-6870D01*
X59876Y-6855D01*
X59818Y-6715D01*
X59812Y-6713D01*
X59803Y-6691D01*
X59765Y-6653D01*
X59765Y-6307D01*
X59734Y-6151D01*
X59734Y-6151D01*
X59699Y-6098D01*
X59646Y-6018D01*
X59646Y-6018D01*
X59638Y-6011D01*
X59589Y-5978D01*
X73057Y-5978D01*
X73057Y-9744D01*
X73057Y-9744D01*
G37*
G54D24*
X73057Y-9744D02*
X72998Y-9602D01*
X72878Y-9482D01*
X72722Y-9417D01*
X72553Y-9417D01*
X72397Y-9482D01*
X72277Y-9601D01*
X72212Y-9757D01*
X72212Y-9843D01*
X71067Y-10988D01*
X71067Y-9350D01*
X71067Y-9350D01*
X71044Y-9235D01*
X70979Y-9138D01*
X70979Y-9138D01*
X70782Y-8941D01*
X70685Y-8876D01*
X70570Y-8853D01*
X70078Y-8853D01*
X69963Y-8876D01*
X69866Y-8941D01*
X69685Y-9122D01*
X69617Y-9055D01*
X69617Y-8970D01*
X69553Y-8814D01*
X69433Y-8695D01*
X69277Y-8630D01*
X69108Y-8630D01*
X68994Y-8677D01*
X68988Y-8668D01*
X68856Y-8580D01*
X68700Y-8549D01*
X68544Y-8580D01*
X68412Y-8668D01*
X68324Y-8800D01*
X68293Y-8956D01*
X68293Y-9348D01*
X68223Y-9377D01*
X67993Y-9472D01*
X67993Y-9472D01*
X67992Y-9473D01*
X67992Y-9473D01*
X67992Y-9474D01*
X67641Y-9823D01*
X67641Y-9824D01*
X67641Y-9824D01*
X67546Y-10053D01*
X67516Y-10125D01*
X66927Y-10125D01*
X66771Y-10156D01*
X66718Y-10191D01*
X66639Y-10244D01*
X66639Y-10244D01*
X66268Y-10616D01*
X66261Y-10616D01*
X66261Y-8116D01*
X66261Y-8116D01*
X66261Y-8116D01*
X66230Y-7960D01*
X66142Y-7828D01*
X66142Y-7828D01*
X65961Y-7646D01*
X66233Y-7374D01*
X66321Y-7242D01*
X66352Y-7086D01*
X66321Y-6930D01*
X66233Y-6798D01*
X66100Y-6710D01*
X65944Y-6679D01*
X65788Y-6710D01*
X65656Y-6798D01*
X65403Y-7051D01*
X64756Y-6404D01*
X64624Y-6316D01*
X64468Y-6285D01*
X64468Y-6285D01*
X61901Y-6285D01*
X61745Y-6316D01*
X61613Y-6404D01*
X61613Y-6404D01*
X60964Y-7053D01*
X60911Y-7053D01*
X60897Y-7059D01*
X60882Y-7060D01*
X60742Y-7118D01*
X60741Y-7124D01*
X60718Y-7133D01*
X60680Y-7171D01*
X60117Y-7171D01*
X59883Y-6936D01*
X59883Y-6884D01*
X59877Y-6870D01*
X59876Y-6855D01*
X59818Y-6715D01*
X59812Y-6713D01*
X59803Y-6691D01*
X59765Y-6653D01*
X59765Y-6307D01*
X59734Y-6151D01*
X59734Y-6151D01*
X59699Y-6098D01*
X59646Y-6018D01*
X59646Y-6018D01*
X59638Y-6011D01*
X59589Y-5978D01*
X73057Y-5978D01*
X73057Y-9744D01*
G54D10*
G36*
X73057Y-29341D02*
X72933Y-29316D01*
X72757Y-29316D01*
X72757Y-20874D01*
X72757Y-20874D01*
X72757Y-20874D01*
X72751Y-20842D01*
X72726Y-20718D01*
X72726Y-20718D01*
X72638Y-20585D01*
X72638Y-20585D01*
X72137Y-20084D01*
X72005Y-19996D01*
X71849Y-19965D01*
X71849Y-19965D01*
X69884Y-19965D01*
X69856Y-19895D01*
X69761Y-19665D01*
X69760Y-19665D01*
X69760Y-19664D01*
X69760Y-19664D01*
X69759Y-19664D01*
X69409Y-19313D01*
X69409Y-19313D01*
X69408Y-19313D01*
X69180Y-19218D01*
X69108Y-19188D01*
X69108Y-18535D01*
X69277Y-18535D01*
X69433Y-18470D01*
X69553Y-18351D01*
X69617Y-18195D01*
X69617Y-18026D01*
X69578Y-17929D01*
X69584Y-17932D01*
X69598Y-17932D01*
X69611Y-17937D01*
X69713Y-17932D01*
X69815Y-17932D01*
X69828Y-17927D01*
X69842Y-17926D01*
X70006Y-17858D01*
X70008Y-17853D01*
X70028Y-17844D01*
X70192Y-17681D01*
X70201Y-17660D01*
X70206Y-17658D01*
X70241Y-17562D01*
X70280Y-17468D01*
X70280Y-17454D01*
X70285Y-17441D01*
X70280Y-17339D01*
X70280Y-17237D01*
X70275Y-17225D01*
X70274Y-17211D01*
X70206Y-17046D01*
X70201Y-17045D01*
X70192Y-17024D01*
X70071Y-16902D01*
X70192Y-16781D01*
X70201Y-16760D01*
X70206Y-16758D01*
X70241Y-16662D01*
X70280Y-16568D01*
X70280Y-16554D01*
X70285Y-16541D01*
X70280Y-16439D01*
X70280Y-16337D01*
X70275Y-16325D01*
X70274Y-16311D01*
X70206Y-16146D01*
X70201Y-16145D01*
X70192Y-16124D01*
X70071Y-16002D01*
X70192Y-15881D01*
X70201Y-15860D01*
X70206Y-15858D01*
X70241Y-15762D01*
X70280Y-15668D01*
X70280Y-15654D01*
X70285Y-15641D01*
X70280Y-15539D01*
X70280Y-15437D01*
X70275Y-15425D01*
X70274Y-15411D01*
X70206Y-15246D01*
X70201Y-15245D01*
X70192Y-15224D01*
X70071Y-15102D01*
X70192Y-14981D01*
X70201Y-14960D01*
X70206Y-14958D01*
X70241Y-14862D01*
X70280Y-14768D01*
X70280Y-14754D01*
X70285Y-14741D01*
X70280Y-14639D01*
X70280Y-14537D01*
X70275Y-14525D01*
X70274Y-14511D01*
X70206Y-14346D01*
X70201Y-14345D01*
X70192Y-14324D01*
X70071Y-14202D01*
X70192Y-14081D01*
X70201Y-14060D01*
X70206Y-14058D01*
X70241Y-13962D01*
X70280Y-13868D01*
X70280Y-13854D01*
X70285Y-13841D01*
X70280Y-13739D01*
X70280Y-13637D01*
X70275Y-13625D01*
X70274Y-13611D01*
X70206Y-13446D01*
X70201Y-13445D01*
X70192Y-13424D01*
X70029Y-13261D01*
X70008Y-13252D01*
X70006Y-13246D01*
X69910Y-13211D01*
X69816Y-13172D01*
X69802Y-13172D01*
X69789Y-13168D01*
X69733Y-13170D01*
X72637Y-10267D01*
X72721Y-10267D01*
X72878Y-10203D01*
X72997Y-10083D01*
X73057Y-9940D01*
X73057Y-29341D01*
X73057Y-29341D01*
G37*
G54D24*
X73057Y-29341D02*
X72933Y-29316D01*
X72757Y-29316D01*
X72757Y-20874D01*
X72757Y-20874D01*
X72757Y-20874D01*
X72751Y-20842D01*
X72726Y-20718D01*
X72726Y-20718D01*
X72638Y-20585D01*
X72638Y-20585D01*
X72137Y-20084D01*
X72005Y-19996D01*
X71849Y-19965D01*
X71849Y-19965D01*
X69884Y-19965D01*
X69856Y-19895D01*
X69761Y-19665D01*
X69760Y-19665D01*
X69760Y-19664D01*
X69760Y-19664D01*
X69759Y-19664D01*
X69409Y-19313D01*
X69409Y-19313D01*
X69408Y-19313D01*
X69180Y-19218D01*
X69108Y-19188D01*
X69108Y-18535D01*
X69277Y-18535D01*
X69433Y-18470D01*
X69553Y-18351D01*
X69617Y-18195D01*
X69617Y-18026D01*
X69578Y-17929D01*
X69584Y-17932D01*
X69598Y-17932D01*
X69611Y-17937D01*
X69713Y-17932D01*
X69815Y-17932D01*
X69828Y-17927D01*
X69842Y-17926D01*
X70006Y-17858D01*
X70008Y-17853D01*
X70028Y-17844D01*
X70192Y-17681D01*
X70201Y-17660D01*
X70206Y-17658D01*
X70241Y-17562D01*
X70280Y-17468D01*
X70280Y-17454D01*
X70285Y-17441D01*
X70280Y-17339D01*
X70280Y-17237D01*
X70275Y-17225D01*
X70274Y-17211D01*
X70206Y-17046D01*
X70201Y-17045D01*
X70192Y-17024D01*
X70071Y-16902D01*
X70192Y-16781D01*
X70201Y-16760D01*
X70206Y-16758D01*
X70241Y-16662D01*
X70280Y-16568D01*
X70280Y-16554D01*
X70285Y-16541D01*
X70280Y-16439D01*
X70280Y-16337D01*
X70275Y-16325D01*
X70274Y-16311D01*
X70206Y-16146D01*
X70201Y-16145D01*
X70192Y-16124D01*
X70071Y-16002D01*
X70192Y-15881D01*
X70201Y-15860D01*
X70206Y-15858D01*
X70241Y-15762D01*
X70280Y-15668D01*
X70280Y-15654D01*
X70285Y-15641D01*
X70280Y-15539D01*
X70280Y-15437D01*
X70275Y-15425D01*
X70274Y-15411D01*
X70206Y-15246D01*
X70201Y-15245D01*
X70192Y-15224D01*
X70071Y-15102D01*
X70192Y-14981D01*
X70201Y-14960D01*
X70206Y-14958D01*
X70241Y-14862D01*
X70280Y-14768D01*
X70280Y-14754D01*
X70285Y-14741D01*
X70280Y-14639D01*
X70280Y-14537D01*
X70275Y-14525D01*
X70274Y-14511D01*
X70206Y-14346D01*
X70201Y-14345D01*
X70192Y-14324D01*
X70071Y-14202D01*
X70192Y-14081D01*
X70201Y-14060D01*
X70206Y-14058D01*
X70241Y-13962D01*
X70280Y-13868D01*
X70280Y-13854D01*
X70285Y-13841D01*
X70280Y-13739D01*
X70280Y-13637D01*
X70275Y-13625D01*
X70274Y-13611D01*
X70206Y-13446D01*
X70201Y-13445D01*
X70192Y-13424D01*
X70029Y-13261D01*
X70008Y-13252D01*
X70006Y-13246D01*
X69910Y-13211D01*
X69816Y-13172D01*
X69802Y-13172D01*
X69789Y-13168D01*
X69733Y-13170D01*
X72637Y-10267D01*
X72721Y-10267D01*
X72878Y-10203D01*
X72997Y-10083D01*
X73057Y-9940D01*
X73057Y-29341D01*
G54D10*
G36*
X73057Y-31014D02*
X72933Y-30990D01*
X72757Y-30990D01*
X72757Y-30131D01*
X72933Y-30131D01*
X73057Y-30107D01*
X73057Y-31014D01*
X73057Y-31014D01*
G37*
G54D24*
X73057Y-31014D02*
X72933Y-30990D01*
X72757Y-30990D01*
X72757Y-30131D01*
X72933Y-30131D01*
X73057Y-30107D01*
X73057Y-31014D01*
G54D10*
G36*
X73057Y-51994D02*
X57903Y-51994D01*
X57907Y-51982D01*
X57972Y-51982D01*
X58128Y-51951D01*
X58260Y-51862D01*
X58348Y-51730D01*
X58379Y-51574D01*
X58348Y-51418D01*
X58293Y-51335D01*
X58350Y-51393D01*
X58350Y-51393D01*
X58448Y-51458D01*
X58562Y-51481D01*
X61515Y-51481D01*
X61515Y-51481D01*
X61630Y-51458D01*
X61630Y-51458D01*
X61727Y-51393D01*
X62202Y-50918D01*
X62205Y-50918D01*
X62219Y-50923D01*
X62309Y-50918D01*
X62399Y-50918D01*
X62413Y-50913D01*
X62428Y-50912D01*
X62568Y-50854D01*
X62569Y-50848D01*
X62592Y-50839D01*
X62740Y-50691D01*
X62749Y-50668D01*
X62755Y-50666D01*
X62785Y-50581D01*
X62792Y-50564D01*
X62834Y-50666D01*
X62840Y-50668D01*
X62849Y-50690D01*
X62887Y-50728D01*
X62887Y-50992D01*
X62887Y-50992D01*
X62918Y-51148D01*
X63007Y-51280D01*
X63097Y-51370D01*
X63229Y-51459D01*
X63385Y-51490D01*
X63541Y-51459D01*
X63673Y-51370D01*
X63762Y-51238D01*
X63793Y-51082D01*
X63762Y-50926D01*
X63702Y-50837D01*
X63702Y-50801D01*
X64370Y-50801D01*
X64370Y-50801D01*
X64370Y-50801D01*
X64526Y-50770D01*
X64658Y-50681D01*
X66134Y-49205D01*
X66134Y-49205D01*
X66134Y-49205D01*
X66222Y-49073D01*
X66222Y-49073D01*
X66247Y-48948D01*
X66253Y-48917D01*
X66253Y-48917D01*
X66253Y-48917D01*
X66253Y-43700D01*
X66253Y-43700D01*
X66253Y-43700D01*
X66247Y-43669D01*
X66222Y-43544D01*
X66222Y-43544D01*
X66134Y-43412D01*
X66134Y-43412D01*
X65658Y-42936D01*
X65663Y-42913D01*
X65663Y-42320D01*
X65788Y-42404D01*
X65944Y-42435D01*
X66100Y-42404D01*
X66233Y-42315D01*
X66318Y-42229D01*
X66305Y-42261D01*
X66305Y-42276D01*
X66300Y-42290D01*
X66305Y-42380D01*
X66305Y-42470D01*
X66311Y-42483D01*
X66312Y-42498D01*
X66370Y-42638D01*
X66376Y-42640D01*
X66385Y-42663D01*
X66532Y-42810D01*
X66556Y-42820D01*
X66557Y-42826D01*
X66642Y-42856D01*
X66659Y-42863D01*
X66557Y-42905D01*
X66556Y-42911D01*
X66533Y-42920D01*
X66385Y-43068D01*
X66376Y-43091D01*
X66370Y-43093D01*
X66340Y-43178D01*
X66305Y-43261D01*
X66305Y-43276D01*
X66300Y-43290D01*
X66305Y-43380D01*
X66305Y-43470D01*
X66311Y-43483D01*
X66312Y-43498D01*
X66370Y-43638D01*
X66376Y-43640D01*
X66385Y-43663D01*
X66532Y-43810D01*
X66556Y-43820D01*
X66557Y-43826D01*
X66642Y-43856D01*
X66659Y-43863D01*
X66557Y-43905D01*
X66556Y-43911D01*
X66533Y-43920D01*
X66385Y-44068D01*
X66376Y-44091D01*
X66370Y-44093D01*
X66340Y-44178D01*
X66305Y-44261D01*
X66305Y-44276D01*
X66300Y-44290D01*
X66305Y-44380D01*
X66305Y-44470D01*
X66311Y-44483D01*
X66312Y-44498D01*
X66370Y-44638D01*
X66376Y-44640D01*
X66385Y-44663D01*
X66532Y-44810D01*
X66556Y-44820D01*
X66557Y-44826D01*
X66642Y-44856D01*
X66659Y-44863D01*
X66557Y-44905D01*
X66556Y-44911D01*
X66533Y-44920D01*
X66385Y-45068D01*
X66376Y-45091D01*
X66370Y-45093D01*
X66340Y-45178D01*
X66305Y-45261D01*
X66305Y-45276D01*
X66300Y-45290D01*
X66305Y-45380D01*
X66305Y-45470D01*
X66311Y-45483D01*
X66312Y-45498D01*
X66370Y-45638D01*
X66376Y-45640D01*
X66385Y-45663D01*
X66532Y-45810D01*
X66556Y-45820D01*
X66557Y-45826D01*
X66642Y-45856D01*
X66659Y-45863D01*
X66557Y-45905D01*
X66556Y-45911D01*
X66533Y-45920D01*
X66385Y-46068D01*
X66376Y-46091D01*
X66370Y-46093D01*
X66340Y-46178D01*
X66305Y-46261D01*
X66305Y-46276D01*
X66300Y-46290D01*
X66305Y-46380D01*
X66305Y-46470D01*
X66311Y-46483D01*
X66312Y-46498D01*
X66370Y-46638D01*
X66376Y-46640D01*
X66385Y-46663D01*
X66532Y-46810D01*
X66556Y-46820D01*
X66557Y-46826D01*
X66642Y-46856D01*
X66659Y-46863D01*
X66557Y-46905D01*
X66556Y-46911D01*
X66533Y-46920D01*
X66385Y-47068D01*
X66376Y-47091D01*
X66370Y-47093D01*
X66340Y-47178D01*
X66305Y-47261D01*
X66305Y-47276D01*
X66300Y-47290D01*
X66305Y-47380D01*
X66305Y-47470D01*
X66311Y-47483D01*
X66312Y-47498D01*
X66370Y-47638D01*
X66376Y-47640D01*
X66385Y-47663D01*
X66532Y-47810D01*
X66556Y-47820D01*
X66557Y-47826D01*
X66642Y-47856D01*
X66659Y-47863D01*
X66557Y-47905D01*
X66556Y-47911D01*
X66533Y-47920D01*
X66385Y-48068D01*
X66376Y-48091D01*
X66370Y-48093D01*
X66340Y-48178D01*
X66305Y-48261D01*
X66305Y-48276D01*
X66300Y-48290D01*
X66305Y-48380D01*
X66305Y-48470D01*
X66311Y-48483D01*
X66312Y-48498D01*
X66370Y-48638D01*
X66376Y-48640D01*
X66385Y-48663D01*
X66532Y-48810D01*
X66556Y-48820D01*
X66557Y-48826D01*
X66642Y-48856D01*
X66659Y-48863D01*
X66557Y-48905D01*
X66556Y-48911D01*
X66533Y-48920D01*
X66385Y-49068D01*
X66376Y-49091D01*
X66370Y-49093D01*
X66340Y-49178D01*
X66305Y-49261D01*
X66305Y-49276D01*
X66300Y-49290D01*
X66305Y-49380D01*
X66305Y-49470D01*
X66311Y-49483D01*
X66312Y-49498D01*
X66370Y-49638D01*
X66376Y-49640D01*
X66385Y-49663D01*
X66532Y-49810D01*
X66556Y-49820D01*
X66557Y-49826D01*
X66642Y-49856D01*
X66659Y-49863D01*
X66557Y-49905D01*
X66556Y-49911D01*
X66533Y-49920D01*
X66385Y-50068D01*
X66376Y-50091D01*
X66370Y-50093D01*
X66340Y-50178D01*
X66305Y-50261D01*
X66305Y-50276D01*
X66300Y-50290D01*
X66305Y-50380D01*
X66305Y-50470D01*
X66311Y-50483D01*
X66312Y-50498D01*
X66370Y-50638D01*
X66376Y-50640D01*
X66385Y-50663D01*
X66532Y-50810D01*
X66556Y-50820D01*
X66557Y-50826D01*
X66642Y-50856D01*
X66725Y-50891D01*
X66740Y-50891D01*
X66754Y-50896D01*
X66844Y-50891D01*
X66934Y-50891D01*
X66948Y-50885D01*
X66963Y-50884D01*
X67103Y-50826D01*
X67105Y-50820D01*
X67127Y-50811D01*
X67275Y-50663D01*
X67285Y-50640D01*
X67291Y-50638D01*
X67321Y-50554D01*
X67355Y-50471D01*
X67355Y-50456D01*
X67360Y-50441D01*
X67355Y-50352D01*
X67355Y-50262D01*
X67350Y-50248D01*
X67349Y-50233D01*
X67291Y-50093D01*
X67285Y-50091D01*
X67276Y-50069D01*
X67128Y-49921D01*
X67105Y-49911D01*
X67103Y-49905D01*
X67018Y-49875D01*
X67001Y-49868D01*
X67103Y-49826D01*
X67105Y-49820D01*
X67127Y-49811D01*
X67275Y-49663D01*
X67285Y-49640D01*
X67291Y-49638D01*
X67321Y-49554D01*
X67355Y-49471D01*
X67355Y-49456D01*
X67360Y-49441D01*
X67355Y-49352D01*
X67355Y-49262D01*
X67350Y-49248D01*
X67349Y-49233D01*
X67291Y-49093D01*
X67285Y-49091D01*
X67276Y-49069D01*
X67128Y-48921D01*
X67105Y-48911D01*
X67103Y-48905D01*
X67018Y-48875D01*
X67001Y-48868D01*
X67103Y-48826D01*
X67105Y-48820D01*
X67127Y-48811D01*
X67275Y-48663D01*
X67285Y-48640D01*
X67291Y-48638D01*
X67321Y-48554D01*
X67355Y-48471D01*
X67355Y-48456D01*
X67360Y-48441D01*
X67355Y-48352D01*
X67355Y-48262D01*
X67350Y-48248D01*
X67349Y-48233D01*
X67291Y-48093D01*
X67285Y-48091D01*
X67276Y-48069D01*
X67128Y-47921D01*
X67105Y-47911D01*
X67103Y-47905D01*
X67018Y-47875D01*
X67001Y-47868D01*
X67103Y-47826D01*
X67105Y-47820D01*
X67127Y-47811D01*
X67275Y-47663D01*
X67285Y-47640D01*
X67291Y-47638D01*
X67321Y-47554D01*
X67355Y-47471D01*
X67355Y-47456D01*
X67360Y-47441D01*
X67355Y-47352D01*
X67355Y-47262D01*
X67350Y-47248D01*
X67349Y-47233D01*
X67291Y-47093D01*
X67285Y-47091D01*
X67276Y-47069D01*
X67128Y-46921D01*
X67105Y-46911D01*
X67103Y-46905D01*
X67018Y-46875D01*
X67001Y-46868D01*
X67103Y-46826D01*
X67105Y-46820D01*
X67127Y-46811D01*
X67275Y-46663D01*
X67285Y-46640D01*
X67291Y-46638D01*
X67321Y-46554D01*
X67355Y-46471D01*
X67355Y-46456D01*
X67360Y-46441D01*
X67355Y-46352D01*
X67355Y-46262D01*
X67350Y-46248D01*
X67349Y-46233D01*
X67291Y-46093D01*
X67285Y-46091D01*
X67276Y-46069D01*
X67128Y-45921D01*
X67105Y-45911D01*
X67103Y-45905D01*
X67018Y-45875D01*
X67001Y-45868D01*
X67103Y-45826D01*
X67105Y-45820D01*
X67127Y-45811D01*
X67275Y-45663D01*
X67285Y-45640D01*
X67291Y-45638D01*
X67321Y-45554D01*
X67355Y-45471D01*
X67355Y-45456D01*
X67360Y-45441D01*
X67355Y-45352D01*
X67355Y-45262D01*
X67350Y-45248D01*
X67349Y-45233D01*
X67291Y-45093D01*
X67285Y-45091D01*
X67276Y-45069D01*
X67128Y-44921D01*
X67105Y-44911D01*
X67103Y-44905D01*
X67018Y-44875D01*
X67001Y-44868D01*
X67103Y-44826D01*
X67105Y-44820D01*
X67127Y-44811D01*
X67275Y-44663D01*
X67285Y-44640D01*
X67291Y-44638D01*
X67321Y-44554D01*
X67355Y-44471D01*
X67355Y-44456D01*
X67360Y-44441D01*
X67355Y-44352D01*
X67355Y-44262D01*
X67350Y-44248D01*
X67349Y-44233D01*
X67291Y-44093D01*
X67285Y-44091D01*
X67276Y-44069D01*
X67128Y-43921D01*
X67105Y-43911D01*
X67103Y-43905D01*
X67018Y-43875D01*
X67001Y-43868D01*
X67103Y-43826D01*
X67105Y-43820D01*
X67127Y-43811D01*
X67275Y-43663D01*
X67285Y-43640D01*
X67291Y-43638D01*
X67321Y-43554D01*
X67355Y-43471D01*
X67355Y-43456D01*
X67360Y-43441D01*
X67355Y-43352D01*
X67355Y-43262D01*
X67350Y-43248D01*
X67349Y-43233D01*
X67291Y-43093D01*
X67285Y-43091D01*
X67276Y-43069D01*
X67128Y-42921D01*
X67105Y-42911D01*
X67103Y-42905D01*
X67018Y-42875D01*
X67001Y-42868D01*
X67103Y-42826D01*
X67105Y-42820D01*
X67127Y-42811D01*
X67275Y-42663D01*
X67285Y-42640D01*
X67291Y-42638D01*
X67321Y-42554D01*
X67355Y-42471D01*
X67355Y-42456D01*
X67360Y-42441D01*
X67355Y-42352D01*
X67355Y-42262D01*
X67350Y-42248D01*
X67349Y-42233D01*
X67291Y-42093D01*
X67285Y-42091D01*
X67276Y-42069D01*
X67128Y-41921D01*
X67105Y-41911D01*
X67103Y-41905D01*
X67062Y-41891D01*
X67155Y-41891D01*
X67155Y-41891D01*
X67155Y-41891D01*
X67201Y-41872D01*
X67247Y-41853D01*
X67247Y-41853D01*
X67247Y-41852D01*
X67282Y-41817D01*
X67317Y-41782D01*
X67317Y-41782D01*
X67317Y-41782D01*
X67321Y-41773D01*
X68082Y-41773D01*
X68082Y-41773D01*
X68082Y-41773D01*
X68238Y-41742D01*
X68370Y-41654D01*
X69973Y-40051D01*
X69973Y-40051D01*
X69973Y-40051D01*
X70026Y-39972D01*
X70061Y-39919D01*
X70061Y-39919D01*
X70092Y-39763D01*
X70092Y-39763D01*
X70092Y-39763D01*
X70092Y-35925D01*
X70092Y-32452D01*
X70465Y-32079D01*
X70465Y-32079D01*
X70465Y-32079D01*
X70553Y-31947D01*
X70553Y-31947D01*
X70557Y-31929D01*
X70557Y-32081D01*
X70551Y-32086D01*
X70516Y-32121D01*
X70516Y-32121D01*
X70516Y-32121D01*
X70497Y-32167D01*
X70478Y-32213D01*
X70478Y-32213D01*
X70478Y-32213D01*
X70478Y-32295D01*
X70478Y-32312D01*
X70478Y-32903D01*
X70516Y-32995D01*
X70586Y-33066D01*
X70597Y-33070D01*
X70587Y-33075D01*
X70586Y-33075D01*
X70586Y-33075D01*
X70551Y-33110D01*
X70516Y-33145D01*
X70516Y-33145D01*
X70516Y-33145D01*
X70497Y-33191D01*
X70478Y-33237D01*
X70478Y-33237D01*
X70478Y-33237D01*
X70478Y-33319D01*
X70478Y-33336D01*
X70478Y-33927D01*
X70516Y-34019D01*
X70586Y-34090D01*
X70678Y-34128D01*
X70778Y-34128D01*
X71151Y-34128D01*
X71250Y-34128D01*
X71250Y-34128D01*
X71250Y-34128D01*
X71296Y-34109D01*
X71341Y-34090D01*
X71342Y-34090D01*
X71342Y-34090D01*
X71377Y-34055D01*
X71412Y-34020D01*
X71412Y-34019D01*
X71412Y-34019D01*
X71424Y-33990D01*
X71928Y-33990D01*
X71928Y-33990D01*
X71928Y-33990D01*
X71940Y-33987D01*
X71940Y-33987D01*
X72032Y-33988D01*
X72189Y-33923D01*
X72308Y-33804D01*
X72373Y-33647D01*
X72373Y-33478D01*
X72309Y-33322D01*
X72189Y-33202D01*
X72033Y-33138D01*
X71864Y-33137D01*
X71773Y-33175D01*
X71424Y-33175D01*
X71412Y-33145D01*
X71342Y-33075D01*
X71331Y-33070D01*
X71341Y-33066D01*
X71342Y-33066D01*
X71342Y-33066D01*
X71377Y-33031D01*
X71412Y-32996D01*
X71412Y-32995D01*
X71412Y-32995D01*
X71431Y-32949D01*
X71450Y-32904D01*
X71450Y-32904D01*
X71450Y-32903D01*
X71450Y-32822D01*
X71450Y-32804D01*
X71450Y-32213D01*
X71412Y-32121D01*
X71372Y-32081D01*
X71372Y-31952D01*
X71376Y-31947D01*
X71699Y-31947D01*
X71791Y-31909D01*
X71862Y-31839D01*
X71900Y-31747D01*
X71900Y-31725D01*
X71942Y-31767D01*
X71942Y-32047D01*
X71935Y-32086D01*
X71966Y-32242D01*
X72054Y-32374D01*
X72186Y-32463D01*
X72342Y-32494D01*
X72498Y-32463D01*
X72630Y-32374D01*
X72638Y-32366D01*
X72638Y-32366D01*
X72638Y-32366D01*
X72691Y-32287D01*
X72726Y-32234D01*
X72726Y-32234D01*
X72757Y-32078D01*
X72757Y-31805D01*
X72933Y-31805D01*
X73057Y-31780D01*
X73057Y-51994D01*
X73057Y-51994D01*
G37*
G54D24*
X73057Y-51994D02*
X57903Y-51994D01*
X57907Y-51982D01*
X57972Y-51982D01*
X58128Y-51951D01*
X58260Y-51862D01*
X58348Y-51730D01*
X58379Y-51574D01*
X58348Y-51418D01*
X58293Y-51335D01*
X58350Y-51393D01*
X58350Y-51393D01*
X58448Y-51458D01*
X58562Y-51481D01*
X61515Y-51481D01*
X61515Y-51481D01*
X61630Y-51458D01*
X61630Y-51458D01*
X61727Y-51393D01*
X62202Y-50918D01*
X62205Y-50918D01*
X62219Y-50923D01*
X62309Y-50918D01*
X62399Y-50918D01*
X62413Y-50913D01*
X62428Y-50912D01*
X62568Y-50854D01*
X62569Y-50848D01*
X62592Y-50839D01*
X62740Y-50691D01*
X62749Y-50668D01*
X62755Y-50666D01*
X62785Y-50581D01*
X62792Y-50564D01*
X62834Y-50666D01*
X62840Y-50668D01*
X62849Y-50690D01*
X62887Y-50728D01*
X62887Y-50992D01*
X62887Y-50992D01*
X62918Y-51148D01*
X63007Y-51280D01*
X63097Y-51370D01*
X63229Y-51459D01*
X63385Y-51490D01*
X63541Y-51459D01*
X63673Y-51370D01*
X63762Y-51238D01*
X63793Y-51082D01*
X63762Y-50926D01*
X63702Y-50837D01*
X63702Y-50801D01*
X64370Y-50801D01*
X64370Y-50801D01*
X64370Y-50801D01*
X64526Y-50770D01*
X64658Y-50681D01*
X66134Y-49205D01*
X66134Y-49205D01*
X66134Y-49205D01*
X66222Y-49073D01*
X66222Y-49073D01*
X66247Y-48948D01*
X66253Y-48917D01*
X66253Y-48917D01*
X66253Y-48917D01*
X66253Y-43700D01*
X66253Y-43700D01*
X66253Y-43700D01*
X66247Y-43669D01*
X66222Y-43544D01*
X66222Y-43544D01*
X66134Y-43412D01*
X66134Y-43412D01*
X65658Y-42936D01*
X65663Y-42913D01*
X65663Y-42320D01*
X65788Y-42404D01*
X65944Y-42435D01*
X66100Y-42404D01*
X66233Y-42315D01*
X66318Y-42229D01*
X66305Y-42261D01*
X66305Y-42276D01*
X66300Y-42290D01*
X66305Y-42380D01*
X66305Y-42470D01*
X66311Y-42483D01*
X66312Y-42498D01*
X66370Y-42638D01*
X66376Y-42640D01*
X66385Y-42663D01*
X66532Y-42810D01*
X66556Y-42820D01*
X66557Y-42826D01*
X66642Y-42856D01*
X66659Y-42863D01*
X66557Y-42905D01*
X66556Y-42911D01*
X66533Y-42920D01*
X66385Y-43068D01*
X66376Y-43091D01*
X66370Y-43093D01*
X66340Y-43178D01*
X66305Y-43261D01*
X66305Y-43276D01*
X66300Y-43290D01*
X66305Y-43380D01*
X66305Y-43470D01*
X66311Y-43483D01*
X66312Y-43498D01*
X66370Y-43638D01*
X66376Y-43640D01*
X66385Y-43663D01*
X66532Y-43810D01*
X66556Y-43820D01*
X66557Y-43826D01*
X66642Y-43856D01*
X66659Y-43863D01*
X66557Y-43905D01*
X66556Y-43911D01*
X66533Y-43920D01*
X66385Y-44068D01*
X66376Y-44091D01*
X66370Y-44093D01*
X66340Y-44178D01*
X66305Y-44261D01*
X66305Y-44276D01*
X66300Y-44290D01*
X66305Y-44380D01*
X66305Y-44470D01*
X66311Y-44483D01*
X66312Y-44498D01*
X66370Y-44638D01*
X66376Y-44640D01*
X66385Y-44663D01*
X66532Y-44810D01*
X66556Y-44820D01*
X66557Y-44826D01*
X66642Y-44856D01*
X66659Y-44863D01*
X66557Y-44905D01*
X66556Y-44911D01*
X66533Y-44920D01*
X66385Y-45068D01*
X66376Y-45091D01*
X66370Y-45093D01*
X66340Y-45178D01*
X66305Y-45261D01*
X66305Y-45276D01*
X66300Y-45290D01*
X66305Y-45380D01*
X66305Y-45470D01*
X66311Y-45483D01*
X66312Y-45498D01*
X66370Y-45638D01*
X66376Y-45640D01*
X66385Y-45663D01*
X66532Y-45810D01*
X66556Y-45820D01*
X66557Y-45826D01*
X66642Y-45856D01*
X66659Y-45863D01*
X66557Y-45905D01*
X66556Y-45911D01*
X66533Y-45920D01*
X66385Y-46068D01*
X66376Y-46091D01*
X66370Y-46093D01*
X66340Y-46178D01*
X66305Y-46261D01*
X66305Y-46276D01*
X66300Y-46290D01*
X66305Y-46380D01*
X66305Y-46470D01*
X66311Y-46483D01*
X66312Y-46498D01*
X66370Y-46638D01*
X66376Y-46640D01*
X66385Y-46663D01*
X66532Y-46810D01*
X66556Y-46820D01*
X66557Y-46826D01*
X66642Y-46856D01*
X66659Y-46863D01*
X66557Y-46905D01*
X66556Y-46911D01*
X66533Y-46920D01*
X66385Y-47068D01*
X66376Y-47091D01*
X66370Y-47093D01*
X66340Y-47178D01*
X66305Y-47261D01*
X66305Y-47276D01*
X66300Y-47290D01*
X66305Y-47380D01*
X66305Y-47470D01*
X66311Y-47483D01*
X66312Y-47498D01*
X66370Y-47638D01*
X66376Y-47640D01*
X66385Y-47663D01*
X66532Y-47810D01*
X66556Y-47820D01*
X66557Y-47826D01*
X66642Y-47856D01*
X66659Y-47863D01*
X66557Y-47905D01*
X66556Y-47911D01*
X66533Y-47920D01*
X66385Y-48068D01*
X66376Y-48091D01*
X66370Y-48093D01*
X66340Y-48178D01*
X66305Y-48261D01*
X66305Y-48276D01*
X66300Y-48290D01*
X66305Y-48380D01*
X66305Y-48470D01*
X66311Y-48483D01*
X66312Y-48498D01*
X66370Y-48638D01*
X66376Y-48640D01*
X66385Y-48663D01*
X66532Y-48810D01*
X66556Y-48820D01*
X66557Y-48826D01*
X66642Y-48856D01*
X66659Y-48863D01*
X66557Y-48905D01*
X66556Y-48911D01*
X66533Y-48920D01*
X66385Y-49068D01*
X66376Y-49091D01*
X66370Y-49093D01*
X66340Y-49178D01*
X66305Y-49261D01*
X66305Y-49276D01*
X66300Y-49290D01*
X66305Y-49380D01*
X66305Y-49470D01*
X66311Y-49483D01*
X66312Y-49498D01*
X66370Y-49638D01*
X66376Y-49640D01*
X66385Y-49663D01*
X66532Y-49810D01*
X66556Y-49820D01*
X66557Y-49826D01*
X66642Y-49856D01*
X66659Y-49863D01*
X66557Y-49905D01*
X66556Y-49911D01*
X66533Y-49920D01*
X66385Y-50068D01*
X66376Y-50091D01*
X66370Y-50093D01*
X66340Y-50178D01*
X66305Y-50261D01*
X66305Y-50276D01*
X66300Y-50290D01*
X66305Y-50380D01*
X66305Y-50470D01*
X66311Y-50483D01*
X66312Y-50498D01*
X66370Y-50638D01*
X66376Y-50640D01*
X66385Y-50663D01*
X66532Y-50810D01*
X66556Y-50820D01*
X66557Y-50826D01*
X66642Y-50856D01*
X66725Y-50891D01*
X66740Y-50891D01*
X66754Y-50896D01*
X66844Y-50891D01*
X66934Y-50891D01*
X66948Y-50885D01*
X66963Y-50884D01*
X67103Y-50826D01*
X67105Y-50820D01*
X67127Y-50811D01*
X67275Y-50663D01*
X67285Y-50640D01*
X67291Y-50638D01*
X67321Y-50554D01*
X67355Y-50471D01*
X67355Y-50456D01*
X67360Y-50441D01*
X67355Y-50352D01*
X67355Y-50262D01*
X67350Y-50248D01*
X67349Y-50233D01*
X67291Y-50093D01*
X67285Y-50091D01*
X67276Y-50069D01*
X67128Y-49921D01*
X67105Y-49911D01*
X67103Y-49905D01*
X67018Y-49875D01*
X67001Y-49868D01*
X67103Y-49826D01*
X67105Y-49820D01*
X67127Y-49811D01*
X67275Y-49663D01*
X67285Y-49640D01*
X67291Y-49638D01*
X67321Y-49554D01*
X67355Y-49471D01*
X67355Y-49456D01*
X67360Y-49441D01*
X67355Y-49352D01*
X67355Y-49262D01*
X67350Y-49248D01*
X67349Y-49233D01*
X67291Y-49093D01*
X67285Y-49091D01*
X67276Y-49069D01*
X67128Y-48921D01*
X67105Y-48911D01*
X67103Y-48905D01*
X67018Y-48875D01*
X67001Y-48868D01*
X67103Y-48826D01*
X67105Y-48820D01*
X67127Y-48811D01*
X67275Y-48663D01*
X67285Y-48640D01*
X67291Y-48638D01*
X67321Y-48554D01*
X67355Y-48471D01*
X67355Y-48456D01*
X67360Y-48441D01*
X67355Y-48352D01*
X67355Y-48262D01*
X67350Y-48248D01*
X67349Y-48233D01*
X67291Y-48093D01*
X67285Y-48091D01*
X67276Y-48069D01*
X67128Y-47921D01*
X67105Y-47911D01*
X67103Y-47905D01*
X67018Y-47875D01*
X67001Y-47868D01*
X67103Y-47826D01*
X67105Y-47820D01*
X67127Y-47811D01*
X67275Y-47663D01*
X67285Y-47640D01*
X67291Y-47638D01*
X67321Y-47554D01*
X67355Y-47471D01*
X67355Y-47456D01*
X67360Y-47441D01*
X67355Y-47352D01*
X67355Y-47262D01*
X67350Y-47248D01*
X67349Y-47233D01*
X67291Y-47093D01*
X67285Y-47091D01*
X67276Y-47069D01*
X67128Y-46921D01*
X67105Y-46911D01*
X67103Y-46905D01*
X67018Y-46875D01*
X67001Y-46868D01*
X67103Y-46826D01*
X67105Y-46820D01*
X67127Y-46811D01*
X67275Y-46663D01*
X67285Y-46640D01*
X67291Y-46638D01*
X67321Y-46554D01*
X67355Y-46471D01*
X67355Y-46456D01*
X67360Y-46441D01*
X67355Y-46352D01*
X67355Y-46262D01*
X67350Y-46248D01*
X67349Y-46233D01*
X67291Y-46093D01*
X67285Y-46091D01*
X67276Y-46069D01*
X67128Y-45921D01*
X67105Y-45911D01*
X67103Y-45905D01*
X67018Y-45875D01*
X67001Y-45868D01*
X67103Y-45826D01*
X67105Y-45820D01*
X67127Y-45811D01*
X67275Y-45663D01*
X67285Y-45640D01*
X67291Y-45638D01*
X67321Y-45554D01*
X67355Y-45471D01*
X67355Y-45456D01*
X67360Y-45441D01*
X67355Y-45352D01*
X67355Y-45262D01*
X67350Y-45248D01*
X67349Y-45233D01*
X67291Y-45093D01*
X67285Y-45091D01*
X67276Y-45069D01*
X67128Y-44921D01*
X67105Y-44911D01*
X67103Y-44905D01*
X67018Y-44875D01*
X67001Y-44868D01*
X67103Y-44826D01*
X67105Y-44820D01*
X67127Y-44811D01*
X67275Y-44663D01*
X67285Y-44640D01*
X67291Y-44638D01*
X67321Y-44554D01*
X67355Y-44471D01*
X67355Y-44456D01*
X67360Y-44441D01*
X67355Y-44352D01*
X67355Y-44262D01*
X67350Y-44248D01*
X67349Y-44233D01*
X67291Y-44093D01*
X67285Y-44091D01*
X67276Y-44069D01*
X67128Y-43921D01*
X67105Y-43911D01*
X67103Y-43905D01*
X67018Y-43875D01*
X67001Y-43868D01*
X67103Y-43826D01*
X67105Y-43820D01*
X67127Y-43811D01*
X67275Y-43663D01*
X67285Y-43640D01*
X67291Y-43638D01*
X67321Y-43554D01*
X67355Y-43471D01*
X67355Y-43456D01*
X67360Y-43441D01*
X67355Y-43352D01*
X67355Y-43262D01*
X67350Y-43248D01*
X67349Y-43233D01*
X67291Y-43093D01*
X67285Y-43091D01*
X67276Y-43069D01*
X67128Y-42921D01*
X67105Y-42911D01*
X67103Y-42905D01*
X67018Y-42875D01*
X67001Y-42868D01*
X67103Y-42826D01*
X67105Y-42820D01*
X67127Y-42811D01*
X67275Y-42663D01*
X67285Y-42640D01*
X67291Y-42638D01*
X67321Y-42554D01*
X67355Y-42471D01*
X67355Y-42456D01*
X67360Y-42441D01*
X67355Y-42352D01*
X67355Y-42262D01*
X67350Y-42248D01*
X67349Y-42233D01*
X67291Y-42093D01*
X67285Y-42091D01*
X67276Y-42069D01*
X67128Y-41921D01*
X67105Y-41911D01*
X67103Y-41905D01*
X67062Y-41891D01*
X67155Y-41891D01*
X67155Y-41891D01*
X67155Y-41891D01*
X67201Y-41872D01*
X67247Y-41853D01*
X67247Y-41853D01*
X67247Y-41852D01*
X67282Y-41817D01*
X67317Y-41782D01*
X67317Y-41782D01*
X67317Y-41782D01*
X67321Y-41773D01*
X68082Y-41773D01*
X68082Y-41773D01*
X68082Y-41773D01*
X68238Y-41742D01*
X68370Y-41654D01*
X69973Y-40051D01*
X69973Y-40051D01*
X69973Y-40051D01*
X70026Y-39972D01*
X70061Y-39919D01*
X70061Y-39919D01*
X70092Y-39763D01*
X70092Y-39763D01*
X70092Y-39763D01*
X70092Y-35925D01*
X70092Y-32452D01*
X70465Y-32079D01*
X70465Y-32079D01*
X70465Y-32079D01*
X70553Y-31947D01*
X70553Y-31947D01*
X70557Y-31929D01*
X70557Y-32081D01*
X70551Y-32086D01*
X70516Y-32121D01*
X70516Y-32121D01*
X70516Y-32121D01*
X70497Y-32167D01*
X70478Y-32213D01*
X70478Y-32213D01*
X70478Y-32213D01*
X70478Y-32295D01*
X70478Y-32312D01*
X70478Y-32903D01*
X70516Y-32995D01*
X70586Y-33066D01*
X70597Y-33070D01*
X70587Y-33075D01*
X70586Y-33075D01*
X70586Y-33075D01*
X70551Y-33110D01*
X70516Y-33145D01*
X70516Y-33145D01*
X70516Y-33145D01*
X70497Y-33191D01*
X70478Y-33237D01*
X70478Y-33237D01*
X70478Y-33237D01*
X70478Y-33319D01*
X70478Y-33336D01*
X70478Y-33927D01*
X70516Y-34019D01*
X70586Y-34090D01*
X70678Y-34128D01*
X70778Y-34128D01*
X71151Y-34128D01*
X71250Y-34128D01*
X71250Y-34128D01*
X71250Y-34128D01*
X71296Y-34109D01*
X71341Y-34090D01*
X71342Y-34090D01*
X71342Y-34090D01*
X71377Y-34055D01*
X71412Y-34020D01*
X71412Y-34019D01*
X71412Y-34019D01*
X71424Y-33990D01*
X71928Y-33990D01*
X71928Y-33990D01*
X71928Y-33990D01*
X71940Y-33987D01*
X71940Y-33987D01*
X72032Y-33988D01*
X72189Y-33923D01*
X72308Y-33804D01*
X72373Y-33647D01*
X72373Y-33478D01*
X72309Y-33322D01*
X72189Y-33202D01*
X72033Y-33138D01*
X71864Y-33137D01*
X71773Y-33175D01*
X71424Y-33175D01*
X71412Y-33145D01*
X71342Y-33075D01*
X71331Y-33070D01*
X71341Y-33066D01*
X71342Y-33066D01*
X71342Y-33066D01*
X71377Y-33031D01*
X71412Y-32996D01*
X71412Y-32995D01*
X71412Y-32995D01*
X71431Y-32949D01*
X71450Y-32904D01*
X71450Y-32904D01*
X71450Y-32903D01*
X71450Y-32822D01*
X71450Y-32804D01*
X71450Y-32213D01*
X71412Y-32121D01*
X71372Y-32081D01*
X71372Y-31952D01*
X71376Y-31947D01*
X71699Y-31947D01*
X71791Y-31909D01*
X71862Y-31839D01*
X71900Y-31747D01*
X71900Y-31725D01*
X71942Y-31767D01*
X71942Y-32047D01*
X71935Y-32086D01*
X71966Y-32242D01*
X72054Y-32374D01*
X72186Y-32463D01*
X72342Y-32494D01*
X72498Y-32463D01*
X72630Y-32374D01*
X72638Y-32366D01*
X72638Y-32366D01*
X72638Y-32366D01*
X72691Y-32287D01*
X72726Y-32234D01*
X72726Y-32234D01*
X72757Y-32078D01*
X72757Y-31805D01*
X72933Y-31805D01*
X73057Y-31780D01*
X73057Y-51994D01*
M02*
